<?xml version="1.0" standalone="no"?>
<!DOCTYPE svg PUBLIC "-//W3C//DTD SVG 1.1//EN"
	"http://www.w3.org/Graphics/SVG/1.1/DTD/svg11.dtd">
<svg xmlns="http://www.w3.org/2000/svg" version="1.1"
	xmlns:xlink="http://www.w3.org/1999/xlink"
	color="black"
	width="1208.60px" height="442.00px">
<style type="text/css">
.fill {fill: currentColor}
.stroke {stroke: currentColor; fill: none}
text{white-space: pre}
</style>
<title>../src/torus/title_no_25_page_1.abc (2) tune 1</title>
<!-- Creator: abcm2ps-8.14.6 -->
<!-- CreationDate: Jan 11, 2023 20:08 -->
<!-- CommandLine: -g ../src/torus/title_no_25_page_1.abc -O ../src/torus/title_no_25_page_1.svg -->
<g stroke-width="0.70" style="font:italic 14.00px Times">
<text x="10.00" y="28.00">Procedurally Generated</text>
<!-- title: Torus:Taurus Tune -->
</g>
<g stroke-width="0.70" style="font:20.00px Times">
<text x="604.30" y="28.00" text-anchor="middle">Torus:Taurus Tune</text>
</g>
<g stroke-width="0.70" style="font:italic 14.00px Times">
<text x="1198.60" y="28.00" text-anchor="end">(Sid.)</text>
<text x="1198.60" y="43.40" text-anchor="end">Jeff Minter</text>
<!-- subtitle: 25 of 100,000,000,000,000 -->
</g>
<g stroke-width="0.70" style="font:16.00px Times">
<text x="604.30" y="64.00" text-anchor="middle">25 of 100,000,000,000,000</text>
</g>
<g stroke-width="0.70" style="font:bold 13.00px Times">
<text x="38.28" y="224.90" text-anchor="middle">Voice 3</text>
<text x="38.28" y="166.90" text-anchor="middle">Voice 2</text>
<text x="38.28" y="108.90" text-anchor="middle">Voice 1</text>
<path class="stroke" stroke-width="1"
	d="M66.48 233.00v-140.00"/>
<path class="stroke" stroke-width="1"
	d="M250.08 175.00v-24.00"/>
<path class="stroke" stroke-width="1"
	d="M250.08 233.00v-58.00"/>
<path class="stroke" stroke-width="1"
	d="M400.98 175.00v-24.00"/>
<path class="stroke" stroke-width="1"
	d="M400.98 233.00v-58.00"/>
<path class="stroke" stroke-width="1"
	d="M551.88 175.00v-24.00"/>
<path class="stroke" stroke-width="1"
	d="M551.88 233.00v-58.00"/>
<path class="stroke" stroke-width="1"
	d="M702.78 117.00v-24.00"/>
<path class="stroke" stroke-width="1"
	d="M702.78 175.00v-58.00"/>
<path class="stroke" stroke-width="1"
	d="M702.78 233.00v-58.00"/>
<path class="stroke" stroke-width="1"
	d="M718.78 117.00v-24.00"/>
<path class="stroke" stroke-width="1"
	d="M734.78 117.00v-24.00"/>
<path class="stroke" stroke-width="1"
	d="M750.78 117.00v-24.00"/>
<path class="stroke" stroke-width="1"
	d="M896.78 175.00v-24.00"/>
<path class="stroke" stroke-width="1"
	d="M896.78 233.00v-58.00"/>
<path class="stroke" stroke-width="1"
	d="M1047.68 175.00v-24.00"/>
<path class="stroke" stroke-width="1"
	d="M1047.68 233.00v-58.00"/>
<path class="stroke" stroke-width="1"
	d="M1198.58 175.00v-24.00"/>
<path class="stroke" stroke-width="1"
	d="M1198.58 233.00v-58.00"/>
<path d="m66.48 117.00
	h1132.10
	M66.48 111.00
	h1132.10
	M66.48 105.00
	h1132.10
	M66.48 99.00
	h1132.10
	M66.48 93.00
	h1132.10
	" class="stroke"/>
<path d="m66.48 175.00
	h1132.10
	M66.48 169.00
	h1132.10
	M66.48 163.00
	h1132.10
	M66.48 157.00
	h1132.10
	M66.48 151.00
	h1132.10
	" class="stroke"/>
<path d="m66.48 233.00
	h1132.10
	M66.48 227.00
	h1132.10
	M66.48 221.00
	h1132.10
	M66.48 215.00
	h1132.10
	M66.48 209.00
	h1132.10
	" class="stroke"/>
<defs>
<path id="utclef" class="fill" d="m-50 -90
	c-72 -41 -72 -158 52 -188
	150 -10 220 188 90 256
	-114 52 -275 0 -293 -136
	-15 -181 93 -229 220 -334
	88 -87 79 -133 62 -210
	-51 33 -94 105 -89 186
	17 267 36 374 49 574
	6 96 -19 134 -77 135
	-80 1 -126 -93 -61 -133
	85 -41 133 101 31 105
	23 17 92 37 90 -92
	-10 -223 -39 -342 -50 -617
	0 -90 0 -162 96 -232
	56 72 63 230 22 289
	-74 106 -257 168 -255 316
	9 153 148 185 252 133
	86 -65 29 -192 -80 -176
	-71 12 -105 67 -59 124"/>
<use id="tclef" transform="translate(0,6) scale(0.045)"
	xlink:href="#utclef"/>
</defs>
<use x="78.48" y="111.00" xlink:href="#tclef"/>
<defs>
<path id="usharp" class="fill" d="
	m136 -702
	v890
	h32
	v-890
	m128 840
	h32
	v-888
	h-32
	m-232 286
	v116
	l338 -96
	v-116
	m-338 442
	v116
	l338 -98
	v-114"/>
<use id="sh0" transform="translate(-4,5) scale(0.018)"
	xlink:href="#usharp"/>
</defs>
<use x="93.48" y="93.00" xlink:href="#sh0"/>
<use x="98.98" y="102.00" xlink:href="#sh0"/>
<defs>
<path id="HD" class="fill" d="m-2.7 -1.4
	c1.5 -2.8 6.9 0 5.3 2.7
	-1.5 2.8 -6.9 0 -5.3 -2.7
	m8.3 1.4
	c0 -1.5 -2.2 -3 -5.6 -3
	-3.4 0 -5.6 1.5 -5.6 3
	0 1.5 2.2 3 5.6 3
	3.4 0 5.6 -1.5 5.6 -3"/>
<g id="HDD">
	<use xlink:href="#HD"/>
	<path d="m-6 -4v8m12 0v-8" class="stroke"/>
</g>
</defs>
<use x="119.48" y="120.00" xlink:href="#HDD"/>
<use x="766.18" y="120.00" xlink:href="#HDD"/>
<use x="78.48" y="169.00" xlink:href="#tclef"/>
<use x="93.48" y="151.00" xlink:href="#sh0"/>
<use x="98.98" y="160.00" xlink:href="#sh0"/>
<defs>
<path id="Hd" class="fill" d="m3 -1.6
	c-1 -1.8 -7 1.4 -6 3.2
	1 1.8 7 -1.4 6 -3.2
	m0.5 -0.3
	c2 3.8 -5 7.6 -7 3.8
	-2 -3.8 5 -7.6 7 -3.8"/>
</defs>
<use x="118.48" y="169.00" xlink:href="#Hd"/>
<path d="M121.98 169.00v-21.00" class="stroke"/>
<use x="269.38" y="169.00" xlink:href="#Hd"/>
<path d="M272.88 169.00v-21.00" class="stroke"/>
<use x="420.28" y="172.00" xlink:href="#Hd"/>
<path d="M423.78 172.00v-21.00" class="stroke"/>
<use x="571.18" y="163.00" xlink:href="#Hd"/>
<path d="M574.68 163.00v-21.00" class="stroke"/>
<use x="765.18" y="169.00" xlink:href="#Hd"/>
<path d="M768.68 169.00v-21.00" class="stroke"/>
<use x="916.08" y="169.00" xlink:href="#Hd"/>
<path d="M919.58 169.00v-21.00" class="stroke"/>
<use x="1067.08" y="172.00" xlink:href="#Hd"/>
<path d="M1070.58 172.00v-21.00" class="stroke"/>
<use x="78.48" y="227.00" xlink:href="#tclef"/>
<use x="93.48" y="209.00" xlink:href="#sh0"/>
<use x="98.98" y="218.00" xlink:href="#sh0"/>
<path class="fill"
	d="M114.68 243.20l105.20 0.00v-3.20l-105.20 -0.00"/>
<defs>
<ellipse id="hd" rx="4.1" ry="2.9"
	transform="rotate(-20)" class="fill"/>
</defs>
<use x="118.48" y="218.00" xlink:href="#hd"/>
<path d="M114.98 218.00v24.20" class="stroke"/>
<use x="153.28" y="218.00" xlink:href="#hd"/>
<path d="M149.78 218.00v24.20" class="stroke"/>
<use x="188.08" y="224.00" xlink:href="#hd"/>
<use x="179.08" y="224.00" xlink:href="#sh0"/>
<path d="M184.58 224.00v18.20" class="stroke"/>
<use x="222.98" y="212.00" xlink:href="#hd"/>
<path d="M219.48 212.00v30.20" class="stroke"/>
<path class="fill"
	d="M265.58 243.20l105.20 0.00v-3.20l-105.20 -0.00"/>
<use x="269.38" y="218.00" xlink:href="#hd"/>
<path d="M265.88 218.00v24.20" class="stroke"/>
<use x="304.18" y="218.00" xlink:href="#hd"/>
<path d="M300.68 218.00v24.20" class="stroke"/>
<use x="339.08" y="224.00" xlink:href="#hd"/>
<use x="330.08" y="224.00" xlink:href="#sh0"/>
<path d="M335.58 224.00v18.20" class="stroke"/>
<use x="373.88" y="212.00" xlink:href="#hd"/>
<path d="M370.38 212.00v30.20" class="stroke"/>
<path class="fill"
	d="M416.48 248.90l105.20 -4.00v-3.20l-105.20 4.00"/>
<use x="420.28" y="224.00" xlink:href="#hd"/>
<use x="411.28" y="224.00" xlink:href="#sh0"/>
<path d="M416.78 224.00v23.90" class="stroke"/>
<use x="455.18" y="224.00" xlink:href="#hd"/>
<use x="446.18" y="224.00" xlink:href="#sh0"/>
<path d="M451.68 224.00v22.50" class="stroke"/>
<use x="489.98" y="227.00" xlink:href="#hd"/>
<use x="480.98" y="227.00" xlink:href="#sh0"/>
<path d="M486.48 227.00v18.20" class="stroke"/>
<use x="524.78" y="215.00" xlink:href="#hd"/>
<path d="M521.28 215.00v28.90" class="stroke"/>
<path class="fill"
	d="M567.38 233.20l105.20 0.00v-3.20l-105.20 -0.00"/>
<use x="571.18" y="212.00" xlink:href="#hd"/>
<path d="M567.68 212.00v20.20" class="stroke"/>
<use x="606.08" y="212.00" xlink:href="#hd"/>
<path d="M602.58 212.00v20.20" class="stroke"/>
<use x="640.88" y="215.00" xlink:href="#hd"/>
<path d="M637.38 215.00v17.20" class="stroke"/>
<use x="675.68" y="206.00" xlink:href="#hd"/>
<use x="666.68" y="206.00" xlink:href="#sh0"/>
<path d="M672.18 206.00v26.20" class="stroke"/>
<path class="fill"
	d="M761.38 243.20l105.20 0.00v-3.20l-105.20 -0.00"/>
<use x="765.18" y="218.00" xlink:href="#hd"/>
<path d="M761.68 218.00v24.20" class="stroke"/>
<use x="799.98" y="218.00" xlink:href="#hd"/>
<path d="M796.48 218.00v24.20" class="stroke"/>
<use x="834.88" y="224.00" xlink:href="#hd"/>
<use x="825.88" y="224.00" xlink:href="#sh0"/>
<path d="M831.38 224.00v18.20" class="stroke"/>
<use x="869.68" y="212.00" xlink:href="#hd"/>
<path d="M866.18 212.00v30.20" class="stroke"/>
<path class="fill"
	d="M912.28 243.20l105.20 0.00v-3.20l-105.20 -0.00"/>
<use x="916.08" y="218.00" xlink:href="#hd"/>
<path d="M912.58 218.00v24.20" class="stroke"/>
<use x="950.98" y="218.00" xlink:href="#hd"/>
<path d="M947.48 218.00v24.20" class="stroke"/>
<use x="985.78" y="224.00" xlink:href="#hd"/>
<use x="976.78" y="224.00" xlink:href="#sh0"/>
<path d="M982.28 224.00v18.20" class="stroke"/>
<use x="1020.58" y="212.00" xlink:href="#hd"/>
<path d="M1017.08 212.00v30.20" class="stroke"/>
<path class="fill"
	d="M1063.18 248.90l105.20 -4.00v-3.20l-105.20 4.00"/>
<use x="1067.08" y="224.00" xlink:href="#hd"/>
<use x="1058.08" y="224.00" xlink:href="#sh0"/>
<path d="M1063.58 224.00v23.90" class="stroke"/>
<use x="1101.88" y="224.00" xlink:href="#hd"/>
<use x="1092.88" y="224.00" xlink:href="#sh0"/>
<path d="M1098.38 224.00v22.50" class="stroke"/>
<use x="1136.68" y="227.00" xlink:href="#hd"/>
<use x="1127.68" y="227.00" xlink:href="#sh0"/>
<path d="M1133.18 227.00v18.20" class="stroke"/>
<use x="1171.48" y="215.00" xlink:href="#hd"/>
<path d="M1167.98 215.00v28.90" class="stroke"/>
</g>
<g stroke-width="0.70" style="font:bold 13.00px Times">
<path class="stroke" stroke-width="1"
	d="M10.00 419.00v-140.00"/>
<path class="stroke" stroke-width="1"
	d="M161.00 303.00v-24.00"/>
<path class="stroke" stroke-width="1"
	d="M161.00 361.00v-58.00"/>
<path class="stroke" stroke-width="1"
	d="M161.00 419.00v-58.00"/>
<path class="stroke" stroke-width="1"
	d="M177.00 303.00v-24.00"/>
<path class="stroke" stroke-width="1"
	d="M193.00 303.00v-24.00"/>
<path class="stroke" stroke-width="1"
	d="M209.00 303.00v-24.00"/>
<path class="stroke" stroke-width="1"
	d="M323.10 361.00v-24.00"/>
<path class="stroke" stroke-width="1"
	d="M323.10 419.00v-58.00"/>
<path class="stroke" stroke-width="1"
	d="M441.70 361.00v-24.00"/>
<path class="stroke" stroke-width="1"
	d="M441.70 419.00v-58.00"/>
<path class="stroke" stroke-width="1"
	d="M561.40 361.00v-24.00"/>
<path class="stroke" stroke-width="1"
	d="M561.40 419.00v-58.00"/>
<path class="stroke" stroke-width="1"
	d="M676.10 303.00v-24.00"/>
<path class="stroke" stroke-width="1"
	d="M676.10 361.00v-58.00"/>
<path class="stroke" stroke-width="1"
	d="M676.10 419.00v-58.00"/>
<path class="stroke" stroke-width="1"
	d="M692.10 303.00v-24.00"/>
<path class="stroke" stroke-width="1"
	d="M708.10 303.00v-24.00"/>
<path class="stroke" stroke-width="1"
	d="M724.10 303.00v-24.00"/>
<path class="stroke" stroke-width="1"
	d="M849.50 361.00v-24.00"/>
<path class="stroke" stroke-width="1"
	d="M849.50 419.00v-58.00"/>
<path class="stroke" stroke-width="1"
	d="M964.20 361.00v-24.00"/>
<path class="stroke" stroke-width="1"
	d="M964.20 419.00v-58.00"/>
<path class="stroke" stroke-width="1"
	d="M1079.00 361.00v-24.00"/>
<path class="stroke" stroke-width="1"
	d="M1079.00 419.00v-58.00"/>
<path class="stroke" stroke-width="1"
	d="M1198.60 303.00v-24.00"/>
<path class="stroke" stroke-width="1"
	d="M1198.60 361.00v-58.00"/>
<path class="stroke" stroke-width="1"
	d="M1198.60 419.00v-58.00"/>
<defs>
<g id="rdots" class="fill">
	<circle cx="0" cy="-9" r="1.2"/>
	<circle cx="0" cy="-15" r="1.2"/>
</g>
</defs>
<use x="1194.60" y="419.00" xlink:href="#rdots"/>
<path class="stroke" stroke-width="1"
	d="M1190.60 419.00v-58.00"/>
<path d="m10.00 303.00
	h1188.60
	M10.00 297.00
	h1188.60
	M10.00 291.00
	h1188.60
	M10.00 285.00
	h1188.60
	M10.00 279.00
	h1188.60
	" class="stroke"/>
<path d="m10.00 361.00
	h1188.60
	M10.00 355.00
	h1188.60
	M10.00 349.00
	h1188.60
	M10.00 343.00
	h1188.60
	M10.00 337.00
	h1188.60
	" class="stroke"/>
<path d="m10.00 419.00
	h1188.60
	M10.00 413.00
	h1188.60
	M10.00 407.00
	h1188.60
	M10.00 401.00
	h1188.60
	M10.00 395.00
	h1188.60
	" class="stroke"/>
<use x="22.00" y="297.00" xlink:href="#tclef"/>
<use x="37.00" y="279.00" xlink:href="#sh0"/>
<use x="42.50" y="288.00" xlink:href="#sh0"/>
<defs>
<path id="hl1" class="stroke" d="m-7 0h14"/>
</defs>
<use x="224.10" y="309.00" xlink:href="#hl1"/>
<use x="224.10" y="309.00" xlink:href="#HDD"/>
<use x="750.50" y="300.00" xlink:href="#HDD"/>
<use x="734.70" y="300.00" xlink:href="#sh0"/>
<use x="22.00" y="355.00" xlink:href="#tclef"/>
<use x="37.00" y="337.00" xlink:href="#sh0"/>
<use x="42.50" y="346.00" xlink:href="#sh0"/>
<use x="61.00" y="349.00" xlink:href="#Hd"/>
<path d="M64.50 349.00v-21.00" class="stroke"/>
<use x="223.10" y="358.00" xlink:href="#Hd"/>
<path d="M226.60 358.00v-21.00" class="stroke"/>
<use x="341.70" y="358.00" xlink:href="#Hd"/>
<path d="M345.20 358.00v-21.00" class="stroke"/>
<use x="461.40" y="364.00" xlink:href="#Hd"/>
<use x="451.40" y="364.00" xlink:href="#sh0"/>
<path d="M464.90 364.00v-21.00" class="stroke"/>
<use x="576.10" y="352.00" xlink:href="#Hd"/>
<path d="M579.60 352.00v-21.00" class="stroke"/>
<use x="749.50" y="349.00" xlink:href="#Hd"/>
<path d="M753.00 349.00v-21.00" class="stroke"/>
<use x="864.20" y="349.00" xlink:href="#Hd"/>
<path d="M867.70 349.00v-21.00" class="stroke"/>
<use x="978.90" y="352.00" xlink:href="#Hd"/>
<path d="M982.40 352.00v-21.00" class="stroke"/>
<use x="1098.60" y="343.00" xlink:href="#Hd"/>
<use x="1088.60" y="343.00" xlink:href="#sh0"/>
<path d="M1095.10 343.00v21.00" class="stroke"/>
<use x="22.00" y="413.00" xlink:href="#tclef"/>
<use x="37.00" y="395.00" xlink:href="#sh0"/>
<use x="42.50" y="404.00" xlink:href="#sh0"/>
<path class="fill"
	d="M57.20 419.20l80.10 0.00v-3.20l-80.10 -0.00"/>
<use x="61.00" y="398.00" xlink:href="#hd"/>
<path d="M57.50 398.00v20.20" class="stroke"/>
<use x="87.50" y="398.00" xlink:href="#hd"/>
<path d="M84.00 398.00v20.20" class="stroke"/>
<use x="114.00" y="401.00" xlink:href="#hd"/>
<path d="M110.50 401.00v17.20" class="stroke"/>
<use x="140.40" y="392.00" xlink:href="#hd"/>
<use x="131.40" y="392.00" xlink:href="#sh0"/>
<path d="M136.90 392.00v26.20" class="stroke"/>
<path class="fill"
	d="M219.20 434.80l80.10 -3.90v-3.20l-80.10 3.90"/>
<use x="223.10" y="410.00" xlink:href="#hd"/>
<use x="214.10" y="410.00" xlink:href="#sh0"/>
<path d="M219.60 410.00v23.80" class="stroke"/>
<use x="249.60" y="410.00" xlink:href="#hd"/>
<use x="240.60" y="410.00" xlink:href="#sh0"/>
<path d="M246.10 410.00v22.50" class="stroke"/>
<use x="276.00" y="413.00" xlink:href="#hd"/>
<use x="267.00" y="413.00" xlink:href="#sh0"/>
<path d="M272.50 413.00v18.20" class="stroke"/>
<use x="302.50" y="401.00" xlink:href="#hd"/>
<path d="M299.00 401.00v28.90" class="stroke"/>
<path class="fill"
	d="M337.90 434.80l80.10 -3.90v-3.20l-80.10 3.90"/>
<use x="341.70" y="410.00" xlink:href="#hd"/>
<use x="332.70" y="410.00" xlink:href="#sh0"/>
<path d="M338.20 410.00v23.80" class="stroke"/>
<use x="368.20" y="410.00" xlink:href="#hd"/>
<use x="359.20" y="410.00" xlink:href="#sh0"/>
<path d="M364.70 410.00v22.50" class="stroke"/>
<use x="394.70" y="413.00" xlink:href="#hd"/>
<use x="385.70" y="413.00" xlink:href="#sh0"/>
<path d="M391.20 413.00v18.20" class="stroke"/>
<use x="421.10" y="401.00" xlink:href="#hd"/>
<path d="M417.60 401.00v28.90" class="stroke"/>
<path class="fill"
	d="M464.50 388.70l80.10 -3.90v3.20l-80.10 3.90"/>
<use x="461.40" y="413.00" xlink:href="#hd"/>
<use x="452.40" y="413.00" xlink:href="#sh0"/>
<path d="M464.90 413.00v-23.30" class="stroke"/>
<use x="487.80" y="413.00" xlink:href="#hd"/>
<use x="478.80" y="413.00" xlink:href="#sh0"/>
<path d="M491.30 413.00v-24.60" class="stroke"/>
<use x="514.30" y="416.00" xlink:href="#hd"/>
<use x="505.30" y="416.00" xlink:href="#sh0"/>
<path d="M517.80 416.00v-28.90" class="stroke"/>
<use x="540.80" y="404.00" xlink:href="#hd"/>
<path d="M544.30 404.00v-18.20" class="stroke"/>
<path class="fill"
	d="M572.20 421.90l80.10 0.00v-3.20l-80.10 -0.00"/>
<use x="576.10" y="401.00" xlink:href="#hd"/>
<path d="M572.60 401.00v20.00" class="stroke"/>
<use x="602.60" y="401.00" xlink:href="#hd"/>
<path d="M599.10 401.00v20.00" class="stroke"/>
<use x="629.00" y="404.00" xlink:href="#hd"/>
<path d="M625.50 404.00v17.00" class="stroke"/>
<use x="655.50" y="395.00" xlink:href="#hd"/>
<use x="646.50" y="395.00" xlink:href="#sh0"/>
<path d="M652.00 395.00v26.00" class="stroke"/>
<path class="fill"
	d="M745.60 419.20l80.10 0.00v-3.20l-80.10 -0.00"/>
<use x="749.50" y="398.00" xlink:href="#hd"/>
<path d="M746.00 398.00v20.20" class="stroke"/>
<use x="775.90" y="398.00" xlink:href="#hd"/>
<path d="M772.40 398.00v20.20" class="stroke"/>
<use x="802.40" y="401.00" xlink:href="#hd"/>
<path d="M798.90 401.00v17.20" class="stroke"/>
<use x="828.90" y="392.00" xlink:href="#hd"/>
<use x="819.90" y="392.00" xlink:href="#sh0"/>
<path d="M825.40 392.00v26.20" class="stroke"/>
<path class="fill"
	d="M860.40 419.20l80.10 0.00v-3.20l-80.10 -0.00"/>
<use x="864.20" y="398.00" xlink:href="#hd"/>
<path d="M860.70 398.00v20.20" class="stroke"/>
<use x="890.70" y="398.00" xlink:href="#hd"/>
<path d="M887.20 398.00v20.20" class="stroke"/>
<use x="917.20" y="401.00" xlink:href="#hd"/>
<path d="M913.70 401.00v17.20" class="stroke"/>
<use x="943.60" y="392.00" xlink:href="#hd"/>
<use x="934.60" y="392.00" xlink:href="#sh0"/>
<path d="M940.10 392.00v26.20" class="stroke"/>
<path class="fill"
	d="M975.10 421.90l80.10 0.00v-3.20l-80.10 -0.00"/>
<use x="978.90" y="401.00" xlink:href="#hd"/>
<path d="M975.40 401.00v20.00" class="stroke"/>
<use x="1005.40" y="401.00" xlink:href="#hd"/>
<path d="M1001.90 401.00v20.00" class="stroke"/>
<use x="1031.90" y="404.00" xlink:href="#hd"/>
<path d="M1028.40 404.00v17.00" class="stroke"/>
<use x="1058.40" y="395.00" xlink:href="#hd"/>
<use x="1049.40" y="395.00" xlink:href="#sh0"/>
<path d="M1054.90 395.00v26.00" class="stroke"/>
<path class="fill"
	d="M1094.70 413.20l80.10 0.00v-3.20l-80.10 -0.00"/>
<use x="1098.60" y="392.00" xlink:href="#hd"/>
<use x="1089.60" y="392.00" xlink:href="#sh0"/>
<path d="M1095.10 392.00v20.20" class="stroke"/>
<use x="1125.10" y="392.00" xlink:href="#hd"/>
<use x="1116.10" y="392.00" xlink:href="#sh0"/>
<path d="M1121.60 392.00v20.20" class="stroke"/>
<use x="1151.50" y="395.00" xlink:href="#hd"/>
<use x="1142.50" y="395.00" xlink:href="#sh0"/>
<path d="M1148.00 395.00v17.20" class="stroke"/>
<defs>
<path id="hl" class="stroke" d="m-6 0h12"/>
</defs>
<use x="1178.00" y="389.00" xlink:href="#hl"/>
<use x="1178.00" y="383.00" xlink:href="#hl"/>
<use x="1178.00" y="383.00" xlink:href="#hd"/>
<path d="M1174.50 383.00v29.20" class="stroke"/>
</g>
</svg>
