<?xml version="1.0" standalone="no"?>
<!DOCTYPE svg PUBLIC "-//W3C//DTD SVG 1.1//EN"
	"http://www.w3.org/Graphics/SVG/1.1/DTD/svg11.dtd">
<svg xmlns="http://www.w3.org/2000/svg" version="1.1"
	xmlns:xlink="http://www.w3.org/1999/xlink"
	color="black"
	width="1208.60px" height="442.00px">
<style type="text/css">
.fill {fill: currentColor}
.stroke {stroke: currentColor; fill: none}
text{white-space: pre}
</style>
<title>../src/torus/title_no_3_page_1.abc (2) tune 1</title>
<!-- Creator: abcm2ps-8.14.6 -->
<!-- CreationDate: Jan 11, 2023 20:08 -->
<!-- CommandLine: -g ../src/torus/title_no_3_page_1.abc -O ../src/torus/title_no_3_page_1.svg -->
<g stroke-width="0.70" style="font:italic 14.00px Times">
<text x="10.00" y="28.00">Procedurally Generated</text>
<!-- title: Torus:Taurus Tune -->
</g>
<g stroke-width="0.70" style="font:20.00px Times">
<text x="604.30" y="28.00" text-anchor="middle">Torus:Taurus Tune</text>
</g>
<g stroke-width="0.70" style="font:italic 14.00px Times">
<text x="1198.60" y="28.00" text-anchor="end">(Sid.)</text>
<text x="1198.60" y="43.40" text-anchor="end">Jeff Minter</text>
<!-- subtitle: 3 of 100,000,000,000,000 -->
</g>
<g stroke-width="0.70" style="font:16.00px Times">
<text x="604.30" y="64.00" text-anchor="middle">3 of 100,000,000,000,000</text>
</g>
<g stroke-width="0.70" style="font:bold 13.00px Times">
<text x="38.28" y="224.90" text-anchor="middle">Voice 3</text>
<text x="38.28" y="166.90" text-anchor="middle">Voice 2</text>
<text x="38.28" y="108.90" text-anchor="middle">Voice 1</text>
<path class="stroke" stroke-width="1"
	d="M66.48 233.00v-140.00"/>
<path class="stroke" stroke-width="1"
	d="M280.78 175.00v-24.00"/>
<path class="stroke" stroke-width="1"
	d="M280.78 233.00v-58.00"/>
<path class="stroke" stroke-width="1"
	d="M453.88 175.00v-24.00"/>
<path class="stroke" stroke-width="1"
	d="M453.88 233.00v-58.00"/>
<path class="stroke" stroke-width="1"
	d="M627.08 175.00v-24.00"/>
<path class="stroke" stroke-width="1"
	d="M627.08 233.00v-58.00"/>
<path class="stroke" stroke-width="1"
	d="M800.18 117.00v-24.00"/>
<path class="stroke" stroke-width="1"
	d="M800.18 175.00v-58.00"/>
<path class="stroke" stroke-width="1"
	d="M800.18 233.00v-58.00"/>
<path class="stroke" stroke-width="1"
	d="M816.18 117.00v-24.00"/>
<path class="stroke" stroke-width="1"
	d="M832.18 117.00v-24.00"/>
<path class="stroke" stroke-width="1"
	d="M848.18 117.00v-24.00"/>
<path class="stroke" stroke-width="1"
	d="M1025.48 175.00v-24.00"/>
<path class="stroke" stroke-width="1"
	d="M1025.48 233.00v-58.00"/>
<path class="stroke" stroke-width="1"
	d="M1198.58 175.00v-24.00"/>
<path class="stroke" stroke-width="1"
	d="M1198.58 233.00v-58.00"/>
<path d="m66.48 117.00
	h1132.10
	M66.48 111.00
	h1132.10
	M66.48 105.00
	h1132.10
	M66.48 99.00
	h1132.10
	M66.48 93.00
	h1132.10
	" class="stroke"/>
<path d="m66.48 175.00
	h1132.10
	M66.48 169.00
	h1132.10
	M66.48 163.00
	h1132.10
	M66.48 157.00
	h1132.10
	M66.48 151.00
	h1132.10
	" class="stroke"/>
<path d="m66.48 233.00
	h1132.10
	M66.48 227.00
	h1132.10
	M66.48 221.00
	h1132.10
	M66.48 215.00
	h1132.10
	M66.48 209.00
	h1132.10
	" class="stroke"/>
<defs>
<path id="utclef" class="fill" d="m-50 -90
	c-72 -41 -72 -158 52 -188
	150 -10 220 188 90 256
	-114 52 -275 0 -293 -136
	-15 -181 93 -229 220 -334
	88 -87 79 -133 62 -210
	-51 33 -94 105 -89 186
	17 267 36 374 49 574
	6 96 -19 134 -77 135
	-80 1 -126 -93 -61 -133
	85 -41 133 101 31 105
	23 17 92 37 90 -92
	-10 -223 -39 -342 -50 -617
	0 -90 0 -162 96 -232
	56 72 63 230 22 289
	-74 106 -257 168 -255 316
	9 153 148 185 252 133
	86 -65 29 -192 -80 -176
	-71 12 -105 67 -59 124"/>
<use id="tclef" transform="translate(0,6) scale(0.045)"
	xlink:href="#utclef"/>
</defs>
<use x="78.48" y="111.00" xlink:href="#tclef"/>
<defs>
<path id="usharp" class="fill" d="
	m136 -702
	v890
	h32
	v-890
	m128 840
	h32
	v-888
	h-32
	m-232 286
	v116
	l338 -96
	v-116
	m-338 442
	v116
	l338 -98
	v-114"/>
<use id="sh0" transform="translate(-4,5) scale(0.018)"
	xlink:href="#usharp"/>
</defs>
<use x="93.48" y="93.00" xlink:href="#sh0"/>
<use x="98.98" y="102.00" xlink:href="#sh0"/>
<defs>
<path id="hl1" class="stroke" d="m-7 0h14"/>
</defs>
<use x="130.78" y="123.00" xlink:href="#hl1"/>
<use x="130.78" y="129.00" xlink:href="#hl1"/>
<defs>
<path id="HD" class="fill" d="m-2.7 -1.4
	c1.5 -2.8 6.9 0 5.3 2.7
	-1.5 2.8 -6.9 0 -5.3 -2.7
	m8.3 1.4
	c0 -1.5 -2.2 -3 -5.6 -3
	-3.4 0 -5.6 1.5 -5.6 3
	0 1.5 2.2 3 5.6 3
	3.4 0 5.6 -1.5 5.6 -3"/>
<g id="HDD">
	<use xlink:href="#HD"/>
	<path d="m-6 -4v8m12 0v-8" class="stroke"/>
</g>
</defs>
<use x="130.78" y="129.00" xlink:href="#HDD"/>
<use x="114.98" y="129.00" xlink:href="#sh0"/>
<use x="875.48" y="123.00" xlink:href="#hl1"/>
<use x="875.48" y="129.00" xlink:href="#hl1"/>
<use x="875.48" y="129.00" xlink:href="#HDD"/>
<use x="859.68" y="129.00" xlink:href="#sh0"/>
<use x="78.48" y="169.00" xlink:href="#tclef"/>
<use x="93.48" y="151.00" xlink:href="#sh0"/>
<use x="98.98" y="160.00" xlink:href="#sh0"/>
<defs>
<path id="Hd" class="fill" d="m3 -1.6
	c-1 -1.8 -7 1.4 -6 3.2
	1 1.8 7 -1.4 6 -3.2
	m0.5 -0.3
	c2 3.8 -5 7.6 -7 3.8
	-2 -3.8 5 -7.6 7 -3.8"/>
</defs>
<use x="129.78" y="178.00" xlink:href="#Hd"/>
<use x="119.78" y="178.00" xlink:href="#sh0"/>
<path d="M133.28 178.00v-21.00" class="stroke"/>
<use x="302.98" y="178.00" xlink:href="#Hd"/>
<use x="292.98" y="178.00" xlink:href="#sh0"/>
<path d="M306.48 178.00v-21.00" class="stroke"/>
<use x="476.08" y="178.00" xlink:href="#Hd"/>
<use x="466.08" y="178.00" xlink:href="#sh0"/>
<path d="M479.58 178.00v-21.00" class="stroke"/>
<defs>
<path id="hl" class="stroke" d="m-6 0h12"/>
</defs>
<use x="649.28" y="181.00" xlink:href="#hl"/>
<use x="649.28" y="181.00" xlink:href="#Hd"/>
<use x="639.28" y="181.00" xlink:href="#sh0"/>
<path d="M652.78 181.00v-21.00" class="stroke"/>
<use x="874.48" y="178.00" xlink:href="#Hd"/>
<use x="864.48" y="178.00" xlink:href="#sh0"/>
<path d="M877.98 178.00v-21.00" class="stroke"/>
<use x="1047.68" y="178.00" xlink:href="#Hd"/>
<use x="1037.68" y="178.00" xlink:href="#sh0"/>
<path d="M1051.18 178.00v-21.00" class="stroke"/>
<use x="78.48" y="227.00" xlink:href="#tclef"/>
<use x="93.48" y="209.00" xlink:href="#sh0"/>
<use x="98.98" y="218.00" xlink:href="#sh0"/>
<path class="fill"
	d="M132.98 206.10l120.60 0.00v3.20l-120.60 -0.00"/>
<defs>
<ellipse id="hd" rx="4.1" ry="2.9"
	transform="rotate(-20)" class="fill"/>
</defs>
<use x="129.78" y="227.00" xlink:href="#hd"/>
<use x="120.78" y="227.00" xlink:href="#sh0"/>
<path d="M133.28 227.00v-20.00" class="stroke"/>
<use x="169.78" y="227.00" xlink:href="#hd"/>
<use x="160.78" y="227.00" xlink:href="#sh0"/>
<path d="M173.28 227.00v-20.00" class="stroke"/>
<use x="209.68" y="227.00" xlink:href="#hd"/>
<use x="200.68" y="227.00" xlink:href="#sh0"/>
<path d="M213.18 227.00v-20.00" class="stroke"/>
<use x="249.68" y="230.00" xlink:href="#hd"/>
<use x="240.68" y="230.00" xlink:href="#sh0"/>
<path d="M253.18 230.00v-23.00" class="stroke"/>
<path class="fill"
	d="M306.08 206.10l120.60 0.00v3.20l-120.60 -0.00"/>
<use x="302.98" y="227.00" xlink:href="#hd"/>
<use x="293.98" y="227.00" xlink:href="#sh0"/>
<path d="M306.48 227.00v-20.00" class="stroke"/>
<use x="342.88" y="227.00" xlink:href="#hd"/>
<use x="333.88" y="227.00" xlink:href="#sh0"/>
<path d="M346.38 227.00v-20.00" class="stroke"/>
<use x="382.88" y="227.00" xlink:href="#hd"/>
<use x="373.88" y="227.00" xlink:href="#sh0"/>
<path d="M386.38 227.00v-20.00" class="stroke"/>
<use x="422.78" y="230.00" xlink:href="#hd"/>
<use x="413.78" y="230.00" xlink:href="#sh0"/>
<path d="M426.28 230.00v-23.00" class="stroke"/>
<path class="fill"
	d="M479.28 206.10l120.60 0.00v3.20l-120.60 -0.00"/>
<use x="476.08" y="227.00" xlink:href="#hd"/>
<use x="467.08" y="227.00" xlink:href="#sh0"/>
<path d="M479.58 227.00v-20.00" class="stroke"/>
<use x="516.08" y="227.00" xlink:href="#hd"/>
<use x="507.08" y="227.00" xlink:href="#sh0"/>
<path d="M519.58 227.00v-20.00" class="stroke"/>
<use x="555.98" y="227.00" xlink:href="#hd"/>
<use x="546.98" y="227.00" xlink:href="#sh0"/>
<path d="M559.48 227.00v-20.00" class="stroke"/>
<use x="595.98" y="230.00" xlink:href="#hd"/>
<use x="586.98" y="230.00" xlink:href="#sh0"/>
<path d="M599.48 230.00v-23.00" class="stroke"/>
<path class="fill"
	d="M652.38 208.80l120.60 0.00v3.20l-120.60 -0.00"/>
<use x="649.28" y="230.00" xlink:href="#hd"/>
<use x="640.28" y="230.00" xlink:href="#sh0"/>
<path d="M652.78 230.00v-20.20" class="stroke"/>
<use x="689.18" y="230.00" xlink:href="#hd"/>
<use x="680.18" y="230.00" xlink:href="#sh0"/>
<path d="M692.68 230.00v-20.20" class="stroke"/>
<use x="729.18" y="230.00" xlink:href="#hd"/>
<use x="720.18" y="230.00" xlink:href="#sh0"/>
<path d="M732.68 230.00v-20.20" class="stroke"/>
<use x="769.08" y="233.00" xlink:href="#hd"/>
<path d="M772.58 233.00v-23.20" class="stroke"/>
<path class="fill"
	d="M877.68 206.10l120.60 0.00v3.20l-120.60 -0.00"/>
<use x="874.48" y="227.00" xlink:href="#hd"/>
<use x="865.48" y="227.00" xlink:href="#sh0"/>
<path d="M877.98 227.00v-20.00" class="stroke"/>
<use x="914.48" y="227.00" xlink:href="#hd"/>
<use x="905.48" y="227.00" xlink:href="#sh0"/>
<path d="M917.98 227.00v-20.00" class="stroke"/>
<use x="954.38" y="227.00" xlink:href="#hd"/>
<use x="945.38" y="227.00" xlink:href="#sh0"/>
<path d="M957.88 227.00v-20.00" class="stroke"/>
<use x="994.38" y="230.00" xlink:href="#hd"/>
<use x="985.38" y="230.00" xlink:href="#sh0"/>
<path d="M997.88 230.00v-23.00" class="stroke"/>
<path class="fill"
	d="M1050.78 206.10l120.60 0.00v3.20l-120.60 -0.00"/>
<use x="1047.68" y="227.00" xlink:href="#hd"/>
<use x="1038.68" y="227.00" xlink:href="#sh0"/>
<path d="M1051.18 227.00v-20.00" class="stroke"/>
<use x="1087.58" y="227.00" xlink:href="#hd"/>
<use x="1078.58" y="227.00" xlink:href="#sh0"/>
<path d="M1091.08 227.00v-20.00" class="stroke"/>
<use x="1127.58" y="227.00" xlink:href="#hd"/>
<use x="1118.58" y="227.00" xlink:href="#sh0"/>
<path d="M1131.08 227.00v-20.00" class="stroke"/>
<use x="1167.48" y="230.00" xlink:href="#hd"/>
<use x="1158.48" y="230.00" xlink:href="#sh0"/>
<path d="M1170.98 230.00v-23.00" class="stroke"/>
</g>
<g stroke-width="0.70" style="font:bold 13.00px Times">
<path class="stroke" stroke-width="1"
	d="M10.00 419.00v-140.00"/>
<path class="stroke" stroke-width="1"
	d="M153.60 361.00v-24.00"/>
<path class="stroke" stroke-width="1"
	d="M153.60 419.00v-58.00"/>
<path class="stroke" stroke-width="1"
	d="M258.30 303.00v-24.00"/>
<path class="stroke" stroke-width="1"
	d="M258.30 361.00v-58.00"/>
<path class="stroke" stroke-width="1"
	d="M258.30 419.00v-58.00"/>
<path class="stroke" stroke-width="1"
	d="M274.30 303.00v-24.00"/>
<path class="stroke" stroke-width="1"
	d="M290.30 303.00v-24.00"/>
<path class="stroke" stroke-width="1"
	d="M306.30 303.00v-24.00"/>
<path class="stroke" stroke-width="1"
	d="M417.70 361.00v-24.00"/>
<path class="stroke" stroke-width="1"
	d="M417.70 419.00v-58.00"/>
<path class="stroke" stroke-width="1"
	d="M523.30 361.00v-24.00"/>
<path class="stroke" stroke-width="1"
	d="M523.30 419.00v-58.00"/>
<path class="stroke" stroke-width="1"
	d="M628.90 361.00v-24.00"/>
<path class="stroke" stroke-width="1"
	d="M628.90 419.00v-58.00"/>
<path class="stroke" stroke-width="1"
	d="M733.60 303.00v-24.00"/>
<path class="stroke" stroke-width="1"
	d="M733.60 361.00v-58.00"/>
<path class="stroke" stroke-width="1"
	d="M733.60 419.00v-58.00"/>
<path class="stroke" stroke-width="1"
	d="M749.60 303.00v-24.00"/>
<path class="stroke" stroke-width="1"
	d="M765.60 303.00v-24.00"/>
<path class="stroke" stroke-width="1"
	d="M781.60 303.00v-24.00"/>
<path class="stroke" stroke-width="1"
	d="M892.10 361.00v-24.00"/>
<path class="stroke" stroke-width="1"
	d="M892.10 419.00v-58.00"/>
<path class="stroke" stroke-width="1"
	d="M996.90 361.00v-24.00"/>
<path class="stroke" stroke-width="1"
	d="M996.90 419.00v-58.00"/>
<path class="stroke" stroke-width="1"
	d="M1101.60 361.00v-24.00"/>
<path class="stroke" stroke-width="1"
	d="M1101.60 419.00v-58.00"/>
<path class="stroke" stroke-width="1"
	d="M1198.60 303.00v-24.00"/>
<path class="stroke" stroke-width="1"
	d="M1198.60 361.00v-58.00"/>
<path class="stroke" stroke-width="1"
	d="M1198.60 419.00v-58.00"/>
<defs>
<g id="rdots" class="fill">
	<circle cx="0" cy="-9" r="1.2"/>
	<circle cx="0" cy="-15" r="1.2"/>
</g>
</defs>
<use x="1194.60" y="419.00" xlink:href="#rdots"/>
<path class="stroke" stroke-width="1"
	d="M1190.60 419.00v-58.00"/>
<path d="m10.00 303.00
	h1188.60
	M10.00 297.00
	h1188.60
	M10.00 291.00
	h1188.60
	M10.00 285.00
	h1188.60
	M10.00 279.00
	h1188.60
	" class="stroke"/>
<path d="m10.00 361.00
	h1188.60
	M10.00 355.00
	h1188.60
	M10.00 349.00
	h1188.60
	M10.00 343.00
	h1188.60
	M10.00 337.00
	h1188.60
	" class="stroke"/>
<path d="m10.00 419.00
	h1188.60
	M10.00 413.00
	h1188.60
	M10.00 407.00
	h1188.60
	M10.00 401.00
	h1188.60
	M10.00 395.00
	h1188.60
	" class="stroke"/>
<use x="22.00" y="297.00" xlink:href="#tclef"/>
<use x="37.00" y="279.00" xlink:href="#sh0"/>
<use x="42.50" y="288.00" xlink:href="#sh0"/>
<use x="332.60" y="309.00" xlink:href="#hl1"/>
<use x="332.60" y="315.00" xlink:href="#hl1"/>
<use x="332.60" y="315.00" xlink:href="#HDD"/>
<use x="316.80" y="315.00" xlink:href="#sh0"/>
<use x="807.90" y="309.00" xlink:href="#hl1"/>
<use x="807.90" y="315.00" xlink:href="#hl1"/>
<use x="807.90" y="318.00" xlink:href="#HDD"/>
<use x="792.10" y="318.00" xlink:href="#sh0"/>
<use x="22.00" y="355.00" xlink:href="#tclef"/>
<use x="37.00" y="337.00" xlink:href="#sh0"/>
<use x="42.50" y="346.00" xlink:href="#sh0"/>
<use x="67.50" y="364.00" xlink:href="#Hd"/>
<use x="57.50" y="364.00" xlink:href="#sh0"/>
<path d="M71.00 364.00v-21.00" class="stroke"/>
<use x="173.10" y="367.00" xlink:href="#hl"/>
<use x="173.10" y="367.00" xlink:href="#Hd"/>
<use x="163.10" y="367.00" xlink:href="#sh0"/>
<path d="M176.60 367.00v-21.00" class="stroke"/>
<use x="331.60" y="364.00" xlink:href="#Hd"/>
<use x="321.60" y="364.00" xlink:href="#sh0"/>
<path d="M335.10 364.00v-21.00" class="stroke"/>
<use x="437.20" y="364.00" xlink:href="#Hd"/>
<use x="427.20" y="364.00" xlink:href="#sh0"/>
<path d="M440.70 364.00v-21.00" class="stroke"/>
<use x="542.80" y="364.00" xlink:href="#Hd"/>
<use x="532.80" y="364.00" xlink:href="#sh0"/>
<path d="M546.30 364.00v-21.00" class="stroke"/>
<use x="648.40" y="367.00" xlink:href="#hl"/>
<use x="648.40" y="367.00" xlink:href="#Hd"/>
<use x="638.40" y="367.00" xlink:href="#sh0"/>
<path d="M651.90 367.00v-21.00" class="stroke"/>
<use x="806.90" y="367.00" xlink:href="#hl"/>
<use x="806.90" y="367.00" xlink:href="#Hd"/>
<use x="796.90" y="367.00" xlink:href="#sh0"/>
<path d="M810.40 367.00v-21.00" class="stroke"/>
<use x="911.60" y="367.00" xlink:href="#hl"/>
<use x="911.60" y="367.00" xlink:href="#Hd"/>
<use x="901.60" y="367.00" xlink:href="#sh0"/>
<path d="M915.10 367.00v-21.00" class="stroke"/>
<use x="1016.40" y="367.00" xlink:href="#hl"/>
<use x="1016.40" y="367.00" xlink:href="#Hd"/>
<use x="1006.40" y="367.00" xlink:href="#sh0"/>
<path d="M1019.90 367.00v-21.00" class="stroke"/>
<use x="1114.60" y="367.00" xlink:href="#hl"/>
<use x="1114.60" y="370.00" xlink:href="#Hd"/>
<path d="M1118.10 370.00v-21.00" class="stroke"/>
<use x="22.00" y="413.00" xlink:href="#tclef"/>
<use x="37.00" y="395.00" xlink:href="#sh0"/>
<use x="42.50" y="404.00" xlink:href="#sh0"/>
<path class="fill"
	d="M70.70 392.10l69.20 0.00v3.20l-69.20 -0.00"/>
<use x="67.50" y="413.00" xlink:href="#hd"/>
<use x="58.50" y="413.00" xlink:href="#sh0"/>
<path d="M71.00 413.00v-20.00" class="stroke"/>
<use x="90.30" y="413.00" xlink:href="#hd"/>
<use x="81.30" y="413.00" xlink:href="#sh0"/>
<path d="M93.80 413.00v-20.00" class="stroke"/>
<use x="113.20" y="413.00" xlink:href="#hd"/>
<use x="104.20" y="413.00" xlink:href="#sh0"/>
<path d="M116.70 413.00v-20.00" class="stroke"/>
<use x="136.00" y="416.00" xlink:href="#hd"/>
<use x="127.00" y="416.00" xlink:href="#sh0"/>
<path d="M139.50 416.00v-23.00" class="stroke"/>
<path class="fill"
	d="M176.20 394.80l68.30 0.00v3.20l-68.30 -0.00"/>
<use x="173.10" y="416.00" xlink:href="#hd"/>
<use x="164.10" y="416.00" xlink:href="#sh0"/>
<path d="M176.60 416.00v-20.20" class="stroke"/>
<use x="195.90" y="416.00" xlink:href="#hd"/>
<use x="186.90" y="416.00" xlink:href="#sh0"/>
<path d="M199.40 416.00v-20.20" class="stroke"/>
<use x="218.70" y="416.00" xlink:href="#hd"/>
<use x="209.70" y="416.00" xlink:href="#sh0"/>
<path d="M222.20 416.00v-20.20" class="stroke"/>
<use x="240.70" y="419.00" xlink:href="#hd"/>
<path d="M244.20 419.00v-23.20" class="stroke"/>
<path class="fill"
	d="M334.80 392.10l69.20 0.00v3.20l-69.20 -0.00"/>
<use x="331.60" y="413.00" xlink:href="#hd"/>
<use x="322.60" y="413.00" xlink:href="#sh0"/>
<path d="M335.10 413.00v-20.00" class="stroke"/>
<use x="354.40" y="413.00" xlink:href="#hd"/>
<use x="345.40" y="413.00" xlink:href="#sh0"/>
<path d="M357.90 413.00v-20.00" class="stroke"/>
<use x="377.30" y="413.00" xlink:href="#hd"/>
<use x="368.30" y="413.00" xlink:href="#sh0"/>
<path d="M380.80 413.00v-20.00" class="stroke"/>
<use x="400.10" y="416.00" xlink:href="#hd"/>
<use x="391.10" y="416.00" xlink:href="#sh0"/>
<path d="M403.60 416.00v-23.00" class="stroke"/>
<path class="fill"
	d="M440.40 392.10l69.20 0.00v3.20l-69.20 -0.00"/>
<use x="437.20" y="413.00" xlink:href="#hd"/>
<use x="428.20" y="413.00" xlink:href="#sh0"/>
<path d="M440.70 413.00v-20.00" class="stroke"/>
<use x="460.00" y="413.00" xlink:href="#hd"/>
<use x="451.00" y="413.00" xlink:href="#sh0"/>
<path d="M463.50 413.00v-20.00" class="stroke"/>
<use x="482.90" y="413.00" xlink:href="#hd"/>
<use x="473.90" y="413.00" xlink:href="#sh0"/>
<path d="M486.40 413.00v-20.00" class="stroke"/>
<use x="505.70" y="416.00" xlink:href="#hd"/>
<use x="496.70" y="416.00" xlink:href="#sh0"/>
<path d="M509.20 416.00v-23.00" class="stroke"/>
<path class="fill"
	d="M546.00 392.10l69.20 0.00v3.20l-69.20 -0.00"/>
<use x="542.80" y="413.00" xlink:href="#hd"/>
<use x="533.80" y="413.00" xlink:href="#sh0"/>
<path d="M546.30 413.00v-20.00" class="stroke"/>
<use x="565.60" y="413.00" xlink:href="#hd"/>
<use x="556.60" y="413.00" xlink:href="#sh0"/>
<path d="M569.10 413.00v-20.00" class="stroke"/>
<use x="588.40" y="413.00" xlink:href="#hd"/>
<use x="579.40" y="413.00" xlink:href="#sh0"/>
<path d="M591.90 413.00v-20.00" class="stroke"/>
<use x="611.30" y="416.00" xlink:href="#hd"/>
<use x="602.30" y="416.00" xlink:href="#sh0"/>
<path d="M614.80 416.00v-23.00" class="stroke"/>
<path class="fill"
	d="M651.50 394.80l68.30 0.00v3.20l-68.30 -0.00"/>
<use x="648.40" y="416.00" xlink:href="#hd"/>
<use x="639.40" y="416.00" xlink:href="#sh0"/>
<path d="M651.90 416.00v-20.20" class="stroke"/>
<use x="671.20" y="416.00" xlink:href="#hd"/>
<use x="662.20" y="416.00" xlink:href="#sh0"/>
<path d="M674.70 416.00v-20.20" class="stroke"/>
<use x="694.00" y="416.00" xlink:href="#hd"/>
<use x="685.00" y="416.00" xlink:href="#sh0"/>
<path d="M697.50 416.00v-20.20" class="stroke"/>
<use x="716.00" y="419.00" xlink:href="#hd"/>
<path d="M719.50 419.00v-23.20" class="stroke"/>
<path class="fill"
	d="M810.10 394.80l68.30 0.00v3.20l-68.30 -0.00"/>
<use x="806.90" y="416.00" xlink:href="#hd"/>
<use x="797.90" y="416.00" xlink:href="#sh0"/>
<path d="M810.40 416.00v-20.20" class="stroke"/>
<use x="829.70" y="416.00" xlink:href="#hd"/>
<use x="820.70" y="416.00" xlink:href="#sh0"/>
<path d="M833.20 416.00v-20.20" class="stroke"/>
<use x="852.60" y="416.00" xlink:href="#hd"/>
<use x="843.60" y="416.00" xlink:href="#sh0"/>
<path d="M856.10 416.00v-20.20" class="stroke"/>
<use x="874.50" y="419.00" xlink:href="#hd"/>
<path d="M878.00 419.00v-23.20" class="stroke"/>
<path class="fill"
	d="M914.80 394.80l68.30 0.00v3.20l-68.30 -0.00"/>
<use x="911.60" y="416.00" xlink:href="#hd"/>
<use x="902.60" y="416.00" xlink:href="#sh0"/>
<path d="M915.10 416.00v-20.20" class="stroke"/>
<use x="934.50" y="416.00" xlink:href="#hd"/>
<use x="925.50" y="416.00" xlink:href="#sh0"/>
<path d="M938.00 416.00v-20.20" class="stroke"/>
<use x="957.30" y="416.00" xlink:href="#hd"/>
<use x="948.30" y="416.00" xlink:href="#sh0"/>
<path d="M960.80 416.00v-20.20" class="stroke"/>
<use x="979.30" y="419.00" xlink:href="#hd"/>
<path d="M982.80 419.00v-23.20" class="stroke"/>
<path class="fill"
	d="M1019.50 394.80l68.30 0.00v3.20l-68.30 -0.00"/>
<use x="1016.40" y="416.00" xlink:href="#hd"/>
<use x="1007.40" y="416.00" xlink:href="#sh0"/>
<path d="M1019.90 416.00v-20.20" class="stroke"/>
<use x="1039.20" y="416.00" xlink:href="#hd"/>
<use x="1030.20" y="416.00" xlink:href="#sh0"/>
<path d="M1042.70 416.00v-20.20" class="stroke"/>
<use x="1062.00" y="416.00" xlink:href="#hd"/>
<use x="1053.00" y="416.00" xlink:href="#sh0"/>
<path d="M1065.50 416.00v-20.20" class="stroke"/>
<use x="1084.00" y="419.00" xlink:href="#hd"/>
<path d="M1087.50 419.00v-23.20" class="stroke"/>
<path class="fill"
	d="M1117.80 398.10l66.60 0.00v3.20l-66.60 -0.00"/>
<use x="1114.60" y="419.00" xlink:href="#hd"/>
<path d="M1118.10 419.00v-20.00" class="stroke"/>
<use x="1136.60" y="419.00" xlink:href="#hd"/>
<path d="M1140.10 419.00v-20.00" class="stroke"/>
<use x="1158.50" y="419.00" xlink:href="#hd"/>
<path d="M1162.00 419.00v-20.00" class="stroke"/>
<use x="1180.50" y="422.00" xlink:href="#hd"/>
<path d="M1184.00 422.00v-23.00" class="stroke"/>
</g>
</svg>
