<?xml version="1.0" standalone="no"?>
<!DOCTYPE svg PUBLIC "-//W3C//DTD SVG 1.1//EN"
	"http://www.w3.org/Graphics/SVG/1.1/DTD/svg11.dtd">
<svg xmlns="http://www.w3.org/2000/svg" version="1.1"
	xmlns:xlink="http://www.w3.org/1999/xlink"
	color="black"
	width="1208.60px" height="442.00px">
<style type="text/css">
.fill {fill: currentColor}
.stroke {stroke: currentColor; fill: none}
text{white-space: pre}
</style>
<title>../src/torus/title_no_33_page_1.abc (2) tune 1</title>
<!-- Creator: abcm2ps-8.14.6 -->
<!-- CreationDate: Jan 11, 2023 20:08 -->
<!-- CommandLine: -g ../src/torus/title_no_33_page_1.abc -O ../src/torus/title_no_33_page_1.svg -->
<g stroke-width="0.70" style="font:italic 14.00px Times">
<text x="10.00" y="28.00">Procedurally Generated</text>
<!-- title: Torus:Taurus Tune -->
</g>
<g stroke-width="0.70" style="font:20.00px Times">
<text x="604.30" y="28.00" text-anchor="middle">Torus:Taurus Tune</text>
</g>
<g stroke-width="0.70" style="font:italic 14.00px Times">
<text x="1198.60" y="28.00" text-anchor="end">(Sid.)</text>
<text x="1198.60" y="43.40" text-anchor="end">Jeff Minter</text>
<!-- subtitle: 33 of 100,000,000,000,000 -->
</g>
<g stroke-width="0.70" style="font:16.00px Times">
<text x="604.30" y="64.00" text-anchor="middle">33 of 100,000,000,000,000</text>
</g>
<g stroke-width="0.70" style="font:bold 13.00px Times">
<text x="38.28" y="224.90" text-anchor="middle">Voice 3</text>
<text x="38.28" y="166.90" text-anchor="middle">Voice 2</text>
<text x="38.28" y="108.90" text-anchor="middle">Voice 1</text>
<path class="stroke" stroke-width="1"
	d="M66.48 233.00v-140.00"/>
<path class="stroke" stroke-width="1"
	d="M252.28 175.00v-24.00"/>
<path class="stroke" stroke-width="1"
	d="M252.28 233.00v-58.00"/>
<path class="stroke" stroke-width="1"
	d="M400.58 175.00v-24.00"/>
<path class="stroke" stroke-width="1"
	d="M400.58 233.00v-58.00"/>
<path class="stroke" stroke-width="1"
	d="M549.28 175.00v-24.00"/>
<path class="stroke" stroke-width="1"
	d="M549.28 233.00v-58.00"/>
<path class="stroke" stroke-width="1"
	d="M697.58 117.00v-24.00"/>
<path class="stroke" stroke-width="1"
	d="M697.58 175.00v-58.00"/>
<path class="stroke" stroke-width="1"
	d="M697.58 233.00v-58.00"/>
<path class="stroke" stroke-width="1"
	d="M713.58 117.00v-24.00"/>
<path class="stroke" stroke-width="1"
	d="M729.58 117.00v-24.00"/>
<path class="stroke" stroke-width="1"
	d="M745.58 117.00v-24.00"/>
<path class="stroke" stroke-width="1"
	d="M900.58 175.00v-24.00"/>
<path class="stroke" stroke-width="1"
	d="M900.58 233.00v-58.00"/>
<path class="stroke" stroke-width="1"
	d="M1050.28 175.00v-24.00"/>
<path class="stroke" stroke-width="1"
	d="M1050.28 233.00v-58.00"/>
<path class="stroke" stroke-width="1"
	d="M1198.58 175.00v-24.00"/>
<path class="stroke" stroke-width="1"
	d="M1198.58 233.00v-58.00"/>
<path d="m66.48 117.00
	h1132.10
	M66.48 111.00
	h1132.10
	M66.48 105.00
	h1132.10
	M66.48 99.00
	h1132.10
	M66.48 93.00
	h1132.10
	" class="stroke"/>
<path d="m66.48 175.00
	h1132.10
	M66.48 169.00
	h1132.10
	M66.48 163.00
	h1132.10
	M66.48 157.00
	h1132.10
	M66.48 151.00
	h1132.10
	" class="stroke"/>
<path d="m66.48 233.00
	h1132.10
	M66.48 227.00
	h1132.10
	M66.48 221.00
	h1132.10
	M66.48 215.00
	h1132.10
	M66.48 209.00
	h1132.10
	" class="stroke"/>
<defs>
<path id="utclef" class="fill" d="m-50 -90
	c-72 -41 -72 -158 52 -188
	150 -10 220 188 90 256
	-114 52 -275 0 -293 -136
	-15 -181 93 -229 220 -334
	88 -87 79 -133 62 -210
	-51 33 -94 105 -89 186
	17 267 36 374 49 574
	6 96 -19 134 -77 135
	-80 1 -126 -93 -61 -133
	85 -41 133 101 31 105
	23 17 92 37 90 -92
	-10 -223 -39 -342 -50 -617
	0 -90 0 -162 96 -232
	56 72 63 230 22 289
	-74 106 -257 168 -255 316
	9 153 148 185 252 133
	86 -65 29 -192 -80 -176
	-71 12 -105 67 -59 124"/>
<use id="tclef" transform="translate(0,6) scale(0.045)"
	xlink:href="#utclef"/>
</defs>
<use x="78.48" y="111.00" xlink:href="#tclef"/>
<defs>
<path id="usharp" class="fill" d="
	m136 -702
	v890
	h32
	v-890
	m128 840
	h32
	v-888
	h-32
	m-232 286
	v116
	l338 -96
	v-116
	m-338 442
	v116
	l338 -98
	v-114"/>
<use id="sh0" transform="translate(-4,5) scale(0.018)"
	xlink:href="#usharp"/>
</defs>
<use x="93.48" y="93.00" xlink:href="#sh0"/>
<use x="98.98" y="102.00" xlink:href="#sh0"/>
<defs>
<path id="HD" class="fill" d="m-2.7 -1.4
	c1.5 -2.8 6.9 0 5.3 2.7
	-1.5 2.8 -6.9 0 -5.3 -2.7
	m8.3 1.4
	c0 -1.5 -2.2 -3 -5.6 -3
	-3.4 0 -5.6 1.5 -5.6 3
	0 1.5 2.2 3 5.6 3
	3.4 0 5.6 -1.5 5.6 -3"/>
<g id="HDD">
	<use xlink:href="#HD"/>
	<path d="m-6 -4v8m12 0v-8" class="stroke"/>
</g>
</defs>
<use x="123.98" y="120.00" xlink:href="#HDD"/>
<defs>
<path id="hl1" class="stroke" d="m-7 0h14"/>
</defs>
<use x="772.28" y="123.00" xlink:href="#hl1"/>
<use x="772.28" y="129.00" xlink:href="#hl1"/>
<use x="772.28" y="129.00" xlink:href="#HDD"/>
<use x="756.48" y="129.00" xlink:href="#sh0"/>
<use x="78.48" y="169.00" xlink:href="#tclef"/>
<use x="93.48" y="151.00" xlink:href="#sh0"/>
<use x="98.98" y="160.00" xlink:href="#sh0"/>
<defs>
<path id="Hd" class="fill" d="m3 -1.6
	c-1 -1.8 -7 1.4 -6 3.2
	1 1.8 7 -1.4 6 -3.2
	m0.5 -0.3
	c2 3.8 -5 7.6 -7 3.8
	-2 -3.8 5 -7.6 7 -3.8"/>
</defs>
<use x="122.98" y="163.00" xlink:href="#Hd"/>
<path d="M119.48 163.00v21.00" class="stroke"/>
<use x="271.28" y="169.00" xlink:href="#Hd"/>
<path d="M274.78 169.00v-21.00" class="stroke"/>
<use x="419.98" y="163.00" xlink:href="#Hd"/>
<path d="M423.48 163.00v-21.00" class="stroke"/>
<use x="568.28" y="169.00" xlink:href="#Hd"/>
<path d="M571.78 169.00v-21.00" class="stroke"/>
<use x="771.28" y="169.00" xlink:href="#Hd"/>
<path d="M774.78 169.00v-21.00" class="stroke"/>
<use x="920.98" y="178.00" xlink:href="#Hd"/>
<use x="910.98" y="178.00" xlink:href="#sh0"/>
<path d="M924.48 178.00v-21.00" class="stroke"/>
<use x="1069.28" y="169.00" xlink:href="#Hd"/>
<path d="M1072.78 169.00v-21.00" class="stroke"/>
<use x="78.48" y="227.00" xlink:href="#tclef"/>
<use x="93.48" y="209.00" xlink:href="#sh0"/>
<use x="98.98" y="218.00" xlink:href="#sh0"/>
<path class="fill"
	d="M119.18 229.90l103.40 0.00v-3.20l-103.40 -0.00"/>
<defs>
<ellipse id="hd" rx="4.1" ry="2.9"
	transform="rotate(-20)" class="fill"/>
</defs>
<use x="122.98" y="206.00" xlink:href="#hd"/>
<use x="113.98" y="206.00" xlink:href="#sh0"/>
<path d="M119.48 206.00v23.00" class="stroke"/>
<use x="157.18" y="212.00" xlink:href="#hd"/>
<path d="M153.68 212.00v17.00" class="stroke"/>
<use x="191.38" y="206.00" xlink:href="#hd"/>
<use x="182.38" y="206.00" xlink:href="#sh0"/>
<path d="M187.88 206.00v23.00" class="stroke"/>
<use x="225.68" y="212.00" xlink:href="#hd"/>
<path d="M222.18 212.00v17.00" class="stroke"/>
<path class="fill"
	d="M267.48 235.90l103.40 0.00v-3.20l-103.40 -0.00"/>
<use x="271.28" y="212.00" xlink:href="#hd"/>
<path d="M267.78 212.00v23.00" class="stroke"/>
<use x="305.48" y="218.00" xlink:href="#hd"/>
<path d="M301.98 218.00v17.00" class="stroke"/>
<use x="339.78" y="212.00" xlink:href="#hd"/>
<path d="M336.28 212.00v23.00" class="stroke"/>
<use x="373.98" y="218.00" xlink:href="#hd"/>
<path d="M370.48 218.00v17.00" class="stroke"/>
<path class="fill"
	d="M416.18 229.90l103.40 0.00v-3.20l-103.40 -0.00"/>
<use x="419.98" y="206.00" xlink:href="#hd"/>
<use x="410.98" y="206.00" xlink:href="#sh0"/>
<path d="M416.48 206.00v23.00" class="stroke"/>
<use x="454.18" y="212.00" xlink:href="#hd"/>
<path d="M450.68 212.00v17.00" class="stroke"/>
<use x="488.38" y="206.00" xlink:href="#hd"/>
<use x="479.38" y="206.00" xlink:href="#sh0"/>
<path d="M484.88 206.00v23.00" class="stroke"/>
<use x="522.68" y="212.00" xlink:href="#hd"/>
<path d="M519.18 212.00v17.00" class="stroke"/>
<path class="fill"
	d="M564.48 235.90l103.40 0.00v-3.20l-103.40 -0.00"/>
<use x="568.28" y="212.00" xlink:href="#hd"/>
<path d="M564.78 212.00v23.00" class="stroke"/>
<use x="602.48" y="218.00" xlink:href="#hd"/>
<path d="M598.98 218.00v17.00" class="stroke"/>
<use x="636.68" y="212.00" xlink:href="#hd"/>
<path d="M633.18 212.00v23.00" class="stroke"/>
<use x="670.98" y="218.00" xlink:href="#hd"/>
<path d="M667.48 218.00v17.00" class="stroke"/>
<path class="fill"
	d="M767.48 235.90l103.40 0.00v-3.20l-103.40 -0.00"/>
<use x="771.28" y="212.00" xlink:href="#hd"/>
<path d="M767.78 212.00v23.00" class="stroke"/>
<use x="805.58" y="218.00" xlink:href="#hd"/>
<path d="M802.08 218.00v17.00" class="stroke"/>
<use x="839.78" y="212.00" xlink:href="#hd"/>
<path d="M836.28 212.00v23.00" class="stroke"/>
<use x="873.98" y="218.00" xlink:href="#hd"/>
<path d="M870.48 218.00v17.00" class="stroke"/>
<path class="fill"
	d="M924.18 198.80l103.40 0.00v3.20l-103.40 -0.00"/>
<use x="920.98" y="218.00" xlink:href="#hd"/>
<path d="M924.48 218.00v-18.20" class="stroke"/>
<use x="955.18" y="227.00" xlink:href="#hd"/>
<use x="946.18" y="227.00" xlink:href="#sh0"/>
<path d="M958.68 227.00v-27.20" class="stroke"/>
<use x="989.48" y="218.00" xlink:href="#hd"/>
<path d="M992.98 218.00v-18.20" class="stroke"/>
<use x="1023.68" y="227.00" xlink:href="#hd"/>
<use x="1014.68" y="227.00" xlink:href="#sh0"/>
<path d="M1027.18 227.00v-27.20" class="stroke"/>
<path class="fill"
	d="M1065.48 235.90l103.40 0.00v-3.20l-103.40 -0.00"/>
<use x="1069.28" y="212.00" xlink:href="#hd"/>
<path d="M1065.78 212.00v23.00" class="stroke"/>
<use x="1103.48" y="218.00" xlink:href="#hd"/>
<path d="M1099.98 218.00v17.00" class="stroke"/>
<use x="1137.78" y="212.00" xlink:href="#hd"/>
<path d="M1134.28 212.00v23.00" class="stroke"/>
<use x="1171.98" y="218.00" xlink:href="#hd"/>
<path d="M1168.48 218.00v17.00" class="stroke"/>
</g>
<g stroke-width="0.70" style="font:bold 13.00px Times">
<path class="stroke" stroke-width="1"
	d="M10.00 419.00v-140.00"/>
<path class="stroke" stroke-width="1"
	d="M166.80 303.00v-24.00"/>
<path class="stroke" stroke-width="1"
	d="M166.80 361.00v-58.00"/>
<path class="stroke" stroke-width="1"
	d="M166.80 419.00v-58.00"/>
<path class="stroke" stroke-width="1"
	d="M182.80 303.00v-24.00"/>
<path class="stroke" stroke-width="1"
	d="M198.80 303.00v-24.00"/>
<path class="stroke" stroke-width="1"
	d="M214.80 303.00v-24.00"/>
<path class="stroke" stroke-width="1"
	d="M328.20 361.00v-24.00"/>
<path class="stroke" stroke-width="1"
	d="M328.20 419.00v-58.00"/>
<path class="stroke" stroke-width="1"
	d="M442.20 361.00v-24.00"/>
<path class="stroke" stroke-width="1"
	d="M442.20 419.00v-58.00"/>
<path class="stroke" stroke-width="1"
	d="M560.10 361.00v-24.00"/>
<path class="stroke" stroke-width="1"
	d="M560.10 419.00v-58.00"/>
<path class="stroke" stroke-width="1"
	d="M674.10 303.00v-24.00"/>
<path class="stroke" stroke-width="1"
	d="M674.10 361.00v-58.00"/>
<path class="stroke" stroke-width="1"
	d="M674.10 419.00v-58.00"/>
<path class="stroke" stroke-width="1"
	d="M690.10 303.00v-24.00"/>
<path class="stroke" stroke-width="1"
	d="M706.10 303.00v-24.00"/>
<path class="stroke" stroke-width="1"
	d="M722.10 303.00v-24.00"/>
<path class="stroke" stroke-width="1"
	d="M846.80 361.00v-24.00"/>
<path class="stroke" stroke-width="1"
	d="M846.80 419.00v-58.00"/>
<path class="stroke" stroke-width="1"
	d="M965.70 361.00v-24.00"/>
<path class="stroke" stroke-width="1"
	d="M965.70 419.00v-58.00"/>
<path class="stroke" stroke-width="1"
	d="M1079.70 361.00v-24.00"/>
<path class="stroke" stroke-width="1"
	d="M1079.70 419.00v-58.00"/>
<path class="stroke" stroke-width="1"
	d="M1198.60 303.00v-24.00"/>
<path class="stroke" stroke-width="1"
	d="M1198.60 361.00v-58.00"/>
<path class="stroke" stroke-width="1"
	d="M1198.60 419.00v-58.00"/>
<defs>
<g id="rdots" class="fill">
	<circle cx="0" cy="-9" r="1.2"/>
	<circle cx="0" cy="-15" r="1.2"/>
</g>
</defs>
<use x="1194.60" y="419.00" xlink:href="#rdots"/>
<path class="stroke" stroke-width="1"
	d="M1190.60 419.00v-58.00"/>
<path d="m10.00 303.00
	h1188.60
	M10.00 297.00
	h1188.60
	M10.00 291.00
	h1188.60
	M10.00 285.00
	h1188.60
	M10.00 279.00
	h1188.60
	" class="stroke"/>
<path d="m10.00 361.00
	h1188.60
	M10.00 355.00
	h1188.60
	M10.00 349.00
	h1188.60
	M10.00 343.00
	h1188.60
	M10.00 337.00
	h1188.60
	" class="stroke"/>
<path d="m10.00 419.00
	h1188.60
	M10.00 413.00
	h1188.60
	M10.00 407.00
	h1188.60
	M10.00 401.00
	h1188.60
	M10.00 395.00
	h1188.60
	" class="stroke"/>
<use x="22.00" y="297.00" xlink:href="#tclef"/>
<use x="37.00" y="279.00" xlink:href="#sh0"/>
<use x="42.50" y="288.00" xlink:href="#sh0"/>
<use x="229.90" y="306.00" xlink:href="#HDD"/>
<use x="748.40" y="309.00" xlink:href="#hl1"/>
<use x="748.40" y="315.00" xlink:href="#hl1"/>
<use x="748.40" y="315.00" xlink:href="#HDD"/>
<use x="732.60" y="315.00" xlink:href="#sh0"/>
<use x="22.00" y="355.00" xlink:href="#tclef"/>
<use x="37.00" y="337.00" xlink:href="#sh0"/>
<use x="42.50" y="346.00" xlink:href="#sh0"/>
<use x="67.50" y="364.00" xlink:href="#Hd"/>
<use x="57.50" y="364.00" xlink:href="#sh0"/>
<path d="M71.00 364.00v-21.00" class="stroke"/>
<use x="228.90" y="349.00" xlink:href="#Hd"/>
<path d="M232.40 349.00v-21.00" class="stroke"/>
<use x="342.80" y="355.00" xlink:href="#Hd"/>
<path d="M346.30 355.00v-21.00" class="stroke"/>
<use x="460.80" y="349.00" xlink:href="#Hd"/>
<path d="M464.30 349.00v-21.00" class="stroke"/>
<use x="574.70" y="355.00" xlink:href="#Hd"/>
<path d="M578.20 355.00v-21.00" class="stroke"/>
<use x="747.40" y="355.00" xlink:href="#Hd"/>
<path d="M750.90 355.00v-21.00" class="stroke"/>
<use x="866.40" y="364.00" xlink:href="#Hd"/>
<use x="856.40" y="364.00" xlink:href="#sh0"/>
<path d="M869.90 364.00v-21.00" class="stroke"/>
<use x="980.30" y="355.00" xlink:href="#Hd"/>
<path d="M983.80 355.00v-21.00" class="stroke"/>
<use x="1099.30" y="364.00" xlink:href="#Hd"/>
<use x="1089.30" y="364.00" xlink:href="#sh0"/>
<path d="M1102.80 364.00v-21.00" class="stroke"/>
<use x="22.00" y="413.00" xlink:href="#tclef"/>
<use x="37.00" y="395.00" xlink:href="#sh0"/>
<use x="42.50" y="404.00" xlink:href="#sh0"/>
<path class="fill"
	d="M70.70 384.80l79.60 0.00v3.20l-79.60 -0.00"/>
<use x="67.50" y="404.00" xlink:href="#hd"/>
<path d="M71.00 404.00v-18.20" class="stroke"/>
<use x="93.80" y="413.00" xlink:href="#hd"/>
<use x="84.80" y="413.00" xlink:href="#sh0"/>
<path d="M97.30 413.00v-27.20" class="stroke"/>
<use x="120.10" y="404.00" xlink:href="#hd"/>
<path d="M123.60 404.00v-18.20" class="stroke"/>
<use x="146.40" y="413.00" xlink:href="#hd"/>
<use x="137.40" y="413.00" xlink:href="#sh0"/>
<path d="M149.90 413.00v-27.20" class="stroke"/>
<path class="fill"
	d="M225.10 415.90l79.60 0.00v-3.20l-79.60 -0.00"/>
<use x="228.90" y="392.00" xlink:href="#hd"/>
<use x="219.90" y="392.00" xlink:href="#sh0"/>
<path d="M225.40 392.00v23.00" class="stroke"/>
<use x="255.20" y="398.00" xlink:href="#hd"/>
<path d="M251.70 398.00v17.00" class="stroke"/>
<use x="281.50" y="392.00" xlink:href="#hd"/>
<use x="272.50" y="392.00" xlink:href="#sh0"/>
<path d="M278.00 392.00v23.00" class="stroke"/>
<use x="307.80" y="398.00" xlink:href="#hd"/>
<path d="M304.30 398.00v17.00" class="stroke"/>
<path class="fill"
	d="M339.00 421.90l79.60 0.00v-3.20l-79.60 -0.00"/>
<use x="342.80" y="398.00" xlink:href="#hd"/>
<path d="M339.30 398.00v23.00" class="stroke"/>
<use x="369.10" y="404.00" xlink:href="#hd"/>
<path d="M365.60 404.00v17.00" class="stroke"/>
<use x="395.40" y="398.00" xlink:href="#hd"/>
<path d="M391.90 398.00v23.00" class="stroke"/>
<use x="421.70" y="404.00" xlink:href="#hd"/>
<path d="M418.20 404.00v17.00" class="stroke"/>
<path class="fill"
	d="M456.90 415.90l79.60 0.00v-3.20l-79.60 -0.00"/>
<use x="460.80" y="392.00" xlink:href="#hd"/>
<use x="451.80" y="392.00" xlink:href="#sh0"/>
<path d="M457.30 392.00v23.00" class="stroke"/>
<use x="487.10" y="398.00" xlink:href="#hd"/>
<path d="M483.60 398.00v17.00" class="stroke"/>
<use x="513.40" y="392.00" xlink:href="#hd"/>
<use x="504.40" y="392.00" xlink:href="#sh0"/>
<path d="M509.90 392.00v23.00" class="stroke"/>
<use x="539.70" y="398.00" xlink:href="#hd"/>
<path d="M536.20 398.00v17.00" class="stroke"/>
<path class="fill"
	d="M570.90 421.90l79.60 0.00v-3.20l-79.60 -0.00"/>
<use x="574.70" y="398.00" xlink:href="#hd"/>
<path d="M571.20 398.00v23.00" class="stroke"/>
<use x="601.00" y="404.00" xlink:href="#hd"/>
<path d="M597.50 404.00v17.00" class="stroke"/>
<use x="627.30" y="398.00" xlink:href="#hd"/>
<path d="M623.80 398.00v23.00" class="stroke"/>
<use x="653.60" y="404.00" xlink:href="#hd"/>
<path d="M650.10 404.00v17.00" class="stroke"/>
<path class="fill"
	d="M743.60 421.90l79.60 0.00v-3.20l-79.60 -0.00"/>
<use x="747.40" y="398.00" xlink:href="#hd"/>
<path d="M743.90 398.00v23.00" class="stroke"/>
<use x="773.70" y="404.00" xlink:href="#hd"/>
<path d="M770.20 404.00v17.00" class="stroke"/>
<use x="800.00" y="398.00" xlink:href="#hd"/>
<path d="M796.50 398.00v23.00" class="stroke"/>
<use x="826.30" y="404.00" xlink:href="#hd"/>
<path d="M822.80 404.00v17.00" class="stroke"/>
<path class="fill"
	d="M869.50 384.80l79.60 0.00v3.20l-79.60 -0.00"/>
<use x="866.40" y="404.00" xlink:href="#hd"/>
<path d="M869.90 404.00v-18.20" class="stroke"/>
<use x="892.70" y="413.00" xlink:href="#hd"/>
<use x="883.70" y="413.00" xlink:href="#sh0"/>
<path d="M896.20 413.00v-27.20" class="stroke"/>
<use x="919.00" y="404.00" xlink:href="#hd"/>
<path d="M922.50 404.00v-18.20" class="stroke"/>
<use x="945.30" y="413.00" xlink:href="#hd"/>
<use x="936.30" y="413.00" xlink:href="#sh0"/>
<path d="M948.80 413.00v-27.20" class="stroke"/>
<path class="fill"
	d="M976.50 421.90l79.60 0.00v-3.20l-79.60 -0.00"/>
<use x="980.30" y="398.00" xlink:href="#hd"/>
<path d="M976.80 398.00v23.00" class="stroke"/>
<use x="1006.60" y="404.00" xlink:href="#hd"/>
<path d="M1003.10 404.00v17.00" class="stroke"/>
<use x="1032.90" y="398.00" xlink:href="#hd"/>
<path d="M1029.40 398.00v23.00" class="stroke"/>
<use x="1059.20" y="404.00" xlink:href="#hd"/>
<path d="M1055.70 404.00v17.00" class="stroke"/>
<path class="fill"
	d="M1102.40 384.80l79.60 0.00v3.20l-79.60 -0.00"/>
<use x="1099.30" y="404.00" xlink:href="#hd"/>
<path d="M1102.80 404.00v-18.20" class="stroke"/>
<use x="1125.60" y="413.00" xlink:href="#hd"/>
<use x="1116.60" y="413.00" xlink:href="#sh0"/>
<path d="M1129.10 413.00v-27.20" class="stroke"/>
<use x="1151.90" y="404.00" xlink:href="#hd"/>
<path d="M1155.40 404.00v-18.20" class="stroke"/>
<use x="1178.10" y="413.00" xlink:href="#hd"/>
<use x="1169.10" y="413.00" xlink:href="#sh0"/>
<path d="M1181.60 413.00v-27.20" class="stroke"/>
</g>
</svg>
