<?xml version="1.0" standalone="no"?>
<!DOCTYPE svg PUBLIC "-//W3C//DTD SVG 1.1//EN"
	"http://www.w3.org/Graphics/SVG/1.1/DTD/svg11.dtd">
<svg xmlns="http://www.w3.org/2000/svg" version="1.1"
	xmlns:xlink="http://www.w3.org/1999/xlink"
	color="black"
	width="1208.60px" height="442.00px">
<style type="text/css">
.fill {fill: currentColor}
.stroke {stroke: currentColor; fill: none}
text{white-space: pre}
</style>
<title>../src/torus/title_no_21_page_1.abc (2) tune 1</title>
<!-- Creator: abcm2ps-8.14.6 -->
<!-- CreationDate: Jan 11, 2023 20:08 -->
<!-- CommandLine: -g ../src/torus/title_no_21_page_1.abc -O ../src/torus/title_no_21_page_1.svg -->
<g stroke-width="0.70" style="font:italic 14.00px Times">
<text x="10.00" y="28.00">Procedurally Generated</text>
<!-- title: Torus:Taurus Tune -->
</g>
<g stroke-width="0.70" style="font:20.00px Times">
<text x="604.30" y="28.00" text-anchor="middle">Torus:Taurus Tune</text>
</g>
<g stroke-width="0.70" style="font:italic 14.00px Times">
<text x="1198.60" y="28.00" text-anchor="end">(Sid.)</text>
<text x="1198.60" y="43.40" text-anchor="end">Jeff Minter</text>
<!-- subtitle: 21 of 100,000,000,000,000 -->
</g>
<g stroke-width="0.70" style="font:16.00px Times">
<text x="604.30" y="64.00" text-anchor="middle">21 of 100,000,000,000,000</text>
</g>
<g stroke-width="0.70" style="font:bold 13.00px Times">
<text x="38.28" y="224.90" text-anchor="middle">Voice 3</text>
<text x="38.28" y="166.90" text-anchor="middle">Voice 2</text>
<text x="38.28" y="108.90" text-anchor="middle">Voice 1</text>
<path class="stroke" stroke-width="1"
	d="M66.48 233.00v-140.00"/>
<path class="stroke" stroke-width="1"
	d="M280.78 175.00v-24.00"/>
<path class="stroke" stroke-width="1"
	d="M280.78 233.00v-58.00"/>
<path class="stroke" stroke-width="1"
	d="M453.88 175.00v-24.00"/>
<path class="stroke" stroke-width="1"
	d="M453.88 233.00v-58.00"/>
<path class="stroke" stroke-width="1"
	d="M627.08 175.00v-24.00"/>
<path class="stroke" stroke-width="1"
	d="M627.08 233.00v-58.00"/>
<path class="stroke" stroke-width="1"
	d="M800.28 117.00v-24.00"/>
<path class="stroke" stroke-width="1"
	d="M800.28 175.00v-58.00"/>
<path class="stroke" stroke-width="1"
	d="M800.28 233.00v-58.00"/>
<path class="stroke" stroke-width="1"
	d="M816.28 117.00v-24.00"/>
<path class="stroke" stroke-width="1"
	d="M832.28 117.00v-24.00"/>
<path class="stroke" stroke-width="1"
	d="M848.28 117.00v-24.00"/>
<path class="stroke" stroke-width="1"
	d="M1025.38 175.00v-24.00"/>
<path class="stroke" stroke-width="1"
	d="M1025.38 233.00v-58.00"/>
<path class="stroke" stroke-width="1"
	d="M1198.58 175.00v-24.00"/>
<path class="stroke" stroke-width="1"
	d="M1198.58 233.00v-58.00"/>
<path d="m66.48 117.00
	h1132.10
	M66.48 111.00
	h1132.10
	M66.48 105.00
	h1132.10
	M66.48 99.00
	h1132.10
	M66.48 93.00
	h1132.10
	" class="stroke"/>
<path d="m66.48 175.00
	h1132.10
	M66.48 169.00
	h1132.10
	M66.48 163.00
	h1132.10
	M66.48 157.00
	h1132.10
	M66.48 151.00
	h1132.10
	" class="stroke"/>
<path d="m66.48 233.00
	h1132.10
	M66.48 227.00
	h1132.10
	M66.48 221.00
	h1132.10
	M66.48 215.00
	h1132.10
	M66.48 209.00
	h1132.10
	" class="stroke"/>
<defs>
<path id="ubclef" class="fill" d="m-200 -87
	c124 -35 222 -78 254 -236
	43 -228 -167 -246 -192 -103
	59 -80 157 22 92 78
	-62 47 -115 -22 -106 -88
	21 -141 270 -136 274 52
	-1 175 -106 264 -322 297
	m357 -250
	c0 -36 51 -34 51 0
	0 37 -51 36 -51 0
	m-2 -129
	c0 -36 51 -34 51 0
	0 38 -51 37 -51 0"/>
<use id="bclef" transform="translate(0,18) scale(0.045)"
	xlink:href="#ubclef"/>
</defs>
<use x="78.48" y="99.00" xlink:href="#bclef"/>
<defs>
<path id="usharp" class="fill" d="
	m136 -702
	v890
	h32
	v-890
	m128 840
	h32
	v-888
	h-32
	m-232 286
	v116
	l338 -96
	v-116
	m-338 442
	v116
	l338 -98
	v-114"/>
<use id="sh0" transform="translate(-4,5) scale(0.018)"
	xlink:href="#usharp"/>
</defs>
<use x="93.48" y="99.00" xlink:href="#sh0"/>
<use x="98.98" y="108.00" xlink:href="#sh0"/>
<defs>
<path id="HD" class="fill" d="m-2.7 -1.4
	c1.5 -2.8 6.9 0 5.3 2.7
	-1.5 2.8 -6.9 0 -5.3 -2.7
	m8.3 1.4
	c0 -1.5 -2.2 -3 -5.6 -3
	-3.4 0 -5.6 1.5 -5.6 3
	0 1.5 2.2 3 5.6 3
	3.4 0 5.6 -1.5 5.6 -3"/>
<g id="HDD">
	<use xlink:href="#HD"/>
	<path d="m-6 -4v8m12 0v-8" class="stroke"/>
</g>
</defs>
<use x="130.78" y="96.00" xlink:href="#HDD"/>
<use x="114.98" y="96.00" xlink:href="#sh0"/>
<use x="875.48" y="96.00" xlink:href="#HDD"/>
<use x="859.68" y="96.00" xlink:href="#sh0"/>
<defs>
<path id="utclef" class="fill" d="m-50 -90
	c-72 -41 -72 -158 52 -188
	150 -10 220 188 90 256
	-114 52 -275 0 -293 -136
	-15 -181 93 -229 220 -334
	88 -87 79 -133 62 -210
	-51 33 -94 105 -89 186
	17 267 36 374 49 574
	6 96 -19 134 -77 135
	-80 1 -126 -93 -61 -133
	85 -41 133 101 31 105
	23 17 92 37 90 -92
	-10 -223 -39 -342 -50 -617
	0 -90 0 -162 96 -232
	56 72 63 230 22 289
	-74 106 -257 168 -255 316
	9 153 148 185 252 133
	86 -65 29 -192 -80 -176
	-71 12 -105 67 -59 124"/>
<use id="tclef" transform="translate(0,6) scale(0.045)"
	xlink:href="#utclef"/>
</defs>
<use x="78.48" y="169.00" xlink:href="#tclef"/>
<use x="93.48" y="151.00" xlink:href="#sh0"/>
<use x="98.98" y="160.00" xlink:href="#sh0"/>
<defs>
<path id="hl" class="stroke" d="m-6 0h12"/>
</defs>
<use x="129.78" y="181.00" xlink:href="#hl"/>
<defs>
<path id="Hd" class="fill" d="m3 -1.6
	c-1 -1.8 -7 1.4 -6 3.2
	1 1.8 7 -1.4 6 -3.2
	m0.5 -0.3
	c2 3.8 -5 7.6 -7 3.8
	-2 -3.8 5 -7.6 7 -3.8"/>
</defs>
<use x="129.78" y="181.00" xlink:href="#Hd"/>
<use x="119.78" y="181.00" xlink:href="#sh0"/>
<path d="M133.28 181.00v-21.00" class="stroke"/>
<use x="302.98" y="181.00" xlink:href="#hl"/>
<use x="302.98" y="181.00" xlink:href="#Hd"/>
<use x="292.98" y="181.00" xlink:href="#sh0"/>
<path d="M306.48 181.00v-21.00" class="stroke"/>
<use x="476.08" y="181.00" xlink:href="#hl"/>
<use x="476.08" y="184.00" xlink:href="#Hd"/>
<path d="M479.58 184.00v-21.00" class="stroke"/>
<use x="649.28" y="181.00" xlink:href="#hl"/>
<use x="649.28" y="181.00" xlink:href="#Hd"/>
<use x="639.28" y="181.00" xlink:href="#sh0"/>
<path d="M652.78 181.00v-21.00" class="stroke"/>
<use x="874.48" y="181.00" xlink:href="#hl"/>
<use x="874.48" y="181.00" xlink:href="#Hd"/>
<use x="864.48" y="181.00" xlink:href="#sh0"/>
<path d="M877.98 181.00v-21.00" class="stroke"/>
<use x="1047.58" y="181.00" xlink:href="#hl"/>
<use x="1047.58" y="181.00" xlink:href="#Hd"/>
<use x="1037.58" y="181.00" xlink:href="#sh0"/>
<path d="M1051.08 181.00v-21.00" class="stroke"/>
<use x="78.48" y="227.00" xlink:href="#tclef"/>
<use x="93.48" y="209.00" xlink:href="#sh0"/>
<use x="98.98" y="218.00" xlink:href="#sh0"/>
<path class="fill"
	d="M132.98 208.80l120.60 0.00v3.20l-120.60 -0.00"/>
<defs>
<ellipse id="hd" rx="4.1" ry="2.9"
	transform="rotate(-20)" class="fill"/>
</defs>
<use x="129.78" y="230.00" xlink:href="#hd"/>
<use x="120.78" y="230.00" xlink:href="#sh0"/>
<path d="M133.28 230.00v-20.20" class="stroke"/>
<use x="169.78" y="230.00" xlink:href="#hd"/>
<use x="160.78" y="230.00" xlink:href="#sh0"/>
<path d="M173.28 230.00v-20.20" class="stroke"/>
<use x="209.68" y="233.00" xlink:href="#hd"/>
<path d="M213.18 233.00v-23.20" class="stroke"/>
<use x="249.68" y="230.00" xlink:href="#hd"/>
<use x="240.68" y="230.00" xlink:href="#sh0"/>
<path d="M253.18 230.00v-20.20" class="stroke"/>
<path class="fill"
	d="M306.08 208.80l120.60 0.00v3.20l-120.60 -0.00"/>
<use x="302.98" y="230.00" xlink:href="#hd"/>
<use x="293.98" y="230.00" xlink:href="#sh0"/>
<path d="M306.48 230.00v-20.20" class="stroke"/>
<use x="342.88" y="230.00" xlink:href="#hd"/>
<use x="333.88" y="230.00" xlink:href="#sh0"/>
<path d="M346.38 230.00v-20.20" class="stroke"/>
<use x="382.88" y="233.00" xlink:href="#hd"/>
<path d="M386.38 233.00v-23.20" class="stroke"/>
<use x="422.88" y="230.00" xlink:href="#hd"/>
<use x="413.88" y="230.00" xlink:href="#sh0"/>
<path d="M426.38 230.00v-20.20" class="stroke"/>
<path class="fill"
	d="M479.28 212.10l120.60 0.00v3.20l-120.60 -0.00"/>
<use x="476.08" y="233.00" xlink:href="#hd"/>
<path d="M479.58 233.00v-20.00" class="stroke"/>
<use x="516.08" y="233.00" xlink:href="#hd"/>
<path d="M519.58 233.00v-20.00" class="stroke"/>
<use x="556.08" y="236.00" xlink:href="#hd"/>
<path d="M559.58 236.00v-23.00" class="stroke"/>
<use x="595.98" y="233.00" xlink:href="#hd"/>
<path d="M599.48 233.00v-20.00" class="stroke"/>
<path class="fill"
	d="M652.48 208.80l120.60 0.00v3.20l-120.60 -0.00"/>
<use x="649.28" y="230.00" xlink:href="#hd"/>
<use x="640.28" y="230.00" xlink:href="#sh0"/>
<path d="M652.78 230.00v-20.20" class="stroke"/>
<use x="689.28" y="230.00" xlink:href="#hd"/>
<use x="680.28" y="230.00" xlink:href="#sh0"/>
<path d="M692.78 230.00v-20.20" class="stroke"/>
<use x="729.18" y="233.00" xlink:href="#hd"/>
<path d="M732.68 233.00v-23.20" class="stroke"/>
<use x="769.18" y="230.00" xlink:href="#hd"/>
<use x="760.18" y="230.00" xlink:href="#sh0"/>
<path d="M772.68 230.00v-20.20" class="stroke"/>
<path class="fill"
	d="M877.58 208.80l120.60 0.00v3.20l-120.60 -0.00"/>
<use x="874.48" y="230.00" xlink:href="#hd"/>
<use x="865.48" y="230.00" xlink:href="#sh0"/>
<path d="M877.98 230.00v-20.20" class="stroke"/>
<use x="914.38" y="230.00" xlink:href="#hd"/>
<use x="905.38" y="230.00" xlink:href="#sh0"/>
<path d="M917.88 230.00v-20.20" class="stroke"/>
<use x="954.38" y="233.00" xlink:href="#hd"/>
<path d="M957.88 233.00v-23.20" class="stroke"/>
<use x="994.38" y="230.00" xlink:href="#hd"/>
<use x="985.38" y="230.00" xlink:href="#sh0"/>
<path d="M997.88 230.00v-20.20" class="stroke"/>
<path class="fill"
	d="M1050.78 208.80l120.60 0.00v3.20l-120.60 -0.00"/>
<use x="1047.58" y="230.00" xlink:href="#hd"/>
<use x="1038.58" y="230.00" xlink:href="#sh0"/>
<path d="M1051.08 230.00v-20.20" class="stroke"/>
<use x="1087.58" y="230.00" xlink:href="#hd"/>
<use x="1078.58" y="230.00" xlink:href="#sh0"/>
<path d="M1091.08 230.00v-20.20" class="stroke"/>
<use x="1127.58" y="233.00" xlink:href="#hd"/>
<path d="M1131.08 233.00v-23.20" class="stroke"/>
<use x="1167.48" y="230.00" xlink:href="#hd"/>
<use x="1158.48" y="230.00" xlink:href="#sh0"/>
<path d="M1170.98 230.00v-20.20" class="stroke"/>
</g>
<g stroke-width="0.70" style="font:bold 13.00px Times">
<path class="stroke" stroke-width="1"
	d="M10.00 419.00v-140.00"/>
<path class="stroke" stroke-width="1"
	d="M148.70 361.00v-24.00"/>
<path class="stroke" stroke-width="1"
	d="M148.70 419.00v-58.00"/>
<path class="stroke" stroke-width="1"
	d="M256.60 303.00v-24.00"/>
<path class="stroke" stroke-width="1"
	d="M256.60 361.00v-58.00"/>
<path class="stroke" stroke-width="1"
	d="M256.60 419.00v-58.00"/>
<path class="stroke" stroke-width="1"
	d="M272.60 303.00v-24.00"/>
<path class="stroke" stroke-width="1"
	d="M288.60 303.00v-24.00"/>
<path class="stroke" stroke-width="1"
	d="M304.60 303.00v-24.00"/>
<path class="stroke" stroke-width="1"
	d="M417.50 361.00v-24.00"/>
<path class="stroke" stroke-width="1"
	d="M417.50 419.00v-58.00"/>
<path class="stroke" stroke-width="1"
	d="M518.40 361.00v-24.00"/>
<path class="stroke" stroke-width="1"
	d="M518.40 419.00v-58.00"/>
<path class="stroke" stroke-width="1"
	d="M619.20 361.00v-24.00"/>
<path class="stroke" stroke-width="1"
	d="M619.20 419.00v-58.00"/>
<path class="stroke" stroke-width="1"
	d="M720.10 303.00v-24.00"/>
<path class="stroke" stroke-width="1"
	d="M720.10 361.00v-58.00"/>
<path class="stroke" stroke-width="1"
	d="M720.10 419.00v-58.00"/>
<path class="stroke" stroke-width="1"
	d="M736.10 303.00v-24.00"/>
<path class="stroke" stroke-width="1"
	d="M752.10 303.00v-24.00"/>
<path class="stroke" stroke-width="1"
	d="M768.10 303.00v-24.00"/>
<path class="stroke" stroke-width="1"
	d="M881.80 361.00v-24.00"/>
<path class="stroke" stroke-width="1"
	d="M881.80 419.00v-58.00"/>
<path class="stroke" stroke-width="1"
	d="M989.70 361.00v-24.00"/>
<path class="stroke" stroke-width="1"
	d="M989.70 419.00v-58.00"/>
<path class="stroke" stroke-width="1"
	d="M1090.50 361.00v-24.00"/>
<path class="stroke" stroke-width="1"
	d="M1090.50 419.00v-58.00"/>
<path class="stroke" stroke-width="1"
	d="M1198.60 303.00v-24.00"/>
<path class="stroke" stroke-width="1"
	d="M1198.60 361.00v-58.00"/>
<path class="stroke" stroke-width="1"
	d="M1198.60 419.00v-58.00"/>
<defs>
<g id="rdots" class="fill">
	<circle cx="0" cy="-9" r="1.2"/>
	<circle cx="0" cy="-15" r="1.2"/>
</g>
</defs>
<use x="1194.60" y="419.00" xlink:href="#rdots"/>
<path class="stroke" stroke-width="1"
	d="M1190.60 419.00v-58.00"/>
<path d="m10.00 303.00
	h1188.60
	M10.00 297.00
	h1188.60
	M10.00 291.00
	h1188.60
	M10.00 285.00
	h1188.60
	M10.00 279.00
	h1188.60
	" class="stroke"/>
<path d="m10.00 361.00
	h1188.60
	M10.00 355.00
	h1188.60
	M10.00 349.00
	h1188.60
	M10.00 343.00
	h1188.60
	M10.00 337.00
	h1188.60
	" class="stroke"/>
<path d="m10.00 419.00
	h1188.60
	M10.00 413.00
	h1188.60
	M10.00 407.00
	h1188.60
	M10.00 401.00
	h1188.60
	M10.00 395.00
	h1188.60
	" class="stroke"/>
<use x="22.00" y="285.00" xlink:href="#bclef"/>
<use x="37.00" y="285.00" xlink:href="#sh0"/>
<use x="42.50" y="294.00" xlink:href="#sh0"/>
<use x="330.90" y="285.00" xlink:href="#HDD"/>
<use x="315.10" y="285.00" xlink:href="#sh0"/>
<use x="794.40" y="282.00" xlink:href="#HDD"/>
<use x="778.60" y="282.00" xlink:href="#sh0"/>
<use x="22.00" y="355.00" xlink:href="#tclef"/>
<use x="37.00" y="337.00" xlink:href="#sh0"/>
<use x="42.50" y="346.00" xlink:href="#sh0"/>
<use x="61.00" y="367.00" xlink:href="#hl"/>
<use x="61.00" y="370.00" xlink:href="#Hd"/>
<path d="M64.50 370.00v-21.00" class="stroke"/>
<use x="168.20" y="367.00" xlink:href="#hl"/>
<use x="168.20" y="367.00" xlink:href="#Hd"/>
<use x="158.20" y="367.00" xlink:href="#sh0"/>
<path d="M171.70 367.00v-21.00" class="stroke"/>
<use x="329.90" y="367.00" xlink:href="#hl"/>
<use x="329.90" y="370.00" xlink:href="#Hd"/>
<path d="M333.40 370.00v-21.00" class="stroke"/>
<use x="430.70" y="367.00" xlink:href="#hl"/>
<use x="430.70" y="370.00" xlink:href="#Hd"/>
<path d="M434.20 370.00v-21.00" class="stroke"/>
<use x="531.60" y="367.00" xlink:href="#hl"/>
<use x="531.60" y="373.00" xlink:href="#hl"/>
<use x="531.60" y="373.00" xlink:href="#Hd"/>
<path d="M535.10 373.00v-24.00" class="stroke"/>
<use x="632.40" y="367.00" xlink:href="#hl"/>
<use x="632.40" y="370.00" xlink:href="#Hd"/>
<path d="M635.90 370.00v-21.00" class="stroke"/>
<use x="793.40" y="367.00" xlink:href="#hl"/>
<use x="793.40" y="367.00" xlink:href="#Hd"/>
<use x="783.40" y="367.00" xlink:href="#sh0"/>
<path d="M796.90 367.00v-21.00" class="stroke"/>
<use x="901.30" y="367.00" xlink:href="#hl"/>
<use x="901.30" y="367.00" xlink:href="#Hd"/>
<use x="891.30" y="367.00" xlink:href="#sh0"/>
<path d="M904.80 367.00v-21.00" class="stroke"/>
<use x="1002.80" y="367.00" xlink:href="#hl"/>
<use x="1002.80" y="370.00" xlink:href="#Hd"/>
<path d="M1006.30 370.00v-21.00" class="stroke"/>
<use x="1110.00" y="367.00" xlink:href="#hl"/>
<use x="1110.00" y="367.00" xlink:href="#Hd"/>
<use x="1100.00" y="367.00" xlink:href="#sh0"/>
<path d="M1113.50 367.00v-21.00" class="stroke"/>
<use x="22.00" y="413.00" xlink:href="#tclef"/>
<use x="37.00" y="395.00" xlink:href="#sh0"/>
<use x="42.50" y="404.00" xlink:href="#sh0"/>
<path class="fill"
	d="M64.20 398.10l70.10 0.00v3.20l-70.10 -0.00"/>
<use x="61.00" y="419.00" xlink:href="#hd"/>
<path d="M64.50 419.00v-20.00" class="stroke"/>
<use x="84.10" y="419.00" xlink:href="#hd"/>
<path d="M87.60 419.00v-20.00" class="stroke"/>
<use x="107.30" y="422.00" xlink:href="#hd"/>
<path d="M110.80 422.00v-23.00" class="stroke"/>
<use x="130.40" y="419.00" xlink:href="#hd"/>
<path d="M133.90 419.00v-20.00" class="stroke"/>
<path class="fill"
	d="M171.30 394.80l70.80 0.00v3.20l-70.80 -0.00"/>
<use x="168.20" y="416.00" xlink:href="#hd"/>
<use x="159.20" y="416.00" xlink:href="#sh0"/>
<path d="M171.70 416.00v-20.20" class="stroke"/>
<use x="191.70" y="416.00" xlink:href="#hd"/>
<use x="182.70" y="416.00" xlink:href="#sh0"/>
<path d="M195.20 416.00v-20.20" class="stroke"/>
<use x="214.80" y="419.00" xlink:href="#hd"/>
<path d="M218.30 419.00v-23.20" class="stroke"/>
<use x="238.30" y="416.00" xlink:href="#hd"/>
<use x="229.30" y="416.00" xlink:href="#sh0"/>
<path d="M241.80 416.00v-20.20" class="stroke"/>
<path class="fill"
	d="M333.00 398.10l70.10 0.00v3.20l-70.10 -0.00"/>
<use x="329.90" y="419.00" xlink:href="#hd"/>
<path d="M333.40 419.00v-20.00" class="stroke"/>
<use x="353.00" y="419.00" xlink:href="#hd"/>
<path d="M356.50 419.00v-20.00" class="stroke"/>
<use x="376.10" y="422.00" xlink:href="#hd"/>
<path d="M379.60 422.00v-23.00" class="stroke"/>
<use x="399.30" y="419.00" xlink:href="#hd"/>
<path d="M402.80 419.00v-20.00" class="stroke"/>
<path class="fill"
	d="M433.90 398.10l70.10 0.00v3.20l-70.10 -0.00"/>
<use x="430.70" y="419.00" xlink:href="#hd"/>
<path d="M434.20 419.00v-20.00" class="stroke"/>
<use x="453.90" y="419.00" xlink:href="#hd"/>
<path d="M457.40 419.00v-20.00" class="stroke"/>
<use x="477.00" y="422.00" xlink:href="#hd"/>
<path d="M480.50 422.00v-23.00" class="stroke"/>
<use x="500.10" y="419.00" xlink:href="#hd"/>
<path d="M503.60 419.00v-20.00" class="stroke"/>
<path class="fill"
	d="M534.70 400.80l70.10 0.00v3.20l-70.10 -0.00"/>
<use x="531.60" y="422.00" xlink:href="#hd"/>
<path d="M535.10 422.00v-20.20" class="stroke"/>
<use x="554.70" y="422.00" xlink:href="#hd"/>
<path d="M558.20 422.00v-20.20" class="stroke"/>
<use x="577.80" y="425.00" xlink:href="#hl"/>
<use x="577.80" y="425.00" xlink:href="#hd"/>
<path d="M581.30 425.00v-23.20" class="stroke"/>
<use x="601.00" y="422.00" xlink:href="#hd"/>
<path d="M604.50 422.00v-20.20" class="stroke"/>
<path class="fill"
	d="M635.60 398.10l70.10 0.00v3.20l-70.10 -0.00"/>
<use x="632.40" y="419.00" xlink:href="#hd"/>
<path d="M635.90 419.00v-20.00" class="stroke"/>
<use x="655.50" y="419.00" xlink:href="#hd"/>
<path d="M659.00 419.00v-20.00" class="stroke"/>
<use x="678.70" y="422.00" xlink:href="#hd"/>
<path d="M682.20 422.00v-23.00" class="stroke"/>
<use x="701.80" y="419.00" xlink:href="#hd"/>
<path d="M705.30 419.00v-20.00" class="stroke"/>
<path class="fill"
	d="M796.50 394.80l70.80 0.00v3.20l-70.80 -0.00"/>
<use x="793.40" y="416.00" xlink:href="#hd"/>
<use x="784.40" y="416.00" xlink:href="#sh0"/>
<path d="M796.90 416.00v-20.20" class="stroke"/>
<use x="816.90" y="416.00" xlink:href="#hd"/>
<use x="807.90" y="416.00" xlink:href="#sh0"/>
<path d="M820.40 416.00v-20.20" class="stroke"/>
<use x="840.00" y="419.00" xlink:href="#hd"/>
<path d="M843.50 419.00v-23.20" class="stroke"/>
<use x="863.50" y="416.00" xlink:href="#hd"/>
<use x="854.50" y="416.00" xlink:href="#sh0"/>
<path d="M867.00 416.00v-20.20" class="stroke"/>
<path class="fill"
	d="M904.40 394.80l70.80 0.00v3.20l-70.80 -0.00"/>
<use x="901.30" y="416.00" xlink:href="#hd"/>
<use x="892.30" y="416.00" xlink:href="#sh0"/>
<path d="M904.80 416.00v-20.20" class="stroke"/>
<use x="924.80" y="416.00" xlink:href="#hd"/>
<use x="915.80" y="416.00" xlink:href="#sh0"/>
<path d="M928.30 416.00v-20.20" class="stroke"/>
<use x="947.90" y="419.00" xlink:href="#hd"/>
<path d="M951.40 419.00v-23.20" class="stroke"/>
<use x="971.40" y="416.00" xlink:href="#hd"/>
<use x="962.40" y="416.00" xlink:href="#sh0"/>
<path d="M974.90 416.00v-20.20" class="stroke"/>
<path class="fill"
	d="M1006.00 398.10l70.10 0.00v3.20l-70.10 -0.00"/>
<use x="1002.80" y="419.00" xlink:href="#hd"/>
<path d="M1006.30 419.00v-20.00" class="stroke"/>
<use x="1026.00" y="419.00" xlink:href="#hd"/>
<path d="M1029.50 419.00v-20.00" class="stroke"/>
<use x="1049.10" y="422.00" xlink:href="#hd"/>
<path d="M1052.60 422.00v-23.00" class="stroke"/>
<use x="1072.30" y="419.00" xlink:href="#hd"/>
<path d="M1075.80 419.00v-20.00" class="stroke"/>
<path class="fill"
	d="M1113.20 394.80l70.80 0.00v3.20l-70.80 -0.00"/>
<use x="1110.00" y="416.00" xlink:href="#hd"/>
<use x="1101.00" y="416.00" xlink:href="#sh0"/>
<path d="M1113.50 416.00v-20.20" class="stroke"/>
<use x="1133.50" y="416.00" xlink:href="#hd"/>
<use x="1124.50" y="416.00" xlink:href="#sh0"/>
<path d="M1137.00 416.00v-20.20" class="stroke"/>
<use x="1156.70" y="419.00" xlink:href="#hd"/>
<path d="M1160.20 419.00v-23.20" class="stroke"/>
<use x="1180.20" y="416.00" xlink:href="#hd"/>
<use x="1171.20" y="416.00" xlink:href="#sh0"/>
<path d="M1183.70 416.00v-20.20" class="stroke"/>
</g>
</svg>
