<?xml version="1.0" standalone="no"?>
<!DOCTYPE svg PUBLIC "-//W3C//DTD SVG 1.1//EN"
	"http://www.w3.org/Graphics/SVG/1.1/DTD/svg11.dtd">
<svg xmlns="http://www.w3.org/2000/svg" version="1.1"
	xmlns:xlink="http://www.w3.org/1999/xlink"
	color="black"
	width="1208.60px" height="442.00px">
<style type="text/css">
.fill {fill: currentColor}
.stroke {stroke: currentColor; fill: none}
text{white-space: pre}
</style>
<title>../src/torus/title_no_19_page_1.abc (2) tune 1</title>
<!-- Creator: abcm2ps-8.14.6 -->
<!-- CreationDate: Jan 11, 2023 20:08 -->
<!-- CommandLine: -g ../src/torus/title_no_19_page_1.abc -O ../src/torus/title_no_19_page_1.svg -->
<g stroke-width="0.70" style="font:italic 14.00px Times">
<text x="10.00" y="28.00">Procedurally Generated</text>
<!-- title: Torus:Taurus Tune -->
</g>
<g stroke-width="0.70" style="font:20.00px Times">
<text x="604.30" y="28.00" text-anchor="middle">Torus:Taurus Tune</text>
</g>
<g stroke-width="0.70" style="font:italic 14.00px Times">
<text x="1198.60" y="28.00" text-anchor="end">(Sid.)</text>
<text x="1198.60" y="43.40" text-anchor="end">Jeff Minter</text>
<!-- subtitle: 19 of 100,000,000,000,000 -->
</g>
<g stroke-width="0.70" style="font:16.00px Times">
<text x="604.30" y="64.00" text-anchor="middle">19 of 100,000,000,000,000</text>
</g>
<g stroke-width="0.70" style="font:bold 13.00px Times">
<text x="38.28" y="224.90" text-anchor="middle">Voice 3</text>
<text x="38.28" y="166.90" text-anchor="middle">Voice 2</text>
<text x="38.28" y="108.90" text-anchor="middle">Voice 1</text>
<path class="stroke" stroke-width="1"
	d="M66.48 233.00v-140.00"/>
<path class="stroke" stroke-width="1"
	d="M280.78 175.00v-24.00"/>
<path class="stroke" stroke-width="1"
	d="M280.78 233.00v-58.00"/>
<path class="stroke" stroke-width="1"
	d="M453.88 175.00v-24.00"/>
<path class="stroke" stroke-width="1"
	d="M453.88 233.00v-58.00"/>
<path class="stroke" stroke-width="1"
	d="M627.08 175.00v-24.00"/>
<path class="stroke" stroke-width="1"
	d="M627.08 233.00v-58.00"/>
<path class="stroke" stroke-width="1"
	d="M800.18 117.00v-24.00"/>
<path class="stroke" stroke-width="1"
	d="M800.18 175.00v-58.00"/>
<path class="stroke" stroke-width="1"
	d="M800.18 233.00v-58.00"/>
<path class="stroke" stroke-width="1"
	d="M816.18 117.00v-24.00"/>
<path class="stroke" stroke-width="1"
	d="M832.18 117.00v-24.00"/>
<path class="stroke" stroke-width="1"
	d="M848.18 117.00v-24.00"/>
<path class="stroke" stroke-width="1"
	d="M1025.48 175.00v-24.00"/>
<path class="stroke" stroke-width="1"
	d="M1025.48 233.00v-58.00"/>
<path class="stroke" stroke-width="1"
	d="M1198.58 175.00v-24.00"/>
<path class="stroke" stroke-width="1"
	d="M1198.58 233.00v-58.00"/>
<path d="m66.48 117.00
	h1132.10
	M66.48 111.00
	h1132.10
	M66.48 105.00
	h1132.10
	M66.48 99.00
	h1132.10
	M66.48 93.00
	h1132.10
	" class="stroke"/>
<path d="m66.48 175.00
	h1132.10
	M66.48 169.00
	h1132.10
	M66.48 163.00
	h1132.10
	M66.48 157.00
	h1132.10
	M66.48 151.00
	h1132.10
	" class="stroke"/>
<path d="m66.48 233.00
	h1132.10
	M66.48 227.00
	h1132.10
	M66.48 221.00
	h1132.10
	M66.48 215.00
	h1132.10
	M66.48 209.00
	h1132.10
	" class="stroke"/>
<defs>
<path id="ubclef" class="fill" d="m-200 -87
	c124 -35 222 -78 254 -236
	43 -228 -167 -246 -192 -103
	59 -80 157 22 92 78
	-62 47 -115 -22 -106 -88
	21 -141 270 -136 274 52
	-1 175 -106 264 -322 297
	m357 -250
	c0 -36 51 -34 51 0
	0 37 -51 36 -51 0
	m-2 -129
	c0 -36 51 -34 51 0
	0 38 -51 37 -51 0"/>
<use id="bclef" transform="translate(0,18) scale(0.045)"
	xlink:href="#ubclef"/>
</defs>
<use x="78.48" y="99.00" xlink:href="#bclef"/>
<defs>
<path id="usharp" class="fill" d="
	m136 -702
	v890
	h32
	v-890
	m128 840
	h32
	v-888
	h-32
	m-232 286
	v116
	l338 -96
	v-116
	m-338 442
	v116
	l338 -98
	v-114"/>
<use id="sh0" transform="translate(-4,5) scale(0.018)"
	xlink:href="#usharp"/>
</defs>
<use x="93.48" y="99.00" xlink:href="#sh0"/>
<use x="98.98" y="108.00" xlink:href="#sh0"/>
<defs>
<path id="HD" class="fill" d="m-2.7 -1.4
	c1.5 -2.8 6.9 0 5.3 2.7
	-1.5 2.8 -6.9 0 -5.3 -2.7
	m8.3 1.4
	c0 -1.5 -2.2 -3 -5.6 -3
	-3.4 0 -5.6 1.5 -5.6 3
	0 1.5 2.2 3 5.6 3
	3.4 0 5.6 -1.5 5.6 -3"/>
<g id="HDD">
	<use xlink:href="#HD"/>
	<path d="m-6 -4v8m12 0v-8" class="stroke"/>
</g>
</defs>
<use x="130.78" y="93.00" xlink:href="#HDD"/>
<use x="114.98" y="93.00" xlink:href="#sh0"/>
<use x="875.48" y="96.00" xlink:href="#HDD"/>
<use x="859.68" y="96.00" xlink:href="#sh0"/>
<defs>
<path id="utclef" class="fill" d="m-50 -90
	c-72 -41 -72 -158 52 -188
	150 -10 220 188 90 256
	-114 52 -275 0 -293 -136
	-15 -181 93 -229 220 -334
	88 -87 79 -133 62 -210
	-51 33 -94 105 -89 186
	17 267 36 374 49 574
	6 96 -19 134 -77 135
	-80 1 -126 -93 -61 -133
	85 -41 133 101 31 105
	23 17 92 37 90 -92
	-10 -223 -39 -342 -50 -617
	0 -90 0 -162 96 -232
	56 72 63 230 22 289
	-74 106 -257 168 -255 316
	9 153 148 185 252 133
	86 -65 29 -192 -80 -176
	-71 12 -105 67 -59 124"/>
<use id="tclef" transform="translate(0,6) scale(0.045)"
	xlink:href="#utclef"/>
</defs>
<use x="78.48" y="169.00" xlink:href="#tclef"/>
<use x="93.48" y="151.00" xlink:href="#sh0"/>
<use x="98.98" y="160.00" xlink:href="#sh0"/>
<defs>
<path id="Hd" class="fill" d="m3 -1.6
	c-1 -1.8 -7 1.4 -6 3.2
	1 1.8 7 -1.4 6 -3.2
	m0.5 -0.3
	c2 3.8 -5 7.6 -7 3.8
	-2 -3.8 5 -7.6 7 -3.8"/>
</defs>
<use x="129.78" y="172.00" xlink:href="#Hd"/>
<path d="M133.28 172.00v-21.00" class="stroke"/>
<use x="302.98" y="178.00" xlink:href="#Hd"/>
<use x="292.98" y="178.00" xlink:href="#sh0"/>
<path d="M306.48 178.00v-21.00" class="stroke"/>
<defs>
<path id="hl" class="stroke" d="m-6 0h12"/>
</defs>
<use x="476.08" y="181.00" xlink:href="#hl"/>
<use x="476.08" y="181.00" xlink:href="#Hd"/>
<use x="466.08" y="181.00" xlink:href="#sh0"/>
<path d="M479.58 181.00v-21.00" class="stroke"/>
<use x="649.28" y="181.00" xlink:href="#hl"/>
<use x="649.28" y="181.00" xlink:href="#Hd"/>
<use x="639.28" y="181.00" xlink:href="#sh0"/>
<path d="M652.78 181.00v-21.00" class="stroke"/>
<use x="874.48" y="178.00" xlink:href="#Hd"/>
<use x="864.48" y="178.00" xlink:href="#sh0"/>
<path d="M877.98 178.00v-21.00" class="stroke"/>
<use x="1047.68" y="181.00" xlink:href="#hl"/>
<use x="1047.68" y="181.00" xlink:href="#Hd"/>
<use x="1037.68" y="181.00" xlink:href="#sh0"/>
<path d="M1051.18 181.00v-21.00" class="stroke"/>
<use x="78.48" y="227.00" xlink:href="#tclef"/>
<use x="93.48" y="209.00" xlink:href="#sh0"/>
<use x="98.98" y="218.00" xlink:href="#sh0"/>
<path class="fill"
	d="M132.98 198.80l120.60 5.00v3.20l-120.60 -5.00"/>
<defs>
<ellipse id="hd" rx="4.1" ry="2.9"
	transform="rotate(-20)" class="fill"/>
</defs>
<use x="129.78" y="218.00" xlink:href="#hd"/>
<path d="M133.28 218.00v-18.20" class="stroke"/>
<use x="169.78" y="224.00" xlink:href="#hd"/>
<use x="160.78" y="224.00" xlink:href="#sh0"/>
<path d="M173.28 224.00v-22.50" class="stroke"/>
<use x="209.68" y="227.00" xlink:href="#hd"/>
<use x="200.68" y="227.00" xlink:href="#sh0"/>
<path d="M213.18 227.00v-23.90" class="stroke"/>
<use x="249.68" y="227.00" xlink:href="#hd"/>
<use x="240.68" y="227.00" xlink:href="#sh0"/>
<path d="M253.18 227.00v-22.20" class="stroke"/>
<path class="fill"
	d="M306.08 206.10l120.60 0.00v3.20l-120.60 -0.00"/>
<use x="302.98" y="224.00" xlink:href="#hd"/>
<use x="293.98" y="224.00" xlink:href="#sh0"/>
<path d="M306.48 224.00v-17.00" class="stroke"/>
<use x="342.88" y="227.00" xlink:href="#hd"/>
<use x="333.88" y="227.00" xlink:href="#sh0"/>
<path d="M346.38 227.00v-20.00" class="stroke"/>
<use x="382.88" y="230.00" xlink:href="#hd"/>
<use x="373.88" y="230.00" xlink:href="#sh0"/>
<path d="M386.38 230.00v-23.00" class="stroke"/>
<use x="422.78" y="230.00" xlink:href="#hd"/>
<use x="413.78" y="230.00" xlink:href="#sh0"/>
<path d="M426.28 230.00v-23.00" class="stroke"/>
<path class="fill"
	d="M479.28 208.80l120.60 0.00v3.20l-120.60 -0.00"/>
<use x="476.08" y="227.00" xlink:href="#hd"/>
<use x="467.08" y="227.00" xlink:href="#sh0"/>
<path d="M479.58 227.00v-17.20" class="stroke"/>
<use x="516.08" y="230.00" xlink:href="#hd"/>
<use x="507.08" y="230.00" xlink:href="#sh0"/>
<path d="M519.58 230.00v-20.20" class="stroke"/>
<use x="555.98" y="233.00" xlink:href="#hd"/>
<path d="M559.48 233.00v-23.20" class="stroke"/>
<use x="595.98" y="233.00" xlink:href="#hd"/>
<path d="M599.48 233.00v-23.20" class="stroke"/>
<path class="fill"
	d="M652.38 208.80l120.60 0.00v3.20l-120.60 -0.00"/>
<use x="649.28" y="227.00" xlink:href="#hd"/>
<use x="640.28" y="227.00" xlink:href="#sh0"/>
<path d="M652.78 227.00v-17.20" class="stroke"/>
<use x="689.18" y="230.00" xlink:href="#hd"/>
<use x="680.18" y="230.00" xlink:href="#sh0"/>
<path d="M692.68 230.00v-20.20" class="stroke"/>
<use x="729.18" y="233.00" xlink:href="#hd"/>
<path d="M732.68 233.00v-23.20" class="stroke"/>
<use x="769.08" y="233.00" xlink:href="#hd"/>
<path d="M772.58 233.00v-23.20" class="stroke"/>
<path class="fill"
	d="M877.68 206.10l120.60 0.00v3.20l-120.60 -0.00"/>
<use x="874.48" y="224.00" xlink:href="#hd"/>
<use x="865.48" y="224.00" xlink:href="#sh0"/>
<path d="M877.98 224.00v-17.00" class="stroke"/>
<use x="914.48" y="227.00" xlink:href="#hd"/>
<use x="905.48" y="227.00" xlink:href="#sh0"/>
<path d="M917.98 227.00v-20.00" class="stroke"/>
<use x="954.38" y="230.00" xlink:href="#hd"/>
<use x="945.38" y="230.00" xlink:href="#sh0"/>
<path d="M957.88 230.00v-23.00" class="stroke"/>
<use x="994.38" y="230.00" xlink:href="#hd"/>
<use x="985.38" y="230.00" xlink:href="#sh0"/>
<path d="M997.88 230.00v-23.00" class="stroke"/>
<path class="fill"
	d="M1050.78 208.80l120.60 0.00v3.20l-120.60 -0.00"/>
<use x="1047.68" y="227.00" xlink:href="#hd"/>
<use x="1038.68" y="227.00" xlink:href="#sh0"/>
<path d="M1051.18 227.00v-17.20" class="stroke"/>
<use x="1087.58" y="230.00" xlink:href="#hd"/>
<use x="1078.58" y="230.00" xlink:href="#sh0"/>
<path d="M1091.08 230.00v-20.20" class="stroke"/>
<use x="1127.58" y="233.00" xlink:href="#hd"/>
<path d="M1131.08 233.00v-23.20" class="stroke"/>
<use x="1167.48" y="233.00" xlink:href="#hd"/>
<path d="M1170.98 233.00v-23.20" class="stroke"/>
</g>
<g stroke-width="0.70" style="font:bold 13.00px Times">
<path class="stroke" stroke-width="1"
	d="M10.00 419.00v-140.00"/>
<path class="stroke" stroke-width="1"
	d="M154.10 361.00v-24.00"/>
<path class="stroke" stroke-width="1"
	d="M154.10 419.00v-58.00"/>
<path class="stroke" stroke-width="1"
	d="M260.30 303.00v-24.00"/>
<path class="stroke" stroke-width="1"
	d="M260.30 361.00v-58.00"/>
<path class="stroke" stroke-width="1"
	d="M260.30 419.00v-58.00"/>
<path class="stroke" stroke-width="1"
	d="M276.30 303.00v-24.00"/>
<path class="stroke" stroke-width="1"
	d="M292.30 303.00v-24.00"/>
<path class="stroke" stroke-width="1"
	d="M308.30 303.00v-24.00"/>
<path class="stroke" stroke-width="1"
	d="M421.50 361.00v-24.00"/>
<path class="stroke" stroke-width="1"
	d="M421.50 419.00v-58.00"/>
<path class="stroke" stroke-width="1"
	d="M527.60 361.00v-24.00"/>
<path class="stroke" stroke-width="1"
	d="M527.60 419.00v-58.00"/>
<path class="stroke" stroke-width="1"
	d="M628.50 361.00v-24.00"/>
<path class="stroke" stroke-width="1"
	d="M628.50 419.00v-58.00"/>
<path class="stroke" stroke-width="1"
	d="M729.30 303.00v-24.00"/>
<path class="stroke" stroke-width="1"
	d="M729.30 361.00v-58.00"/>
<path class="stroke" stroke-width="1"
	d="M729.30 419.00v-58.00"/>
<path class="stroke" stroke-width="1"
	d="M745.30 303.00v-24.00"/>
<path class="stroke" stroke-width="1"
	d="M761.30 303.00v-24.00"/>
<path class="stroke" stroke-width="1"
	d="M777.30 303.00v-24.00"/>
<path class="stroke" stroke-width="1"
	d="M890.60 361.00v-24.00"/>
<path class="stroke" stroke-width="1"
	d="M890.60 419.00v-58.00"/>
<path class="stroke" stroke-width="1"
	d="M996.70 361.00v-24.00"/>
<path class="stroke" stroke-width="1"
	d="M996.70 419.00v-58.00"/>
<path class="stroke" stroke-width="1"
	d="M1097.60 361.00v-24.00"/>
<path class="stroke" stroke-width="1"
	d="M1097.60 419.00v-58.00"/>
<path class="stroke" stroke-width="1"
	d="M1198.60 303.00v-24.00"/>
<path class="stroke" stroke-width="1"
	d="M1198.60 361.00v-58.00"/>
<path class="stroke" stroke-width="1"
	d="M1198.60 419.00v-58.00"/>
<defs>
<g id="rdots" class="fill">
	<circle cx="0" cy="-9" r="1.2"/>
	<circle cx="0" cy="-15" r="1.2"/>
</g>
</defs>
<use x="1194.60" y="419.00" xlink:href="#rdots"/>
<path class="stroke" stroke-width="1"
	d="M1190.60 419.00v-58.00"/>
<path d="m10.00 303.00
	h1188.60
	M10.00 297.00
	h1188.60
	M10.00 291.00
	h1188.60
	M10.00 285.00
	h1188.60
	M10.00 279.00
	h1188.60
	" class="stroke"/>
<path d="m10.00 361.00
	h1188.60
	M10.00 355.00
	h1188.60
	M10.00 349.00
	h1188.60
	M10.00 343.00
	h1188.60
	M10.00 337.00
	h1188.60
	" class="stroke"/>
<path d="m10.00 419.00
	h1188.60
	M10.00 413.00
	h1188.60
	M10.00 407.00
	h1188.60
	M10.00 401.00
	h1188.60
	M10.00 395.00
	h1188.60
	" class="stroke"/>
<use x="22.00" y="285.00" xlink:href="#bclef"/>
<use x="37.00" y="285.00" xlink:href="#sh0"/>
<use x="42.50" y="294.00" xlink:href="#sh0"/>
<use x="334.60" y="285.00" xlink:href="#HDD"/>
<use x="318.80" y="285.00" xlink:href="#sh0"/>
<use x="803.60" y="285.00" xlink:href="#HDD"/>
<use x="787.80" y="285.00" xlink:href="#sh0"/>
<use x="22.00" y="355.00" xlink:href="#tclef"/>
<use x="37.00" y="337.00" xlink:href="#sh0"/>
<use x="42.50" y="346.00" xlink:href="#sh0"/>
<use x="66.50" y="367.00" xlink:href="#hl"/>
<use x="66.50" y="370.00" xlink:href="#Hd"/>
<path d="M70.00 370.00v-21.00" class="stroke"/>
<use x="172.60" y="367.00" xlink:href="#hl"/>
<use x="172.60" y="370.00" xlink:href="#Hd"/>
<path d="M176.10 370.00v-21.00" class="stroke"/>
<use x="333.60" y="367.00" xlink:href="#hl"/>
<use x="333.60" y="367.00" xlink:href="#Hd"/>
<use x="323.60" y="367.00" xlink:href="#sh0"/>
<path d="M337.10 367.00v-21.00" class="stroke"/>
<use x="440.00" y="367.00" xlink:href="#hl"/>
<use x="440.00" y="370.00" xlink:href="#Hd"/>
<path d="M443.50 370.00v-21.00" class="stroke"/>
<use x="540.80" y="367.00" xlink:href="#hl"/>
<use x="540.80" y="373.00" xlink:href="#hl"/>
<use x="540.80" y="373.00" xlink:href="#Hd"/>
<path d="M544.30 373.00v-24.00" class="stroke"/>
<use x="641.60" y="367.00" xlink:href="#hl"/>
<use x="641.60" y="373.00" xlink:href="#hl"/>
<use x="641.60" y="373.00" xlink:href="#Hd"/>
<path d="M645.10 373.00v-24.00" class="stroke"/>
<use x="802.60" y="367.00" xlink:href="#hl"/>
<use x="802.60" y="367.00" xlink:href="#Hd"/>
<use x="792.60" y="367.00" xlink:href="#sh0"/>
<path d="M806.10 367.00v-21.00" class="stroke"/>
<use x="909.10" y="367.00" xlink:href="#hl"/>
<use x="909.10" y="370.00" xlink:href="#Hd"/>
<path d="M912.60 370.00v-21.00" class="stroke"/>
<use x="1009.90" y="367.00" xlink:href="#hl"/>
<use x="1009.90" y="373.00" xlink:href="#hl"/>
<use x="1009.90" y="373.00" xlink:href="#Hd"/>
<path d="M1013.40 373.00v-24.00" class="stroke"/>
<use x="1110.70" y="367.00" xlink:href="#hl"/>
<use x="1110.70" y="373.00" xlink:href="#hl"/>
<use x="1110.70" y="373.00" xlink:href="#Hd"/>
<path d="M1114.20 373.00v-24.00" class="stroke"/>
<use x="22.00" y="413.00" xlink:href="#tclef"/>
<use x="37.00" y="395.00" xlink:href="#sh0"/>
<use x="42.50" y="404.00" xlink:href="#sh0"/>
<path class="fill"
	d="M69.70 398.10l70.10 0.00v3.20l-70.10 -0.00"/>
<use x="66.50" y="416.00" xlink:href="#hd"/>
<use x="57.50" y="416.00" xlink:href="#sh0"/>
<path d="M70.00 416.00v-17.00" class="stroke"/>
<use x="89.60" y="419.00" xlink:href="#hd"/>
<path d="M93.10 419.00v-20.00" class="stroke"/>
<use x="112.80" y="422.00" xlink:href="#hd"/>
<path d="M116.30 422.00v-23.00" class="stroke"/>
<use x="135.90" y="422.00" xlink:href="#hd"/>
<path d="M139.40 422.00v-23.00" class="stroke"/>
<path class="fill"
	d="M175.80 398.10l70.10 0.00v3.20l-70.10 -0.00"/>
<use x="172.60" y="416.00" xlink:href="#hd"/>
<use x="163.60" y="416.00" xlink:href="#sh0"/>
<path d="M176.10 416.00v-17.00" class="stroke"/>
<use x="195.80" y="419.00" xlink:href="#hd"/>
<path d="M199.30 419.00v-20.00" class="stroke"/>
<use x="218.90" y="422.00" xlink:href="#hd"/>
<path d="M222.40 422.00v-23.00" class="stroke"/>
<use x="242.00" y="422.00" xlink:href="#hd"/>
<path d="M245.50 422.00v-23.00" class="stroke"/>
<path class="fill"
	d="M336.70 394.80l70.40 0.00v3.20l-70.40 -0.00"/>
<use x="333.60" y="413.00" xlink:href="#hd"/>
<use x="324.60" y="413.00" xlink:href="#sh0"/>
<path d="M337.10 413.00v-17.20" class="stroke"/>
<use x="357.00" y="416.00" xlink:href="#hd"/>
<use x="348.00" y="416.00" xlink:href="#sh0"/>
<path d="M360.50 416.00v-20.20" class="stroke"/>
<use x="380.20" y="419.00" xlink:href="#hd"/>
<path d="M383.70 419.00v-23.20" class="stroke"/>
<use x="403.30" y="419.00" xlink:href="#hd"/>
<path d="M406.80 419.00v-23.20" class="stroke"/>
<path class="fill"
	d="M443.20 398.10l70.10 0.00v3.20l-70.10 -0.00"/>
<use x="440.00" y="416.00" xlink:href="#hd"/>
<use x="431.00" y="416.00" xlink:href="#sh0"/>
<path d="M443.50 416.00v-17.00" class="stroke"/>
<use x="463.20" y="419.00" xlink:href="#hd"/>
<path d="M466.70 419.00v-20.00" class="stroke"/>
<use x="486.30" y="422.00" xlink:href="#hd"/>
<path d="M489.80 422.00v-23.00" class="stroke"/>
<use x="509.40" y="422.00" xlink:href="#hd"/>
<path d="M512.90 422.00v-23.00" class="stroke"/>
<path class="fill"
	d="M544.00 400.80l70.20 0.00v3.20l-70.20 -0.00"/>
<use x="540.80" y="419.00" xlink:href="#hd"/>
<path d="M544.30 419.00v-17.20" class="stroke"/>
<use x="563.90" y="422.00" xlink:href="#hd"/>
<path d="M567.40 422.00v-20.20" class="stroke"/>
<use x="587.10" y="425.00" xlink:href="#hl"/>
<use x="587.10" y="425.00" xlink:href="#hd"/>
<path d="M590.60 425.00v-23.20" class="stroke"/>
<use x="610.30" y="425.00" xlink:href="#hl"/>
<use x="610.30" y="425.00" xlink:href="#hd"/>
<path d="M613.80 425.00v-23.20" class="stroke"/>
<path class="fill"
	d="M644.80 400.80l70.20 0.00v3.20l-70.20 -0.00"/>
<use x="641.60" y="419.00" xlink:href="#hd"/>
<path d="M645.10 419.00v-17.20" class="stroke"/>
<use x="664.80" y="422.00" xlink:href="#hd"/>
<path d="M668.30 422.00v-20.20" class="stroke"/>
<use x="687.90" y="425.00" xlink:href="#hl"/>
<use x="687.90" y="425.00" xlink:href="#hd"/>
<path d="M691.40 425.00v-23.20" class="stroke"/>
<use x="711.10" y="425.00" xlink:href="#hl"/>
<use x="711.10" y="425.00" xlink:href="#hd"/>
<path d="M714.60 425.00v-23.20" class="stroke"/>
<path class="fill"
	d="M805.80 394.80l70.40 0.00v3.20l-70.40 -0.00"/>
<use x="802.60" y="413.00" xlink:href="#hd"/>
<use x="793.60" y="413.00" xlink:href="#sh0"/>
<path d="M806.10 413.00v-17.20" class="stroke"/>
<use x="826.10" y="416.00" xlink:href="#hd"/>
<use x="817.10" y="416.00" xlink:href="#sh0"/>
<path d="M829.60 416.00v-20.20" class="stroke"/>
<use x="849.30" y="419.00" xlink:href="#hd"/>
<path d="M852.80 419.00v-23.20" class="stroke"/>
<use x="872.40" y="419.00" xlink:href="#hd"/>
<path d="M875.90 419.00v-23.20" class="stroke"/>
<path class="fill"
	d="M912.30 398.10l70.10 0.00v3.20l-70.10 -0.00"/>
<use x="909.10" y="416.00" xlink:href="#hd"/>
<use x="900.10" y="416.00" xlink:href="#sh0"/>
<path d="M912.60 416.00v-17.00" class="stroke"/>
<use x="932.20" y="419.00" xlink:href="#hd"/>
<path d="M935.70 419.00v-20.00" class="stroke"/>
<use x="955.40" y="422.00" xlink:href="#hd"/>
<path d="M958.90 422.00v-23.00" class="stroke"/>
<use x="978.50" y="422.00" xlink:href="#hd"/>
<path d="M982.00 422.00v-23.00" class="stroke"/>
<path class="fill"
	d="M1013.00 400.80l70.20 0.00v3.20l-70.20 -0.00"/>
<use x="1009.90" y="419.00" xlink:href="#hd"/>
<path d="M1013.40 419.00v-17.20" class="stroke"/>
<use x="1033.00" y="422.00" xlink:href="#hd"/>
<path d="M1036.50 422.00v-20.20" class="stroke"/>
<use x="1056.20" y="425.00" xlink:href="#hl"/>
<use x="1056.20" y="425.00" xlink:href="#hd"/>
<path d="M1059.70 425.00v-23.20" class="stroke"/>
<use x="1079.40" y="425.00" xlink:href="#hl"/>
<use x="1079.40" y="425.00" xlink:href="#hd"/>
<path d="M1082.90 425.00v-23.20" class="stroke"/>
<path class="fill"
	d="M1113.90 400.80l70.20 0.00v3.20l-70.20 -0.00"/>
<use x="1110.70" y="419.00" xlink:href="#hd"/>
<path d="M1114.20 419.00v-17.20" class="stroke"/>
<use x="1133.90" y="422.00" xlink:href="#hd"/>
<path d="M1137.40 422.00v-20.20" class="stroke"/>
<use x="1157.00" y="425.00" xlink:href="#hl"/>
<use x="1157.00" y="425.00" xlink:href="#hd"/>
<path d="M1160.50 425.00v-23.20" class="stroke"/>
<use x="1180.20" y="425.00" xlink:href="#hl"/>
<use x="1180.20" y="425.00" xlink:href="#hd"/>
<path d="M1183.70 425.00v-23.20" class="stroke"/>
</g>
</svg>
