<?xml version="1.0" standalone="no"?>
<!DOCTYPE svg PUBLIC "-//W3C//DTD SVG 1.1//EN"
	"http://www.w3.org/Graphics/SVG/1.1/DTD/svg11.dtd">
<svg xmlns="http://www.w3.org/2000/svg" version="1.1"
	xmlns:xlink="http://www.w3.org/1999/xlink"
	color="black"
	width="1208.60px" height="442.00px">
<style type="text/css">
.fill {fill: currentColor}
.stroke {stroke: currentColor; fill: none}
text{white-space: pre}
</style>
<title>../src/torus/title_no_15_page_1.abc (2) tune 1</title>
<!-- Creator: abcm2ps-8.14.6 -->
<!-- CreationDate: Jan 11, 2023 20:08 -->
<!-- CommandLine: -g ../src/torus/title_no_15_page_1.abc -O ../src/torus/title_no_15_page_1.svg -->
<g stroke-width="0.70" style="font:italic 14.00px Times">
<text x="10.00" y="28.00">Procedurally Generated</text>
<!-- title: Torus:Taurus Tune -->
</g>
<g stroke-width="0.70" style="font:20.00px Times">
<text x="604.30" y="28.00" text-anchor="middle">Torus:Taurus Tune</text>
</g>
<g stroke-width="0.70" style="font:italic 14.00px Times">
<text x="1198.60" y="28.00" text-anchor="end">(Sid.)</text>
<text x="1198.60" y="43.40" text-anchor="end">Jeff Minter</text>
<!-- subtitle: 15 of 100,000,000,000,000 -->
</g>
<g stroke-width="0.70" style="font:16.00px Times">
<text x="604.30" y="64.00" text-anchor="middle">15 of 100,000,000,000,000</text>
</g>
<g stroke-width="0.70" style="font:bold 13.00px Times">
<text x="38.28" y="224.90" text-anchor="middle">Voice 3</text>
<text x="38.28" y="166.90" text-anchor="middle">Voice 2</text>
<text x="38.28" y="108.90" text-anchor="middle">Voice 1</text>
<path class="stroke" stroke-width="1"
	d="M66.48 233.00v-140.00"/>
<path class="stroke" stroke-width="1"
	d="M253.78 175.00v-24.00"/>
<path class="stroke" stroke-width="1"
	d="M253.78 233.00v-58.00"/>
<path class="stroke" stroke-width="1"
	d="M403.88 175.00v-24.00"/>
<path class="stroke" stroke-width="1"
	d="M403.88 233.00v-58.00"/>
<path class="stroke" stroke-width="1"
	d="M555.08 175.00v-24.00"/>
<path class="stroke" stroke-width="1"
	d="M555.08 233.00v-58.00"/>
<path class="stroke" stroke-width="1"
	d="M705.08 117.00v-24.00"/>
<path class="stroke" stroke-width="1"
	d="M705.08 175.00v-58.00"/>
<path class="stroke" stroke-width="1"
	d="M705.08 233.00v-58.00"/>
<path class="stroke" stroke-width="1"
	d="M721.08 117.00v-24.00"/>
<path class="stroke" stroke-width="1"
	d="M737.08 117.00v-24.00"/>
<path class="stroke" stroke-width="1"
	d="M753.08 117.00v-24.00"/>
<path class="stroke" stroke-width="1"
	d="M898.38 175.00v-24.00"/>
<path class="stroke" stroke-width="1"
	d="M898.38 233.00v-58.00"/>
<path class="stroke" stroke-width="1"
	d="M1048.38 175.00v-24.00"/>
<path class="stroke" stroke-width="1"
	d="M1048.38 233.00v-58.00"/>
<path class="stroke" stroke-width="1"
	d="M1198.58 175.00v-24.00"/>
<path class="stroke" stroke-width="1"
	d="M1198.58 233.00v-58.00"/>
<path d="m66.48 117.00
	h1132.10
	M66.48 111.00
	h1132.10
	M66.48 105.00
	h1132.10
	M66.48 99.00
	h1132.10
	M66.48 93.00
	h1132.10
	" class="stroke"/>
<path d="m66.48 175.00
	h1132.10
	M66.48 169.00
	h1132.10
	M66.48 163.00
	h1132.10
	M66.48 157.00
	h1132.10
	M66.48 151.00
	h1132.10
	" class="stroke"/>
<path d="m66.48 233.00
	h1132.10
	M66.48 227.00
	h1132.10
	M66.48 221.00
	h1132.10
	M66.48 215.00
	h1132.10
	M66.48 209.00
	h1132.10
	" class="stroke"/>
<defs>
<path id="utclef" class="fill" d="m-50 -90
	c-72 -41 -72 -158 52 -188
	150 -10 220 188 90 256
	-114 52 -275 0 -293 -136
	-15 -181 93 -229 220 -334
	88 -87 79 -133 62 -210
	-51 33 -94 105 -89 186
	17 267 36 374 49 574
	6 96 -19 134 -77 135
	-80 1 -126 -93 -61 -133
	85 -41 133 101 31 105
	23 17 92 37 90 -92
	-10 -223 -39 -342 -50 -617
	0 -90 0 -162 96 -232
	56 72 63 230 22 289
	-74 106 -257 168 -255 316
	9 153 148 185 252 133
	86 -65 29 -192 -80 -176
	-71 12 -105 67 -59 124"/>
<use id="tclef" transform="translate(0,6) scale(0.045)"
	xlink:href="#utclef"/>
</defs>
<use x="78.48" y="111.00" xlink:href="#tclef"/>
<defs>
<path id="usharp" class="fill" d="
	m136 -702
	v890
	h32
	v-890
	m128 840
	h32
	v-888
	h-32
	m-232 286
	v116
	l338 -96
	v-116
	m-338 442
	v116
	l338 -98
	v-114"/>
<use id="sh0" transform="translate(-4,5) scale(0.018)"
	xlink:href="#usharp"/>
</defs>
<use x="93.48" y="93.00" xlink:href="#sh0"/>
<use x="98.98" y="102.00" xlink:href="#sh0"/>
<defs>
<path id="hl1" class="stroke" d="m-7 0h14"/>
</defs>
<use x="123.98" y="123.00" xlink:href="#hl1"/>
<defs>
<path id="HD" class="fill" d="m-2.7 -1.4
	c1.5 -2.8 6.9 0 5.3 2.7
	-1.5 2.8 -6.9 0 -5.3 -2.7
	m8.3 1.4
	c0 -1.5 -2.2 -3 -5.6 -3
	-3.4 0 -5.6 1.5 -5.6 3
	0 1.5 2.2 3 5.6 3
	3.4 0 5.6 -1.5 5.6 -3"/>
<g id="HDD">
	<use xlink:href="#HD"/>
	<path d="m-6 -4v8m12 0v-8" class="stroke"/>
</g>
</defs>
<use x="123.98" y="123.00" xlink:href="#HDD"/>
<use x="768.58" y="120.00" xlink:href="#HDD"/>
<use x="78.48" y="169.00" xlink:href="#tclef"/>
<use x="93.48" y="151.00" xlink:href="#sh0"/>
<use x="98.98" y="160.00" xlink:href="#sh0"/>
<defs>
<path id="Hd" class="fill" d="m3 -1.6
	c-1 -1.8 -7 1.4 -6 3.2
	1 1.8 7 -1.4 6 -3.2
	m0.5 -0.3
	c2 3.8 -5 7.6 -7 3.8
	-2 -3.8 5 -7.6 7 -3.8"/>
</defs>
<use x="122.98" y="172.00" xlink:href="#Hd"/>
<path d="M126.48 172.00v-21.00" class="stroke"/>
<use x="273.08" y="169.00" xlink:href="#Hd"/>
<path d="M276.58 169.00v-21.00" class="stroke"/>
<use x="424.18" y="178.00" xlink:href="#Hd"/>
<use x="414.18" y="178.00" xlink:href="#sh0"/>
<path d="M427.68 178.00v-21.00" class="stroke"/>
<use x="574.28" y="166.00" xlink:href="#Hd"/>
<path d="M577.78 166.00v-21.00" class="stroke"/>
<use x="767.58" y="169.00" xlink:href="#Hd"/>
<path d="M771.08 169.00v-21.00" class="stroke"/>
<use x="917.58" y="166.00" xlink:href="#Hd"/>
<path d="M921.08 166.00v-21.00" class="stroke"/>
<use x="1067.78" y="172.00" xlink:href="#Hd"/>
<path d="M1071.28 172.00v-21.00" class="stroke"/>
<use x="78.48" y="227.00" xlink:href="#tclef"/>
<use x="93.48" y="209.00" xlink:href="#sh0"/>
<use x="98.98" y="218.00" xlink:href="#sh0"/>
<path class="fill"
	d="M119.18 246.20l104.60 0.00v-3.20l-104.60 -0.00"/>
<defs>
<ellipse id="hd" rx="4.1" ry="2.9"
	transform="rotate(-20)" class="fill"/>
</defs>
<use x="122.98" y="224.00" xlink:href="#hd"/>
<use x="113.98" y="224.00" xlink:href="#sh0"/>
<path d="M119.48 224.00v21.20" class="stroke"/>
<use x="157.58" y="218.00" xlink:href="#hd"/>
<path d="M154.08 218.00v27.20" class="stroke"/>
<use x="192.28" y="227.00" xlink:href="#hd"/>
<use x="183.28" y="227.00" xlink:href="#sh0"/>
<path d="M188.78 227.00v18.20" class="stroke"/>
<use x="226.88" y="215.00" xlink:href="#hd"/>
<path d="M223.38 215.00v30.20" class="stroke"/>
<path class="fill"
	d="M269.18 243.20l104.60 0.00v-3.20l-104.60 -0.00"/>
<use x="273.08" y="218.00" xlink:href="#hd"/>
<path d="M269.58 218.00v24.20" class="stroke"/>
<use x="307.68" y="215.00" xlink:href="#hd"/>
<path d="M304.18 215.00v27.20" class="stroke"/>
<use x="342.28" y="224.00" xlink:href="#hd"/>
<use x="333.28" y="224.00" xlink:href="#sh0"/>
<path d="M338.78 224.00v18.20" class="stroke"/>
<use x="376.88" y="212.00" xlink:href="#hd"/>
<path d="M373.38 212.00v30.20" class="stroke"/>
<path class="fill"
	d="M427.38 198.80l104.60 0.00v3.20l-104.60 -0.00"/>
<use x="424.18" y="227.00" xlink:href="#hd"/>
<use x="415.18" y="227.00" xlink:href="#sh0"/>
<path d="M427.68 227.00v-27.20" class="stroke"/>
<use x="458.88" y="224.00" xlink:href="#hd"/>
<use x="449.88" y="224.00" xlink:href="#sh0"/>
<path d="M462.38 224.00v-24.20" class="stroke"/>
<use x="493.48" y="230.00" xlink:href="#hd"/>
<use x="484.48" y="230.00" xlink:href="#sh0"/>
<path d="M496.98 230.00v-30.20" class="stroke"/>
<use x="528.08" y="218.00" xlink:href="#hd"/>
<path d="M531.58 218.00v-18.20" class="stroke"/>
<path class="fill"
	d="M570.48 235.90l104.60 0.00v-3.20l-104.60 -0.00"/>
<use x="574.28" y="215.00" xlink:href="#hd"/>
<path d="M570.78 215.00v20.00" class="stroke"/>
<use x="608.88" y="212.00" xlink:href="#hd"/>
<path d="M605.38 212.00v23.00" class="stroke"/>
<use x="643.58" y="218.00" xlink:href="#hd"/>
<path d="M640.08 218.00v17.00" class="stroke"/>
<use x="678.18" y="209.00" xlink:href="#hd"/>
<use x="669.18" y="209.00" xlink:href="#sh0"/>
<path d="M674.68 209.00v26.00" class="stroke"/>
<path class="fill"
	d="M763.68 243.20l104.60 0.00v-3.20l-104.60 -0.00"/>
<use x="767.58" y="218.00" xlink:href="#hd"/>
<path d="M764.08 218.00v24.20" class="stroke"/>
<use x="802.18" y="215.00" xlink:href="#hd"/>
<path d="M798.68 215.00v27.20" class="stroke"/>
<use x="836.78" y="224.00" xlink:href="#hd"/>
<use x="827.78" y="224.00" xlink:href="#sh0"/>
<path d="M833.28 224.00v18.20" class="stroke"/>
<use x="871.38" y="212.00" xlink:href="#hd"/>
<path d="M867.88 212.00v30.20" class="stroke"/>
<path class="fill"
	d="M913.78 235.90l104.60 0.00v-3.20l-104.60 -0.00"/>
<use x="917.58" y="215.00" xlink:href="#hd"/>
<path d="M914.08 215.00v20.00" class="stroke"/>
<use x="952.18" y="212.00" xlink:href="#hd"/>
<path d="M948.68 212.00v23.00" class="stroke"/>
<use x="986.88" y="218.00" xlink:href="#hd"/>
<path d="M983.38 218.00v17.00" class="stroke"/>
<use x="1021.48" y="209.00" xlink:href="#hd"/>
<use x="1012.48" y="209.00" xlink:href="#sh0"/>
<path d="M1017.98 209.00v26.00" class="stroke"/>
<path class="fill"
	d="M1063.98 246.20l104.60 0.00v-3.20l-104.60 -0.00"/>
<use x="1067.78" y="224.00" xlink:href="#hd"/>
<use x="1058.78" y="224.00" xlink:href="#sh0"/>
<path d="M1064.28 224.00v21.20" class="stroke"/>
<use x="1102.38" y="218.00" xlink:href="#hd"/>
<path d="M1098.88 218.00v27.20" class="stroke"/>
<use x="1137.08" y="227.00" xlink:href="#hd"/>
<use x="1128.08" y="227.00" xlink:href="#sh0"/>
<path d="M1133.58 227.00v18.20" class="stroke"/>
<use x="1171.68" y="215.00" xlink:href="#hd"/>
<path d="M1168.18 215.00v30.20" class="stroke"/>
</g>
<g stroke-width="0.70" style="font:bold 13.00px Times">
<path class="stroke" stroke-width="1"
	d="M10.00 419.00v-140.00"/>
<path class="stroke" stroke-width="1"
	d="M161.00 303.00v-24.00"/>
<path class="stroke" stroke-width="1"
	d="M161.00 361.00v-58.00"/>
<path class="stroke" stroke-width="1"
	d="M161.00 419.00v-58.00"/>
<path class="stroke" stroke-width="1"
	d="M177.00 303.00v-24.00"/>
<path class="stroke" stroke-width="1"
	d="M193.00 303.00v-24.00"/>
<path class="stroke" stroke-width="1"
	d="M209.00 303.00v-24.00"/>
<path class="stroke" stroke-width="1"
	d="M334.40 361.00v-24.00"/>
<path class="stroke" stroke-width="1"
	d="M334.40 419.00v-58.00"/>
<path class="stroke" stroke-width="1"
	d="M453.00 361.00v-24.00"/>
<path class="stroke" stroke-width="1"
	d="M453.00 419.00v-58.00"/>
<path class="stroke" stroke-width="1"
	d="M572.70 361.00v-24.00"/>
<path class="stroke" stroke-width="1"
	d="M572.70 419.00v-58.00"/>
<path class="stroke" stroke-width="1"
	d="M687.40 303.00v-24.00"/>
<path class="stroke" stroke-width="1"
	d="M687.40 361.00v-58.00"/>
<path class="stroke" stroke-width="1"
	d="M687.40 419.00v-58.00"/>
<path class="stroke" stroke-width="1"
	d="M703.40 303.00v-24.00"/>
<path class="stroke" stroke-width="1"
	d="M719.40 303.00v-24.00"/>
<path class="stroke" stroke-width="1"
	d="M735.40 303.00v-24.00"/>
<path class="stroke" stroke-width="1"
	d="M849.50 361.00v-24.00"/>
<path class="stroke" stroke-width="1"
	d="M849.50 419.00v-58.00"/>
<path class="stroke" stroke-width="1"
	d="M964.20 361.00v-24.00"/>
<path class="stroke" stroke-width="1"
	d="M964.20 419.00v-58.00"/>
<path class="stroke" stroke-width="1"
	d="M1079.00 361.00v-24.00"/>
<path class="stroke" stroke-width="1"
	d="M1079.00 419.00v-58.00"/>
<path class="stroke" stroke-width="1"
	d="M1198.60 303.00v-24.00"/>
<path class="stroke" stroke-width="1"
	d="M1198.60 361.00v-58.00"/>
<path class="stroke" stroke-width="1"
	d="M1198.60 419.00v-58.00"/>
<defs>
<g id="rdots" class="fill">
	<circle cx="0" cy="-9" r="1.2"/>
	<circle cx="0" cy="-15" r="1.2"/>
</g>
</defs>
<use x="1194.60" y="419.00" xlink:href="#rdots"/>
<path class="stroke" stroke-width="1"
	d="M1190.60 419.00v-58.00"/>
<path d="m10.00 303.00
	h1188.60
	M10.00 297.00
	h1188.60
	M10.00 291.00
	h1188.60
	M10.00 285.00
	h1188.60
	M10.00 279.00
	h1188.60
	" class="stroke"/>
<path d="m10.00 361.00
	h1188.60
	M10.00 355.00
	h1188.60
	M10.00 349.00
	h1188.60
	M10.00 343.00
	h1188.60
	M10.00 337.00
	h1188.60
	" class="stroke"/>
<path d="m10.00 419.00
	h1188.60
	M10.00 413.00
	h1188.60
	M10.00 407.00
	h1188.60
	M10.00 401.00
	h1188.60
	M10.00 395.00
	h1188.60
	" class="stroke"/>
<use x="22.00" y="297.00" xlink:href="#tclef"/>
<use x="37.00" y="279.00" xlink:href="#sh0"/>
<use x="42.50" y="288.00" xlink:href="#sh0"/>
<use x="235.40" y="309.00" xlink:href="#hl1"/>
<use x="235.40" y="315.00" xlink:href="#hl1"/>
<use x="235.40" y="315.00" xlink:href="#HDD"/>
<use x="219.60" y="315.00" xlink:href="#sh0"/>
<use x="750.50" y="303.00" xlink:href="#HDD"/>
<use x="22.00" y="355.00" xlink:href="#tclef"/>
<use x="37.00" y="337.00" xlink:href="#sh0"/>
<use x="42.50" y="346.00" xlink:href="#sh0"/>
<use x="61.00" y="349.00" xlink:href="#Hd"/>
<path d="M64.50 349.00v-21.00" class="stroke"/>
<use x="234.40" y="364.00" xlink:href="#Hd"/>
<use x="224.40" y="364.00" xlink:href="#sh0"/>
<path d="M237.90 364.00v-21.00" class="stroke"/>
<use x="353.00" y="358.00" xlink:href="#Hd"/>
<path d="M356.50 358.00v-21.00" class="stroke"/>
<defs>
<path id="hl" class="stroke" d="m-6 0h12"/>
</defs>
<use x="472.70" y="367.00" xlink:href="#hl"/>
<use x="472.70" y="367.00" xlink:href="#Hd"/>
<use x="462.70" y="367.00" xlink:href="#sh0"/>
<path d="M476.20 367.00v-21.00" class="stroke"/>
<use x="587.40" y="355.00" xlink:href="#Hd"/>
<path d="M590.90 355.00v-21.00" class="stroke"/>
<use x="749.50" y="352.00" xlink:href="#Hd"/>
<path d="M753.00 352.00v-21.00" class="stroke"/>
<use x="864.20" y="349.00" xlink:href="#Hd"/>
<path d="M867.70 349.00v-21.00" class="stroke"/>
<use x="978.90" y="355.00" xlink:href="#Hd"/>
<path d="M982.40 355.00v-21.00" class="stroke"/>
<use x="1098.60" y="346.00" xlink:href="#Hd"/>
<use x="1088.60" y="346.00" xlink:href="#sh0"/>
<path d="M1095.10 346.00v21.00" class="stroke"/>
<use x="22.00" y="413.00" xlink:href="#tclef"/>
<use x="37.00" y="395.00" xlink:href="#sh0"/>
<use x="42.50" y="404.00" xlink:href="#sh0"/>
<path class="fill"
	d="M57.20 419.20l80.10 0.00v-3.20l-80.10 -0.00"/>
<use x="61.00" y="398.00" xlink:href="#hd"/>
<path d="M57.50 398.00v20.20" class="stroke"/>
<use x="87.50" y="395.00" xlink:href="#hd"/>
<use x="78.50" y="395.00" xlink:href="#sh0"/>
<path d="M84.00 395.00v23.20" class="stroke"/>
<use x="114.00" y="401.00" xlink:href="#hd"/>
<path d="M110.50 401.00v17.20" class="stroke"/>
<use x="140.40" y="392.00" xlink:href="#hd"/>
<use x="131.40" y="392.00" xlink:href="#sh0"/>
<path d="M136.90 392.00v26.20" class="stroke"/>
<path class="fill"
	d="M237.50 384.80l80.10 0.00v3.20l-80.10 -0.00"/>
<use x="234.40" y="413.00" xlink:href="#hd"/>
<use x="225.40" y="413.00" xlink:href="#sh0"/>
<path d="M237.90 413.00v-27.20" class="stroke"/>
<use x="260.90" y="410.00" xlink:href="#hd"/>
<use x="251.90" y="410.00" xlink:href="#sh0"/>
<path d="M264.40 410.00v-24.20" class="stroke"/>
<use x="287.30" y="416.00" xlink:href="#hd"/>
<use x="278.30" y="416.00" xlink:href="#sh0"/>
<path d="M290.80 416.00v-30.20" class="stroke"/>
<use x="313.80" y="404.00" xlink:href="#hd"/>
<path d="M317.30 404.00v-18.20" class="stroke"/>
<path class="fill"
	d="M356.20 381.80l80.10 0.00v3.20l-80.10 -0.00"/>
<use x="353.00" y="410.00" xlink:href="#hd"/>
<use x="344.00" y="410.00" xlink:href="#sh0"/>
<path d="M356.50 410.00v-27.20" class="stroke"/>
<use x="379.50" y="404.00" xlink:href="#hd"/>
<path d="M383.00 404.00v-21.20" class="stroke"/>
<use x="406.00" y="413.00" xlink:href="#hd"/>
<use x="397.00" y="413.00" xlink:href="#sh0"/>
<path d="M409.50 413.00v-30.20" class="stroke"/>
<use x="432.40" y="401.00" xlink:href="#hd"/>
<path d="M435.90 401.00v-18.20" class="stroke"/>
<path class="fill"
	d="M475.80 392.10l80.10 0.00v3.20l-80.10 -0.00"/>
<use x="472.70" y="416.00" xlink:href="#hd"/>
<use x="463.70" y="416.00" xlink:href="#sh0"/>
<path d="M476.20 416.00v-23.00" class="stroke"/>
<use x="499.10" y="413.00" xlink:href="#hd"/>
<use x="490.10" y="413.00" xlink:href="#sh0"/>
<path d="M502.60 413.00v-20.00" class="stroke"/>
<use x="525.60" y="419.00" xlink:href="#hd"/>
<path d="M529.10 419.00v-26.00" class="stroke"/>
<use x="552.10" y="410.00" xlink:href="#hd"/>
<use x="543.10" y="410.00" xlink:href="#sh0"/>
<path d="M555.60 410.00v-17.00" class="stroke"/>
<path class="fill"
	d="M583.50 429.20l80.10 0.00v-3.20l-80.10 -0.00"/>
<use x="587.40" y="404.00" xlink:href="#hd"/>
<path d="M583.90 404.00v24.20" class="stroke"/>
<use x="613.90" y="401.00" xlink:href="#hd"/>
<path d="M610.40 401.00v27.20" class="stroke"/>
<use x="640.30" y="410.00" xlink:href="#hd"/>
<use x="631.30" y="410.00" xlink:href="#sh0"/>
<path d="M636.80 410.00v18.20" class="stroke"/>
<use x="666.80" y="398.00" xlink:href="#hd"/>
<path d="M663.30 398.00v30.20" class="stroke"/>
<path class="fill"
	d="M745.60 421.90l80.10 0.00v-3.20l-80.10 -0.00"/>
<use x="749.50" y="401.00" xlink:href="#hd"/>
<path d="M746.00 401.00v20.00" class="stroke"/>
<use x="775.90" y="398.00" xlink:href="#hd"/>
<path d="M772.40 398.00v23.00" class="stroke"/>
<use x="802.40" y="404.00" xlink:href="#hd"/>
<path d="M798.90 404.00v17.00" class="stroke"/>
<use x="828.90" y="395.00" xlink:href="#hd"/>
<use x="819.90" y="395.00" xlink:href="#sh0"/>
<path d="M825.40 395.00v26.00" class="stroke"/>
<path class="fill"
	d="M860.40 419.20l80.10 0.00v-3.20l-80.10 -0.00"/>
<use x="864.20" y="398.00" xlink:href="#hd"/>
<path d="M860.70 398.00v20.20" class="stroke"/>
<use x="890.70" y="395.00" xlink:href="#hd"/>
<use x="881.70" y="395.00" xlink:href="#sh0"/>
<path d="M887.20 395.00v23.20" class="stroke"/>
<use x="917.20" y="401.00" xlink:href="#hd"/>
<path d="M913.70 401.00v17.20" class="stroke"/>
<use x="943.60" y="392.00" xlink:href="#hd"/>
<use x="934.60" y="392.00" xlink:href="#sh0"/>
<path d="M940.10 392.00v26.20" class="stroke"/>
<path class="fill"
	d="M975.10 429.20l80.10 0.00v-3.20l-80.10 -0.00"/>
<use x="978.90" y="404.00" xlink:href="#hd"/>
<path d="M975.40 404.00v24.20" class="stroke"/>
<use x="1005.40" y="401.00" xlink:href="#hd"/>
<path d="M1001.90 401.00v27.20" class="stroke"/>
<use x="1031.90" y="410.00" xlink:href="#hd"/>
<use x="1022.90" y="410.00" xlink:href="#sh0"/>
<path d="M1028.40 410.00v18.20" class="stroke"/>
<use x="1058.40" y="398.00" xlink:href="#hd"/>
<path d="M1054.90 398.00v30.20" class="stroke"/>
<path class="fill"
	d="M1094.70 415.90l80.10 0.00v-3.20l-80.10 -0.00"/>
<use x="1098.60" y="395.00" xlink:href="#hd"/>
<use x="1089.60" y="395.00" xlink:href="#sh0"/>
<path d="M1095.10 395.00v20.00" class="stroke"/>
<use x="1125.10" y="392.00" xlink:href="#hd"/>
<use x="1116.10" y="392.00" xlink:href="#sh0"/>
<path d="M1121.60 392.00v23.00" class="stroke"/>
<use x="1151.50" y="398.00" xlink:href="#hd"/>
<path d="M1148.00 398.00v17.00" class="stroke"/>
<use x="1178.00" y="389.00" xlink:href="#hl"/>
<use x="1178.00" y="389.00" xlink:href="#hd"/>
<use x="1169.00" y="389.00" xlink:href="#sh0"/>
<path d="M1174.50 389.00v26.00" class="stroke"/>
</g>
</svg>
