<?xml version="1.0" standalone="no"?>
<!DOCTYPE svg PUBLIC "-//W3C//DTD SVG 1.1//EN"
	"http://www.w3.org/Graphics/SVG/1.1/DTD/svg11.dtd">
<svg xmlns="http://www.w3.org/2000/svg" version="1.1"
	xmlns:xlink="http://www.w3.org/1999/xlink"
	color="black"
	width="1208.60px" height="442.00px">
<style type="text/css">
.fill {fill: currentColor}
.stroke {stroke: currentColor; fill: none}
text{white-space: pre}
</style>
<title>../src/torus/title_no_6_page_1.abc (2) tune 1</title>
<!-- Creator: abcm2ps-8.14.6 -->
<!-- CreationDate: Jan 11, 2023 20:08 -->
<!-- CommandLine: -g ../src/torus/title_no_6_page_1.abc -O ../src/torus/title_no_6_page_1.svg -->
<g stroke-width="0.70" style="font:italic 14.00px Times">
<text x="10.00" y="28.00">Procedurally Generated</text>
<!-- title: Torus:Taurus Tune -->
</g>
<g stroke-width="0.70" style="font:20.00px Times">
<text x="604.30" y="28.00" text-anchor="middle">Torus:Taurus Tune</text>
</g>
<g stroke-width="0.70" style="font:italic 14.00px Times">
<text x="1198.60" y="28.00" text-anchor="end">(Sid.)</text>
<text x="1198.60" y="43.40" text-anchor="end">Jeff Minter</text>
<!-- subtitle: 6 of 100,000,000,000,000 -->
</g>
<g stroke-width="0.70" style="font:16.00px Times">
<text x="604.30" y="64.00" text-anchor="middle">6 of 100,000,000,000,000</text>
</g>
<g stroke-width="0.70" style="font:bold 13.00px Times">
<text x="38.28" y="224.90" text-anchor="middle">Voice 3</text>
<text x="38.28" y="166.90" text-anchor="middle">Voice 2</text>
<text x="38.28" y="108.90" text-anchor="middle">Voice 1</text>
<path class="stroke" stroke-width="1"
	d="M66.48 233.00v-140.00"/>
<path class="stroke" stroke-width="1"
	d="M271.18 175.00v-24.00"/>
<path class="stroke" stroke-width="1"
	d="M271.18 233.00v-58.00"/>
<path class="stroke" stroke-width="1"
	d="M446.28 175.00v-24.00"/>
<path class="stroke" stroke-width="1"
	d="M446.28 233.00v-58.00"/>
<path class="stroke" stroke-width="1"
	d="M621.48 175.00v-24.00"/>
<path class="stroke" stroke-width="1"
	d="M621.48 233.00v-58.00"/>
<path class="stroke" stroke-width="1"
	d="M796.58 117.00v-24.00"/>
<path class="stroke" stroke-width="1"
	d="M796.58 175.00v-58.00"/>
<path class="stroke" stroke-width="1"
	d="M796.58 233.00v-58.00"/>
<path class="stroke" stroke-width="1"
	d="M812.58 117.00v-24.00"/>
<path class="stroke" stroke-width="1"
	d="M828.58 117.00v-24.00"/>
<path class="stroke" stroke-width="1"
	d="M844.58 117.00v-24.00"/>
<path class="stroke" stroke-width="1"
	d="M1023.48 175.00v-24.00"/>
<path class="stroke" stroke-width="1"
	d="M1023.48 233.00v-58.00"/>
<path class="stroke" stroke-width="1"
	d="M1198.58 175.00v-24.00"/>
<path class="stroke" stroke-width="1"
	d="M1198.58 233.00v-58.00"/>
<path d="m66.48 117.00
	h1132.10
	M66.48 111.00
	h1132.10
	M66.48 105.00
	h1132.10
	M66.48 99.00
	h1132.10
	M66.48 93.00
	h1132.10
	" class="stroke"/>
<path d="m66.48 175.00
	h1132.10
	M66.48 169.00
	h1132.10
	M66.48 163.00
	h1132.10
	M66.48 157.00
	h1132.10
	M66.48 151.00
	h1132.10
	" class="stroke"/>
<path d="m66.48 233.00
	h1132.10
	M66.48 227.00
	h1132.10
	M66.48 221.00
	h1132.10
	M66.48 215.00
	h1132.10
	M66.48 209.00
	h1132.10
	" class="stroke"/>
<defs>
<path id="utclef" class="fill" d="m-50 -90
	c-72 -41 -72 -158 52 -188
	150 -10 220 188 90 256
	-114 52 -275 0 -293 -136
	-15 -181 93 -229 220 -334
	88 -87 79 -133 62 -210
	-51 33 -94 105 -89 186
	17 267 36 374 49 574
	6 96 -19 134 -77 135
	-80 1 -126 -93 -61 -133
	85 -41 133 101 31 105
	23 17 92 37 90 -92
	-10 -223 -39 -342 -50 -617
	0 -90 0 -162 96 -232
	56 72 63 230 22 289
	-74 106 -257 168 -255 316
	9 153 148 185 252 133
	86 -65 29 -192 -80 -176
	-71 12 -105 67 -59 124"/>
<use id="tclef" transform="translate(0,6) scale(0.045)"
	xlink:href="#utclef"/>
</defs>
<use x="78.48" y="111.00" xlink:href="#tclef"/>
<defs>
<path id="usharp" class="fill" d="
	m136 -702
	v890
	h32
	v-890
	m128 840
	h32
	v-888
	h-32
	m-232 286
	v116
	l338 -96
	v-116
	m-338 442
	v116
	l338 -98
	v-114"/>
<use id="sh0" transform="translate(-4,5) scale(0.018)"
	xlink:href="#usharp"/>
</defs>
<use x="93.48" y="93.00" xlink:href="#sh0"/>
<use x="98.98" y="102.00" xlink:href="#sh0"/>
<defs>
<path id="HD" class="fill" d="m-2.7 -1.4
	c1.5 -2.8 6.9 0 5.3 2.7
	-1.5 2.8 -6.9 0 -5.3 -2.7
	m8.3 1.4
	c0 -1.5 -2.2 -3 -5.6 -3
	-3.4 0 -5.6 1.5 -5.6 3
	0 1.5 2.2 3 5.6 3
	3.4 0 5.6 -1.5 5.6 -3"/>
<g id="HDD">
	<use xlink:href="#HD"/>
	<path d="m-6 -4v8m12 0v-8" class="stroke"/>
</g>
</defs>
<use x="119.48" y="114.00" xlink:href="#HDD"/>
<defs>
<path id="hl1" class="stroke" d="m-7 0h14"/>
</defs>
<use x="871.78" y="123.00" xlink:href="#hl1"/>
<use x="871.78" y="129.00" xlink:href="#hl1"/>
<use x="871.78" y="129.00" xlink:href="#HDD"/>
<use x="855.98" y="129.00" xlink:href="#sh0"/>
<use x="78.48" y="169.00" xlink:href="#tclef"/>
<use x="93.48" y="151.00" xlink:href="#sh0"/>
<use x="98.98" y="160.00" xlink:href="#sh0"/>
<defs>
<path id="Hd" class="fill" d="m3 -1.6
	c-1 -1.8 -7 1.4 -6 3.2
	1 1.8 7 -1.4 6 -3.2
	m0.5 -0.3
	c2 3.8 -5 7.6 -7 3.8
	-2 -3.8 5 -7.6 7 -3.8"/>
</defs>
<use x="118.48" y="151.00" xlink:href="#Hd"/>
<path d="M114.98 151.00v21.00" class="stroke"/>
<use x="293.58" y="166.00" xlink:href="#Hd"/>
<use x="283.58" y="166.00" xlink:href="#sh0"/>
<path d="M297.08 166.00v-21.00" class="stroke"/>
<use x="468.78" y="160.00" xlink:href="#Hd"/>
<path d="M465.28 160.00v21.00" class="stroke"/>
<use x="643.88" y="169.00" xlink:href="#Hd"/>
<use x="633.88" y="169.00" xlink:href="#sh0"/>
<path d="M647.38 169.00v-21.00" class="stroke"/>
<use x="870.78" y="166.00" xlink:href="#Hd"/>
<use x="860.78" y="166.00" xlink:href="#sh0"/>
<path d="M874.28 166.00v-21.00" class="stroke"/>
<use x="1045.88" y="178.00" xlink:href="#Hd"/>
<use x="1035.88" y="178.00" xlink:href="#sh0"/>
<path d="M1049.38 178.00v-21.00" class="stroke"/>
<use x="78.48" y="227.00" xlink:href="#tclef"/>
<use x="93.48" y="209.00" xlink:href="#sh0"/>
<use x="98.98" y="218.00" xlink:href="#sh0"/>
<path class="fill"
	d="M114.68 223.90l121.90 0.00v-3.20l-121.90 -0.00"/>
<defs>
<path id="hl" class="stroke" d="m-6 0h12"/>
</defs>
<use x="118.48" y="203.00" xlink:href="#hl"/>
<use x="118.48" y="197.00" xlink:href="#hl"/>
<use x="118.48" y="191.00" xlink:href="#hl"/>
<defs>
<ellipse id="hd" rx="4.1" ry="2.9"
	transform="rotate(-20)" class="fill"/>
</defs>
<use x="118.48" y="188.00" xlink:href="#hd"/>
<path d="M114.98 188.00v35.00" class="stroke"/>
<use x="158.88" y="203.00" xlink:href="#hl"/>
<use x="158.88" y="203.00" xlink:href="#hd"/>
<use x="149.88" y="203.00" xlink:href="#sh0"/>
<path d="M155.38 203.00v20.00" class="stroke"/>
<use x="199.28" y="203.00" xlink:href="#hl"/>
<use x="199.28" y="197.00" xlink:href="#hl"/>
<use x="199.28" y="197.00" xlink:href="#hd"/>
<path d="M195.78 197.00v26.00" class="stroke"/>
<use x="239.78" y="206.00" xlink:href="#hd"/>
<use x="230.78" y="206.00" xlink:href="#sh0"/>
<path d="M236.28 206.00v17.00" class="stroke"/>
<path class="fill"
	d="M289.78 232.10l121.90 6.30v-3.20l-121.90 -6.30"/>
<use x="293.58" y="203.00" xlink:href="#hl"/>
<use x="293.58" y="203.00" xlink:href="#hd"/>
<use x="284.58" y="203.00" xlink:href="#sh0"/>
<path d="M290.08 203.00v28.10" class="stroke"/>
<use x="334.08" y="215.00" xlink:href="#hd"/>
<use x="325.08" y="215.00" xlink:href="#sh0"/>
<path d="M330.58 215.00v18.20" class="stroke"/>
<use x="374.48" y="209.00" xlink:href="#hd"/>
<path d="M370.98 209.00v26.30" class="stroke"/>
<use x="414.88" y="218.00" xlink:href="#hd"/>
<use x="405.88" y="218.00" xlink:href="#sh0"/>
<path d="M411.38 218.00v19.40" class="stroke"/>
<path class="fill"
	d="M464.88 227.50l121.90 6.80v-3.20l-121.90 -6.80"/>
<use x="468.78" y="203.00" xlink:href="#hl"/>
<use x="468.78" y="197.00" xlink:href="#hl"/>
<use x="468.78" y="197.00" xlink:href="#hd"/>
<path d="M465.28 197.00v29.50" class="stroke"/>
<use x="509.18" y="209.00" xlink:href="#hd"/>
<path d="M505.68 209.00v19.70" class="stroke"/>
<use x="549.58" y="206.00" xlink:href="#hd"/>
<path d="M546.08 206.00v25.00" class="stroke"/>
<use x="589.98" y="215.00" xlink:href="#hd"/>
<use x="580.98" y="215.00" xlink:href="#sh0"/>
<path d="M586.48 215.00v18.20" class="stroke"/>
<path class="fill"
	d="M640.08 234.90l121.90 6.80v-3.20l-121.90 -6.80"/>
<use x="643.88" y="206.00" xlink:href="#hd"/>
<use x="634.88" y="206.00" xlink:href="#sh0"/>
<path d="M640.38 206.00v28.00" class="stroke"/>
<use x="684.28" y="218.00" xlink:href="#hd"/>
<use x="675.28" y="218.00" xlink:href="#sh0"/>
<path d="M680.78 218.00v18.20" class="stroke"/>
<use x="724.78" y="215.00" xlink:href="#hd"/>
<use x="715.78" y="215.00" xlink:href="#sh0"/>
<path d="M721.28 215.00v23.40" class="stroke"/>
<use x="765.18" y="221.00" xlink:href="#hd"/>
<path d="M761.68 221.00v19.70" class="stroke"/>
<path class="fill"
	d="M866.98 232.10l121.90 6.30v-3.20l-121.90 -6.30"/>
<use x="870.78" y="203.00" xlink:href="#hl"/>
<use x="870.78" y="203.00" xlink:href="#hd"/>
<use x="861.78" y="203.00" xlink:href="#sh0"/>
<path d="M867.28 203.00v28.10" class="stroke"/>
<use x="911.18" y="215.00" xlink:href="#hd"/>
<use x="902.18" y="215.00" xlink:href="#sh0"/>
<path d="M907.68 215.00v18.20" class="stroke"/>
<use x="951.58" y="209.00" xlink:href="#hd"/>
<path d="M948.08 209.00v26.30" class="stroke"/>
<use x="991.98" y="218.00" xlink:href="#hd"/>
<use x="982.98" y="218.00" xlink:href="#sh0"/>
<path d="M988.48 218.00v19.40" class="stroke"/>
<path class="fill"
	d="M1049.08 195.80l121.90 6.80v3.20l-121.90 -6.80"/>
<use x="1045.88" y="215.00" xlink:href="#hd"/>
<use x="1036.88" y="215.00" xlink:href="#sh0"/>
<path d="M1049.38 215.00v-18.20" class="stroke"/>
<use x="1086.28" y="227.00" xlink:href="#hd"/>
<use x="1077.28" y="227.00" xlink:href="#sh0"/>
<path d="M1089.78 227.00v-28.00" class="stroke"/>
<use x="1126.78" y="224.00" xlink:href="#hd"/>
<use x="1117.78" y="224.00" xlink:href="#sh0"/>
<path d="M1130.28 224.00v-22.70" class="stroke"/>
<use x="1167.18" y="230.00" xlink:href="#hd"/>
<use x="1158.18" y="230.00" xlink:href="#sh0"/>
<path d="M1170.68 230.00v-26.50" class="stroke"/>
</g>
<g stroke-width="0.70" style="font:bold 13.00px Times">
<path class="stroke" stroke-width="1"
	d="M10.00 419.00v-140.00"/>
<path class="stroke" stroke-width="1"
	d="M149.50 361.00v-24.00"/>
<path class="stroke" stroke-width="1"
	d="M149.50 419.00v-58.00"/>
<path class="stroke" stroke-width="1"
	d="M257.50 303.00v-24.00"/>
<path class="stroke" stroke-width="1"
	d="M257.50 361.00v-58.00"/>
<path class="stroke" stroke-width="1"
	d="M257.50 419.00v-58.00"/>
<path class="stroke" stroke-width="1"
	d="M273.50 303.00v-24.00"/>
<path class="stroke" stroke-width="1"
	d="M289.50 303.00v-24.00"/>
<path class="stroke" stroke-width="1"
	d="M305.50 303.00v-24.00"/>
<path class="stroke" stroke-width="1"
	d="M407.50 361.00v-24.00"/>
<path class="stroke" stroke-width="1"
	d="M407.50 419.00v-58.00"/>
<path class="stroke" stroke-width="1"
	d="M509.20 361.00v-24.00"/>
<path class="stroke" stroke-width="1"
	d="M509.20 419.00v-58.00"/>
<path class="stroke" stroke-width="1"
	d="M610.50 361.00v-24.00"/>
<path class="stroke" stroke-width="1"
	d="M610.50 419.00v-58.00"/>
<path class="stroke" stroke-width="1"
	d="M718.90 303.00v-24.00"/>
<path class="stroke" stroke-width="1"
	d="M718.90 361.00v-58.00"/>
<path class="stroke" stroke-width="1"
	d="M718.90 419.00v-58.00"/>
<path class="stroke" stroke-width="1"
	d="M734.90 303.00v-24.00"/>
<path class="stroke" stroke-width="1"
	d="M750.90 303.00v-24.00"/>
<path class="stroke" stroke-width="1"
	d="M766.90 303.00v-24.00"/>
<path class="stroke" stroke-width="1"
	d="M880.70 361.00v-24.00"/>
<path class="stroke" stroke-width="1"
	d="M880.70 419.00v-58.00"/>
<path class="stroke" stroke-width="1"
	d="M988.70 361.00v-24.00"/>
<path class="stroke" stroke-width="1"
	d="M988.70 419.00v-58.00"/>
<path class="stroke" stroke-width="1"
	d="M1097.10 361.00v-24.00"/>
<path class="stroke" stroke-width="1"
	d="M1097.10 419.00v-58.00"/>
<path class="stroke" stroke-width="1"
	d="M1198.60 303.00v-24.00"/>
<path class="stroke" stroke-width="1"
	d="M1198.60 361.00v-58.00"/>
<path class="stroke" stroke-width="1"
	d="M1198.60 419.00v-58.00"/>
<defs>
<g id="rdots" class="fill">
	<circle cx="0" cy="-9" r="1.2"/>
	<circle cx="0" cy="-15" r="1.2"/>
</g>
</defs>
<use x="1194.60" y="419.00" xlink:href="#rdots"/>
<path class="stroke" stroke-width="1"
	d="M1190.60 419.00v-58.00"/>
<path d="m10.00 303.00
	h1188.60
	M10.00 297.00
	h1188.60
	M10.00 291.00
	h1188.60
	M10.00 285.00
	h1188.60
	M10.00 279.00
	h1188.60
	" class="stroke"/>
<path d="m10.00 361.00
	h1188.60
	M10.00 355.00
	h1188.60
	M10.00 349.00
	h1188.60
	M10.00 343.00
	h1188.60
	M10.00 337.00
	h1188.60
	" class="stroke"/>
<path d="m10.00 419.00
	h1188.60
	M10.00 413.00
	h1188.60
	M10.00 407.00
	h1188.60
	M10.00 401.00
	h1188.60
	M10.00 395.00
	h1188.60
	" class="stroke"/>
<use x="22.00" y="297.00" xlink:href="#tclef"/>
<use x="37.00" y="279.00" xlink:href="#sh0"/>
<use x="42.50" y="288.00" xlink:href="#sh0"/>
<use x="320.50" y="309.00" xlink:href="#hl1"/>
<use x="320.50" y="309.00" xlink:href="#HDD"/>
<use x="793.20" y="309.00" xlink:href="#hl1"/>
<use x="793.20" y="315.00" xlink:href="#hl1"/>
<use x="793.20" y="318.00" xlink:href="#HDD"/>
<use x="777.40" y="318.00" xlink:href="#sh0"/>
<use x="22.00" y="355.00" xlink:href="#tclef"/>
<use x="37.00" y="337.00" xlink:href="#sh0"/>
<use x="42.50" y="346.00" xlink:href="#sh0"/>
<use x="61.00" y="358.00" xlink:href="#Hd"/>
<path d="M64.50 358.00v-21.00" class="stroke"/>
<use x="169.00" y="367.00" xlink:href="#hl"/>
<use x="169.00" y="367.00" xlink:href="#Hd"/>
<use x="159.00" y="367.00" xlink:href="#sh0"/>
<path d="M172.50 367.00v-21.00" class="stroke"/>
<use x="319.50" y="346.00" xlink:href="#Hd"/>
<path d="M316.00 346.00v21.00" class="stroke"/>
<use x="420.70" y="358.00" xlink:href="#Hd"/>
<path d="M424.20 358.00v-21.00" class="stroke"/>
<use x="522.40" y="355.00" xlink:href="#Hd"/>
<path d="M525.90 355.00v-21.00" class="stroke"/>
<use x="630.00" y="364.00" xlink:href="#Hd"/>
<use x="620.00" y="364.00" xlink:href="#sh0"/>
<path d="M633.50 364.00v-21.00" class="stroke"/>
<use x="792.20" y="355.00" xlink:href="#Hd"/>
<use x="782.20" y="355.00" xlink:href="#sh0"/>
<path d="M795.70 355.00v-21.00" class="stroke"/>
<use x="900.20" y="367.00" xlink:href="#hl"/>
<use x="900.20" y="367.00" xlink:href="#Hd"/>
<use x="890.20" y="367.00" xlink:href="#sh0"/>
<path d="M903.70 367.00v-21.00" class="stroke"/>
<use x="1008.20" y="364.00" xlink:href="#Hd"/>
<use x="998.20" y="364.00" xlink:href="#sh0"/>
<path d="M1011.70 364.00v-21.00" class="stroke"/>
<use x="1110.30" y="367.00" xlink:href="#hl"/>
<use x="1110.30" y="370.00" xlink:href="#Hd"/>
<path d="M1113.80 370.00v-21.00" class="stroke"/>
<use x="22.00" y="413.00" xlink:href="#tclef"/>
<use x="37.00" y="395.00" xlink:href="#sh0"/>
<use x="42.50" y="404.00" xlink:href="#sh0"/>
<path class="fill"
	d="M57.20 426.80l70.90 7.00v-3.20l-70.90 -7.00"/>
<use x="61.00" y="395.00" xlink:href="#hd"/>
<path d="M57.50 395.00v30.90" class="stroke"/>
<use x="84.60" y="410.00" xlink:href="#hd"/>
<use x="75.60" y="410.00" xlink:href="#sh0"/>
<path d="M81.10 410.00v18.20" class="stroke"/>
<use x="107.70" y="404.00" xlink:href="#hd"/>
<path d="M104.20 404.00v26.50" class="stroke"/>
<use x="131.20" y="413.00" xlink:href="#hd"/>
<use x="122.20" y="413.00" xlink:href="#sh0"/>
<path d="M127.70 413.00v19.80" class="stroke"/>
<path class="fill"
	d="M172.10 384.80l70.90 6.30v3.20l-70.90 -6.30"/>
<use x="169.00" y="404.00" xlink:href="#hd"/>
<use x="160.00" y="404.00" xlink:href="#sh0"/>
<path d="M172.50 404.00v-18.20" class="stroke"/>
<use x="192.50" y="416.00" xlink:href="#hd"/>
<use x="183.50" y="416.00" xlink:href="#sh0"/>
<path d="M196.00 416.00v-28.10" class="stroke"/>
<use x="216.10" y="413.00" xlink:href="#hd"/>
<use x="207.10" y="413.00" xlink:href="#sh0"/>
<path d="M219.60 413.00v-23.00" class="stroke"/>
<use x="239.20" y="419.00" xlink:href="#hd"/>
<path d="M242.70 419.00v-27.00" class="stroke"/>
<path class="fill"
	d="M315.60 413.90l70.50 6.30v-3.20l-70.50 -6.30"/>
<use x="319.50" y="389.00" xlink:href="#hl"/>
<use x="319.50" y="383.00" xlink:href="#hl"/>
<use x="319.50" y="383.00" xlink:href="#hd"/>
<path d="M316.00 383.00v30.00" class="stroke"/>
<use x="342.60" y="395.00" xlink:href="#hd"/>
<path d="M339.10 395.00v20.00" class="stroke"/>
<use x="365.70" y="392.00" xlink:href="#hd"/>
<path d="M362.20 392.00v25.10" class="stroke"/>
<use x="389.20" y="401.00" xlink:href="#hd"/>
<use x="380.20" y="401.00" xlink:href="#sh0"/>
<path d="M385.70 401.00v18.20" class="stroke"/>
<path class="fill"
	d="M416.90 426.80l70.90 7.00v-3.20l-70.90 -7.00"/>
<use x="420.70" y="395.00" xlink:href="#hd"/>
<path d="M417.20 395.00v30.90" class="stroke"/>
<use x="444.30" y="410.00" xlink:href="#hd"/>
<use x="435.30" y="410.00" xlink:href="#sh0"/>
<path d="M440.80 410.00v18.20" class="stroke"/>
<use x="467.40" y="404.00" xlink:href="#hd"/>
<path d="M463.90 404.00v26.50" class="stroke"/>
<use x="490.90" y="413.00" xlink:href="#hd"/>
<use x="481.90" y="413.00" xlink:href="#sh0"/>
<path d="M487.40 413.00v19.80" class="stroke"/>
<path class="fill"
	d="M518.60 421.90l70.50 7.30v-3.20l-70.50 -7.30"/>
<use x="522.40" y="392.00" xlink:href="#hd"/>
<path d="M518.90 392.00v28.90" class="stroke"/>
<use x="545.50" y="404.00" xlink:href="#hd"/>
<path d="M542.00 404.00v19.30" class="stroke"/>
<use x="568.70" y="401.00" xlink:href="#hd"/>
<path d="M565.20 401.00v24.70" class="stroke"/>
<use x="592.20" y="410.00" xlink:href="#hd"/>
<use x="583.20" y="410.00" xlink:href="#sh0"/>
<path d="M588.70 410.00v18.20" class="stroke"/>
<path class="fill"
	d="M633.10 381.80l71.40 6.30v3.20l-71.40 -6.30"/>
<use x="630.00" y="401.00" xlink:href="#hd"/>
<use x="621.00" y="401.00" xlink:href="#sh0"/>
<path d="M633.50 401.00v-18.20" class="stroke"/>
<use x="653.50" y="413.00" xlink:href="#hd"/>
<use x="644.50" y="413.00" xlink:href="#sh0"/>
<path d="M657.00 413.00v-28.10" class="stroke"/>
<use x="677.10" y="410.00" xlink:href="#hd"/>
<use x="668.10" y="410.00" xlink:href="#sh0"/>
<path d="M680.60 410.00v-23.00" class="stroke"/>
<use x="700.60" y="416.00" xlink:href="#hd"/>
<use x="691.60" y="416.00" xlink:href="#sh0"/>
<path d="M704.10 416.00v-27.00" class="stroke"/>
<path class="fill"
	d="M788.40 421.10l70.90 6.30v-3.20l-70.90 -6.30"/>
<use x="792.20" y="392.00" xlink:href="#hd"/>
<use x="783.20" y="392.00" xlink:href="#sh0"/>
<path d="M788.70 392.00v28.10" class="stroke"/>
<use x="815.80" y="404.00" xlink:href="#hd"/>
<use x="806.80" y="404.00" xlink:href="#sh0"/>
<path d="M812.30 404.00v18.20" class="stroke"/>
<use x="839.30" y="401.00" xlink:href="#hd"/>
<use x="830.30" y="401.00" xlink:href="#sh0"/>
<path d="M835.80 401.00v23.30" class="stroke"/>
<use x="862.40" y="407.00" xlink:href="#hd"/>
<path d="M858.90 407.00v19.30" class="stroke"/>
<path class="fill"
	d="M903.30 384.80l70.90 6.30v3.20l-70.90 -6.30"/>
<use x="900.20" y="404.00" xlink:href="#hd"/>
<use x="891.20" y="404.00" xlink:href="#sh0"/>
<path d="M903.70 404.00v-18.20" class="stroke"/>
<use x="923.70" y="416.00" xlink:href="#hd"/>
<use x="914.70" y="416.00" xlink:href="#sh0"/>
<path d="M927.20 416.00v-28.10" class="stroke"/>
<use x="947.30" y="413.00" xlink:href="#hd"/>
<use x="938.30" y="413.00" xlink:href="#sh0"/>
<path d="M950.80 413.00v-23.00" class="stroke"/>
<use x="970.40" y="419.00" xlink:href="#hd"/>
<path d="M973.90 419.00v-27.00" class="stroke"/>
<path class="fill"
	d="M1011.30 381.80l71.40 6.30v3.20l-71.40 -6.30"/>
<use x="1008.20" y="401.00" xlink:href="#hd"/>
<use x="999.20" y="401.00" xlink:href="#sh0"/>
<path d="M1011.70 401.00v-18.20" class="stroke"/>
<use x="1031.70" y="413.00" xlink:href="#hd"/>
<use x="1022.70" y="413.00" xlink:href="#sh0"/>
<path d="M1035.20 413.00v-28.10" class="stroke"/>
<use x="1055.30" y="410.00" xlink:href="#hd"/>
<use x="1046.30" y="410.00" xlink:href="#sh0"/>
<path d="M1058.80 410.00v-23.00" class="stroke"/>
<use x="1078.80" y="416.00" xlink:href="#hd"/>
<use x="1069.80" y="416.00" xlink:href="#sh0"/>
<path d="M1082.30 416.00v-27.00" class="stroke"/>
<path class="fill"
	d="M1113.50 387.80l70.50 6.30v3.20l-70.50 -6.30"/>
<use x="1110.30" y="407.00" xlink:href="#hd"/>
<path d="M1113.80 407.00v-18.20" class="stroke"/>
<use x="1133.40" y="419.00" xlink:href="#hd"/>
<path d="M1136.90 419.00v-28.10" class="stroke"/>
<use x="1157.00" y="416.00" xlink:href="#hd"/>
<use x="1148.00" y="416.00" xlink:href="#sh0"/>
<path d="M1160.50 416.00v-23.10" class="stroke"/>
<use x="1180.10" y="422.00" xlink:href="#hd"/>
<path d="M1183.60 422.00v-27.00" class="stroke"/>
</g>
</svg>
