<?xml version="1.0" standalone="no"?>
<!DOCTYPE svg PUBLIC "-//W3C//DTD SVG 1.1//EN"
	"http://www.w3.org/Graphics/SVG/1.1/DTD/svg11.dtd">
<svg xmlns="http://www.w3.org/2000/svg" version="1.1"
	xmlns:xlink="http://www.w3.org/1999/xlink"
	color="black"
	width="1208.60px" height="442.00px">
<style type="text/css">
.fill {fill: currentColor}
.stroke {stroke: currentColor; fill: none}
text{white-space: pre}
</style>
<title>../src/torus/title_no_18_page_1.abc (2) tune 1</title>
<!-- Creator: abcm2ps-8.14.6 -->
<!-- CreationDate: Jan 11, 2023 20:08 -->
<!-- CommandLine: -g ../src/torus/title_no_18_page_1.abc -O ../src/torus/title_no_18_page_1.svg -->
<g stroke-width="0.70" style="font:italic 14.00px Times">
<text x="10.00" y="28.00">Procedurally Generated</text>
<!-- title: Torus:Taurus Tune -->
</g>
<g stroke-width="0.70" style="font:20.00px Times">
<text x="604.30" y="28.00" text-anchor="middle">Torus:Taurus Tune</text>
</g>
<g stroke-width="0.70" style="font:italic 14.00px Times">
<text x="1198.60" y="28.00" text-anchor="end">(Sid.)</text>
<text x="1198.60" y="43.40" text-anchor="end">Jeff Minter</text>
<!-- subtitle: 18 of 100,000,000,000,000 -->
</g>
<g stroke-width="0.70" style="font:16.00px Times">
<text x="604.30" y="64.00" text-anchor="middle">18 of 100,000,000,000,000</text>
</g>
<g stroke-width="0.70" style="font:bold 13.00px Times">
<text x="38.28" y="224.90" text-anchor="middle">Voice 3</text>
<text x="38.28" y="166.90" text-anchor="middle">Voice 2</text>
<text x="38.28" y="108.90" text-anchor="middle">Voice 1</text>
<path class="stroke" stroke-width="1"
	d="M66.48 233.00v-140.00"/>
<path class="stroke" stroke-width="1"
	d="M280.78 175.00v-24.00"/>
<path class="stroke" stroke-width="1"
	d="M280.78 233.00v-58.00"/>
<path class="stroke" stroke-width="1"
	d="M453.88 175.00v-24.00"/>
<path class="stroke" stroke-width="1"
	d="M453.88 233.00v-58.00"/>
<path class="stroke" stroke-width="1"
	d="M627.08 175.00v-24.00"/>
<path class="stroke" stroke-width="1"
	d="M627.08 233.00v-58.00"/>
<path class="stroke" stroke-width="1"
	d="M800.18 117.00v-24.00"/>
<path class="stroke" stroke-width="1"
	d="M800.18 175.00v-58.00"/>
<path class="stroke" stroke-width="1"
	d="M800.18 233.00v-58.00"/>
<path class="stroke" stroke-width="1"
	d="M816.18 117.00v-24.00"/>
<path class="stroke" stroke-width="1"
	d="M832.18 117.00v-24.00"/>
<path class="stroke" stroke-width="1"
	d="M848.18 117.00v-24.00"/>
<path class="stroke" stroke-width="1"
	d="M1025.48 175.00v-24.00"/>
<path class="stroke" stroke-width="1"
	d="M1025.48 233.00v-58.00"/>
<path class="stroke" stroke-width="1"
	d="M1198.58 175.00v-24.00"/>
<path class="stroke" stroke-width="1"
	d="M1198.58 233.00v-58.00"/>
<path d="m66.48 117.00
	h1132.10
	M66.48 111.00
	h1132.10
	M66.48 105.00
	h1132.10
	M66.48 99.00
	h1132.10
	M66.48 93.00
	h1132.10
	" class="stroke"/>
<path d="m66.48 175.00
	h1132.10
	M66.48 169.00
	h1132.10
	M66.48 163.00
	h1132.10
	M66.48 157.00
	h1132.10
	M66.48 151.00
	h1132.10
	" class="stroke"/>
<path d="m66.48 233.00
	h1132.10
	M66.48 227.00
	h1132.10
	M66.48 221.00
	h1132.10
	M66.48 215.00
	h1132.10
	M66.48 209.00
	h1132.10
	" class="stroke"/>
<defs>
<path id="ubclef" class="fill" d="m-200 -87
	c124 -35 222 -78 254 -236
	43 -228 -167 -246 -192 -103
	59 -80 157 22 92 78
	-62 47 -115 -22 -106 -88
	21 -141 270 -136 274 52
	-1 175 -106 264 -322 297
	m357 -250
	c0 -36 51 -34 51 0
	0 37 -51 36 -51 0
	m-2 -129
	c0 -36 51 -34 51 0
	0 38 -51 37 -51 0"/>
<use id="bclef" transform="translate(0,18) scale(0.045)"
	xlink:href="#ubclef"/>
</defs>
<use x="78.48" y="99.00" xlink:href="#bclef"/>
<defs>
<path id="usharp" class="fill" d="
	m136 -702
	v890
	h32
	v-890
	m128 840
	h32
	v-888
	h-32
	m-232 286
	v116
	l338 -96
	v-116
	m-338 442
	v116
	l338 -98
	v-114"/>
<use id="sh0" transform="translate(-4,5) scale(0.018)"
	xlink:href="#usharp"/>
</defs>
<use x="93.48" y="99.00" xlink:href="#sh0"/>
<use x="98.98" y="108.00" xlink:href="#sh0"/>
<defs>
<path id="HD" class="fill" d="m-2.7 -1.4
	c1.5 -2.8 6.9 0 5.3 2.7
	-1.5 2.8 -6.9 0 -5.3 -2.7
	m8.3 1.4
	c0 -1.5 -2.2 -3 -5.6 -3
	-3.4 0 -5.6 1.5 -5.6 3
	0 1.5 2.2 3 5.6 3
	3.4 0 5.6 -1.5 5.6 -3"/>
<g id="HDD">
	<use xlink:href="#HD"/>
	<path d="m-6 -4v8m12 0v-8" class="stroke"/>
</g>
</defs>
<use x="130.78" y="93.00" xlink:href="#HDD"/>
<use x="114.98" y="93.00" xlink:href="#sh0"/>
<use x="875.48" y="96.00" xlink:href="#HDD"/>
<use x="859.68" y="96.00" xlink:href="#sh0"/>
<use x="78.48" y="157.00" xlink:href="#bclef"/>
<use x="93.48" y="157.00" xlink:href="#sh0"/>
<use x="98.98" y="166.00" xlink:href="#sh0"/>
<defs>
<path id="hl" class="stroke" d="m-6 0h12"/>
</defs>
<use x="129.78" y="145.00" xlink:href="#hl"/>
<use x="129.78" y="139.00" xlink:href="#hl"/>
<defs>
<path id="Hd" class="fill" d="m3 -1.6
	c-1 -1.8 -7 1.4 -6 3.2
	1 1.8 7 -1.4 6 -3.2
	m0.5 -0.3
	c2 3.8 -5 7.6 -7 3.8
	-2 -3.8 5 -7.6 7 -3.8"/>
</defs>
<use x="129.78" y="136.00" xlink:href="#Hd"/>
<path d="M126.28 136.00v27.00" class="stroke"/>
<use x="302.98" y="145.00" xlink:href="#hl"/>
<use x="302.98" y="142.00" xlink:href="#Hd"/>
<use x="292.98" y="142.00" xlink:href="#sh0"/>
<path d="M299.48 142.00v21.00" class="stroke"/>
<use x="476.08" y="151.00" xlink:href="#Hd"/>
<use x="466.08" y="151.00" xlink:href="#sh0"/>
<path d="M472.58 151.00v21.00" class="stroke"/>
<use x="649.28" y="145.00" xlink:href="#hl"/>
<use x="649.28" y="145.00" xlink:href="#Hd"/>
<use x="639.28" y="145.00" xlink:href="#sh0"/>
<path d="M645.78 145.00v21.00" class="stroke"/>
<use x="874.48" y="145.00" xlink:href="#hl"/>
<use x="874.48" y="142.00" xlink:href="#Hd"/>
<use x="864.48" y="142.00" xlink:href="#sh0"/>
<path d="M870.98 142.00v21.00" class="stroke"/>
<use x="1047.68" y="145.00" xlink:href="#hl"/>
<use x="1047.68" y="145.00" xlink:href="#Hd"/>
<use x="1037.68" y="145.00" xlink:href="#sh0"/>
<path d="M1044.18 145.00v21.00" class="stroke"/>
<defs>
<path id="utclef" class="fill" d="m-50 -90
	c-72 -41 -72 -158 52 -188
	150 -10 220 188 90 256
	-114 52 -275 0 -293 -136
	-15 -181 93 -229 220 -334
	88 -87 79 -133 62 -210
	-51 33 -94 105 -89 186
	17 267 36 374 49 574
	6 96 -19 134 -77 135
	-80 1 -126 -93 -61 -133
	85 -41 133 101 31 105
	23 17 92 37 90 -92
	-10 -223 -39 -342 -50 -617
	0 -90 0 -162 96 -232
	56 72 63 230 22 289
	-74 106 -257 168 -255 316
	9 153 148 185 252 133
	86 -65 29 -192 -80 -176
	-71 12 -105 67 -59 124"/>
<use id="tclef" transform="translate(0,6) scale(0.045)"
	xlink:href="#utclef"/>
</defs>
<use x="78.48" y="227.00" xlink:href="#tclef"/>
<use x="93.48" y="209.00" xlink:href="#sh0"/>
<use x="98.98" y="218.00" xlink:href="#sh0"/>
<path class="fill"
	d="M132.98 198.80l120.60 5.40v3.20l-120.60 -5.40"/>
<defs>
<ellipse id="hd" rx="4.1" ry="2.9"
	transform="rotate(-20)" class="fill"/>
</defs>
<use x="129.78" y="218.00" xlink:href="#hd"/>
<path d="M133.28 218.00v-18.20" class="stroke"/>
<use x="169.78" y="224.00" xlink:href="#hd"/>
<use x="160.78" y="224.00" xlink:href="#sh0"/>
<path d="M173.28 224.00v-22.40" class="stroke"/>
<use x="209.68" y="230.00" xlink:href="#hd"/>
<path d="M213.18 230.00v-26.60" class="stroke"/>
<use x="249.68" y="227.00" xlink:href="#hd"/>
<use x="240.68" y="227.00" xlink:href="#sh0"/>
<path d="M253.18 227.00v-21.80" class="stroke"/>
<path class="fill"
	d="M306.08 204.80l120.60 4.50v3.20l-120.60 -4.50"/>
<use x="302.98" y="224.00" xlink:href="#hd"/>
<use x="293.98" y="224.00" xlink:href="#sh0"/>
<path d="M306.48 224.00v-18.20" class="stroke"/>
<use x="342.88" y="227.00" xlink:href="#hd"/>
<use x="333.88" y="227.00" xlink:href="#sh0"/>
<path d="M346.38 227.00v-19.70" class="stroke"/>
<use x="382.88" y="236.00" xlink:href="#hd"/>
<use x="373.88" y="236.00" xlink:href="#sh0"/>
<path d="M386.38 236.00v-27.20" class="stroke"/>
<use x="422.78" y="230.00" xlink:href="#hd"/>
<use x="413.78" y="230.00" xlink:href="#sh0"/>
<path d="M426.28 230.00v-19.70" class="stroke"/>
<path class="fill"
	d="M479.28 210.80l120.60 5.40v3.20l-120.60 -5.40"/>
<use x="476.08" y="230.00" xlink:href="#hd"/>
<path d="M479.58 230.00v-18.20" class="stroke"/>
<use x="516.08" y="236.00" xlink:href="#hd"/>
<use x="507.08" y="236.00" xlink:href="#sh0"/>
<path d="M519.58 236.00v-22.40" class="stroke"/>
<use x="555.98" y="239.00" xlink:href="#hl"/>
<use x="555.98" y="245.00" xlink:href="#hl"/>
<use x="555.98" y="245.00" xlink:href="#hd"/>
<use x="546.98" y="245.00" xlink:href="#sh0"/>
<path d="M559.48 245.00v-29.60" class="stroke"/>
<use x="595.98" y="239.00" xlink:href="#hl"/>
<use x="595.98" y="239.00" xlink:href="#hd"/>
<use x="586.98" y="239.00" xlink:href="#sh0"/>
<path d="M599.48 239.00v-21.80" class="stroke"/>
<path class="fill"
	d="M652.38 207.80l120.60 4.50v3.20l-120.60 -4.50"/>
<use x="649.28" y="227.00" xlink:href="#hd"/>
<use x="640.28" y="227.00" xlink:href="#sh0"/>
<path d="M652.78 227.00v-18.20" class="stroke"/>
<use x="689.18" y="230.00" xlink:href="#hd"/>
<use x="680.18" y="230.00" xlink:href="#sh0"/>
<path d="M692.68 230.00v-19.70" class="stroke"/>
<use x="729.18" y="239.00" xlink:href="#hl"/>
<use x="729.18" y="239.00" xlink:href="#hd"/>
<use x="720.18" y="239.00" xlink:href="#sh0"/>
<path d="M732.68 239.00v-27.20" class="stroke"/>
<use x="769.08" y="233.00" xlink:href="#hd"/>
<path d="M772.58 233.00v-19.70" class="stroke"/>
<path class="fill"
	d="M877.68 204.80l120.60 4.50v3.20l-120.60 -4.50"/>
<use x="874.48" y="224.00" xlink:href="#hd"/>
<use x="865.48" y="224.00" xlink:href="#sh0"/>
<path d="M877.98 224.00v-18.20" class="stroke"/>
<use x="914.48" y="227.00" xlink:href="#hd"/>
<use x="905.48" y="227.00" xlink:href="#sh0"/>
<path d="M917.98 227.00v-19.70" class="stroke"/>
<use x="954.38" y="236.00" xlink:href="#hd"/>
<use x="945.38" y="236.00" xlink:href="#sh0"/>
<path d="M957.88 236.00v-27.20" class="stroke"/>
<use x="994.38" y="230.00" xlink:href="#hd"/>
<use x="985.38" y="230.00" xlink:href="#sh0"/>
<path d="M997.88 230.00v-19.70" class="stroke"/>
<path class="fill"
	d="M1050.78 207.80l120.60 4.50v3.20l-120.60 -4.50"/>
<use x="1047.68" y="227.00" xlink:href="#hd"/>
<use x="1038.68" y="227.00" xlink:href="#sh0"/>
<path d="M1051.18 227.00v-18.20" class="stroke"/>
<use x="1087.58" y="230.00" xlink:href="#hd"/>
<use x="1078.58" y="230.00" xlink:href="#sh0"/>
<path d="M1091.08 230.00v-19.70" class="stroke"/>
<use x="1127.58" y="239.00" xlink:href="#hl"/>
<use x="1127.58" y="239.00" xlink:href="#hd"/>
<use x="1118.58" y="239.00" xlink:href="#sh0"/>
<path d="M1131.08 239.00v-27.20" class="stroke"/>
<use x="1167.48" y="233.00" xlink:href="#hd"/>
<path d="M1170.98 233.00v-19.70" class="stroke"/>
</g>
<g stroke-width="0.70" style="font:bold 13.00px Times">
<path class="stroke" stroke-width="1"
	d="M10.00 419.00v-140.00"/>
<path class="stroke" stroke-width="1"
	d="M148.70 361.00v-24.00"/>
<path class="stroke" stroke-width="1"
	d="M148.70 419.00v-58.00"/>
<path class="stroke" stroke-width="1"
	d="M245.50 303.00v-24.00"/>
<path class="stroke" stroke-width="1"
	d="M245.50 361.00v-58.00"/>
<path class="stroke" stroke-width="1"
	d="M245.50 419.00v-58.00"/>
<path class="stroke" stroke-width="1"
	d="M261.50 303.00v-24.00"/>
<path class="stroke" stroke-width="1"
	d="M277.50 303.00v-24.00"/>
<path class="stroke" stroke-width="1"
	d="M293.50 303.00v-24.00"/>
<path class="stroke" stroke-width="1"
	d="M401.20 361.00v-24.00"/>
<path class="stroke" stroke-width="1"
	d="M401.20 419.00v-58.00"/>
<path class="stroke" stroke-width="1"
	d="M519.60 361.00v-24.00"/>
<path class="stroke" stroke-width="1"
	d="M519.60 419.00v-58.00"/>
<path class="stroke" stroke-width="1"
	d="M621.40 361.00v-24.00"/>
<path class="stroke" stroke-width="1"
	d="M621.40 419.00v-58.00"/>
<path class="stroke" stroke-width="1"
	d="M738.30 303.00v-24.00"/>
<path class="stroke" stroke-width="1"
	d="M738.30 361.00v-58.00"/>
<path class="stroke" stroke-width="1"
	d="M738.30 419.00v-58.00"/>
<path class="stroke" stroke-width="1"
	d="M754.30 303.00v-24.00"/>
<path class="stroke" stroke-width="1"
	d="M770.30 303.00v-24.00"/>
<path class="stroke" stroke-width="1"
	d="M786.30 303.00v-24.00"/>
<path class="stroke" stroke-width="1"
	d="M892.60 361.00v-24.00"/>
<path class="stroke" stroke-width="1"
	d="M892.60 419.00v-58.00"/>
<path class="stroke" stroke-width="1"
	d="M1007.10 361.00v-24.00"/>
<path class="stroke" stroke-width="1"
	d="M1007.10 419.00v-58.00"/>
<path class="stroke" stroke-width="1"
	d="M1106.30 361.00v-24.00"/>
<path class="stroke" stroke-width="1"
	d="M1106.30 419.00v-58.00"/>
<path class="stroke" stroke-width="1"
	d="M1198.60 303.00v-24.00"/>
<path class="stroke" stroke-width="1"
	d="M1198.60 361.00v-58.00"/>
<path class="stroke" stroke-width="1"
	d="M1198.60 419.00v-58.00"/>
<defs>
<g id="rdots" class="fill">
	<circle cx="0" cy="-9" r="1.2"/>
	<circle cx="0" cy="-15" r="1.2"/>
</g>
</defs>
<use x="1194.60" y="419.00" xlink:href="#rdots"/>
<path class="stroke" stroke-width="1"
	d="M1190.60 419.00v-58.00"/>
<path d="m10.00 303.00
	h1188.60
	M10.00 297.00
	h1188.60
	M10.00 291.00
	h1188.60
	M10.00 285.00
	h1188.60
	M10.00 279.00
	h1188.60
	" class="stroke"/>
<path d="m10.00 361.00
	h1188.60
	M10.00 355.00
	h1188.60
	M10.00 349.00
	h1188.60
	M10.00 343.00
	h1188.60
	M10.00 337.00
	h1188.60
	" class="stroke"/>
<path d="m10.00 419.00
	h1188.60
	M10.00 413.00
	h1188.60
	M10.00 407.00
	h1188.60
	M10.00 401.00
	h1188.60
	M10.00 395.00
	h1188.60
	" class="stroke"/>
<use x="22.00" y="285.00" xlink:href="#bclef"/>
<use x="37.00" y="285.00" xlink:href="#sh0"/>
<use x="42.50" y="294.00" xlink:href="#sh0"/>
<use x="319.80" y="291.00" xlink:href="#HDD"/>
<use x="304.00" y="291.00" xlink:href="#sh0"/>
<use x="812.60" y="285.00" xlink:href="#HDD"/>
<use x="796.80" y="285.00" xlink:href="#sh0"/>
<use x="22.00" y="343.00" xlink:href="#bclef"/>
<use x="37.00" y="343.00" xlink:href="#sh0"/>
<use x="42.50" y="352.00" xlink:href="#sh0"/>
<use x="67.50" y="340.00" xlink:href="#Hd"/>
<use x="57.50" y="340.00" xlink:href="#sh0"/>
<path d="M64.00 340.00v21.00" class="stroke"/>
<use x="167.20" y="334.00" xlink:href="#Hd"/>
<path d="M163.70 334.00v21.00" class="stroke"/>
<use x="318.80" y="337.00" xlink:href="#Hd"/>
<use x="308.80" y="337.00" xlink:href="#sh0"/>
<path d="M315.30 337.00v21.00" class="stroke"/>
<use x="420.70" y="340.00" xlink:href="#Hd"/>
<use x="410.70" y="340.00" xlink:href="#sh0"/>
<path d="M417.20 340.00v21.00" class="stroke"/>
<use x="539.10" y="349.00" xlink:href="#Hd"/>
<use x="529.10" y="349.00" xlink:href="#sh0"/>
<path d="M535.60 349.00v21.00" class="stroke"/>
<use x="640.90" y="343.00" xlink:href="#Hd"/>
<use x="630.90" y="343.00" xlink:href="#sh0"/>
<path d="M637.40 343.00v21.00" class="stroke"/>
<use x="811.60" y="331.00" xlink:href="#hl"/>
<use x="811.60" y="331.00" xlink:href="#Hd"/>
<use x="801.60" y="331.00" xlink:href="#sh0"/>
<path d="M808.10 331.00v21.00" class="stroke"/>
<use x="911.10" y="334.00" xlink:href="#Hd"/>
<path d="M907.60 334.00v21.00" class="stroke"/>
<use x="1026.60" y="343.00" xlink:href="#Hd"/>
<use x="1016.60" y="343.00" xlink:href="#sh0"/>
<path d="M1023.10 343.00v21.00" class="stroke"/>
<use x="1119.30" y="337.00" xlink:href="#Hd"/>
<path d="M1115.80 337.00v21.00" class="stroke"/>
<use x="22.00" y="413.00" xlink:href="#tclef"/>
<use x="37.00" y="395.00" xlink:href="#sh0"/>
<use x="42.50" y="404.00" xlink:href="#sh0"/>
<path class="fill"
	d="M70.70 404.10l65.10 0.00v3.20l-65.10 -0.00"/>
<use x="67.50" y="422.00" xlink:href="#hd"/>
<use x="58.50" y="422.00" xlink:href="#sh0"/>
<path d="M71.00 422.00v-17.00" class="stroke"/>
<use x="89.30" y="425.00" xlink:href="#hl"/>
<use x="89.30" y="425.00" xlink:href="#hd"/>
<use x="80.30" y="425.00" xlink:href="#sh0"/>
<path d="M92.80 425.00v-20.00" class="stroke"/>
<use x="111.20" y="425.00" xlink:href="#hl"/>
<use x="111.20" y="431.00" xlink:href="#hl"/>
<use x="111.20" y="434.00" xlink:href="#hd"/>
<use x="102.20" y="434.00" xlink:href="#sh0"/>
<path d="M114.70 434.00v-29.00" class="stroke"/>
<use x="131.90" y="425.00" xlink:href="#hl"/>
<use x="131.90" y="428.00" xlink:href="#hd"/>
<path d="M135.40 428.00v-23.00" class="stroke"/>
<path class="fill"
	d="M170.40 396.80l62.20 4.20v3.20l-62.20 -4.20"/>
<use x="167.20" y="416.00" xlink:href="#hd"/>
<use x="158.20" y="416.00" xlink:href="#sh0"/>
<path d="M170.70 416.00v-18.20" class="stroke"/>
<use x="187.70" y="419.00" xlink:href="#hd"/>
<path d="M191.20 419.00v-19.80" class="stroke"/>
<use x="208.30" y="425.00" xlink:href="#hl"/>
<use x="208.30" y="428.00" xlink:href="#hd"/>
<path d="M211.80 428.00v-27.40" class="stroke"/>
<use x="228.80" y="422.00" xlink:href="#hd"/>
<path d="M232.30 422.00v-20.00" class="stroke"/>
<path class="fill"
	d="M322.00 396.80l66.20 5.10v3.20l-66.20 -5.10"/>
<use x="318.80" y="416.00" xlink:href="#hd"/>
<path d="M322.30 416.00v-18.20" class="stroke"/>
<use x="340.70" y="422.00" xlink:href="#hd"/>
<use x="331.70" y="422.00" xlink:href="#sh0"/>
<path d="M344.20 422.00v-22.50" class="stroke"/>
<use x="362.50" y="425.00" xlink:href="#hl"/>
<use x="362.50" y="431.00" xlink:href="#hl"/>
<use x="362.50" y="431.00" xlink:href="#hd"/>
<use x="353.50" y="431.00" xlink:href="#sh0"/>
<path d="M366.00 431.00v-29.80" class="stroke"/>
<use x="384.40" y="425.00" xlink:href="#hl"/>
<use x="384.40" y="425.00" xlink:href="#hd"/>
<use x="375.40" y="425.00" xlink:href="#sh0"/>
<path d="M387.90 425.00v-22.20" class="stroke"/>
<path class="fill"
	d="M423.80 404.10l65.10 0.00v3.20l-65.10 -0.00"/>
<use x="420.70" y="422.00" xlink:href="#hd"/>
<use x="411.70" y="422.00" xlink:href="#sh0"/>
<path d="M424.20 422.00v-17.00" class="stroke"/>
<use x="442.50" y="425.00" xlink:href="#hl"/>
<use x="442.50" y="425.00" xlink:href="#hd"/>
<use x="433.50" y="425.00" xlink:href="#sh0"/>
<path d="M446.00 425.00v-20.00" class="stroke"/>
<use x="464.30" y="425.00" xlink:href="#hl"/>
<use x="464.30" y="431.00" xlink:href="#hl"/>
<use x="464.30" y="434.00" xlink:href="#hd"/>
<use x="455.30" y="434.00" xlink:href="#sh0"/>
<path d="M467.80 434.00v-29.00" class="stroke"/>
<use x="485.10" y="425.00" xlink:href="#hl"/>
<use x="485.10" y="428.00" xlink:href="#hd"/>
<path d="M488.60 428.00v-23.00" class="stroke"/>
<defs>
<use id="sbclef" transform="translate(0,14.5) scale(0.037)"
	xlink:href="#ubclef"/>
</defs>
<use x="501.60" y="401.00" xlink:href="#sbclef"/>
<path class="fill"
	d="M535.20 423.40l66.20 4.30v-3.20l-66.20 -4.30"/>
<use x="539.10" y="395.00" xlink:href="#hd"/>
<use x="530.10" y="395.00" xlink:href="#sh0"/>
<path d="M535.60 395.00v27.40" class="stroke"/>
<use x="560.90" y="398.00" xlink:href="#hd"/>
<use x="551.90" y="398.00" xlink:href="#sh0"/>
<path d="M557.40 398.00v25.80" class="stroke"/>
<use x="582.80" y="407.00" xlink:href="#hd"/>
<use x="573.80" y="407.00" xlink:href="#sh0"/>
<path d="M579.30 407.00v18.20" class="stroke"/>
<use x="604.60" y="401.00" xlink:href="#hd"/>
<use x="595.60" y="401.00" xlink:href="#sh0"/>
<path d="M601.10 401.00v25.60" class="stroke"/>
<path class="fill"
	d="M637.10 417.30l63.60 4.30v-3.20l-63.60 -4.30"/>
<use x="640.90" y="389.00" xlink:href="#hl"/>
<use x="640.90" y="389.00" xlink:href="#hd"/>
<use x="631.90" y="389.00" xlink:href="#sh0"/>
<path d="M637.40 389.00v27.40" class="stroke"/>
<use x="661.40" y="392.00" xlink:href="#hd"/>
<path d="M657.90 392.00v25.70" class="stroke"/>
<use x="683.30" y="401.00" xlink:href="#hd"/>
<use x="674.30" y="401.00" xlink:href="#sh0"/>
<path d="M679.80 401.00v18.20" class="stroke"/>
<use x="703.80" y="395.00" xlink:href="#hd"/>
<path d="M700.30 395.00v25.60" class="stroke"/>
<defs>
<use id="stclef" transform="translate(0,5.4) scale(0.037)"
	xlink:href="#utclef"/>
</defs>
<use x="720.30" y="413.00" xlink:href="#stclef"/>
<path class="fill"
	d="M814.80 393.80l64.90 4.30v3.20l-64.90 -4.30"/>
<use x="811.60" y="413.00" xlink:href="#hd"/>
<use x="802.60" y="413.00" xlink:href="#sh0"/>
<path d="M815.10 413.00v-18.20" class="stroke"/>
<use x="833.40" y="416.00" xlink:href="#hd"/>
<use x="824.40" y="416.00" xlink:href="#sh0"/>
<path d="M836.90 416.00v-19.70" class="stroke"/>
<use x="855.30" y="425.00" xlink:href="#hl"/>
<use x="855.30" y="425.00" xlink:href="#hd"/>
<use x="846.30" y="425.00" xlink:href="#sh0"/>
<path d="M858.80 425.00v-27.30" class="stroke"/>
<use x="875.80" y="419.00" xlink:href="#hd"/>
<path d="M879.30 419.00v-19.90" class="stroke"/>
<path class="fill"
	d="M914.20 396.80l62.20 4.20v3.20l-62.20 -4.20"/>
<use x="911.10" y="416.00" xlink:href="#hd"/>
<use x="902.10" y="416.00" xlink:href="#sh0"/>
<path d="M914.60 416.00v-18.20" class="stroke"/>
<use x="931.60" y="419.00" xlink:href="#hd"/>
<path d="M935.10 419.00v-19.80" class="stroke"/>
<use x="952.10" y="425.00" xlink:href="#hl"/>
<use x="952.10" y="428.00" xlink:href="#hd"/>
<path d="M955.60 428.00v-27.40" class="stroke"/>
<use x="972.60" y="422.00" xlink:href="#hd"/>
<path d="M976.10 422.00v-20.00" class="stroke"/>
<use x="989.10" y="401.00" xlink:href="#sbclef"/>
<path class="fill"
	d="M1022.80 417.30l63.60 4.30v-3.20l-63.60 -4.30"/>
<use x="1026.60" y="389.00" xlink:href="#hl"/>
<use x="1026.60" y="389.00" xlink:href="#hd"/>
<use x="1017.60" y="389.00" xlink:href="#sh0"/>
<path d="M1023.10 389.00v27.40" class="stroke"/>
<use x="1047.20" y="392.00" xlink:href="#hd"/>
<path d="M1043.70 392.00v25.70" class="stroke"/>
<use x="1069.00" y="401.00" xlink:href="#hd"/>
<use x="1060.00" y="401.00" xlink:href="#sh0"/>
<path d="M1065.50 401.00v18.20" class="stroke"/>
<use x="1089.50" y="395.00" xlink:href="#hd"/>
<path d="M1086.00 395.00v25.60" class="stroke"/>
<path class="fill"
	d="M1115.50 413.20l62.50 0.00v-3.20l-62.50 -0.00"/>
<use x="1119.30" y="389.00" xlink:href="#hl"/>
<use x="1119.30" y="383.00" xlink:href="#hl"/>
<use x="1119.30" y="383.00" xlink:href="#hd"/>
<path d="M1115.80 383.00v29.20" class="stroke"/>
<use x="1140.00" y="389.00" xlink:href="#hl"/>
<use x="1140.00" y="386.00" xlink:href="#hd"/>
<path d="M1136.50 386.00v26.20" class="stroke"/>
<use x="1160.60" y="395.00" xlink:href="#hd"/>
<path d="M1157.10 395.00v17.20" class="stroke"/>
<use x="1181.10" y="389.00" xlink:href="#hl"/>
<use x="1181.10" y="389.00" xlink:href="#hd"/>
<path d="M1177.60 389.00v23.20" class="stroke"/>
</g>
</svg>
