<?xml version="1.0" standalone="no"?>
<!DOCTYPE svg PUBLIC "-//W3C//DTD SVG 1.1//EN"
	"http://www.w3.org/Graphics/SVG/1.1/DTD/svg11.dtd">
<svg xmlns="http://www.w3.org/2000/svg" version="1.1"
	xmlns:xlink="http://www.w3.org/1999/xlink"
	color="black"
	width="1208.60px" height="256.00px">
<style type="text/css">
.fill {fill: currentColor}
.stroke {stroke: currentColor; fill: none}
text{white-space: pre}
</style>
<title>../src/torus/title_no_4_page_1.abc (2) tune 1</title>
<!-- Creator: abcm2ps-8.14.6 -->
<!-- CreationDate: Jan 11, 2023 20:08 -->
<!-- CommandLine: -g ../src/torus/title_no_4_page_1.abc -O ../src/torus/title_no_4_page_1.svg -->
<g stroke-width="0.70" style="font:italic 14.00px Times">
<text x="10.00" y="28.00">Procedurally Generated</text>
<!-- title: Torus:Taurus Tune -->
</g>
<g stroke-width="0.70" style="font:20.00px Times">
<text x="604.30" y="28.00" text-anchor="middle">Torus:Taurus Tune</text>
</g>
<g stroke-width="0.70" style="font:italic 14.00px Times">
<text x="1198.60" y="28.00" text-anchor="end">(Sid.)</text>
<text x="1198.60" y="43.40" text-anchor="end">Jeff Minter</text>
<!-- subtitle: 4 of 100,000,000,000,000 -->
</g>
<g stroke-width="0.70" style="font:16.00px Times">
<text x="604.30" y="64.00" text-anchor="middle">4 of 100,000,000,000,000</text>
</g>
<g stroke-width="0.70" style="font:bold 13.00px Times">
<text x="38.28" y="224.90" text-anchor="middle">Voice 3</text>
<text x="38.28" y="166.90" text-anchor="middle">Voice 2</text>
<text x="38.28" y="108.90" text-anchor="middle">Voice 1</text>
<path class="stroke" stroke-width="1"
	d="M66.48 233.00v-140.00"/>
<path class="stroke" stroke-width="1"
	d="M167.78 175.00v-24.00"/>
<path class="stroke" stroke-width="1"
	d="M167.78 233.00v-58.00"/>
<path class="stroke" stroke-width="1"
	d="M226.58 175.00v-24.00"/>
<path class="stroke" stroke-width="1"
	d="M226.58 233.00v-58.00"/>
<path class="stroke" stroke-width="1"
	d="M285.38 175.00v-24.00"/>
<path class="stroke" stroke-width="1"
	d="M285.38 233.00v-58.00"/>
<path class="stroke" stroke-width="1"
	d="M343.08 117.00v-24.00"/>
<path class="stroke" stroke-width="1"
	d="M343.08 175.00v-58.00"/>
<path class="stroke" stroke-width="1"
	d="M343.08 233.00v-58.00"/>
<path class="stroke" stroke-width="1"
	d="M359.08 117.00v-24.00"/>
<path class="stroke" stroke-width="1"
	d="M375.08 117.00v-24.00"/>
<path class="stroke" stroke-width="1"
	d="M391.08 117.00v-24.00"/>
<path class="stroke" stroke-width="1"
	d="M450.88 175.00v-24.00"/>
<path class="stroke" stroke-width="1"
	d="M450.88 233.00v-58.00"/>
<path class="stroke" stroke-width="1"
	d="M510.78 175.00v-24.00"/>
<path class="stroke" stroke-width="1"
	d="M510.78 233.00v-58.00"/>
<path class="stroke" stroke-width="1"
	d="M570.58 175.00v-24.00"/>
<path class="stroke" stroke-width="1"
	d="M570.58 233.00v-58.00"/>
<path class="stroke" stroke-width="1"
	d="M628.38 117.00v-24.00"/>
<path class="stroke" stroke-width="1"
	d="M628.38 175.00v-58.00"/>
<path class="stroke" stroke-width="1"
	d="M628.38 233.00v-58.00"/>
<path class="stroke" stroke-width="1"
	d="M644.38 117.00v-24.00"/>
<path class="stroke" stroke-width="1"
	d="M660.38 117.00v-24.00"/>
<path class="stroke" stroke-width="1"
	d="M676.38 117.00v-24.00"/>
<path class="stroke" stroke-width="1"
	d="M736.18 175.00v-24.00"/>
<path class="stroke" stroke-width="1"
	d="M736.18 233.00v-58.00"/>
<path class="stroke" stroke-width="1"
	d="M795.98 175.00v-24.00"/>
<path class="stroke" stroke-width="1"
	d="M795.98 233.00v-58.00"/>
<path class="stroke" stroke-width="1"
	d="M855.78 175.00v-24.00"/>
<path class="stroke" stroke-width="1"
	d="M855.78 233.00v-58.00"/>
<path class="stroke" stroke-width="1"
	d="M913.58 117.00v-24.00"/>
<path class="stroke" stroke-width="1"
	d="M913.58 175.00v-58.00"/>
<path class="stroke" stroke-width="1"
	d="M913.58 233.00v-58.00"/>
<path class="stroke" stroke-width="1"
	d="M929.58 117.00v-24.00"/>
<path class="stroke" stroke-width="1"
	d="M945.58 117.00v-24.00"/>
<path class="stroke" stroke-width="1"
	d="M961.58 117.00v-24.00"/>
<path class="stroke" stroke-width="1"
	d="M1020.38 175.00v-24.00"/>
<path class="stroke" stroke-width="1"
	d="M1020.38 233.00v-58.00"/>
<path class="stroke" stroke-width="1"
	d="M1078.08 175.00v-24.00"/>
<path class="stroke" stroke-width="1"
	d="M1078.08 233.00v-58.00"/>
<path class="stroke" stroke-width="1"
	d="M1135.88 175.00v-24.00"/>
<path class="stroke" stroke-width="1"
	d="M1135.88 233.00v-58.00"/>
<path class="stroke" stroke-width="1"
	d="M1198.58 117.00v-24.00"/>
<path class="stroke" stroke-width="1"
	d="M1198.58 175.00v-58.00"/>
<path class="stroke" stroke-width="1"
	d="M1198.58 233.00v-58.00"/>
<defs>
<g id="rdots" class="fill">
	<circle cx="0" cy="-9" r="1.2"/>
	<circle cx="0" cy="-15" r="1.2"/>
</g>
</defs>
<use x="1194.58" y="233.00" xlink:href="#rdots"/>
<path class="stroke" stroke-width="1"
	d="M1190.58 233.00v-58.00"/>
<path d="m66.48 117.00
	h1132.10
	M66.48 111.00
	h1132.10
	M66.48 105.00
	h1132.10
	M66.48 99.00
	h1132.10
	M66.48 93.00
	h1132.10
	" class="stroke"/>
<path d="m66.48 175.00
	h1132.10
	M66.48 169.00
	h1132.10
	M66.48 163.00
	h1132.10
	M66.48 157.00
	h1132.10
	M66.48 151.00
	h1132.10
	" class="stroke"/>
<path d="m66.48 233.00
	h1132.10
	M66.48 227.00
	h1132.10
	M66.48 221.00
	h1132.10
	M66.48 215.00
	h1132.10
	M66.48 209.00
	h1132.10
	" class="stroke"/>
<defs>
<path id="utclef" class="fill" d="m-50 -90
	c-72 -41 -72 -158 52 -188
	150 -10 220 188 90 256
	-114 52 -275 0 -293 -136
	-15 -181 93 -229 220 -334
	88 -87 79 -133 62 -210
	-51 33 -94 105 -89 186
	17 267 36 374 49 574
	6 96 -19 134 -77 135
	-80 1 -126 -93 -61 -133
	85 -41 133 101 31 105
	23 17 92 37 90 -92
	-10 -223 -39 -342 -50 -617
	0 -90 0 -162 96 -232
	56 72 63 230 22 289
	-74 106 -257 168 -255 316
	9 153 148 185 252 133
	86 -65 29 -192 -80 -176
	-71 12 -105 67 -59 124"/>
<use id="tclef" transform="translate(0,6) scale(0.045)"
	xlink:href="#utclef"/>
</defs>
<use x="78.48" y="111.00" xlink:href="#tclef"/>
<defs>
<path id="usharp" class="fill" d="
	m136 -702
	v890
	h32
	v-890
	m128 840
	h32
	v-888
	h-32
	m-232 286
	v116
	l338 -96
	v-116
	m-338 442
	v116
	l338 -98
	v-114"/>
<use id="sh0" transform="translate(-4,5) scale(0.018)"
	xlink:href="#usharp"/>
</defs>
<use x="93.48" y="93.00" xlink:href="#sh0"/>
<use x="98.98" y="102.00" xlink:href="#sh0"/>
<defs>
<path id="hl1" class="stroke" d="m-7 0h14"/>
</defs>
<use x="123.98" y="123.00" xlink:href="#hl1"/>
<defs>
<path id="HD" class="fill" d="m-2.7 -1.4
	c1.5 -2.8 6.9 0 5.3 2.7
	-1.5 2.8 -6.9 0 -5.3 -2.7
	m8.3 1.4
	c0 -1.5 -2.2 -3 -5.6 -3
	-3.4 0 -5.6 1.5 -5.6 3
	0 1.5 2.2 3 5.6 3
	3.4 0 5.6 -1.5 5.6 -3"/>
<g id="HDD">
	<use xlink:href="#HD"/>
	<path d="m-6 -4v8m12 0v-8" class="stroke"/>
</g>
</defs>
<use x="123.98" y="123.00" xlink:href="#HDD"/>
<use x="406.08" y="123.00" xlink:href="#hl1"/>
<use x="406.08" y="129.00" xlink:href="#hl1"/>
<use x="406.08" y="132.00" xlink:href="#HDD"/>
<use x="691.38" y="123.00" xlink:href="#hl1"/>
<use x="691.38" y="129.00" xlink:href="#hl1"/>
<use x="691.38" y="132.00" xlink:href="#HDD"/>
<use x="976.58" y="120.00" xlink:href="#HDD"/>
<use x="78.48" y="169.00" xlink:href="#tclef"/>
<use x="93.48" y="151.00" xlink:href="#sh0"/>
<use x="98.98" y="160.00" xlink:href="#sh0"/>
<defs>
<path id="Hd" class="fill" d="m3 -1.6
	c-1 -1.8 -7 1.4 -6 3.2
	1 1.8 7 -1.4 6 -3.2
	m0.5 -0.3
	c2 3.8 -5 7.6 -7 3.8
	-2 -3.8 5 -7.6 7 -3.8"/>
</defs>
<use x="122.98" y="172.00" xlink:href="#Hd"/>
<path d="M126.48 172.00v-21.00" class="stroke"/>
<defs>
<path id="hl" class="stroke" d="m-6 0h12"/>
</defs>
<use x="180.78" y="181.00" xlink:href="#hl"/>
<use x="180.78" y="181.00" xlink:href="#Hd"/>
<path d="M184.28 181.00v-21.00" class="stroke"/>
<use x="239.58" y="181.00" xlink:href="#hl"/>
<use x="239.58" y="181.00" xlink:href="#Hd"/>
<path d="M243.08 181.00v-21.00" class="stroke"/>
<use x="298.38" y="169.00" xlink:href="#Hd"/>
<path d="M301.88 169.00v-21.00" class="stroke"/>
<use x="405.08" y="181.00" xlink:href="#hl"/>
<use x="405.08" y="181.00" xlink:href="#Hd"/>
<path d="M408.58 181.00v-21.00" class="stroke"/>
<use x="463.88" y="181.00" xlink:href="#hl"/>
<use x="463.88" y="187.00" xlink:href="#hl"/>
<use x="463.88" y="190.00" xlink:href="#Hd"/>
<path d="M467.38 190.00v-27.00" class="stroke"/>
<use x="523.78" y="181.00" xlink:href="#hl"/>
<use x="523.78" y="187.00" xlink:href="#hl"/>
<use x="523.78" y="190.00" xlink:href="#Hd"/>
<path d="M527.28 190.00v-27.00" class="stroke"/>
<use x="583.58" y="178.00" xlink:href="#Hd"/>
<path d="M587.08 178.00v-21.00" class="stroke"/>
<use x="690.38" y="181.00" xlink:href="#hl"/>
<use x="690.38" y="181.00" xlink:href="#Hd"/>
<path d="M693.88 181.00v-21.00" class="stroke"/>
<use x="749.18" y="181.00" xlink:href="#hl"/>
<use x="749.18" y="187.00" xlink:href="#hl"/>
<use x="749.18" y="190.00" xlink:href="#Hd"/>
<path d="M752.68 190.00v-27.00" class="stroke"/>
<use x="808.98" y="181.00" xlink:href="#hl"/>
<use x="808.98" y="187.00" xlink:href="#hl"/>
<use x="808.98" y="190.00" xlink:href="#Hd"/>
<path d="M812.48 190.00v-27.00" class="stroke"/>
<use x="868.78" y="178.00" xlink:href="#Hd"/>
<path d="M872.28 178.00v-21.00" class="stroke"/>
<use x="975.58" y="169.00" xlink:href="#Hd"/>
<path d="M979.08 169.00v-21.00" class="stroke"/>
<use x="1033.38" y="178.00" xlink:href="#Hd"/>
<path d="M1036.88 178.00v-21.00" class="stroke"/>
<use x="1091.08" y="178.00" xlink:href="#Hd"/>
<path d="M1094.58 178.00v-21.00" class="stroke"/>
<use x="1148.88" y="166.00" xlink:href="#Hd"/>
<path d="M1152.38 166.00v-21.00" class="stroke"/>
<use x="78.48" y="227.00" xlink:href="#tclef"/>
<use x="93.48" y="209.00" xlink:href="#sh0"/>
<use x="98.98" y="218.00" xlink:href="#sh0"/>
<path class="fill"
	d="M126.18 198.80l32.90 0.00v3.20l-32.90 -0.00"/>
<defs>
<ellipse id="hd" rx="4.1" ry="2.9"
	transform="rotate(-20)" class="fill"/>
</defs>
<use x="122.98" y="224.00" xlink:href="#hd"/>
<use x="113.98" y="224.00" xlink:href="#sh0"/>
<path d="M126.48 224.00v-24.20" class="stroke"/>
<use x="133.78" y="230.00" xlink:href="#hd"/>
<path d="M137.28 230.00v-30.20" class="stroke"/>
<use x="144.48" y="230.00" xlink:href="#hd"/>
<path d="M147.98 230.00v-30.20" class="stroke"/>
<use x="155.28" y="218.00" xlink:href="#hd"/>
<path d="M158.78 218.00v-18.20" class="stroke"/>
<path class="fill"
	d="M183.88 208.80l34.00 0.00v3.20l-34.00 -0.00"/>
<use x="180.78" y="230.00" xlink:href="#hd"/>
<path d="M184.28 230.00v-20.20" class="stroke"/>
<use x="191.48" y="239.00" xlink:href="#hl"/>
<use x="191.48" y="239.00" xlink:href="#hd"/>
<path d="M194.98 239.00v-29.20" class="stroke"/>
<use x="203.28" y="239.00" xlink:href="#hl"/>
<use x="203.28" y="239.00" xlink:href="#hd"/>
<path d="M206.78 239.00v-29.20" class="stroke"/>
<use x="214.08" y="227.00" xlink:href="#hd"/>
<path d="M217.58 227.00v-17.20" class="stroke"/>
<path class="fill"
	d="M242.68 208.80l34.00 0.00v3.20l-34.00 -0.00"/>
<use x="239.58" y="230.00" xlink:href="#hd"/>
<path d="M243.08 230.00v-20.20" class="stroke"/>
<use x="250.28" y="239.00" xlink:href="#hl"/>
<use x="250.28" y="239.00" xlink:href="#hd"/>
<path d="M253.78 239.00v-29.20" class="stroke"/>
<use x="262.08" y="239.00" xlink:href="#hl"/>
<use x="262.08" y="239.00" xlink:href="#hd"/>
<path d="M265.58 239.00v-29.20" class="stroke"/>
<use x="272.88" y="227.00" xlink:href="#hd"/>
<path d="M276.38 227.00v-17.20" class="stroke"/>
<path class="fill"
	d="M301.48 195.80l32.90 0.00v3.20l-32.90 -0.00"/>
<use x="298.38" y="218.00" xlink:href="#hd"/>
<path d="M301.88 218.00v-21.20" class="stroke"/>
<use x="309.08" y="227.00" xlink:href="#hd"/>
<path d="M312.58 227.00v-30.20" class="stroke"/>
<use x="319.88" y="227.00" xlink:href="#hd"/>
<path d="M323.38 227.00v-30.20" class="stroke"/>
<use x="330.58" y="215.00" xlink:href="#hd"/>
<path d="M334.08 215.00v-18.20" class="stroke"/>
<path class="fill"
	d="M408.28 208.80l34.00 0.00v3.20l-34.00 -0.00"/>
<use x="405.08" y="230.00" xlink:href="#hd"/>
<path d="M408.58 230.00v-20.20" class="stroke"/>
<use x="415.88" y="239.00" xlink:href="#hl"/>
<use x="415.88" y="239.00" xlink:href="#hd"/>
<path d="M419.38 239.00v-29.20" class="stroke"/>
<use x="427.68" y="239.00" xlink:href="#hl"/>
<use x="427.68" y="239.00" xlink:href="#hd"/>
<path d="M431.18 239.00v-29.20" class="stroke"/>
<use x="438.38" y="227.00" xlink:href="#hd"/>
<path d="M441.88 227.00v-17.20" class="stroke"/>
<path class="fill"
	d="M467.08 218.10l35.00 0.00v3.20l-35.00 -0.00"/>
<use x="463.88" y="239.00" xlink:href="#hl"/>
<use x="463.88" y="239.00" xlink:href="#hd"/>
<path d="M467.38 239.00v-20.00" class="stroke"/>
<use x="475.68" y="239.00" xlink:href="#hl"/>
<use x="475.68" y="245.00" xlink:href="#hl"/>
<use x="475.68" y="248.00" xlink:href="#hd"/>
<path d="M479.18 248.00v-29.00" class="stroke"/>
<use x="487.48" y="239.00" xlink:href="#hl"/>
<use x="487.48" y="245.00" xlink:href="#hl"/>
<use x="487.48" y="248.00" xlink:href="#hd"/>
<path d="M490.98 248.00v-29.00" class="stroke"/>
<use x="498.28" y="236.00" xlink:href="#hd"/>
<path d="M501.78 236.00v-17.00" class="stroke"/>
<path class="fill"
	d="M526.88 218.10l35.00 0.00v3.20l-35.00 -0.00"/>
<use x="523.78" y="239.00" xlink:href="#hl"/>
<use x="523.78" y="239.00" xlink:href="#hd"/>
<path d="M527.28 239.00v-20.00" class="stroke"/>
<use x="535.58" y="239.00" xlink:href="#hl"/>
<use x="535.58" y="245.00" xlink:href="#hl"/>
<use x="535.58" y="248.00" xlink:href="#hd"/>
<path d="M539.08 248.00v-29.00" class="stroke"/>
<use x="547.28" y="239.00" xlink:href="#hl"/>
<use x="547.28" y="245.00" xlink:href="#hl"/>
<use x="547.28" y="248.00" xlink:href="#hd"/>
<path d="M550.78 248.00v-29.00" class="stroke"/>
<use x="558.08" y="236.00" xlink:href="#hd"/>
<path d="M561.58 236.00v-17.00" class="stroke"/>
<path class="fill"
	d="M586.78 206.10l32.90 0.00v3.20l-32.90 -0.00"/>
<use x="583.58" y="227.00" xlink:href="#hd"/>
<path d="M587.08 227.00v-20.00" class="stroke"/>
<use x="594.28" y="236.00" xlink:href="#hd"/>
<path d="M597.78 236.00v-29.00" class="stroke"/>
<use x="605.08" y="236.00" xlink:href="#hd"/>
<path d="M608.58 236.00v-29.00" class="stroke"/>
<use x="615.88" y="224.00" xlink:href="#hd"/>
<path d="M619.38 224.00v-17.00" class="stroke"/>
<path class="fill"
	d="M693.48 208.80l34.00 0.00v3.20l-34.00 -0.00"/>
<use x="690.38" y="230.00" xlink:href="#hd"/>
<path d="M693.88 230.00v-20.20" class="stroke"/>
<use x="701.08" y="239.00" xlink:href="#hl"/>
<use x="701.08" y="239.00" xlink:href="#hd"/>
<path d="M704.58 239.00v-29.20" class="stroke"/>
<use x="712.88" y="239.00" xlink:href="#hl"/>
<use x="712.88" y="239.00" xlink:href="#hd"/>
<path d="M716.38 239.00v-29.20" class="stroke"/>
<use x="723.68" y="227.00" xlink:href="#hd"/>
<path d="M727.18 227.00v-17.20" class="stroke"/>
<path class="fill"
	d="M752.28 218.10l35.00 0.00v3.20l-35.00 -0.00"/>
<use x="749.18" y="239.00" xlink:href="#hl"/>
<use x="749.18" y="239.00" xlink:href="#hd"/>
<path d="M752.68 239.00v-20.00" class="stroke"/>
<use x="760.88" y="239.00" xlink:href="#hl"/>
<use x="760.88" y="245.00" xlink:href="#hl"/>
<use x="760.88" y="248.00" xlink:href="#hd"/>
<path d="M764.38 248.00v-29.00" class="stroke"/>
<use x="772.68" y="239.00" xlink:href="#hl"/>
<use x="772.68" y="245.00" xlink:href="#hl"/>
<use x="772.68" y="248.00" xlink:href="#hd"/>
<path d="M776.18 248.00v-29.00" class="stroke"/>
<use x="783.48" y="236.00" xlink:href="#hd"/>
<path d="M786.98 236.00v-17.00" class="stroke"/>
<path class="fill"
	d="M812.18 218.10l35.00 0.00v3.20l-35.00 -0.00"/>
<use x="808.98" y="239.00" xlink:href="#hl"/>
<use x="808.98" y="239.00" xlink:href="#hd"/>
<path d="M812.48 239.00v-20.00" class="stroke"/>
<use x="820.78" y="239.00" xlink:href="#hl"/>
<use x="820.78" y="245.00" xlink:href="#hl"/>
<use x="820.78" y="248.00" xlink:href="#hd"/>
<path d="M824.28 248.00v-29.00" class="stroke"/>
<use x="832.58" y="239.00" xlink:href="#hl"/>
<use x="832.58" y="245.00" xlink:href="#hl"/>
<use x="832.58" y="248.00" xlink:href="#hd"/>
<path d="M836.08 248.00v-29.00" class="stroke"/>
<use x="843.28" y="236.00" xlink:href="#hd"/>
<path d="M846.78 236.00v-17.00" class="stroke"/>
<path class="fill"
	d="M871.98 206.10l32.90 0.00v3.20l-32.90 -0.00"/>
<use x="868.78" y="227.00" xlink:href="#hd"/>
<path d="M872.28 227.00v-20.00" class="stroke"/>
<use x="879.58" y="236.00" xlink:href="#hd"/>
<path d="M883.08 236.00v-29.00" class="stroke"/>
<use x="890.28" y="236.00" xlink:href="#hd"/>
<path d="M893.78 236.00v-29.00" class="stroke"/>
<use x="901.08" y="224.00" xlink:href="#hd"/>
<path d="M904.58 224.00v-17.00" class="stroke"/>
<path class="fill"
	d="M978.78 195.80l32.90 0.00v3.20l-32.90 -0.00"/>
<use x="975.58" y="218.00" xlink:href="#hd"/>
<path d="M979.08 218.00v-21.20" class="stroke"/>
<use x="986.28" y="227.00" xlink:href="#hd"/>
<path d="M989.78 227.00v-30.20" class="stroke"/>
<use x="997.08" y="227.00" xlink:href="#hd"/>
<path d="M1000.58 227.00v-30.20" class="stroke"/>
<use x="1007.88" y="215.00" xlink:href="#hd"/>
<path d="M1011.38 215.00v-18.20" class="stroke"/>
<path class="fill"
	d="M1036.48 206.10l32.90 0.00v3.20l-32.90 -0.00"/>
<use x="1033.38" y="227.00" xlink:href="#hd"/>
<path d="M1036.88 227.00v-20.00" class="stroke"/>
<use x="1044.08" y="236.00" xlink:href="#hd"/>
<path d="M1047.58 236.00v-29.00" class="stroke"/>
<use x="1054.88" y="236.00" xlink:href="#hd"/>
<path d="M1058.38 236.00v-29.00" class="stroke"/>
<use x="1065.58" y="224.00" xlink:href="#hd"/>
<path d="M1069.08 224.00v-17.00" class="stroke"/>
<path class="fill"
	d="M1094.28 206.10l32.90 0.00v3.20l-32.90 -0.00"/>
<use x="1091.08" y="227.00" xlink:href="#hd"/>
<path d="M1094.58 227.00v-20.00" class="stroke"/>
<use x="1101.88" y="236.00" xlink:href="#hd"/>
<path d="M1105.38 236.00v-29.00" class="stroke"/>
<use x="1112.58" y="236.00" xlink:href="#hd"/>
<path d="M1116.08 236.00v-29.00" class="stroke"/>
<use x="1123.38" y="224.00" xlink:href="#hd"/>
<path d="M1126.88 224.00v-17.00" class="stroke"/>
<path class="fill"
	d="M1144.98 243.20l32.90 0.00v-3.20l-32.90 -0.00"/>
<use x="1148.88" y="215.00" xlink:href="#hd"/>
<path d="M1145.38 215.00v27.20" class="stroke"/>
<use x="1159.58" y="224.00" xlink:href="#hd"/>
<path d="M1156.08 224.00v18.20" class="stroke"/>
<use x="1170.38" y="224.00" xlink:href="#hd"/>
<path d="M1166.88 224.00v18.20" class="stroke"/>
<use x="1181.08" y="212.00" xlink:href="#hd"/>
<path d="M1177.58 212.00v30.20" class="stroke"/>
</g>
</svg>
