<?xml version="1.0" standalone="no"?>
<!DOCTYPE svg PUBLIC "-//W3C//DTD SVG 1.1//EN"
	"http://www.w3.org/Graphics/SVG/1.1/DTD/svg11.dtd">
<svg xmlns="http://www.w3.org/2000/svg" version="1.1"
	xmlns:xlink="http://www.w3.org/1999/xlink"
	color="black"
	width="1208.60px" height="442.00px">
<style type="text/css">
.fill {fill: currentColor}
.stroke {stroke: currentColor; fill: none}
text{white-space: pre}
</style>
<title>../src/torus/title_no_2_page_1.abc (2) tune 1</title>
<!-- Creator: abcm2ps-8.14.6 -->
<!-- CreationDate: Jan 11, 2023 20:08 -->
<!-- CommandLine: -g ../src/torus/title_no_2_page_1.abc -O ../src/torus/title_no_2_page_1.svg -->
<g stroke-width="0.70" style="font:italic 14.00px Times">
<text x="10.00" y="28.00">Procedurally Generated</text>
<!-- title: Torus:Taurus Tune -->
</g>
<g stroke-width="0.70" style="font:20.00px Times">
<text x="604.30" y="28.00" text-anchor="middle">Torus:Taurus Tune</text>
</g>
<g stroke-width="0.70" style="font:italic 14.00px Times">
<text x="1198.60" y="28.00" text-anchor="end">(Sid.)</text>
<text x="1198.60" y="43.40" text-anchor="end">Jeff Minter</text>
<!-- subtitle: 2 of 100,000,000,000,000 -->
</g>
<g stroke-width="0.70" style="font:16.00px Times">
<text x="604.30" y="64.00" text-anchor="middle">2 of 100,000,000,000,000</text>
</g>
<g stroke-width="0.70" style="font:bold 13.00px Times">
<text x="38.28" y="224.90" text-anchor="middle">Voice 3</text>
<text x="38.28" y="166.90" text-anchor="middle">Voice 2</text>
<text x="38.28" y="108.90" text-anchor="middle">Voice 1</text>
<path class="stroke" stroke-width="1"
	d="M66.48 233.00v-140.00"/>
<path class="stroke" stroke-width="1"
	d="M258.28 175.00v-24.00"/>
<path class="stroke" stroke-width="1"
	d="M258.28 233.00v-58.00"/>
<path class="stroke" stroke-width="1"
	d="M405.58 175.00v-24.00"/>
<path class="stroke" stroke-width="1"
	d="M405.58 233.00v-58.00"/>
<path class="stroke" stroke-width="1"
	d="M552.98 175.00v-24.00"/>
<path class="stroke" stroke-width="1"
	d="M552.98 233.00v-58.00"/>
<path class="stroke" stroke-width="1"
	d="M701.68 117.00v-24.00"/>
<path class="stroke" stroke-width="1"
	d="M701.68 175.00v-58.00"/>
<path class="stroke" stroke-width="1"
	d="M701.68 233.00v-58.00"/>
<path class="stroke" stroke-width="1"
	d="M717.68 117.00v-24.00"/>
<path class="stroke" stroke-width="1"
	d="M733.68 117.00v-24.00"/>
<path class="stroke" stroke-width="1"
	d="M749.68 117.00v-24.00"/>
<path class="stroke" stroke-width="1"
	d="M903.88 175.00v-24.00"/>
<path class="stroke" stroke-width="1"
	d="M903.88 233.00v-58.00"/>
<path class="stroke" stroke-width="1"
	d="M1051.28 175.00v-24.00"/>
<path class="stroke" stroke-width="1"
	d="M1051.28 233.00v-58.00"/>
<path class="stroke" stroke-width="1"
	d="M1198.58 175.00v-24.00"/>
<path class="stroke" stroke-width="1"
	d="M1198.58 233.00v-58.00"/>
<path d="m66.48 117.00
	h1132.10
	M66.48 111.00
	h1132.10
	M66.48 105.00
	h1132.10
	M66.48 99.00
	h1132.10
	M66.48 93.00
	h1132.10
	" class="stroke"/>
<path d="m66.48 175.00
	h1132.10
	M66.48 169.00
	h1132.10
	M66.48 163.00
	h1132.10
	M66.48 157.00
	h1132.10
	M66.48 151.00
	h1132.10
	" class="stroke"/>
<path d="m66.48 233.00
	h1132.10
	M66.48 227.00
	h1132.10
	M66.48 221.00
	h1132.10
	M66.48 215.00
	h1132.10
	M66.48 209.00
	h1132.10
	" class="stroke"/>
<defs>
<path id="ubclef" class="fill" d="m-200 -87
	c124 -35 222 -78 254 -236
	43 -228 -167 -246 -192 -103
	59 -80 157 22 92 78
	-62 47 -115 -22 -106 -88
	21 -141 270 -136 274 52
	-1 175 -106 264 -322 297
	m357 -250
	c0 -36 51 -34 51 0
	0 37 -51 36 -51 0
	m-2 -129
	c0 -36 51 -34 51 0
	0 38 -51 37 -51 0"/>
<use id="bclef" transform="translate(0,18) scale(0.045)"
	xlink:href="#ubclef"/>
</defs>
<use x="78.48" y="99.00" xlink:href="#bclef"/>
<defs>
<path id="usharp" class="fill" d="
	m136 -702
	v890
	h32
	v-890
	m128 840
	h32
	v-888
	h-32
	m-232 286
	v116
	l338 -96
	v-116
	m-338 442
	v116
	l338 -98
	v-114"/>
<use id="sh0" transform="translate(-4,5) scale(0.018)"
	xlink:href="#usharp"/>
</defs>
<use x="93.48" y="99.00" xlink:href="#sh0"/>
<use x="98.98" y="108.00" xlink:href="#sh0"/>
<defs>
<path id="HD" class="fill" d="m-2.7 -1.4
	c1.5 -2.8 6.9 0 5.3 2.7
	-1.5 2.8 -6.9 0 -5.3 -2.7
	m8.3 1.4
	c0 -1.5 -2.2 -3 -5.6 -3
	-3.4 0 -5.6 1.5 -5.6 3
	0 1.5 2.2 3 5.6 3
	3.4 0 5.6 -1.5 5.6 -3"/>
<g id="HDD">
	<use xlink:href="#HD"/>
	<path d="m-6 -4v8m12 0v-8" class="stroke"/>
</g>
</defs>
<use x="130.78" y="99.00" xlink:href="#HDD"/>
<use x="114.98" y="99.00" xlink:href="#sh0"/>
<use x="776.38" y="99.00" xlink:href="#HDD"/>
<use x="760.58" y="99.00" xlink:href="#sh0"/>
<defs>
<path id="utclef" class="fill" d="m-50 -90
	c-72 -41 -72 -158 52 -188
	150 -10 220 188 90 256
	-114 52 -275 0 -293 -136
	-15 -181 93 -229 220 -334
	88 -87 79 -133 62 -210
	-51 33 -94 105 -89 186
	17 267 36 374 49 574
	6 96 -19 134 -77 135
	-80 1 -126 -93 -61 -133
	85 -41 133 101 31 105
	23 17 92 37 90 -92
	-10 -223 -39 -342 -50 -617
	0 -90 0 -162 96 -232
	56 72 63 230 22 289
	-74 106 -257 168 -255 316
	9 153 148 185 252 133
	86 -65 29 -192 -80 -176
	-71 12 -105 67 -59 124"/>
<use id="tclef" transform="translate(0,6) scale(0.045)"
	xlink:href="#utclef"/>
</defs>
<use x="78.48" y="169.00" xlink:href="#tclef"/>
<use x="93.48" y="151.00" xlink:href="#sh0"/>
<use x="98.98" y="160.00" xlink:href="#sh0"/>
<defs>
<path id="hl" class="stroke" d="m-6 0h12"/>
</defs>
<use x="129.78" y="181.00" xlink:href="#hl"/>
<use x="129.78" y="187.00" xlink:href="#hl"/>
<defs>
<path id="Hd" class="fill" d="m3 -1.6
	c-1 -1.8 -7 1.4 -6 3.2
	1 1.8 7 -1.4 6 -3.2
	m0.5 -0.3
	c2 3.8 -5 7.6 -7 3.8
	-2 -3.8 5 -7.6 7 -3.8"/>
</defs>
<use x="129.78" y="187.00" xlink:href="#Hd"/>
<path d="M133.28 187.00v-24.00" class="stroke"/>
<use x="277.18" y="181.00" xlink:href="#hl"/>
<use x="277.18" y="187.00" xlink:href="#hl"/>
<use x="277.18" y="187.00" xlink:href="#Hd"/>
<path d="M280.68 187.00v-24.00" class="stroke"/>
<use x="424.48" y="181.00" xlink:href="#hl"/>
<use x="424.48" y="187.00" xlink:href="#hl"/>
<use x="424.48" y="187.00" xlink:href="#Hd"/>
<path d="M427.98 187.00v-24.00" class="stroke"/>
<use x="573.28" y="181.00" xlink:href="#hl"/>
<use x="573.28" y="181.00" xlink:href="#Hd"/>
<use x="563.28" y="181.00" xlink:href="#sh0"/>
<path d="M576.78 181.00v-21.00" class="stroke"/>
<use x="775.38" y="181.00" xlink:href="#hl"/>
<use x="775.38" y="187.00" xlink:href="#hl"/>
<use x="775.38" y="187.00" xlink:href="#Hd"/>
<path d="M778.88 187.00v-24.00" class="stroke"/>
<use x="922.78" y="181.00" xlink:href="#hl"/>
<use x="922.78" y="187.00" xlink:href="#hl"/>
<use x="922.78" y="187.00" xlink:href="#Hd"/>
<path d="M926.28 187.00v-24.00" class="stroke"/>
<use x="1070.18" y="181.00" xlink:href="#hl"/>
<use x="1070.18" y="187.00" xlink:href="#hl"/>
<use x="1070.18" y="187.00" xlink:href="#Hd"/>
<path d="M1073.68 187.00v-24.00" class="stroke"/>
<use x="78.48" y="227.00" xlink:href="#tclef"/>
<use x="93.48" y="209.00" xlink:href="#sh0"/>
<use x="98.98" y="218.00" xlink:href="#sh0"/>
<path class="fill"
	d="M132.98 214.80l102.70 0.00v3.20l-102.70 -0.00"/>
<use x="129.78" y="239.00" xlink:href="#hl"/>
<defs>
<ellipse id="hd" rx="4.1" ry="2.9"
	transform="rotate(-20)" class="fill"/>
</defs>
<use x="129.78" y="239.00" xlink:href="#hd"/>
<path d="M133.28 239.00v-23.20" class="stroke"/>
<use x="163.78" y="239.00" xlink:href="#hl"/>
<use x="163.78" y="239.00" xlink:href="#hd"/>
<path d="M167.28 239.00v-23.20" class="stroke"/>
<use x="197.78" y="239.00" xlink:href="#hl"/>
<use x="197.78" y="239.00" xlink:href="#hd"/>
<path d="M201.28 239.00v-23.20" class="stroke"/>
<use x="231.78" y="233.00" xlink:href="#hd"/>
<path d="M235.28 233.00v-17.20" class="stroke"/>
<path class="fill"
	d="M280.28 214.80l102.70 0.00v3.20l-102.70 -0.00"/>
<use x="277.18" y="239.00" xlink:href="#hl"/>
<use x="277.18" y="239.00" xlink:href="#hd"/>
<path d="M280.68 239.00v-23.20" class="stroke"/>
<use x="311.18" y="239.00" xlink:href="#hl"/>
<use x="311.18" y="239.00" xlink:href="#hd"/>
<path d="M314.68 239.00v-23.20" class="stroke"/>
<use x="345.18" y="239.00" xlink:href="#hl"/>
<use x="345.18" y="239.00" xlink:href="#hd"/>
<path d="M348.68 239.00v-23.20" class="stroke"/>
<use x="379.18" y="233.00" xlink:href="#hd"/>
<path d="M382.68 233.00v-17.20" class="stroke"/>
<path class="fill"
	d="M427.68 214.80l102.70 0.00v3.20l-102.70 -0.00"/>
<use x="424.48" y="239.00" xlink:href="#hl"/>
<use x="424.48" y="239.00" xlink:href="#hd"/>
<path d="M427.98 239.00v-23.20" class="stroke"/>
<use x="458.48" y="239.00" xlink:href="#hl"/>
<use x="458.48" y="239.00" xlink:href="#hd"/>
<path d="M461.98 239.00v-23.20" class="stroke"/>
<use x="492.48" y="239.00" xlink:href="#hl"/>
<use x="492.48" y="239.00" xlink:href="#hd"/>
<path d="M495.98 239.00v-23.20" class="stroke"/>
<use x="526.48" y="233.00" xlink:href="#hd"/>
<path d="M529.98 233.00v-17.20" class="stroke"/>
<path class="fill"
	d="M576.38 208.80l102.70 0.00v3.20l-102.70 -0.00"/>
<use x="573.28" y="233.00" xlink:href="#hd"/>
<path d="M576.78 233.00v-23.20" class="stroke"/>
<use x="607.28" y="233.00" xlink:href="#hd"/>
<path d="M610.78 233.00v-23.20" class="stroke"/>
<use x="641.28" y="233.00" xlink:href="#hd"/>
<path d="M644.78 233.00v-23.20" class="stroke"/>
<use x="675.28" y="227.00" xlink:href="#hd"/>
<use x="666.28" y="227.00" xlink:href="#sh0"/>
<path d="M678.78 227.00v-17.20" class="stroke"/>
<path class="fill"
	d="M778.58 214.80l102.70 0.00v3.20l-102.70 -0.00"/>
<use x="775.38" y="239.00" xlink:href="#hl"/>
<use x="775.38" y="239.00" xlink:href="#hd"/>
<path d="M778.88 239.00v-23.20" class="stroke"/>
<use x="809.48" y="239.00" xlink:href="#hl"/>
<use x="809.48" y="239.00" xlink:href="#hd"/>
<path d="M812.98 239.00v-23.20" class="stroke"/>
<use x="843.48" y="239.00" xlink:href="#hl"/>
<use x="843.48" y="239.00" xlink:href="#hd"/>
<path d="M846.98 239.00v-23.20" class="stroke"/>
<use x="877.48" y="233.00" xlink:href="#hd"/>
<path d="M880.98 233.00v-17.20" class="stroke"/>
<path class="fill"
	d="M925.98 214.80l102.70 0.00v3.20l-102.70 -0.00"/>
<use x="922.78" y="239.00" xlink:href="#hl"/>
<use x="922.78" y="239.00" xlink:href="#hd"/>
<path d="M926.28 239.00v-23.20" class="stroke"/>
<use x="956.78" y="239.00" xlink:href="#hl"/>
<use x="956.78" y="239.00" xlink:href="#hd"/>
<path d="M960.28 239.00v-23.20" class="stroke"/>
<use x="990.78" y="239.00" xlink:href="#hl"/>
<use x="990.78" y="239.00" xlink:href="#hd"/>
<path d="M994.28 239.00v-23.20" class="stroke"/>
<use x="1024.78" y="233.00" xlink:href="#hd"/>
<path d="M1028.28 233.00v-17.20" class="stroke"/>
<path class="fill"
	d="M1073.28 214.80l102.70 0.00v3.20l-102.70 -0.00"/>
<use x="1070.18" y="239.00" xlink:href="#hl"/>
<use x="1070.18" y="239.00" xlink:href="#hd"/>
<path d="M1073.68 239.00v-23.20" class="stroke"/>
<use x="1104.18" y="239.00" xlink:href="#hl"/>
<use x="1104.18" y="239.00" xlink:href="#hd"/>
<path d="M1107.68 239.00v-23.20" class="stroke"/>
<use x="1138.18" y="239.00" xlink:href="#hl"/>
<use x="1138.18" y="239.00" xlink:href="#hd"/>
<path d="M1141.68 239.00v-23.20" class="stroke"/>
<use x="1172.18" y="233.00" xlink:href="#hd"/>
<path d="M1175.68 233.00v-17.20" class="stroke"/>
</g>
<g stroke-width="0.70" style="font:bold 13.00px Times">
<path class="stroke" stroke-width="1"
	d="M10.00 419.00v-140.00"/>
<path class="stroke" stroke-width="1"
	d="M165.10 303.00v-24.00"/>
<path class="stroke" stroke-width="1"
	d="M165.10 361.00v-58.00"/>
<path class="stroke" stroke-width="1"
	d="M165.10 419.00v-58.00"/>
<path class="stroke" stroke-width="1"
	d="M181.10 303.00v-24.00"/>
<path class="stroke" stroke-width="1"
	d="M197.10 303.00v-24.00"/>
<path class="stroke" stroke-width="1"
	d="M213.10 303.00v-24.00"/>
<path class="stroke" stroke-width="1"
	d="M336.10 361.00v-24.00"/>
<path class="stroke" stroke-width="1"
	d="M336.10 419.00v-58.00"/>
<path class="stroke" stroke-width="1"
	d="M448.00 361.00v-24.00"/>
<path class="stroke" stroke-width="1"
	d="M448.00 419.00v-58.00"/>
<path class="stroke" stroke-width="1"
	d="M560.00 361.00v-24.00"/>
<path class="stroke" stroke-width="1"
	d="M560.00 419.00v-58.00"/>
<path class="stroke" stroke-width="1"
	d="M677.20 303.00v-24.00"/>
<path class="stroke" stroke-width="1"
	d="M677.20 361.00v-58.00"/>
<path class="stroke" stroke-width="1"
	d="M677.20 419.00v-58.00"/>
<path class="stroke" stroke-width="1"
	d="M693.20 303.00v-24.00"/>
<path class="stroke" stroke-width="1"
	d="M709.20 303.00v-24.00"/>
<path class="stroke" stroke-width="1"
	d="M725.20 303.00v-24.00"/>
<path class="stroke" stroke-width="1"
	d="M848.10 361.00v-24.00"/>
<path class="stroke" stroke-width="1"
	d="M848.10 419.00v-58.00"/>
<path class="stroke" stroke-width="1"
	d="M965.30 361.00v-24.00"/>
<path class="stroke" stroke-width="1"
	d="M965.30 419.00v-58.00"/>
<path class="stroke" stroke-width="1"
	d="M1082.40 361.00v-24.00"/>
<path class="stroke" stroke-width="1"
	d="M1082.40 419.00v-58.00"/>
<path class="stroke" stroke-width="1"
	d="M1198.60 303.00v-24.00"/>
<path class="stroke" stroke-width="1"
	d="M1198.60 361.00v-58.00"/>
<path class="stroke" stroke-width="1"
	d="M1198.60 419.00v-58.00"/>
<defs>
<g id="rdots" class="fill">
	<circle cx="0" cy="-9" r="1.2"/>
	<circle cx="0" cy="-15" r="1.2"/>
</g>
</defs>
<use x="1194.60" y="419.00" xlink:href="#rdots"/>
<path class="stroke" stroke-width="1"
	d="M1190.60 419.00v-58.00"/>
<path d="m10.00 303.00
	h1188.60
	M10.00 297.00
	h1188.60
	M10.00 291.00
	h1188.60
	M10.00 285.00
	h1188.60
	M10.00 279.00
	h1188.60
	" class="stroke"/>
<path d="m10.00 361.00
	h1188.60
	M10.00 355.00
	h1188.60
	M10.00 349.00
	h1188.60
	M10.00 343.00
	h1188.60
	M10.00 337.00
	h1188.60
	" class="stroke"/>
<path d="m10.00 419.00
	h1188.60
	M10.00 413.00
	h1188.60
	M10.00 407.00
	h1188.60
	M10.00 401.00
	h1188.60
	M10.00 395.00
	h1188.60
	" class="stroke"/>
<use x="22.00" y="285.00" xlink:href="#bclef"/>
<use x="37.00" y="285.00" xlink:href="#sh0"/>
<use x="42.50" y="294.00" xlink:href="#sh0"/>
<use x="239.40" y="285.00" xlink:href="#HDD"/>
<use x="223.60" y="285.00" xlink:href="#sh0"/>
<use x="751.50" y="279.00" xlink:href="#HDD"/>
<use x="735.70" y="279.00" xlink:href="#sh0"/>
<use x="22.00" y="355.00" xlink:href="#tclef"/>
<use x="37.00" y="337.00" xlink:href="#sh0"/>
<use x="42.50" y="346.00" xlink:href="#sh0"/>
<use x="67.50" y="367.00" xlink:href="#hl"/>
<use x="67.50" y="367.00" xlink:href="#Hd"/>
<use x="57.50" y="367.00" xlink:href="#sh0"/>
<path d="M71.00 367.00v-21.00" class="stroke"/>
<use x="238.40" y="367.00" xlink:href="#hl"/>
<use x="238.40" y="373.00" xlink:href="#hl"/>
<use x="238.40" y="373.00" xlink:href="#Hd"/>
<path d="M241.90 373.00v-24.00" class="stroke"/>
<use x="350.40" y="367.00" xlink:href="#hl"/>
<use x="350.40" y="373.00" xlink:href="#hl"/>
<use x="350.40" y="373.00" xlink:href="#Hd"/>
<path d="M353.90 373.00v-24.00" class="stroke"/>
<use x="462.40" y="367.00" xlink:href="#hl"/>
<use x="462.40" y="373.00" xlink:href="#hl"/>
<use x="462.40" y="373.00" xlink:href="#Hd"/>
<path d="M465.90 373.00v-24.00" class="stroke"/>
<use x="579.60" y="367.00" xlink:href="#hl"/>
<use x="579.60" y="367.00" xlink:href="#Hd"/>
<use x="569.60" y="367.00" xlink:href="#sh0"/>
<path d="M583.10 367.00v-21.00" class="stroke"/>
<use x="750.50" y="367.00" xlink:href="#hl"/>
<use x="750.50" y="367.00" xlink:href="#Hd"/>
<use x="740.50" y="367.00" xlink:href="#sh0"/>
<path d="M754.00 367.00v-21.00" class="stroke"/>
<use x="867.70" y="367.00" xlink:href="#hl"/>
<use x="867.70" y="367.00" xlink:href="#Hd"/>
<use x="857.70" y="367.00" xlink:href="#sh0"/>
<path d="M871.20 367.00v-21.00" class="stroke"/>
<use x="984.80" y="367.00" xlink:href="#hl"/>
<use x="984.80" y="367.00" xlink:href="#Hd"/>
<use x="974.80" y="367.00" xlink:href="#sh0"/>
<path d="M988.30 367.00v-21.00" class="stroke"/>
<use x="1101.00" y="358.00" xlink:href="#Hd"/>
<path d="M1104.50 358.00v-21.00" class="stroke"/>
<use x="22.00" y="413.00" xlink:href="#tclef"/>
<use x="37.00" y="395.00" xlink:href="#sh0"/>
<use x="42.50" y="404.00" xlink:href="#sh0"/>
<path class="fill"
	d="M70.70 394.80l78.20 0.00v3.20l-78.20 -0.00"/>
<use x="67.50" y="419.00" xlink:href="#hd"/>
<path d="M71.00 419.00v-23.20" class="stroke"/>
<use x="93.30" y="419.00" xlink:href="#hd"/>
<path d="M96.80 419.00v-23.20" class="stroke"/>
<use x="119.20" y="419.00" xlink:href="#hd"/>
<path d="M122.70 419.00v-23.20" class="stroke"/>
<use x="145.00" y="413.00" xlink:href="#hd"/>
<use x="136.00" y="413.00" xlink:href="#sh0"/>
<path d="M148.50 413.00v-17.20" class="stroke"/>
<path class="fill"
	d="M241.60 400.80l78.20 0.00v3.20l-78.20 -0.00"/>
<use x="238.40" y="425.00" xlink:href="#hl"/>
<use x="238.40" y="425.00" xlink:href="#hd"/>
<path d="M241.90 425.00v-23.20" class="stroke"/>
<use x="264.30" y="425.00" xlink:href="#hl"/>
<use x="264.30" y="425.00" xlink:href="#hd"/>
<path d="M267.80 425.00v-23.20" class="stroke"/>
<use x="290.10" y="425.00" xlink:href="#hl"/>
<use x="290.10" y="425.00" xlink:href="#hd"/>
<path d="M293.60 425.00v-23.20" class="stroke"/>
<use x="316.00" y="419.00" xlink:href="#hd"/>
<path d="M319.50 419.00v-17.20" class="stroke"/>
<path class="fill"
	d="M353.60 400.80l78.20 0.00v3.20l-78.20 -0.00"/>
<use x="350.40" y="425.00" xlink:href="#hl"/>
<use x="350.40" y="425.00" xlink:href="#hd"/>
<path d="M353.90 425.00v-23.20" class="stroke"/>
<use x="376.30" y="425.00" xlink:href="#hl"/>
<use x="376.30" y="425.00" xlink:href="#hd"/>
<path d="M379.80 425.00v-23.20" class="stroke"/>
<use x="402.10" y="425.00" xlink:href="#hl"/>
<use x="402.10" y="425.00" xlink:href="#hd"/>
<path d="M405.60 425.00v-23.20" class="stroke"/>
<use x="427.90" y="419.00" xlink:href="#hd"/>
<path d="M431.40 419.00v-17.20" class="stroke"/>
<path class="fill"
	d="M465.50 400.80l78.20 0.00v3.20l-78.20 -0.00"/>
<use x="462.40" y="425.00" xlink:href="#hl"/>
<use x="462.40" y="425.00" xlink:href="#hd"/>
<path d="M465.90 425.00v-23.20" class="stroke"/>
<use x="488.20" y="425.00" xlink:href="#hl"/>
<use x="488.20" y="425.00" xlink:href="#hd"/>
<path d="M491.70 425.00v-23.20" class="stroke"/>
<use x="514.10" y="425.00" xlink:href="#hl"/>
<use x="514.10" y="425.00" xlink:href="#hd"/>
<path d="M517.60 425.00v-23.20" class="stroke"/>
<use x="539.90" y="419.00" xlink:href="#hd"/>
<path d="M543.40 419.00v-17.20" class="stroke"/>
<path class="fill"
	d="M582.70 394.80l78.20 0.00v3.20l-78.20 -0.00"/>
<use x="579.60" y="419.00" xlink:href="#hd"/>
<path d="M583.10 419.00v-23.20" class="stroke"/>
<use x="605.40" y="419.00" xlink:href="#hd"/>
<path d="M608.90 419.00v-23.20" class="stroke"/>
<use x="631.20" y="419.00" xlink:href="#hd"/>
<path d="M634.70 419.00v-23.20" class="stroke"/>
<use x="657.10" y="413.00" xlink:href="#hd"/>
<use x="648.10" y="413.00" xlink:href="#sh0"/>
<path d="M660.60 413.00v-17.20" class="stroke"/>
<path class="fill"
	d="M753.70 394.80l78.20 0.00v3.20l-78.20 -0.00"/>
<use x="750.50" y="419.00" xlink:href="#hd"/>
<path d="M754.00 419.00v-23.20" class="stroke"/>
<use x="776.30" y="419.00" xlink:href="#hd"/>
<path d="M779.80 419.00v-23.20" class="stroke"/>
<use x="802.20" y="419.00" xlink:href="#hd"/>
<path d="M805.70 419.00v-23.20" class="stroke"/>
<use x="828.00" y="413.00" xlink:href="#hd"/>
<use x="819.00" y="413.00" xlink:href="#sh0"/>
<path d="M831.50 413.00v-17.20" class="stroke"/>
<path class="fill"
	d="M870.80 394.80l78.20 0.00v3.20l-78.20 -0.00"/>
<use x="867.70" y="419.00" xlink:href="#hd"/>
<path d="M871.20 419.00v-23.20" class="stroke"/>
<use x="893.50" y="419.00" xlink:href="#hd"/>
<path d="M897.00 419.00v-23.20" class="stroke"/>
<use x="919.30" y="419.00" xlink:href="#hd"/>
<path d="M922.80 419.00v-23.20" class="stroke"/>
<use x="945.20" y="413.00" xlink:href="#hd"/>
<use x="936.20" y="413.00" xlink:href="#sh0"/>
<path d="M948.70 413.00v-17.20" class="stroke"/>
<path class="fill"
	d="M988.00 394.80l78.20 0.00v3.20l-78.20 -0.00"/>
<use x="984.80" y="419.00" xlink:href="#hd"/>
<path d="M988.30 419.00v-23.20" class="stroke"/>
<use x="1010.70" y="419.00" xlink:href="#hd"/>
<path d="M1014.20 419.00v-23.20" class="stroke"/>
<use x="1036.50" y="419.00" xlink:href="#hd"/>
<path d="M1040.00 419.00v-23.20" class="stroke"/>
<use x="1062.30" y="413.00" xlink:href="#hd"/>
<use x="1053.30" y="413.00" xlink:href="#sh0"/>
<path d="M1065.80 413.00v-17.20" class="stroke"/>
<path class="fill"
	d="M1104.10 389.10l78.20 -4.40v3.20l-78.20 4.40"/>
<use x="1101.00" y="413.00" xlink:href="#hd"/>
<use x="1092.00" y="413.00" xlink:href="#sh0"/>
<path d="M1104.50 413.00v-22.90" class="stroke"/>
<use x="1126.80" y="413.00" xlink:href="#hd"/>
<use x="1117.80" y="413.00" xlink:href="#sh0"/>
<path d="M1130.30 413.00v-24.30" class="stroke"/>
<use x="1152.70" y="413.00" xlink:href="#hd"/>
<use x="1143.70" y="413.00" xlink:href="#sh0"/>
<path d="M1156.20 413.00v-25.80" class="stroke"/>
<use x="1178.50" y="404.00" xlink:href="#hd"/>
<path d="M1182.00 404.00v-18.20" class="stroke"/>
</g>
</svg>
