<?xml version="1.0" standalone="no"?>
<!DOCTYPE svg PUBLIC "-//W3C//DTD SVG 1.1//EN"
	"http://www.w3.org/Graphics/SVG/1.1/DTD/svg11.dtd">
<svg xmlns="http://www.w3.org/2000/svg" version="1.1"
	xmlns:xlink="http://www.w3.org/1999/xlink"
	color="black"
	width="1208.60px" height="442.00px">
<style type="text/css">
.fill {fill: currentColor}
.stroke {stroke: currentColor; fill: none}
text{white-space: pre}
</style>
<title>../src/torus/title_no_24_page_1.abc (2) tune 1</title>
<!-- Creator: abcm2ps-8.14.6 -->
<!-- CreationDate: Jan 11, 2023 20:08 -->
<!-- CommandLine: -g ../src/torus/title_no_24_page_1.abc -O ../src/torus/title_no_24_page_1.svg -->
<g stroke-width="0.70" style="font:italic 14.00px Times">
<text x="10.00" y="28.00">Procedurally Generated</text>
<!-- title: Torus:Taurus Tune -->
</g>
<g stroke-width="0.70" style="font:20.00px Times">
<text x="604.30" y="28.00" text-anchor="middle">Torus:Taurus Tune</text>
</g>
<g stroke-width="0.70" style="font:italic 14.00px Times">
<text x="1198.60" y="28.00" text-anchor="end">(Sid.)</text>
<text x="1198.60" y="43.40" text-anchor="end">Jeff Minter</text>
<!-- subtitle: 24 of 100,000,000,000,000 -->
</g>
<g stroke-width="0.70" style="font:16.00px Times">
<text x="604.30" y="64.00" text-anchor="middle">24 of 100,000,000,000,000</text>
</g>
<g stroke-width="0.70" style="font:bold 13.00px Times">
<text x="38.28" y="224.90" text-anchor="middle">Voice 3</text>
<text x="38.28" y="166.90" text-anchor="middle">Voice 2</text>
<text x="38.28" y="108.90" text-anchor="middle">Voice 1</text>
<path class="stroke" stroke-width="1"
	d="M66.48 233.00v-140.00"/>
<path class="stroke" stroke-width="1"
	d="M282.48 175.00v-24.00"/>
<path class="stroke" stroke-width="1"
	d="M282.48 233.00v-58.00"/>
<path class="stroke" stroke-width="1"
	d="M457.58 175.00v-24.00"/>
<path class="stroke" stroke-width="1"
	d="M457.58 233.00v-58.00"/>
<path class="stroke" stroke-width="1"
	d="M632.68 175.00v-24.00"/>
<path class="stroke" stroke-width="1"
	d="M632.68 233.00v-58.00"/>
<path class="stroke" stroke-width="1"
	d="M807.88 117.00v-24.00"/>
<path class="stroke" stroke-width="1"
	d="M807.88 175.00v-58.00"/>
<path class="stroke" stroke-width="1"
	d="M807.88 233.00v-58.00"/>
<path class="stroke" stroke-width="1"
	d="M823.88 117.00v-24.00"/>
<path class="stroke" stroke-width="1"
	d="M839.88 117.00v-24.00"/>
<path class="stroke" stroke-width="1"
	d="M855.88 117.00v-24.00"/>
<path class="stroke" stroke-width="1"
	d="M1023.48 175.00v-24.00"/>
<path class="stroke" stroke-width="1"
	d="M1023.48 233.00v-58.00"/>
<path class="stroke" stroke-width="1"
	d="M1198.58 175.00v-24.00"/>
<path class="stroke" stroke-width="1"
	d="M1198.58 233.00v-58.00"/>
<path d="m66.48 117.00
	h1132.10
	M66.48 111.00
	h1132.10
	M66.48 105.00
	h1132.10
	M66.48 99.00
	h1132.10
	M66.48 93.00
	h1132.10
	" class="stroke"/>
<path d="m66.48 175.00
	h1132.10
	M66.48 169.00
	h1132.10
	M66.48 163.00
	h1132.10
	M66.48 157.00
	h1132.10
	M66.48 151.00
	h1132.10
	" class="stroke"/>
<path d="m66.48 233.00
	h1132.10
	M66.48 227.00
	h1132.10
	M66.48 221.00
	h1132.10
	M66.48 215.00
	h1132.10
	M66.48 209.00
	h1132.10
	" class="stroke"/>
<defs>
<path id="utclef" class="fill" d="m-50 -90
	c-72 -41 -72 -158 52 -188
	150 -10 220 188 90 256
	-114 52 -275 0 -293 -136
	-15 -181 93 -229 220 -334
	88 -87 79 -133 62 -210
	-51 33 -94 105 -89 186
	17 267 36 374 49 574
	6 96 -19 134 -77 135
	-80 1 -126 -93 -61 -133
	85 -41 133 101 31 105
	23 17 92 37 90 -92
	-10 -223 -39 -342 -50 -617
	0 -90 0 -162 96 -232
	56 72 63 230 22 289
	-74 106 -257 168 -255 316
	9 153 148 185 252 133
	86 -65 29 -192 -80 -176
	-71 12 -105 67 -59 124"/>
<use id="tclef" transform="translate(0,6) scale(0.045)"
	xlink:href="#utclef"/>
</defs>
<use x="78.48" y="111.00" xlink:href="#tclef"/>
<defs>
<path id="usharp" class="fill" d="
	m136 -702
	v890
	h32
	v-890
	m128 840
	h32
	v-888
	h-32
	m-232 286
	v116
	l338 -96
	v-116
	m-338 442
	v116
	l338 -98
	v-114"/>
<use id="sh0" transform="translate(-4,5) scale(0.018)"
	xlink:href="#usharp"/>
</defs>
<use x="93.48" y="93.00" xlink:href="#sh0"/>
<use x="98.98" y="102.00" xlink:href="#sh0"/>
<defs>
<path id="hl1" class="stroke" d="m-7 0h14"/>
</defs>
<use x="130.78" y="123.00" xlink:href="#hl1"/>
<use x="130.78" y="129.00" xlink:href="#hl1"/>
<defs>
<path id="HD" class="fill" d="m-2.7 -1.4
	c1.5 -2.8 6.9 0 5.3 2.7
	-1.5 2.8 -6.9 0 -5.3 -2.7
	m8.3 1.4
	c0 -1.5 -2.2 -3 -5.6 -3
	-3.4 0 -5.6 1.5 -5.6 3
	0 1.5 2.2 3 5.6 3
	3.4 0 5.6 -1.5 5.6 -3"/>
<g id="HDD">
	<use xlink:href="#HD"/>
	<path d="m-6 -4v8m12 0v-8" class="stroke"/>
</g>
</defs>
<use x="130.78" y="129.00" xlink:href="#HDD"/>
<use x="114.98" y="129.00" xlink:href="#sh0"/>
<use x="871.78" y="123.00" xlink:href="#hl1"/>
<use x="871.78" y="123.00" xlink:href="#HDD"/>
<use x="78.48" y="169.00" xlink:href="#tclef"/>
<use x="93.48" y="151.00" xlink:href="#sh0"/>
<use x="98.98" y="160.00" xlink:href="#sh0"/>
<defs>
<path id="hl" class="stroke" d="m-6 0h12"/>
</defs>
<use x="129.78" y="181.00" xlink:href="#hl"/>
<defs>
<path id="Hd" class="fill" d="m3 -1.6
	c-1 -1.8 -7 1.4 -6 3.2
	1 1.8 7 -1.4 6 -3.2
	m0.5 -0.3
	c2 3.8 -5 7.6 -7 3.8
	-2 -3.8 5 -7.6 7 -3.8"/>
</defs>
<use x="129.78" y="181.00" xlink:href="#Hd"/>
<use x="119.78" y="181.00" xlink:href="#sh0"/>
<path d="M133.28 181.00v-21.00" class="stroke"/>
<use x="304.88" y="178.00" xlink:href="#Hd"/>
<use x="294.88" y="178.00" xlink:href="#sh0"/>
<path d="M308.38 178.00v-21.00" class="stroke"/>
<use x="480.08" y="172.00" xlink:href="#Hd"/>
<path d="M483.58 172.00v-21.00" class="stroke"/>
<use x="655.18" y="178.00" xlink:href="#Hd"/>
<use x="645.18" y="178.00" xlink:href="#sh0"/>
<path d="M658.68 178.00v-21.00" class="stroke"/>
<use x="870.78" y="178.00" xlink:href="#Hd"/>
<use x="860.78" y="178.00" xlink:href="#sh0"/>
<path d="M874.28 178.00v-21.00" class="stroke"/>
<use x="1045.88" y="172.00" xlink:href="#Hd"/>
<path d="M1049.38 172.00v-21.00" class="stroke"/>
<use x="78.48" y="227.00" xlink:href="#tclef"/>
<use x="93.48" y="209.00" xlink:href="#sh0"/>
<use x="98.98" y="218.00" xlink:href="#sh0"/>
<path class="fill"
	d="M132.98 208.80l121.90 0.00v3.20l-121.90 -0.00"/>
<defs>
<ellipse id="hd" rx="4.1" ry="2.9"
	transform="rotate(-20)" class="fill"/>
</defs>
<use x="129.78" y="233.00" xlink:href="#hd"/>
<path d="M133.28 233.00v-23.20" class="stroke"/>
<use x="170.18" y="230.00" xlink:href="#hd"/>
<use x="161.18" y="230.00" xlink:href="#sh0"/>
<path d="M173.68 230.00v-20.20" class="stroke"/>
<use x="210.58" y="227.00" xlink:href="#hd"/>
<use x="201.58" y="227.00" xlink:href="#sh0"/>
<path d="M214.08 227.00v-17.20" class="stroke"/>
<use x="250.98" y="230.00" xlink:href="#hd"/>
<use x="241.98" y="230.00" xlink:href="#sh0"/>
<path d="M254.48 230.00v-20.20" class="stroke"/>
<path class="fill"
	d="M308.08 206.10l121.90 0.00v3.20l-121.90 -0.00"/>
<use x="304.88" y="230.00" xlink:href="#hd"/>
<use x="295.88" y="230.00" xlink:href="#sh0"/>
<path d="M308.38 230.00v-23.00" class="stroke"/>
<use x="345.28" y="227.00" xlink:href="#hd"/>
<use x="336.28" y="227.00" xlink:href="#sh0"/>
<path d="M348.78 227.00v-20.00" class="stroke"/>
<use x="385.78" y="224.00" xlink:href="#hd"/>
<use x="376.78" y="224.00" xlink:href="#sh0"/>
<path d="M389.28 224.00v-17.00" class="stroke"/>
<use x="426.18" y="227.00" xlink:href="#hd"/>
<use x="417.18" y="227.00" xlink:href="#sh0"/>
<path d="M429.68 227.00v-20.00" class="stroke"/>
<path class="fill"
	d="M483.18 198.80l121.90 0.00v3.20l-121.90 -0.00"/>
<use x="480.08" y="227.00" xlink:href="#hd"/>
<use x="471.08" y="227.00" xlink:href="#sh0"/>
<path d="M483.58 227.00v-27.20" class="stroke"/>
<use x="520.48" y="224.00" xlink:href="#hd"/>
<use x="511.48" y="224.00" xlink:href="#sh0"/>
<path d="M523.98 224.00v-24.20" class="stroke"/>
<use x="560.88" y="218.00" xlink:href="#hd"/>
<path d="M564.38 218.00v-18.20" class="stroke"/>
<use x="601.28" y="224.00" xlink:href="#hd"/>
<use x="592.28" y="224.00" xlink:href="#sh0"/>
<path d="M604.78 224.00v-24.20" class="stroke"/>
<path class="fill"
	d="M658.38 206.10l121.90 0.00v3.20l-121.90 -0.00"/>
<use x="655.18" y="230.00" xlink:href="#hd"/>
<use x="646.18" y="230.00" xlink:href="#sh0"/>
<path d="M658.68 230.00v-23.00" class="stroke"/>
<use x="695.58" y="227.00" xlink:href="#hd"/>
<use x="686.58" y="227.00" xlink:href="#sh0"/>
<path d="M699.08 227.00v-20.00" class="stroke"/>
<use x="735.98" y="224.00" xlink:href="#hd"/>
<use x="726.98" y="224.00" xlink:href="#sh0"/>
<path d="M739.48 224.00v-17.00" class="stroke"/>
<use x="776.38" y="227.00" xlink:href="#hd"/>
<use x="767.38" y="227.00" xlink:href="#sh0"/>
<path d="M779.88 227.00v-20.00" class="stroke"/>
<path class="fill"
	d="M873.98 206.10l121.90 0.00v3.20l-121.90 -0.00"/>
<use x="870.78" y="230.00" xlink:href="#hd"/>
<use x="861.78" y="230.00" xlink:href="#sh0"/>
<path d="M874.28 230.00v-23.00" class="stroke"/>
<use x="911.18" y="227.00" xlink:href="#hd"/>
<use x="902.18" y="227.00" xlink:href="#sh0"/>
<path d="M914.68 227.00v-20.00" class="stroke"/>
<use x="951.58" y="224.00" xlink:href="#hd"/>
<use x="942.58" y="224.00" xlink:href="#sh0"/>
<path d="M955.08 224.00v-17.00" class="stroke"/>
<use x="992.08" y="227.00" xlink:href="#hd"/>
<use x="983.08" y="227.00" xlink:href="#sh0"/>
<path d="M995.58 227.00v-20.00" class="stroke"/>
<path class="fill"
	d="M1049.08 198.80l121.90 0.00v3.20l-121.90 -0.00"/>
<use x="1045.88" y="227.00" xlink:href="#hd"/>
<use x="1036.88" y="227.00" xlink:href="#sh0"/>
<path d="M1049.38 227.00v-27.20" class="stroke"/>
<use x="1086.38" y="224.00" xlink:href="#hd"/>
<use x="1077.38" y="224.00" xlink:href="#sh0"/>
<path d="M1089.88 224.00v-24.20" class="stroke"/>
<use x="1126.78" y="218.00" xlink:href="#hd"/>
<path d="M1130.28 218.00v-18.20" class="stroke"/>
<use x="1167.18" y="224.00" xlink:href="#hd"/>
<use x="1158.18" y="224.00" xlink:href="#sh0"/>
<path d="M1170.68 224.00v-24.20" class="stroke"/>
</g>
<g stroke-width="0.70" style="font:bold 13.00px Times">
<path class="stroke" stroke-width="1"
	d="M10.00 419.00v-140.00"/>
<path class="stroke" stroke-width="1"
	d="M154.40 361.00v-24.00"/>
<path class="stroke" stroke-width="1"
	d="M154.40 419.00v-58.00"/>
<path class="stroke" stroke-width="1"
	d="M261.60 303.00v-24.00"/>
<path class="stroke" stroke-width="1"
	d="M261.60 361.00v-58.00"/>
<path class="stroke" stroke-width="1"
	d="M261.60 419.00v-58.00"/>
<path class="stroke" stroke-width="1"
	d="M277.60 303.00v-24.00"/>
<path class="stroke" stroke-width="1"
	d="M293.60 303.00v-24.00"/>
<path class="stroke" stroke-width="1"
	d="M309.60 303.00v-24.00"/>
<path class="stroke" stroke-width="1"
	d="M412.40 361.00v-24.00"/>
<path class="stroke" stroke-width="1"
	d="M412.40 419.00v-58.00"/>
<path class="stroke" stroke-width="1"
	d="M518.80 361.00v-24.00"/>
<path class="stroke" stroke-width="1"
	d="M518.80 419.00v-58.00"/>
<path class="stroke" stroke-width="1"
	d="M620.00 361.00v-24.00"/>
<path class="stroke" stroke-width="1"
	d="M620.00 419.00v-58.00"/>
<path class="stroke" stroke-width="1"
	d="M726.40 303.00v-24.00"/>
<path class="stroke" stroke-width="1"
	d="M726.40 361.00v-58.00"/>
<path class="stroke" stroke-width="1"
	d="M726.40 419.00v-58.00"/>
<path class="stroke" stroke-width="1"
	d="M742.40 303.00v-24.00"/>
<path class="stroke" stroke-width="1"
	d="M758.40 303.00v-24.00"/>
<path class="stroke" stroke-width="1"
	d="M774.40 303.00v-24.00"/>
<path class="stroke" stroke-width="1"
	d="M877.50 361.00v-24.00"/>
<path class="stroke" stroke-width="1"
	d="M877.50 419.00v-58.00"/>
<path class="stroke" stroke-width="1"
	d="M984.70 361.00v-24.00"/>
<path class="stroke" stroke-width="1"
	d="M984.70 419.00v-58.00"/>
<path class="stroke" stroke-width="1"
	d="M1091.10 361.00v-24.00"/>
<path class="stroke" stroke-width="1"
	d="M1091.10 419.00v-58.00"/>
<path class="stroke" stroke-width="1"
	d="M1198.60 303.00v-24.00"/>
<path class="stroke" stroke-width="1"
	d="M1198.60 361.00v-58.00"/>
<path class="stroke" stroke-width="1"
	d="M1198.60 419.00v-58.00"/>
<defs>
<g id="rdots" class="fill">
	<circle cx="0" cy="-9" r="1.2"/>
	<circle cx="0" cy="-15" r="1.2"/>
</g>
</defs>
<use x="1194.60" y="419.00" xlink:href="#rdots"/>
<path class="stroke" stroke-width="1"
	d="M1190.60 419.00v-58.00"/>
<path d="m10.00 303.00
	h1188.60
	M10.00 297.00
	h1188.60
	M10.00 291.00
	h1188.60
	M10.00 285.00
	h1188.60
	M10.00 279.00
	h1188.60
	" class="stroke"/>
<path d="m10.00 361.00
	h1188.60
	M10.00 355.00
	h1188.60
	M10.00 349.00
	h1188.60
	M10.00 343.00
	h1188.60
	M10.00 337.00
	h1188.60
	" class="stroke"/>
<path d="m10.00 419.00
	h1188.60
	M10.00 413.00
	h1188.60
	M10.00 407.00
	h1188.60
	M10.00 401.00
	h1188.60
	M10.00 395.00
	h1188.60
	" class="stroke"/>
<use x="22.00" y="297.00" xlink:href="#tclef"/>
<use x="37.00" y="279.00" xlink:href="#sh0"/>
<use x="42.50" y="288.00" xlink:href="#sh0"/>
<use x="324.60" y="306.00" xlink:href="#HDD"/>
<use x="789.40" y="309.00" xlink:href="#hl1"/>
<use x="789.40" y="309.00" xlink:href="#HDD"/>
<use x="22.00" y="355.00" xlink:href="#tclef"/>
<use x="37.00" y="337.00" xlink:href="#sh0"/>
<use x="42.50" y="346.00" xlink:href="#sh0"/>
<use x="66.50" y="355.00" xlink:href="#Hd"/>
<path d="M70.00 355.00v-21.00" class="stroke"/>
<use x="172.90" y="358.00" xlink:href="#Hd"/>
<path d="M176.40 358.00v-21.00" class="stroke"/>
<use x="323.60" y="358.00" xlink:href="#Hd"/>
<path d="M327.10 358.00v-21.00" class="stroke"/>
<use x="430.90" y="355.00" xlink:href="#Hd"/>
<path d="M434.40 355.00v-21.00" class="stroke"/>
<use x="532.00" y="352.00" xlink:href="#Hd"/>
<path d="M535.50 352.00v-21.00" class="stroke"/>
<use x="638.50" y="355.00" xlink:href="#Hd"/>
<path d="M642.00 355.00v-21.00" class="stroke"/>
<use x="788.40" y="364.00" xlink:href="#Hd"/>
<use x="778.40" y="364.00" xlink:href="#sh0"/>
<path d="M791.90 364.00v-21.00" class="stroke"/>
<use x="896.00" y="358.00" xlink:href="#Hd"/>
<path d="M899.50 358.00v-21.00" class="stroke"/>
<use x="1003.20" y="355.00" xlink:href="#Hd"/>
<path d="M1006.70 355.00v-21.00" class="stroke"/>
<use x="1109.60" y="358.00" xlink:href="#Hd"/>
<path d="M1113.10 358.00v-21.00" class="stroke"/>
<use x="22.00" y="413.00" xlink:href="#tclef"/>
<use x="37.00" y="395.00" xlink:href="#sh0"/>
<use x="42.50" y="404.00" xlink:href="#sh0"/>
<path class="fill"
	d="M62.70 429.20l70.30 0.00v-3.20l-70.30 -0.00"/>
<use x="66.50" y="410.00" xlink:href="#hd"/>
<use x="57.50" y="410.00" xlink:href="#sh0"/>
<path d="M63.00 410.00v18.20" class="stroke"/>
<use x="89.70" y="404.00" xlink:href="#hd"/>
<path d="M86.20 404.00v24.20" class="stroke"/>
<use x="112.90" y="401.00" xlink:href="#hd"/>
<path d="M109.40 401.00v27.20" class="stroke"/>
<use x="136.10" y="404.00" xlink:href="#hd"/>
<path d="M132.60 404.00v24.20" class="stroke"/>
<path class="fill"
	d="M176.10 384.80l71.10 0.00v3.20l-71.10 -0.00"/>
<use x="172.90" y="413.00" xlink:href="#hd"/>
<use x="163.90" y="413.00" xlink:href="#sh0"/>
<path d="M176.40 413.00v-27.20" class="stroke"/>
<use x="196.50" y="410.00" xlink:href="#hd"/>
<use x="187.50" y="410.00" xlink:href="#sh0"/>
<path d="M200.00 410.00v-24.20" class="stroke"/>
<use x="219.70" y="404.00" xlink:href="#hd"/>
<path d="M223.20 404.00v-18.20" class="stroke"/>
<use x="243.30" y="410.00" xlink:href="#hd"/>
<use x="234.30" y="410.00" xlink:href="#sh0"/>
<path d="M246.80 410.00v-24.20" class="stroke"/>
<path class="fill"
	d="M326.80 384.80l71.10 0.00v3.20l-71.10 -0.00"/>
<use x="323.60" y="413.00" xlink:href="#hd"/>
<use x="314.60" y="413.00" xlink:href="#sh0"/>
<path d="M327.10 413.00v-27.20" class="stroke"/>
<use x="347.30" y="410.00" xlink:href="#hd"/>
<use x="338.30" y="410.00" xlink:href="#sh0"/>
<path d="M350.80 410.00v-24.20" class="stroke"/>
<use x="370.50" y="404.00" xlink:href="#hd"/>
<path d="M374.00 404.00v-18.20" class="stroke"/>
<use x="394.10" y="410.00" xlink:href="#hd"/>
<use x="385.10" y="410.00" xlink:href="#sh0"/>
<path d="M397.60 410.00v-24.20" class="stroke"/>
<path class="fill"
	d="M427.00 429.20l70.30 0.00v-3.20l-70.30 -0.00"/>
<use x="430.90" y="410.00" xlink:href="#hd"/>
<use x="421.90" y="410.00" xlink:href="#sh0"/>
<path d="M427.40 410.00v18.20" class="stroke"/>
<use x="454.10" y="404.00" xlink:href="#hd"/>
<path d="M450.60 404.00v24.20" class="stroke"/>
<use x="477.30" y="401.00" xlink:href="#hd"/>
<path d="M473.80 401.00v27.20" class="stroke"/>
<use x="500.50" y="404.00" xlink:href="#hd"/>
<path d="M497.00 404.00v24.20" class="stroke"/>
<path class="fill"
	d="M528.20 421.90l70.30 0.00v-3.20l-70.30 -0.00"/>
<use x="532.00" y="404.00" xlink:href="#hd"/>
<path d="M528.50 404.00v17.00" class="stroke"/>
<use x="555.20" y="401.00" xlink:href="#hd"/>
<path d="M551.70 401.00v20.00" class="stroke"/>
<use x="578.50" y="398.00" xlink:href="#hd"/>
<path d="M575.00 398.00v23.00" class="stroke"/>
<use x="601.70" y="401.00" xlink:href="#hd"/>
<path d="M598.20 401.00v20.00" class="stroke"/>
<path class="fill"
	d="M634.60 429.20l70.30 0.00v-3.20l-70.30 -0.00"/>
<use x="638.50" y="410.00" xlink:href="#hd"/>
<use x="629.50" y="410.00" xlink:href="#sh0"/>
<path d="M635.00 410.00v18.20" class="stroke"/>
<use x="661.70" y="404.00" xlink:href="#hd"/>
<path d="M658.20 404.00v24.20" class="stroke"/>
<use x="684.90" y="401.00" xlink:href="#hd"/>
<path d="M681.40 401.00v27.20" class="stroke"/>
<use x="708.10" y="404.00" xlink:href="#hd"/>
<path d="M704.60 404.00v24.20" class="stroke"/>
<path class="fill"
	d="M791.50 392.10l71.50 0.00v3.20l-71.50 -0.00"/>
<use x="788.40" y="416.00" xlink:href="#hd"/>
<use x="779.40" y="416.00" xlink:href="#sh0"/>
<path d="M791.90 416.00v-23.00" class="stroke"/>
<use x="812.00" y="413.00" xlink:href="#hd"/>
<use x="803.00" y="413.00" xlink:href="#sh0"/>
<path d="M815.50 413.00v-20.00" class="stroke"/>
<use x="835.60" y="410.00" xlink:href="#hd"/>
<use x="826.60" y="410.00" xlink:href="#sh0"/>
<path d="M839.10 410.00v-17.00" class="stroke"/>
<use x="859.20" y="413.00" xlink:href="#hd"/>
<use x="850.20" y="413.00" xlink:href="#sh0"/>
<path d="M862.70 413.00v-20.00" class="stroke"/>
<path class="fill"
	d="M899.20 384.80l71.10 0.00v3.20l-71.10 -0.00"/>
<use x="896.00" y="413.00" xlink:href="#hd"/>
<use x="887.00" y="413.00" xlink:href="#sh0"/>
<path d="M899.50 413.00v-27.20" class="stroke"/>
<use x="919.60" y="410.00" xlink:href="#hd"/>
<use x="910.60" y="410.00" xlink:href="#sh0"/>
<path d="M923.10 410.00v-24.20" class="stroke"/>
<use x="942.80" y="404.00" xlink:href="#hd"/>
<path d="M946.30 404.00v-18.20" class="stroke"/>
<use x="966.40" y="410.00" xlink:href="#hd"/>
<use x="957.40" y="410.00" xlink:href="#sh0"/>
<path d="M969.90 410.00v-24.20" class="stroke"/>
<path class="fill"
	d="M999.40 429.20l70.30 0.00v-3.20l-70.30 -0.00"/>
<use x="1003.20" y="410.00" xlink:href="#hd"/>
<use x="994.20" y="410.00" xlink:href="#sh0"/>
<path d="M999.70 410.00v18.20" class="stroke"/>
<use x="1026.40" y="404.00" xlink:href="#hd"/>
<path d="M1022.90 404.00v24.20" class="stroke"/>
<use x="1049.60" y="401.00" xlink:href="#hd"/>
<path d="M1046.10 401.00v27.20" class="stroke"/>
<use x="1072.80" y="404.00" xlink:href="#hd"/>
<path d="M1069.30 404.00v24.20" class="stroke"/>
<path class="fill"
	d="M1112.80 384.80l71.10 0.00v3.20l-71.10 -0.00"/>
<use x="1109.60" y="413.00" xlink:href="#hd"/>
<use x="1100.60" y="413.00" xlink:href="#sh0"/>
<path d="M1113.10 413.00v-27.20" class="stroke"/>
<use x="1133.30" y="410.00" xlink:href="#hd"/>
<use x="1124.30" y="410.00" xlink:href="#sh0"/>
<path d="M1136.80 410.00v-24.20" class="stroke"/>
<use x="1156.50" y="404.00" xlink:href="#hd"/>
<path d="M1160.00 404.00v-18.20" class="stroke"/>
<use x="1180.10" y="410.00" xlink:href="#hd"/>
<use x="1171.10" y="410.00" xlink:href="#sh0"/>
<path d="M1183.60 410.00v-24.20" class="stroke"/>
</g>
</svg>
