<?xml version="1.0" standalone="no"?>
<!DOCTYPE svg PUBLIC "-//W3C//DTD SVG 1.1//EN"
	"http://www.w3.org/Graphics/SVG/1.1/DTD/svg11.dtd">
<svg xmlns="http://www.w3.org/2000/svg" version="1.1"
	xmlns:xlink="http://www.w3.org/1999/xlink"
	color="black"
	width="1208.60px" height="442.00px">
<style type="text/css">
.fill {fill: currentColor}
.stroke {stroke: currentColor; fill: none}
text{white-space: pre}
</style>
<title>../src/torus/title_no_34_page_1.abc (2) tune 1</title>
<!-- Creator: abcm2ps-8.14.6 -->
<!-- CreationDate: Jan 11, 2023 20:08 -->
<!-- CommandLine: -g ../src/torus/title_no_34_page_1.abc -O ../src/torus/title_no_34_page_1.svg -->
<g stroke-width="0.70" style="font:italic 14.00px Times">
<text x="10.00" y="28.00">Procedurally Generated</text>
<!-- title: Torus:Taurus Tune -->
</g>
<g stroke-width="0.70" style="font:20.00px Times">
<text x="604.30" y="28.00" text-anchor="middle">Torus:Taurus Tune</text>
</g>
<g stroke-width="0.70" style="font:italic 14.00px Times">
<text x="1198.60" y="28.00" text-anchor="end">(Sid.)</text>
<text x="1198.60" y="43.40" text-anchor="end">Jeff Minter</text>
<!-- subtitle: 34 of 100,000,000,000,000 -->
</g>
<g stroke-width="0.70" style="font:16.00px Times">
<text x="604.30" y="64.00" text-anchor="middle">34 of 100,000,000,000,000</text>
</g>
<g stroke-width="0.70" style="font:bold 13.00px Times">
<text x="38.28" y="224.90" text-anchor="middle">Voice 3</text>
<text x="38.28" y="166.90" text-anchor="middle">Voice 2</text>
<text x="38.28" y="108.90" text-anchor="middle">Voice 1</text>
<path class="stroke" stroke-width="1"
	d="M66.48 233.00v-140.00"/>
<path class="stroke" stroke-width="1"
	d="M280.78 175.00v-24.00"/>
<path class="stroke" stroke-width="1"
	d="M280.78 233.00v-58.00"/>
<path class="stroke" stroke-width="1"
	d="M453.88 175.00v-24.00"/>
<path class="stroke" stroke-width="1"
	d="M453.88 233.00v-58.00"/>
<path class="stroke" stroke-width="1"
	d="M627.08 175.00v-24.00"/>
<path class="stroke" stroke-width="1"
	d="M627.08 233.00v-58.00"/>
<path class="stroke" stroke-width="1"
	d="M800.18 117.00v-24.00"/>
<path class="stroke" stroke-width="1"
	d="M800.18 175.00v-58.00"/>
<path class="stroke" stroke-width="1"
	d="M800.18 233.00v-58.00"/>
<path class="stroke" stroke-width="1"
	d="M816.18 117.00v-24.00"/>
<path class="stroke" stroke-width="1"
	d="M832.18 117.00v-24.00"/>
<path class="stroke" stroke-width="1"
	d="M848.18 117.00v-24.00"/>
<path class="stroke" stroke-width="1"
	d="M1025.48 175.00v-24.00"/>
<path class="stroke" stroke-width="1"
	d="M1025.48 233.00v-58.00"/>
<path class="stroke" stroke-width="1"
	d="M1198.58 175.00v-24.00"/>
<path class="stroke" stroke-width="1"
	d="M1198.58 233.00v-58.00"/>
<path d="m66.48 117.00
	h1132.10
	M66.48 111.00
	h1132.10
	M66.48 105.00
	h1132.10
	M66.48 99.00
	h1132.10
	M66.48 93.00
	h1132.10
	" class="stroke"/>
<path d="m66.48 175.00
	h1132.10
	M66.48 169.00
	h1132.10
	M66.48 163.00
	h1132.10
	M66.48 157.00
	h1132.10
	M66.48 151.00
	h1132.10
	" class="stroke"/>
<path d="m66.48 233.00
	h1132.10
	M66.48 227.00
	h1132.10
	M66.48 221.00
	h1132.10
	M66.48 215.00
	h1132.10
	M66.48 209.00
	h1132.10
	" class="stroke"/>
<defs>
<path id="utclef" class="fill" d="m-50 -90
	c-72 -41 -72 -158 52 -188
	150 -10 220 188 90 256
	-114 52 -275 0 -293 -136
	-15 -181 93 -229 220 -334
	88 -87 79 -133 62 -210
	-51 33 -94 105 -89 186
	17 267 36 374 49 574
	6 96 -19 134 -77 135
	-80 1 -126 -93 -61 -133
	85 -41 133 101 31 105
	23 17 92 37 90 -92
	-10 -223 -39 -342 -50 -617
	0 -90 0 -162 96 -232
	56 72 63 230 22 289
	-74 106 -257 168 -255 316
	9 153 148 185 252 133
	86 -65 29 -192 -80 -176
	-71 12 -105 67 -59 124"/>
<use id="tclef" transform="translate(0,6) scale(0.045)"
	xlink:href="#utclef"/>
</defs>
<use x="78.48" y="111.00" xlink:href="#tclef"/>
<defs>
<path id="usharp" class="fill" d="
	m136 -702
	v890
	h32
	v-890
	m128 840
	h32
	v-888
	h-32
	m-232 286
	v116
	l338 -96
	v-116
	m-338 442
	v116
	l338 -98
	v-114"/>
<use id="sh0" transform="translate(-4,5) scale(0.018)"
	xlink:href="#usharp"/>
</defs>
<use x="93.48" y="93.00" xlink:href="#sh0"/>
<use x="98.98" y="102.00" xlink:href="#sh0"/>
<defs>
<path id="hl1" class="stroke" d="m-7 0h14"/>
</defs>
<use x="130.78" y="123.00" xlink:href="#hl1"/>
<use x="130.78" y="129.00" xlink:href="#hl1"/>
<defs>
<path id="HD" class="fill" d="m-2.7 -1.4
	c1.5 -2.8 6.9 0 5.3 2.7
	-1.5 2.8 -6.9 0 -5.3 -2.7
	m8.3 1.4
	c0 -1.5 -2.2 -3 -5.6 -3
	-3.4 0 -5.6 1.5 -5.6 3
	0 1.5 2.2 3 5.6 3
	3.4 0 5.6 -1.5 5.6 -3"/>
<g id="HDD">
	<use xlink:href="#HD"/>
	<path d="m-6 -4v8m12 0v-8" class="stroke"/>
</g>
</defs>
<use x="130.78" y="129.00" xlink:href="#HDD"/>
<use x="114.98" y="129.00" xlink:href="#sh0"/>
<use x="875.48" y="123.00" xlink:href="#hl1"/>
<use x="875.48" y="129.00" xlink:href="#hl1"/>
<use x="875.48" y="129.00" xlink:href="#HDD"/>
<use x="859.68" y="129.00" xlink:href="#sh0"/>
<use x="78.48" y="169.00" xlink:href="#tclef"/>
<use x="93.48" y="151.00" xlink:href="#sh0"/>
<use x="98.98" y="160.00" xlink:href="#sh0"/>
<defs>
<path id="Hd" class="fill" d="m3 -1.6
	c-1 -1.8 -7 1.4 -6 3.2
	1 1.8 7 -1.4 6 -3.2
	m0.5 -0.3
	c2 3.8 -5 7.6 -7 3.8
	-2 -3.8 5 -7.6 7 -3.8"/>
</defs>
<use x="129.78" y="178.00" xlink:href="#Hd"/>
<use x="119.78" y="178.00" xlink:href="#sh0"/>
<path d="M133.28 178.00v-21.00" class="stroke"/>
<use x="302.98" y="178.00" xlink:href="#Hd"/>
<use x="292.98" y="178.00" xlink:href="#sh0"/>
<path d="M306.48 178.00v-21.00" class="stroke"/>
<use x="476.08" y="166.00" xlink:href="#Hd"/>
<use x="466.08" y="166.00" xlink:href="#sh0"/>
<path d="M479.58 166.00v-21.00" class="stroke"/>
<use x="649.28" y="166.00" xlink:href="#Hd"/>
<use x="639.28" y="166.00" xlink:href="#sh0"/>
<path d="M652.78 166.00v-21.00" class="stroke"/>
<use x="874.48" y="178.00" xlink:href="#Hd"/>
<use x="864.48" y="178.00" xlink:href="#sh0"/>
<path d="M877.98 178.00v-21.00" class="stroke"/>
<use x="1047.68" y="178.00" xlink:href="#Hd"/>
<use x="1037.68" y="178.00" xlink:href="#sh0"/>
<path d="M1051.18 178.00v-21.00" class="stroke"/>
<use x="78.48" y="227.00" xlink:href="#tclef"/>
<use x="93.48" y="209.00" xlink:href="#sh0"/>
<use x="98.98" y="218.00" xlink:href="#sh0"/>
<path class="fill"
	d="M125.98 248.70l120.60 -7.60v-3.20l-120.60 7.60"/>
<defs>
<ellipse id="hd" rx="4.1" ry="2.9"
	transform="rotate(-20)" class="fill"/>
</defs>
<use x="129.78" y="227.00" xlink:href="#hd"/>
<use x="120.78" y="227.00" xlink:href="#sh0"/>
<path d="M126.28 227.00v20.70" class="stroke"/>
<use x="169.78" y="227.00" xlink:href="#hd"/>
<use x="160.78" y="227.00" xlink:href="#sh0"/>
<path d="M166.28 227.00v18.20" class="stroke"/>
<use x="209.68" y="215.00" xlink:href="#hd"/>
<use x="200.68" y="215.00" xlink:href="#sh0"/>
<path d="M206.18 215.00v27.70" class="stroke"/>
<use x="249.68" y="215.00" xlink:href="#hd"/>
<use x="240.68" y="215.00" xlink:href="#sh0"/>
<path d="M246.18 215.00v25.20" class="stroke"/>
<path class="fill"
	d="M299.08 248.70l120.60 -7.60v-3.20l-120.60 7.60"/>
<use x="302.98" y="227.00" xlink:href="#hd"/>
<use x="293.98" y="227.00" xlink:href="#sh0"/>
<path d="M299.48 227.00v20.70" class="stroke"/>
<use x="342.88" y="227.00" xlink:href="#hd"/>
<use x="333.88" y="227.00" xlink:href="#sh0"/>
<path d="M339.38 227.00v18.20" class="stroke"/>
<use x="382.88" y="215.00" xlink:href="#hd"/>
<use x="373.88" y="215.00" xlink:href="#sh0"/>
<path d="M379.38 215.00v27.70" class="stroke"/>
<use x="422.78" y="215.00" xlink:href="#hd"/>
<use x="413.78" y="215.00" xlink:href="#sh0"/>
<path d="M419.28 215.00v25.20" class="stroke"/>
<path class="fill"
	d="M472.28 236.70l120.60 -7.60v-3.20l-120.60 7.60"/>
<use x="476.08" y="215.00" xlink:href="#hd"/>
<use x="467.08" y="215.00" xlink:href="#sh0"/>
<path d="M472.58 215.00v20.70" class="stroke"/>
<use x="516.08" y="215.00" xlink:href="#hd"/>
<use x="507.08" y="215.00" xlink:href="#sh0"/>
<path d="M512.58 215.00v18.20" class="stroke"/>
<defs>
<path id="hl" class="stroke" d="m-6 0h12"/>
</defs>
<use x="555.98" y="203.00" xlink:href="#hl"/>
<use x="555.98" y="203.00" xlink:href="#hd"/>
<use x="546.98" y="203.00" xlink:href="#sh0"/>
<path d="M552.48 203.00v27.70" class="stroke"/>
<use x="595.98" y="203.00" xlink:href="#hl"/>
<use x="595.98" y="203.00" xlink:href="#hd"/>
<use x="586.98" y="203.00" xlink:href="#sh0"/>
<path d="M592.48 203.00v25.20" class="stroke"/>
<path class="fill"
	d="M645.38 236.70l120.60 -7.60v-3.20l-120.60 7.60"/>
<use x="649.28" y="215.00" xlink:href="#hd"/>
<use x="640.28" y="215.00" xlink:href="#sh0"/>
<path d="M645.78 215.00v20.70" class="stroke"/>
<use x="689.18" y="215.00" xlink:href="#hd"/>
<use x="680.18" y="215.00" xlink:href="#sh0"/>
<path d="M685.68 215.00v18.20" class="stroke"/>
<use x="729.18" y="203.00" xlink:href="#hl"/>
<use x="729.18" y="203.00" xlink:href="#hd"/>
<use x="720.18" y="203.00" xlink:href="#sh0"/>
<path d="M725.68 203.00v27.70" class="stroke"/>
<use x="769.08" y="203.00" xlink:href="#hl"/>
<use x="769.08" y="203.00" xlink:href="#hd"/>
<use x="760.08" y="203.00" xlink:href="#sh0"/>
<path d="M765.58 203.00v25.20" class="stroke"/>
<path class="fill"
	d="M870.68 248.70l120.60 -7.60v-3.20l-120.60 7.60"/>
<use x="874.48" y="227.00" xlink:href="#hd"/>
<use x="865.48" y="227.00" xlink:href="#sh0"/>
<path d="M870.98 227.00v20.70" class="stroke"/>
<use x="914.48" y="227.00" xlink:href="#hd"/>
<use x="905.48" y="227.00" xlink:href="#sh0"/>
<path d="M910.98 227.00v18.20" class="stroke"/>
<use x="954.38" y="215.00" xlink:href="#hd"/>
<use x="945.38" y="215.00" xlink:href="#sh0"/>
<path d="M950.88 215.00v27.70" class="stroke"/>
<use x="994.38" y="215.00" xlink:href="#hd"/>
<use x="985.38" y="215.00" xlink:href="#sh0"/>
<path d="M990.88 215.00v25.20" class="stroke"/>
<path class="fill"
	d="M1043.78 248.70l120.60 -7.60v-3.20l-120.60 7.60"/>
<use x="1047.68" y="227.00" xlink:href="#hd"/>
<use x="1038.68" y="227.00" xlink:href="#sh0"/>
<path d="M1044.18 227.00v20.70" class="stroke"/>
<use x="1087.58" y="227.00" xlink:href="#hd"/>
<use x="1078.58" y="227.00" xlink:href="#sh0"/>
<path d="M1084.08 227.00v18.20" class="stroke"/>
<use x="1127.58" y="215.00" xlink:href="#hd"/>
<use x="1118.58" y="215.00" xlink:href="#sh0"/>
<path d="M1124.08 215.00v27.70" class="stroke"/>
<use x="1167.48" y="215.00" xlink:href="#hd"/>
<use x="1158.48" y="215.00" xlink:href="#sh0"/>
<path d="M1163.98 215.00v25.20" class="stroke"/>
</g>
<g stroke-width="0.70" style="font:bold 13.00px Times">
<path class="stroke" stroke-width="1"
	d="M10.00 419.00v-140.00"/>
<path class="stroke" stroke-width="1"
	d="M155.40 361.00v-24.00"/>
<path class="stroke" stroke-width="1"
	d="M155.40 419.00v-58.00"/>
<path class="stroke" stroke-width="1"
	d="M262.70 303.00v-24.00"/>
<path class="stroke" stroke-width="1"
	d="M262.70 361.00v-58.00"/>
<path class="stroke" stroke-width="1"
	d="M262.70 419.00v-58.00"/>
<path class="stroke" stroke-width="1"
	d="M278.70 303.00v-24.00"/>
<path class="stroke" stroke-width="1"
	d="M294.70 303.00v-24.00"/>
<path class="stroke" stroke-width="1"
	d="M310.70 303.00v-24.00"/>
<path class="stroke" stroke-width="1"
	d="M412.60 361.00v-24.00"/>
<path class="stroke" stroke-width="1"
	d="M412.60 419.00v-58.00"/>
<path class="stroke" stroke-width="1"
	d="M520.00 361.00v-24.00"/>
<path class="stroke" stroke-width="1"
	d="M520.00 419.00v-58.00"/>
<path class="stroke" stroke-width="1"
	d="M625.20 361.00v-24.00"/>
<path class="stroke" stroke-width="1"
	d="M625.20 419.00v-58.00"/>
<path class="stroke" stroke-width="1"
	d="M730.50 303.00v-24.00"/>
<path class="stroke" stroke-width="1"
	d="M730.50 361.00v-58.00"/>
<path class="stroke" stroke-width="1"
	d="M730.50 419.00v-58.00"/>
<path class="stroke" stroke-width="1"
	d="M746.50 303.00v-24.00"/>
<path class="stroke" stroke-width="1"
	d="M762.50 303.00v-24.00"/>
<path class="stroke" stroke-width="1"
	d="M778.50 303.00v-24.00"/>
<path class="stroke" stroke-width="1"
	d="M880.40 361.00v-24.00"/>
<path class="stroke" stroke-width="1"
	d="M880.40 419.00v-58.00"/>
<path class="stroke" stroke-width="1"
	d="M987.70 361.00v-24.00"/>
<path class="stroke" stroke-width="1"
	d="M987.70 419.00v-58.00"/>
<path class="stroke" stroke-width="1"
	d="M1093.00 361.00v-24.00"/>
<path class="stroke" stroke-width="1"
	d="M1093.00 419.00v-58.00"/>
<path class="stroke" stroke-width="1"
	d="M1198.60 303.00v-24.00"/>
<path class="stroke" stroke-width="1"
	d="M1198.60 361.00v-58.00"/>
<path class="stroke" stroke-width="1"
	d="M1198.60 419.00v-58.00"/>
<defs>
<g id="rdots" class="fill">
	<circle cx="0" cy="-9" r="1.2"/>
	<circle cx="0" cy="-15" r="1.2"/>
</g>
</defs>
<use x="1194.60" y="419.00" xlink:href="#rdots"/>
<path class="stroke" stroke-width="1"
	d="M1190.60 419.00v-58.00"/>
<path d="m10.00 303.00
	h1188.60
	M10.00 297.00
	h1188.60
	M10.00 291.00
	h1188.60
	M10.00 285.00
	h1188.60
	M10.00 279.00
	h1188.60
	" class="stroke"/>
<path d="m10.00 361.00
	h1188.60
	M10.00 355.00
	h1188.60
	M10.00 349.00
	h1188.60
	M10.00 343.00
	h1188.60
	M10.00 337.00
	h1188.60
	" class="stroke"/>
<path d="m10.00 419.00
	h1188.60
	M10.00 413.00
	h1188.60
	M10.00 407.00
	h1188.60
	M10.00 401.00
	h1188.60
	M10.00 395.00
	h1188.60
	" class="stroke"/>
<use x="22.00" y="297.00" xlink:href="#tclef"/>
<use x="37.00" y="279.00" xlink:href="#sh0"/>
<use x="42.50" y="288.00" xlink:href="#sh0"/>
<use x="325.70" y="300.00" xlink:href="#HDD"/>
<use x="793.50" y="300.00" xlink:href="#HDD"/>
<use x="22.00" y="355.00" xlink:href="#tclef"/>
<use x="37.00" y="337.00" xlink:href="#sh0"/>
<use x="42.50" y="346.00" xlink:href="#sh0"/>
<use x="67.50" y="352.00" xlink:href="#Hd"/>
<use x="57.50" y="352.00" xlink:href="#sh0"/>
<path d="M71.00 352.00v-21.00" class="stroke"/>
<use x="174.90" y="352.00" xlink:href="#Hd"/>
<use x="164.90" y="352.00" xlink:href="#sh0"/>
<path d="M178.40 352.00v-21.00" class="stroke"/>
<use x="324.70" y="352.00" xlink:href="#Hd"/>
<use x="314.70" y="352.00" xlink:href="#sh0"/>
<path d="M328.20 352.00v-21.00" class="stroke"/>
<use x="432.10" y="352.00" xlink:href="#Hd"/>
<use x="422.10" y="352.00" xlink:href="#sh0"/>
<path d="M435.60 352.00v-21.00" class="stroke"/>
<use x="538.50" y="337.00" xlink:href="#Hd"/>
<path d="M535.00 337.00v21.00" class="stroke"/>
<use x="643.70" y="337.00" xlink:href="#Hd"/>
<path d="M640.20 337.00v21.00" class="stroke"/>
<use x="792.50" y="352.00" xlink:href="#Hd"/>
<use x="782.50" y="352.00" xlink:href="#sh0"/>
<path d="M796.00 352.00v-21.00" class="stroke"/>
<use x="899.90" y="352.00" xlink:href="#Hd"/>
<use x="889.90" y="352.00" xlink:href="#sh0"/>
<path d="M903.40 352.00v-21.00" class="stroke"/>
<use x="1006.20" y="337.00" xlink:href="#Hd"/>
<path d="M1002.70 337.00v21.00" class="stroke"/>
<use x="1111.50" y="337.00" xlink:href="#Hd"/>
<path d="M1108.00 337.00v21.00" class="stroke"/>
<use x="22.00" y="413.00" xlink:href="#tclef"/>
<use x="37.00" y="395.00" xlink:href="#sh0"/>
<use x="42.50" y="404.00" xlink:href="#sh0"/>
<path class="fill"
	d="M63.70 422.50l70.60 -7.00v-3.20l-70.60 7.00"/>
<use x="67.50" y="401.00" xlink:href="#hd"/>
<use x="58.50" y="401.00" xlink:href="#sh0"/>
<path d="M64.00 401.00v20.50" class="stroke"/>
<use x="90.80" y="401.00" xlink:href="#hd"/>
<use x="81.80" y="401.00" xlink:href="#sh0"/>
<path d="M87.30 401.00v18.20" class="stroke"/>
<use x="114.10" y="389.00" xlink:href="#hl"/>
<use x="114.10" y="389.00" xlink:href="#hd"/>
<use x="105.10" y="389.00" xlink:href="#sh0"/>
<path d="M110.60 389.00v27.90" class="stroke"/>
<use x="137.40" y="389.00" xlink:href="#hl"/>
<use x="137.40" y="389.00" xlink:href="#hd"/>
<use x="128.40" y="389.00" xlink:href="#sh0"/>
<path d="M133.90 389.00v25.60" class="stroke"/>
<path class="fill"
	d="M171.00 422.50l70.60 -7.00v-3.20l-70.60 7.00"/>
<use x="174.90" y="401.00" xlink:href="#hd"/>
<use x="165.90" y="401.00" xlink:href="#sh0"/>
<path d="M171.40 401.00v20.50" class="stroke"/>
<use x="198.20" y="401.00" xlink:href="#hd"/>
<use x="189.20" y="401.00" xlink:href="#sh0"/>
<path d="M194.70 401.00v18.20" class="stroke"/>
<use x="221.50" y="389.00" xlink:href="#hl"/>
<use x="221.50" y="389.00" xlink:href="#hd"/>
<use x="212.50" y="389.00" xlink:href="#sh0"/>
<path d="M218.00 389.00v27.90" class="stroke"/>
<use x="244.70" y="389.00" xlink:href="#hl"/>
<use x="244.70" y="389.00" xlink:href="#hd"/>
<use x="235.70" y="389.00" xlink:href="#sh0"/>
<path d="M241.20 389.00v25.60" class="stroke"/>
<path class="fill"
	d="M320.90 422.50l70.60 -7.00v-3.20l-70.60 7.00"/>
<use x="324.70" y="401.00" xlink:href="#hd"/>
<use x="315.70" y="401.00" xlink:href="#sh0"/>
<path d="M321.20 401.00v20.50" class="stroke"/>
<use x="348.00" y="401.00" xlink:href="#hd"/>
<use x="339.00" y="401.00" xlink:href="#sh0"/>
<path d="M344.50 401.00v18.20" class="stroke"/>
<use x="371.30" y="389.00" xlink:href="#hl"/>
<use x="371.30" y="389.00" xlink:href="#hd"/>
<use x="362.30" y="389.00" xlink:href="#sh0"/>
<path d="M367.80 389.00v27.90" class="stroke"/>
<use x="394.60" y="389.00" xlink:href="#hl"/>
<use x="394.60" y="389.00" xlink:href="#hd"/>
<use x="385.60" y="389.00" xlink:href="#sh0"/>
<path d="M391.10 389.00v25.60" class="stroke"/>
<path class="fill"
	d="M428.30 422.50l70.60 -7.00v-3.20l-70.60 7.00"/>
<use x="432.10" y="401.00" xlink:href="#hd"/>
<use x="423.10" y="401.00" xlink:href="#sh0"/>
<path d="M428.60 401.00v20.50" class="stroke"/>
<use x="455.40" y="401.00" xlink:href="#hd"/>
<use x="446.40" y="401.00" xlink:href="#sh0"/>
<path d="M451.90 401.00v18.20" class="stroke"/>
<use x="478.70" y="389.00" xlink:href="#hl"/>
<use x="478.70" y="389.00" xlink:href="#hd"/>
<use x="469.70" y="389.00" xlink:href="#sh0"/>
<path d="M475.20 389.00v27.90" class="stroke"/>
<use x="502.00" y="389.00" xlink:href="#hl"/>
<use x="502.00" y="389.00" xlink:href="#hd"/>
<use x="493.00" y="389.00" xlink:href="#sh0"/>
<path d="M498.50 389.00v25.60" class="stroke"/>
<path class="fill"
	d="M534.70 407.20l69.40 0.00v-3.20l-69.40 -0.00"/>
<use x="538.50" y="389.00" xlink:href="#hl"/>
<use x="538.50" y="389.00" xlink:href="#hd"/>
<use x="529.50" y="389.00" xlink:href="#sh0"/>
<path d="M535.00 389.00v17.20" class="stroke"/>
<use x="561.80" y="389.00" xlink:href="#hl"/>
<use x="561.80" y="389.00" xlink:href="#hd"/>
<use x="552.80" y="389.00" xlink:href="#sh0"/>
<path d="M558.30 389.00v17.20" class="stroke"/>
<use x="584.50" y="389.00" xlink:href="#hl"/>
<use x="584.50" y="383.00" xlink:href="#hl"/>
<use x="584.50" y="377.00" xlink:href="#hl"/>
<use x="584.50" y="374.00" xlink:href="#hd"/>
<path d="M581.00 374.00v32.20" class="stroke"/>
<use x="607.20" y="389.00" xlink:href="#hl"/>
<use x="607.20" y="383.00" xlink:href="#hl"/>
<use x="607.20" y="377.00" xlink:href="#hl"/>
<use x="607.20" y="374.00" xlink:href="#hd"/>
<path d="M603.70 374.00v32.20" class="stroke"/>
<path class="fill"
	d="M639.90 407.20l69.40 0.00v-3.20l-69.40 -0.00"/>
<use x="643.70" y="389.00" xlink:href="#hl"/>
<use x="643.70" y="389.00" xlink:href="#hd"/>
<use x="634.70" y="389.00" xlink:href="#sh0"/>
<path d="M640.20 389.00v17.20" class="stroke"/>
<use x="667.00" y="389.00" xlink:href="#hl"/>
<use x="667.00" y="389.00" xlink:href="#hd"/>
<use x="658.00" y="389.00" xlink:href="#sh0"/>
<path d="M663.50 389.00v17.20" class="stroke"/>
<use x="689.80" y="389.00" xlink:href="#hl"/>
<use x="689.80" y="383.00" xlink:href="#hl"/>
<use x="689.80" y="377.00" xlink:href="#hl"/>
<use x="689.80" y="374.00" xlink:href="#hd"/>
<path d="M686.30 374.00v32.20" class="stroke"/>
<use x="712.50" y="389.00" xlink:href="#hl"/>
<use x="712.50" y="383.00" xlink:href="#hl"/>
<use x="712.50" y="377.00" xlink:href="#hl"/>
<use x="712.50" y="374.00" xlink:href="#hd"/>
<path d="M709.00 374.00v32.20" class="stroke"/>
<path class="fill"
	d="M788.60 422.50l70.60 -7.00v-3.20l-70.60 7.00"/>
<use x="792.50" y="401.00" xlink:href="#hd"/>
<use x="783.50" y="401.00" xlink:href="#sh0"/>
<path d="M789.00 401.00v20.50" class="stroke"/>
<use x="815.80" y="401.00" xlink:href="#hd"/>
<use x="806.80" y="401.00" xlink:href="#sh0"/>
<path d="M812.30 401.00v18.20" class="stroke"/>
<use x="839.10" y="389.00" xlink:href="#hl"/>
<use x="839.10" y="389.00" xlink:href="#hd"/>
<use x="830.10" y="389.00" xlink:href="#sh0"/>
<path d="M835.60 389.00v27.90" class="stroke"/>
<use x="862.40" y="389.00" xlink:href="#hl"/>
<use x="862.40" y="389.00" xlink:href="#hd"/>
<use x="853.40" y="389.00" xlink:href="#sh0"/>
<path d="M858.90 389.00v25.60" class="stroke"/>
<path class="fill"
	d="M896.00 422.50l70.60 -7.00v-3.20l-70.60 7.00"/>
<use x="899.90" y="401.00" xlink:href="#hd"/>
<use x="890.90" y="401.00" xlink:href="#sh0"/>
<path d="M896.40 401.00v20.50" class="stroke"/>
<use x="923.20" y="401.00" xlink:href="#hd"/>
<use x="914.20" y="401.00" xlink:href="#sh0"/>
<path d="M919.70 401.00v18.20" class="stroke"/>
<use x="946.40" y="389.00" xlink:href="#hl"/>
<use x="946.40" y="389.00" xlink:href="#hd"/>
<use x="937.40" y="389.00" xlink:href="#sh0"/>
<path d="M942.90 389.00v27.90" class="stroke"/>
<use x="969.70" y="389.00" xlink:href="#hl"/>
<use x="969.70" y="389.00" xlink:href="#hd"/>
<use x="960.70" y="389.00" xlink:href="#sh0"/>
<path d="M966.20 389.00v25.60" class="stroke"/>
<path class="fill"
	d="M1002.40 407.20l69.40 0.00v-3.20l-69.40 -0.00"/>
<use x="1006.20" y="389.00" xlink:href="#hl"/>
<use x="1006.20" y="389.00" xlink:href="#hd"/>
<use x="997.20" y="389.00" xlink:href="#sh0"/>
<path d="M1002.70 389.00v17.20" class="stroke"/>
<use x="1029.50" y="389.00" xlink:href="#hl"/>
<use x="1029.50" y="389.00" xlink:href="#hd"/>
<use x="1020.50" y="389.00" xlink:href="#sh0"/>
<path d="M1026.00 389.00v17.20" class="stroke"/>
<use x="1052.30" y="389.00" xlink:href="#hl"/>
<use x="1052.30" y="383.00" xlink:href="#hl"/>
<use x="1052.30" y="377.00" xlink:href="#hl"/>
<use x="1052.30" y="374.00" xlink:href="#hd"/>
<path d="M1048.80 374.00v32.20" class="stroke"/>
<use x="1075.00" y="389.00" xlink:href="#hl"/>
<use x="1075.00" y="383.00" xlink:href="#hl"/>
<use x="1075.00" y="377.00" xlink:href="#hl"/>
<use x="1075.00" y="374.00" xlink:href="#hd"/>
<path d="M1071.50 374.00v32.20" class="stroke"/>
<path class="fill"
	d="M1107.60 407.20l69.40 0.00v-3.20l-69.40 -0.00"/>
<use x="1111.50" y="389.00" xlink:href="#hl"/>
<use x="1111.50" y="389.00" xlink:href="#hd"/>
<use x="1102.50" y="389.00" xlink:href="#sh0"/>
<path d="M1108.00 389.00v17.20" class="stroke"/>
<use x="1134.80" y="389.00" xlink:href="#hl"/>
<use x="1134.80" y="389.00" xlink:href="#hd"/>
<use x="1125.80" y="389.00" xlink:href="#sh0"/>
<path d="M1131.30 389.00v17.20" class="stroke"/>
<use x="1157.50" y="389.00" xlink:href="#hl"/>
<use x="1157.50" y="383.00" xlink:href="#hl"/>
<use x="1157.50" y="377.00" xlink:href="#hl"/>
<use x="1157.50" y="374.00" xlink:href="#hd"/>
<path d="M1154.00 374.00v32.20" class="stroke"/>
<use x="1180.20" y="389.00" xlink:href="#hl"/>
<use x="1180.20" y="383.00" xlink:href="#hl"/>
<use x="1180.20" y="377.00" xlink:href="#hl"/>
<use x="1180.20" y="374.00" xlink:href="#hd"/>
<path d="M1176.70 374.00v32.20" class="stroke"/>
</g>
</svg>
