<?xml version="1.0" standalone="no"?>
<!DOCTYPE svg PUBLIC "-//W3C//DTD SVG 1.1//EN"
	"http://www.w3.org/Graphics/SVG/1.1/DTD/svg11.dtd">
<svg xmlns="http://www.w3.org/2000/svg" version="1.1"
	xmlns:xlink="http://www.w3.org/1999/xlink"
	color="black"
	width="1208.60px" height="442.00px">
<style type="text/css">
.fill {fill: currentColor}
.stroke {stroke: currentColor; fill: none}
text{white-space: pre}
</style>
<title>../src/torus/title_no_29_page_1.abc (2) tune 1</title>
<!-- Creator: abcm2ps-8.14.6 -->
<!-- CreationDate: Jan 11, 2023 20:08 -->
<!-- CommandLine: -g ../src/torus/title_no_29_page_1.abc -O ../src/torus/title_no_29_page_1.svg -->
<g stroke-width="0.70" style="font:italic 14.00px Times">
<text x="10.00" y="28.00">Procedurally Generated</text>
<!-- title: Torus:Taurus Tune -->
</g>
<g stroke-width="0.70" style="font:20.00px Times">
<text x="604.30" y="28.00" text-anchor="middle">Torus:Taurus Tune</text>
</g>
<g stroke-width="0.70" style="font:italic 14.00px Times">
<text x="1198.60" y="28.00" text-anchor="end">(Sid.)</text>
<text x="1198.60" y="43.40" text-anchor="end">Jeff Minter</text>
<!-- subtitle: 29 of 100,000,000,000,000 -->
</g>
<g stroke-width="0.70" style="font:16.00px Times">
<text x="604.30" y="64.00" text-anchor="middle">29 of 100,000,000,000,000</text>
</g>
<g stroke-width="0.70" style="font:bold 13.00px Times">
<text x="38.28" y="224.90" text-anchor="middle">Voice 3</text>
<text x="38.28" y="166.90" text-anchor="middle">Voice 2</text>
<text x="38.28" y="108.90" text-anchor="middle">Voice 1</text>
<path class="stroke" stroke-width="1"
	d="M66.48 233.00v-140.00"/>
<path class="stroke" stroke-width="1"
	d="M257.78 175.00v-24.00"/>
<path class="stroke" stroke-width="1"
	d="M257.78 233.00v-58.00"/>
<path class="stroke" stroke-width="1"
	d="M404.58 175.00v-24.00"/>
<path class="stroke" stroke-width="1"
	d="M404.58 233.00v-58.00"/>
<path class="stroke" stroke-width="1"
	d="M553.08 175.00v-24.00"/>
<path class="stroke" stroke-width="1"
	d="M553.08 233.00v-58.00"/>
<path class="stroke" stroke-width="1"
	d="M701.58 117.00v-24.00"/>
<path class="stroke" stroke-width="1"
	d="M701.58 175.00v-58.00"/>
<path class="stroke" stroke-width="1"
	d="M701.58 233.00v-58.00"/>
<path class="stroke" stroke-width="1"
	d="M717.58 117.00v-24.00"/>
<path class="stroke" stroke-width="1"
	d="M733.58 117.00v-24.00"/>
<path class="stroke" stroke-width="1"
	d="M749.58 117.00v-24.00"/>
<path class="stroke" stroke-width="1"
	d="M903.28 175.00v-24.00"/>
<path class="stroke" stroke-width="1"
	d="M903.28 233.00v-58.00"/>
<path class="stroke" stroke-width="1"
	d="M1050.18 175.00v-24.00"/>
<path class="stroke" stroke-width="1"
	d="M1050.18 233.00v-58.00"/>
<path class="stroke" stroke-width="1"
	d="M1198.58 175.00v-24.00"/>
<path class="stroke" stroke-width="1"
	d="M1198.58 233.00v-58.00"/>
<path d="m66.48 117.00
	h1132.10
	M66.48 111.00
	h1132.10
	M66.48 105.00
	h1132.10
	M66.48 99.00
	h1132.10
	M66.48 93.00
	h1132.10
	" class="stroke"/>
<path d="m66.48 175.00
	h1132.10
	M66.48 169.00
	h1132.10
	M66.48 163.00
	h1132.10
	M66.48 157.00
	h1132.10
	M66.48 151.00
	h1132.10
	" class="stroke"/>
<path d="m66.48 233.00
	h1132.10
	M66.48 227.00
	h1132.10
	M66.48 221.00
	h1132.10
	M66.48 215.00
	h1132.10
	M66.48 209.00
	h1132.10
	" class="stroke"/>
<defs>
<path id="ubclef" class="fill" d="m-200 -87
	c124 -35 222 -78 254 -236
	43 -228 -167 -246 -192 -103
	59 -80 157 22 92 78
	-62 47 -115 -22 -106 -88
	21 -141 270 -136 274 52
	-1 175 -106 264 -322 297
	m357 -250
	c0 -36 51 -34 51 0
	0 37 -51 36 -51 0
	m-2 -129
	c0 -36 51 -34 51 0
	0 38 -51 37 -51 0"/>
<use id="bclef" transform="translate(0,18) scale(0.045)"
	xlink:href="#ubclef"/>
</defs>
<use x="78.48" y="99.00" xlink:href="#bclef"/>
<defs>
<path id="usharp" class="fill" d="
	m136 -702
	v890
	h32
	v-890
	m128 840
	h32
	v-888
	h-32
	m-232 286
	v116
	l338 -96
	v-116
	m-338 442
	v116
	l338 -98
	v-114"/>
<use id="sh0" transform="translate(-4,5) scale(0.018)"
	xlink:href="#usharp"/>
</defs>
<use x="93.48" y="99.00" xlink:href="#sh0"/>
<use x="98.98" y="108.00" xlink:href="#sh0"/>
<defs>
<path id="HD" class="fill" d="m-2.7 -1.4
	c1.5 -2.8 6.9 0 5.3 2.7
	-1.5 2.8 -6.9 0 -5.3 -2.7
	m8.3 1.4
	c0 -1.5 -2.2 -3 -5.6 -3
	-3.4 0 -5.6 1.5 -5.6 3
	0 1.5 2.2 3 5.6 3
	3.4 0 5.6 -1.5 5.6 -3"/>
<g id="HDD">
	<use xlink:href="#HD"/>
	<path d="m-6 -4v8m12 0v-8" class="stroke"/>
</g>
</defs>
<use x="130.78" y="99.00" xlink:href="#HDD"/>
<use x="114.98" y="99.00" xlink:href="#sh0"/>
<use x="776.28" y="99.00" xlink:href="#HDD"/>
<use x="760.48" y="99.00" xlink:href="#sh0"/>
<defs>
<path id="utclef" class="fill" d="m-50 -90
	c-72 -41 -72 -158 52 -188
	150 -10 220 188 90 256
	-114 52 -275 0 -293 -136
	-15 -181 93 -229 220 -334
	88 -87 79 -133 62 -210
	-51 33 -94 105 -89 186
	17 267 36 374 49 574
	6 96 -19 134 -77 135
	-80 1 -126 -93 -61 -133
	85 -41 133 101 31 105
	23 17 92 37 90 -92
	-10 -223 -39 -342 -50 -617
	0 -90 0 -162 96 -232
	56 72 63 230 22 289
	-74 106 -257 168 -255 316
	9 153 148 185 252 133
	86 -65 29 -192 -80 -176
	-71 12 -105 67 -59 124"/>
<use id="tclef" transform="translate(0,6) scale(0.045)"
	xlink:href="#utclef"/>
</defs>
<use x="78.48" y="169.00" xlink:href="#tclef"/>
<use x="93.48" y="151.00" xlink:href="#sh0"/>
<use x="98.98" y="160.00" xlink:href="#sh0"/>
<defs>
<path id="hl" class="stroke" d="m-6 0h12"/>
</defs>
<use x="129.78" y="181.00" xlink:href="#hl"/>
<use x="129.78" y="187.00" xlink:href="#hl"/>
<defs>
<path id="Hd" class="fill" d="m3 -1.6
	c-1 -1.8 -7 1.4 -6 3.2
	1 1.8 7 -1.4 6 -3.2
	m0.5 -0.3
	c2 3.8 -5 7.6 -7 3.8
	-2 -3.8 5 -7.6 7 -3.8"/>
</defs>
<use x="129.78" y="187.00" xlink:href="#Hd"/>
<path d="M133.28 187.00v-24.00" class="stroke"/>
<use x="276.58" y="181.00" xlink:href="#hl"/>
<use x="276.58" y="187.00" xlink:href="#hl"/>
<use x="276.58" y="187.00" xlink:href="#Hd"/>
<path d="M280.08 187.00v-24.00" class="stroke"/>
<use x="425.08" y="178.00" xlink:href="#Hd"/>
<use x="415.08" y="178.00" xlink:href="#sh0"/>
<path d="M428.58 178.00v-21.00" class="stroke"/>
<use x="573.58" y="181.00" xlink:href="#hl"/>
<use x="573.58" y="181.00" xlink:href="#Hd"/>
<use x="563.58" y="181.00" xlink:href="#sh0"/>
<path d="M577.08 181.00v-21.00" class="stroke"/>
<use x="775.28" y="181.00" xlink:href="#hl"/>
<use x="775.28" y="187.00" xlink:href="#hl"/>
<use x="775.28" y="187.00" xlink:href="#Hd"/>
<path d="M778.78 187.00v-24.00" class="stroke"/>
<use x="922.18" y="181.00" xlink:href="#hl"/>
<use x="922.18" y="187.00" xlink:href="#hl"/>
<use x="922.18" y="187.00" xlink:href="#Hd"/>
<path d="M925.68 187.00v-24.00" class="stroke"/>
<use x="1070.58" y="178.00" xlink:href="#Hd"/>
<use x="1060.58" y="178.00" xlink:href="#sh0"/>
<path d="M1074.08 178.00v-21.00" class="stroke"/>
<use x="78.48" y="227.00" xlink:href="#tclef"/>
<use x="93.48" y="209.00" xlink:href="#sh0"/>
<use x="98.98" y="218.00" xlink:href="#sh0"/>
<path class="fill"
	d="M132.98 213.80l102.30 -4.50v3.20l-102.30 4.50"/>
<use x="129.78" y="239.00" xlink:href="#hl"/>
<defs>
<ellipse id="hd" rx="4.1" ry="2.9"
	transform="rotate(-20)" class="fill"/>
</defs>
<use x="129.78" y="239.00" xlink:href="#hd"/>
<path d="M133.28 239.00v-24.20" class="stroke"/>
<use x="163.68" y="239.00" xlink:href="#hl"/>
<use x="163.68" y="239.00" xlink:href="#hd"/>
<path d="M167.18 239.00v-25.70" class="stroke"/>
<use x="197.58" y="230.00" xlink:href="#hd"/>
<use x="188.58" y="230.00" xlink:href="#sh0"/>
<path d="M201.08 230.00v-18.20" class="stroke"/>
<use x="231.38" y="233.00" xlink:href="#hd"/>
<path d="M234.88 233.00v-22.70" class="stroke"/>
<path class="fill"
	d="M279.78 213.80l102.30 -4.50v3.20l-102.30 4.50"/>
<use x="276.58" y="239.00" xlink:href="#hl"/>
<use x="276.58" y="239.00" xlink:href="#hd"/>
<path d="M280.08 239.00v-24.20" class="stroke"/>
<use x="310.48" y="239.00" xlink:href="#hl"/>
<use x="310.48" y="239.00" xlink:href="#hd"/>
<path d="M313.98 239.00v-25.70" class="stroke"/>
<use x="344.38" y="230.00" xlink:href="#hd"/>
<use x="335.38" y="230.00" xlink:href="#sh0"/>
<path d="M347.88 230.00v-18.20" class="stroke"/>
<use x="378.28" y="233.00" xlink:href="#hd"/>
<path d="M381.78 233.00v-22.70" class="stroke"/>
<path class="fill"
	d="M428.18 202.10l102.30 -4.90v3.20l-102.30 4.90"/>
<use x="425.08" y="230.00" xlink:href="#hd"/>
<use x="416.08" y="230.00" xlink:href="#sh0"/>
<path d="M428.58 230.00v-26.90" class="stroke"/>
<use x="458.98" y="230.00" xlink:href="#hd"/>
<use x="449.98" y="230.00" xlink:href="#sh0"/>
<path d="M462.48 230.00v-28.60" class="stroke"/>
<use x="492.88" y="218.00" xlink:href="#hd"/>
<path d="M496.38 218.00v-18.20" class="stroke"/>
<use x="526.68" y="224.00" xlink:href="#hd"/>
<use x="517.68" y="224.00" xlink:href="#sh0"/>
<path d="M530.18 224.00v-25.80" class="stroke"/>
<path class="fill"
	d="M576.68 207.80l102.30 -4.50v3.20l-102.30 4.50"/>
<use x="573.58" y="233.00" xlink:href="#hd"/>
<path d="M577.08 233.00v-24.20" class="stroke"/>
<use x="607.38" y="233.00" xlink:href="#hd"/>
<path d="M610.88 233.00v-25.70" class="stroke"/>
<use x="641.28" y="224.00" xlink:href="#hd"/>
<use x="632.28" y="224.00" xlink:href="#sh0"/>
<path d="M644.78 224.00v-18.20" class="stroke"/>
<use x="675.18" y="227.00" xlink:href="#hd"/>
<use x="666.18" y="227.00" xlink:href="#sh0"/>
<path d="M678.68 227.00v-22.70" class="stroke"/>
<path class="fill"
	d="M778.48 213.80l102.30 -4.50v3.20l-102.30 4.50"/>
<use x="775.28" y="239.00" xlink:href="#hl"/>
<use x="775.28" y="239.00" xlink:href="#hd"/>
<path d="M778.78 239.00v-24.20" class="stroke"/>
<use x="809.18" y="239.00" xlink:href="#hl"/>
<use x="809.18" y="239.00" xlink:href="#hd"/>
<path d="M812.68 239.00v-25.70" class="stroke"/>
<use x="843.08" y="230.00" xlink:href="#hd"/>
<use x="834.08" y="230.00" xlink:href="#sh0"/>
<path d="M846.58 230.00v-18.20" class="stroke"/>
<use x="876.98" y="233.00" xlink:href="#hd"/>
<path d="M880.48 233.00v-22.70" class="stroke"/>
<path class="fill"
	d="M925.28 213.80l102.30 -4.50v3.20l-102.30 4.50"/>
<use x="922.18" y="239.00" xlink:href="#hl"/>
<use x="922.18" y="239.00" xlink:href="#hd"/>
<path d="M925.68 239.00v-24.20" class="stroke"/>
<use x="955.98" y="239.00" xlink:href="#hl"/>
<use x="955.98" y="239.00" xlink:href="#hd"/>
<path d="M959.48 239.00v-25.70" class="stroke"/>
<use x="989.88" y="230.00" xlink:href="#hd"/>
<use x="980.88" y="230.00" xlink:href="#sh0"/>
<path d="M993.38 230.00v-18.20" class="stroke"/>
<use x="1023.78" y="233.00" xlink:href="#hd"/>
<path d="M1027.28 233.00v-22.70" class="stroke"/>
<path class="fill"
	d="M1073.78 202.10l102.30 -4.90v3.20l-102.30 4.90"/>
<use x="1070.58" y="230.00" xlink:href="#hd"/>
<use x="1061.58" y="230.00" xlink:href="#sh0"/>
<path d="M1074.08 230.00v-26.90" class="stroke"/>
<use x="1104.48" y="230.00" xlink:href="#hd"/>
<use x="1095.48" y="230.00" xlink:href="#sh0"/>
<path d="M1107.98 230.00v-28.60" class="stroke"/>
<use x="1138.38" y="218.00" xlink:href="#hd"/>
<path d="M1141.88 218.00v-18.20" class="stroke"/>
<use x="1172.28" y="224.00" xlink:href="#hd"/>
<use x="1163.28" y="224.00" xlink:href="#sh0"/>
<path d="M1175.78 224.00v-25.80" class="stroke"/>
</g>
<g stroke-width="0.70" style="font:bold 13.00px Times">
<path class="stroke" stroke-width="1"
	d="M10.00 419.00v-140.00"/>
<path class="stroke" stroke-width="1"
	d="M166.00 303.00v-24.00"/>
<path class="stroke" stroke-width="1"
	d="M166.00 361.00v-58.00"/>
<path class="stroke" stroke-width="1"
	d="M166.00 419.00v-58.00"/>
<path class="stroke" stroke-width="1"
	d="M182.00 303.00v-24.00"/>
<path class="stroke" stroke-width="1"
	d="M198.00 303.00v-24.00"/>
<path class="stroke" stroke-width="1"
	d="M214.00 303.00v-24.00"/>
<path class="stroke" stroke-width="1"
	d="M326.50 361.00v-24.00"/>
<path class="stroke" stroke-width="1"
	d="M326.50 419.00v-58.00"/>
<path class="stroke" stroke-width="1"
	d="M444.60 361.00v-24.00"/>
<path class="stroke" stroke-width="1"
	d="M444.60 419.00v-58.00"/>
<path class="stroke" stroke-width="1"
	d="M557.50 361.00v-24.00"/>
<path class="stroke" stroke-width="1"
	d="M557.50 419.00v-58.00"/>
<path class="stroke" stroke-width="1"
	d="M674.60 303.00v-24.00"/>
<path class="stroke" stroke-width="1"
	d="M674.60 361.00v-58.00"/>
<path class="stroke" stroke-width="1"
	d="M674.60 419.00v-58.00"/>
<path class="stroke" stroke-width="1"
	d="M690.60 303.00v-24.00"/>
<path class="stroke" stroke-width="1"
	d="M706.60 303.00v-24.00"/>
<path class="stroke" stroke-width="1"
	d="M722.60 303.00v-24.00"/>
<path class="stroke" stroke-width="1"
	d="M846.40 361.00v-24.00"/>
<path class="stroke" stroke-width="1"
	d="M846.40 419.00v-58.00"/>
<path class="stroke" stroke-width="1"
	d="M964.50 361.00v-24.00"/>
<path class="stroke" stroke-width="1"
	d="M964.50 419.00v-58.00"/>
<path class="stroke" stroke-width="1"
	d="M1081.50 361.00v-24.00"/>
<path class="stroke" stroke-width="1"
	d="M1081.50 419.00v-58.00"/>
<path class="stroke" stroke-width="1"
	d="M1198.60 303.00v-24.00"/>
<path class="stroke" stroke-width="1"
	d="M1198.60 361.00v-58.00"/>
<path class="stroke" stroke-width="1"
	d="M1198.60 419.00v-58.00"/>
<defs>
<g id="rdots" class="fill">
	<circle cx="0" cy="-9" r="1.2"/>
	<circle cx="0" cy="-15" r="1.2"/>
</g>
</defs>
<use x="1194.60" y="419.00" xlink:href="#rdots"/>
<path class="stroke" stroke-width="1"
	d="M1190.60 419.00v-58.00"/>
<path d="m10.00 303.00
	h1188.60
	M10.00 297.00
	h1188.60
	M10.00 291.00
	h1188.60
	M10.00 285.00
	h1188.60
	M10.00 279.00
	h1188.60
	" class="stroke"/>
<path d="m10.00 361.00
	h1188.60
	M10.00 355.00
	h1188.60
	M10.00 349.00
	h1188.60
	M10.00 343.00
	h1188.60
	M10.00 337.00
	h1188.60
	" class="stroke"/>
<path d="m10.00 419.00
	h1188.60
	M10.00 413.00
	h1188.60
	M10.00 407.00
	h1188.60
	M10.00 401.00
	h1188.60
	M10.00 395.00
	h1188.60
	" class="stroke"/>
<use x="22.00" y="285.00" xlink:href="#bclef"/>
<use x="37.00" y="285.00" xlink:href="#sh0"/>
<use x="42.50" y="294.00" xlink:href="#sh0"/>
<defs>
<path id="hl1" class="stroke" d="m-7 0h14"/>
</defs>
<use x="229.00" y="273.00" xlink:href="#hl1"/>
<use x="229.00" y="273.00" xlink:href="#HDD"/>
<use x="748.90" y="279.00" xlink:href="#HDD"/>
<use x="733.10" y="279.00" xlink:href="#sh0"/>
<use x="22.00" y="355.00" xlink:href="#tclef"/>
<use x="37.00" y="337.00" xlink:href="#sh0"/>
<use x="42.50" y="346.00" xlink:href="#sh0"/>
<use x="67.50" y="367.00" xlink:href="#hl"/>
<use x="67.50" y="367.00" xlink:href="#Hd"/>
<use x="57.50" y="367.00" xlink:href="#sh0"/>
<path d="M71.00 367.00v-21.00" class="stroke"/>
<use x="228.00" y="364.00" xlink:href="#Hd"/>
<use x="218.00" y="364.00" xlink:href="#sh0"/>
<path d="M231.50 364.00v-21.00" class="stroke"/>
<use x="346.10" y="364.00" xlink:href="#Hd"/>
<use x="336.10" y="364.00" xlink:href="#sh0"/>
<path d="M349.60 364.00v-21.00" class="stroke"/>
<use x="459.10" y="352.00" xlink:href="#Hd"/>
<path d="M462.60 352.00v-21.00" class="stroke"/>
<use x="576.10" y="355.00" xlink:href="#Hd"/>
<path d="M579.60 355.00v-21.00" class="stroke"/>
<use x="747.90" y="367.00" xlink:href="#hl"/>
<use x="747.90" y="367.00" xlink:href="#Hd"/>
<use x="737.90" y="367.00" xlink:href="#sh0"/>
<path d="M751.40 367.00v-21.00" class="stroke"/>
<use x="866.00" y="367.00" xlink:href="#hl"/>
<use x="866.00" y="367.00" xlink:href="#Hd"/>
<use x="856.00" y="367.00" xlink:href="#sh0"/>
<path d="M869.50 367.00v-21.00" class="stroke"/>
<use x="983.10" y="355.00" xlink:href="#Hd"/>
<path d="M986.60 355.00v-21.00" class="stroke"/>
<use x="1100.10" y="358.00" xlink:href="#Hd"/>
<path d="M1103.60 358.00v-21.00" class="stroke"/>
<use x="22.00" y="413.00" xlink:href="#tclef"/>
<use x="37.00" y="395.00" xlink:href="#sh0"/>
<use x="42.50" y="404.00" xlink:href="#sh0"/>
<path class="fill"
	d="M70.70 393.70l78.90 -4.40v3.20l-78.90 4.40"/>
<use x="67.50" y="419.00" xlink:href="#hd"/>
<path d="M71.00 419.00v-24.30" class="stroke"/>
<use x="93.60" y="419.00" xlink:href="#hd"/>
<path d="M97.10 419.00v-25.80" class="stroke"/>
<use x="119.60" y="410.00" xlink:href="#hd"/>
<use x="110.60" y="410.00" xlink:href="#sh0"/>
<path d="M123.10 410.00v-18.20" class="stroke"/>
<use x="145.70" y="413.00" xlink:href="#hd"/>
<use x="136.70" y="413.00" xlink:href="#sh0"/>
<path d="M149.20 413.00v-22.60" class="stroke"/>
<path class="fill"
	d="M231.20 388.00l78.90 -4.80v3.20l-78.90 4.80"/>
<use x="228.00" y="416.00" xlink:href="#hd"/>
<use x="219.00" y="416.00" xlink:href="#sh0"/>
<path d="M231.50 416.00v-27.00" class="stroke"/>
<use x="254.10" y="416.00" xlink:href="#hd"/>
<use x="245.10" y="416.00" xlink:href="#sh0"/>
<path d="M257.60 416.00v-28.60" class="stroke"/>
<use x="280.20" y="404.00" xlink:href="#hd"/>
<path d="M283.70 404.00v-18.20" class="stroke"/>
<use x="306.20" y="410.00" xlink:href="#hd"/>
<use x="297.20" y="410.00" xlink:href="#sh0"/>
<path d="M309.70 410.00v-25.80" class="stroke"/>
<path class="fill"
	d="M349.20 388.00l78.90 -4.80v3.20l-78.90 4.80"/>
<use x="346.10" y="416.00" xlink:href="#hd"/>
<use x="337.10" y="416.00" xlink:href="#sh0"/>
<path d="M349.60 416.00v-27.00" class="stroke"/>
<use x="372.20" y="416.00" xlink:href="#hd"/>
<use x="363.20" y="416.00" xlink:href="#sh0"/>
<path d="M375.70 416.00v-28.60" class="stroke"/>
<use x="398.20" y="404.00" xlink:href="#hd"/>
<path d="M401.70 404.00v-18.20" class="stroke"/>
<use x="424.30" y="410.00" xlink:href="#hd"/>
<use x="415.30" y="410.00" xlink:href="#sh0"/>
<path d="M427.80 410.00v-25.80" class="stroke"/>
<path class="fill"
	d="M455.20 424.70l78.90 -4.40v-3.20l-78.90 4.40"/>
<use x="459.10" y="404.00" xlink:href="#hd"/>
<path d="M455.60 404.00v19.60" class="stroke"/>
<use x="485.10" y="404.00" xlink:href="#hd"/>
<path d="M481.60 404.00v18.20" class="stroke"/>
<use x="511.20" y="395.00" xlink:href="#hd"/>
<use x="502.20" y="395.00" xlink:href="#sh0"/>
<path d="M507.70 395.00v25.80" class="stroke"/>
<use x="537.30" y="398.00" xlink:href="#hd"/>
<path d="M533.80 398.00v21.30" class="stroke"/>
<path class="fill"
	d="M572.30 431.20l78.90 -6.00v-3.20l-78.90 6.00"/>
<use x="576.10" y="410.00" xlink:href="#hd"/>
<use x="567.10" y="410.00" xlink:href="#sh0"/>
<path d="M572.60 410.00v20.20" class="stroke"/>
<use x="602.20" y="410.00" xlink:href="#hd"/>
<use x="593.20" y="410.00" xlink:href="#sh0"/>
<path d="M598.70 410.00v18.20" class="stroke"/>
<use x="628.20" y="398.00" xlink:href="#hd"/>
<path d="M624.70 398.00v28.20" class="stroke"/>
<use x="654.30" y="401.00" xlink:href="#hd"/>
<path d="M650.80 401.00v23.20" class="stroke"/>
<path class="fill"
	d="M751.10 393.70l78.90 -4.40v3.20l-78.90 4.40"/>
<use x="747.90" y="419.00" xlink:href="#hd"/>
<path d="M751.40 419.00v-24.30" class="stroke"/>
<use x="774.00" y="419.00" xlink:href="#hd"/>
<path d="M777.50 419.00v-25.80" class="stroke"/>
<use x="800.10" y="410.00" xlink:href="#hd"/>
<use x="791.10" y="410.00" xlink:href="#sh0"/>
<path d="M803.60 410.00v-18.20" class="stroke"/>
<use x="826.10" y="413.00" xlink:href="#hd"/>
<use x="817.10" y="413.00" xlink:href="#sh0"/>
<path d="M829.60 413.00v-22.60" class="stroke"/>
<path class="fill"
	d="M869.20 393.70l78.90 -4.40v3.20l-78.90 4.40"/>
<use x="866.00" y="419.00" xlink:href="#hd"/>
<path d="M869.50 419.00v-24.30" class="stroke"/>
<use x="892.10" y="419.00" xlink:href="#hd"/>
<path d="M895.60 419.00v-25.80" class="stroke"/>
<use x="918.10" y="410.00" xlink:href="#hd"/>
<use x="909.10" y="410.00" xlink:href="#sh0"/>
<path d="M921.60 410.00v-18.20" class="stroke"/>
<use x="944.20" y="413.00" xlink:href="#hd"/>
<use x="935.20" y="413.00" xlink:href="#sh0"/>
<path d="M947.70 413.00v-22.60" class="stroke"/>
<path class="fill"
	d="M979.20 431.20l78.90 -6.00v-3.20l-78.90 6.00"/>
<use x="983.10" y="410.00" xlink:href="#hd"/>
<use x="974.10" y="410.00" xlink:href="#sh0"/>
<path d="M979.60 410.00v20.20" class="stroke"/>
<use x="1009.10" y="410.00" xlink:href="#hd"/>
<use x="1000.10" y="410.00" xlink:href="#sh0"/>
<path d="M1005.60 410.00v18.20" class="stroke"/>
<use x="1035.20" y="398.00" xlink:href="#hd"/>
<path d="M1031.70 398.00v28.20" class="stroke"/>
<use x="1061.30" y="401.00" xlink:href="#hd"/>
<path d="M1057.80 401.00v23.20" class="stroke"/>
<path class="fill"
	d="M1096.30 434.20l78.90 -6.00v-3.20l-78.90 6.00"/>
<use x="1100.10" y="413.00" xlink:href="#hd"/>
<use x="1091.10" y="413.00" xlink:href="#sh0"/>
<path d="M1096.60 413.00v20.20" class="stroke"/>
<use x="1126.20" y="413.00" xlink:href="#hd"/>
<use x="1117.20" y="413.00" xlink:href="#sh0"/>
<path d="M1122.70 413.00v18.20" class="stroke"/>
<use x="1152.30" y="401.00" xlink:href="#hd"/>
<path d="M1148.80 401.00v28.20" class="stroke"/>
<use x="1178.30" y="404.00" xlink:href="#hd"/>
<path d="M1174.80 404.00v23.20" class="stroke"/>
</g>
</svg>
