<?xml version="1.0" standalone="no"?>
<!DOCTYPE svg PUBLIC "-//W3C//DTD SVG 1.1//EN"
	"http://www.w3.org/Graphics/SVG/1.1/DTD/svg11.dtd">
<svg xmlns="http://www.w3.org/2000/svg" version="1.1"
	xmlns:xlink="http://www.w3.org/1999/xlink"
	color="black"
	width="1208.60px" height="442.00px">
<style type="text/css">
.fill {fill: currentColor}
.stroke {stroke: currentColor; fill: none}
text{white-space: pre}
</style>
<title>../src/torus/title_no_5_page_1.abc (2) tune 1</title>
<!-- Creator: abcm2ps-8.14.6 -->
<!-- CreationDate: Jan 11, 2023 20:08 -->
<!-- CommandLine: -g ../src/torus/title_no_5_page_1.abc -O ../src/torus/title_no_5_page_1.svg -->
<g stroke-width="0.70" style="font:italic 14.00px Times">
<text x="10.00" y="28.00">Procedurally Generated</text>
<!-- title: Torus:Taurus Tune -->
</g>
<g stroke-width="0.70" style="font:20.00px Times">
<text x="604.30" y="28.00" text-anchor="middle">Torus:Taurus Tune</text>
</g>
<g stroke-width="0.70" style="font:italic 14.00px Times">
<text x="1198.60" y="28.00" text-anchor="end">(Sid.)</text>
<text x="1198.60" y="43.40" text-anchor="end">Jeff Minter</text>
<!-- subtitle: 5 of 100,000,000,000,000 -->
</g>
<g stroke-width="0.70" style="font:16.00px Times">
<text x="604.30" y="64.00" text-anchor="middle">5 of 100,000,000,000,000</text>
</g>
<g stroke-width="0.70" style="font:bold 13.00px Times">
<text x="38.28" y="224.90" text-anchor="middle">Voice 3</text>
<text x="38.28" y="166.90" text-anchor="middle">Voice 2</text>
<text x="38.28" y="108.90" text-anchor="middle">Voice 1</text>
<path class="stroke" stroke-width="1"
	d="M66.48 233.00v-140.00"/>
<path class="stroke" stroke-width="1"
	d="M249.78 175.00v-24.00"/>
<path class="stroke" stroke-width="1"
	d="M249.78 233.00v-58.00"/>
<path class="stroke" stroke-width="1"
	d="M400.38 175.00v-24.00"/>
<path class="stroke" stroke-width="1"
	d="M400.38 233.00v-58.00"/>
<path class="stroke" stroke-width="1"
	d="M550.98 175.00v-24.00"/>
<path class="stroke" stroke-width="1"
	d="M550.98 233.00v-58.00"/>
<path class="stroke" stroke-width="1"
	d="M702.58 117.00v-24.00"/>
<path class="stroke" stroke-width="1"
	d="M702.58 175.00v-58.00"/>
<path class="stroke" stroke-width="1"
	d="M702.58 233.00v-58.00"/>
<path class="stroke" stroke-width="1"
	d="M718.58 117.00v-24.00"/>
<path class="stroke" stroke-width="1"
	d="M734.58 117.00v-24.00"/>
<path class="stroke" stroke-width="1"
	d="M750.58 117.00v-24.00"/>
<path class="stroke" stroke-width="1"
	d="M896.38 175.00v-24.00"/>
<path class="stroke" stroke-width="1"
	d="M896.38 233.00v-58.00"/>
<path class="stroke" stroke-width="1"
	d="M1047.98 175.00v-24.00"/>
<path class="stroke" stroke-width="1"
	d="M1047.98 233.00v-58.00"/>
<path class="stroke" stroke-width="1"
	d="M1198.58 175.00v-24.00"/>
<path class="stroke" stroke-width="1"
	d="M1198.58 233.00v-58.00"/>
<path d="m66.48 117.00
	h1132.10
	M66.48 111.00
	h1132.10
	M66.48 105.00
	h1132.10
	M66.48 99.00
	h1132.10
	M66.48 93.00
	h1132.10
	" class="stroke"/>
<path d="m66.48 175.00
	h1132.10
	M66.48 169.00
	h1132.10
	M66.48 163.00
	h1132.10
	M66.48 157.00
	h1132.10
	M66.48 151.00
	h1132.10
	" class="stroke"/>
<path d="m66.48 233.00
	h1132.10
	M66.48 227.00
	h1132.10
	M66.48 221.00
	h1132.10
	M66.48 215.00
	h1132.10
	M66.48 209.00
	h1132.10
	" class="stroke"/>
<defs>
<path id="ubclef" class="fill" d="m-200 -87
	c124 -35 222 -78 254 -236
	43 -228 -167 -246 -192 -103
	59 -80 157 22 92 78
	-62 47 -115 -22 -106 -88
	21 -141 270 -136 274 52
	-1 175 -106 264 -322 297
	m357 -250
	c0 -36 51 -34 51 0
	0 37 -51 36 -51 0
	m-2 -129
	c0 -36 51 -34 51 0
	0 38 -51 37 -51 0"/>
<use id="bclef" transform="translate(0,18) scale(0.045)"
	xlink:href="#ubclef"/>
</defs>
<use x="78.48" y="99.00" xlink:href="#bclef"/>
<defs>
<path id="usharp" class="fill" d="
	m136 -702
	v890
	h32
	v-890
	m128 840
	h32
	v-888
	h-32
	m-232 286
	v116
	l338 -96
	v-116
	m-338 442
	v116
	l338 -98
	v-114"/>
<use id="sh0" transform="translate(-4,5) scale(0.018)"
	xlink:href="#usharp"/>
</defs>
<use x="93.48" y="99.00" xlink:href="#sh0"/>
<use x="98.98" y="108.00" xlink:href="#sh0"/>
<defs>
<path id="HD" class="fill" d="m-2.7 -1.4
	c1.5 -2.8 6.9 0 5.3 2.7
	-1.5 2.8 -6.9 0 -5.3 -2.7
	m8.3 1.4
	c0 -1.5 -2.2 -3 -5.6 -3
	-3.4 0 -5.6 1.5 -5.6 3
	0 1.5 2.2 3 5.6 3
	3.4 0 5.6 -1.5 5.6 -3"/>
<g id="HDD">
	<use xlink:href="#HD"/>
	<path d="m-6 -4v8m12 0v-8" class="stroke"/>
</g>
</defs>
<use x="119.48" y="108.00" xlink:href="#HDD"/>
<use x="766.08" y="99.00" xlink:href="#HDD"/>
<use x="78.48" y="157.00" xlink:href="#bclef"/>
<use x="93.48" y="157.00" xlink:href="#sh0"/>
<use x="98.98" y="166.00" xlink:href="#sh0"/>
<defs>
<path id="Hd" class="fill" d="m3 -1.6
	c-1 -1.8 -7 1.4 -6 3.2
	1 1.8 7 -1.4 6 -3.2
	m0.5 -0.3
	c2 3.8 -5 7.6 -7 3.8
	-2 -3.8 5 -7.6 7 -3.8"/>
</defs>
<use x="118.48" y="166.00" xlink:href="#Hd"/>
<path d="M121.98 166.00v-21.00" class="stroke"/>
<use x="269.08" y="157.00" xlink:href="#Hd"/>
<path d="M265.58 157.00v21.00" class="stroke"/>
<use x="419.68" y="166.00" xlink:href="#Hd"/>
<path d="M423.18 166.00v-21.00" class="stroke"/>
<use x="571.38" y="163.00" xlink:href="#Hd"/>
<use x="561.38" y="163.00" xlink:href="#sh0"/>
<path d="M574.88 163.00v-21.00" class="stroke"/>
<use x="765.08" y="157.00" xlink:href="#Hd"/>
<path d="M761.58 157.00v21.00" class="stroke"/>
<use x="916.68" y="151.00" xlink:href="#Hd"/>
<use x="906.68" y="151.00" xlink:href="#sh0"/>
<path d="M913.18 151.00v21.00" class="stroke"/>
<use x="1067.28" y="157.00" xlink:href="#Hd"/>
<path d="M1063.78 157.00v21.00" class="stroke"/>
<use x="78.48" y="215.00" xlink:href="#bclef"/>
<use x="93.48" y="215.00" xlink:href="#sh0"/>
<use x="98.98" y="224.00" xlink:href="#sh0"/>
<path class="fill"
	d="M114.68 243.20l104.90 0.00v-3.20l-104.90 -0.00"/>
<defs>
<ellipse id="hd" rx="4.1" ry="2.9"
	transform="rotate(-20)" class="fill"/>
</defs>
<use x="118.48" y="224.00" xlink:href="#hd"/>
<path d="M114.98 224.00v18.20" class="stroke"/>
<use x="153.28" y="215.00" xlink:href="#hd"/>
<path d="M149.78 215.00v27.20" class="stroke"/>
<use x="187.98" y="224.00" xlink:href="#hd"/>
<path d="M184.48 224.00v18.20" class="stroke"/>
<use x="222.78" y="221.00" xlink:href="#hd"/>
<use x="213.78" y="221.00" xlink:href="#sh0"/>
<path d="M219.28 221.00v21.20" class="stroke"/>
<path class="fill"
	d="M265.28 233.20l104.90 0.00v-3.20l-104.90 -0.00"/>
<use x="269.08" y="215.00" xlink:href="#hd"/>
<path d="M265.58 215.00v17.20" class="stroke"/>
<use x="303.78" y="209.00" xlink:href="#hd"/>
<use x="294.78" y="209.00" xlink:href="#sh0"/>
<path d="M300.28 209.00v23.20" class="stroke"/>
<use x="338.58" y="215.00" xlink:href="#hd"/>
<path d="M335.08 215.00v17.20" class="stroke"/>
<use x="373.38" y="212.00" xlink:href="#hd"/>
<use x="364.38" y="212.00" xlink:href="#sh0"/>
<path d="M369.88 212.00v20.20" class="stroke"/>
<path class="fill"
	d="M415.88 243.20l104.90 0.00v-3.20l-104.90 -0.00"/>
<use x="419.68" y="224.00" xlink:href="#hd"/>
<path d="M416.18 224.00v18.20" class="stroke"/>
<use x="454.38" y="215.00" xlink:href="#hd"/>
<path d="M450.88 215.00v27.20" class="stroke"/>
<use x="489.18" y="224.00" xlink:href="#hd"/>
<path d="M485.68 224.00v18.20" class="stroke"/>
<use x="523.88" y="221.00" xlink:href="#hd"/>
<use x="514.88" y="221.00" xlink:href="#sh0"/>
<path d="M520.38 221.00v21.20" class="stroke"/>
<path class="fill"
	d="M567.48 240.20l104.90 0.00v-3.20l-104.90 -0.00"/>
<use x="571.38" y="221.00" xlink:href="#hd"/>
<use x="562.38" y="221.00" xlink:href="#sh0"/>
<path d="M567.88 221.00v18.20" class="stroke"/>
<use x="606.08" y="212.00" xlink:href="#hd"/>
<use x="597.08" y="212.00" xlink:href="#sh0"/>
<path d="M602.58 212.00v27.20" class="stroke"/>
<use x="640.88" y="221.00" xlink:href="#hd"/>
<use x="631.88" y="221.00" xlink:href="#sh0"/>
<path d="M637.38 221.00v18.20" class="stroke"/>
<use x="675.58" y="215.00" xlink:href="#hd"/>
<use x="666.58" y="215.00" xlink:href="#sh0"/>
<path d="M672.08 215.00v24.20" class="stroke"/>
<path class="fill"
	d="M761.18 233.20l104.90 0.00v-3.20l-104.90 -0.00"/>
<use x="765.08" y="215.00" xlink:href="#hd"/>
<path d="M761.58 215.00v17.20" class="stroke"/>
<use x="799.78" y="209.00" xlink:href="#hd"/>
<use x="790.78" y="209.00" xlink:href="#sh0"/>
<path d="M796.28 209.00v23.20" class="stroke"/>
<use x="834.58" y="215.00" xlink:href="#hd"/>
<path d="M831.08 215.00v17.20" class="stroke"/>
<use x="869.28" y="212.00" xlink:href="#hd"/>
<use x="860.28" y="212.00" xlink:href="#sh0"/>
<path d="M865.78 212.00v20.20" class="stroke"/>
<path class="fill"
	d="M912.88 227.20l104.90 0.00v-3.20l-104.90 -0.00"/>
<use x="916.68" y="209.00" xlink:href="#hd"/>
<use x="907.68" y="209.00" xlink:href="#sh0"/>
<path d="M913.18 209.00v17.20" class="stroke"/>
<defs>
<path id="hl" class="stroke" d="m-6 0h12"/>
</defs>
<use x="951.48" y="203.00" xlink:href="#hl"/>
<use x="951.48" y="200.00" xlink:href="#hd"/>
<use x="942.48" y="200.00" xlink:href="#sh0"/>
<path d="M947.98 200.00v26.20" class="stroke"/>
<use x="986.18" y="209.00" xlink:href="#hd"/>
<use x="977.18" y="209.00" xlink:href="#sh0"/>
<path d="M982.68 209.00v17.20" class="stroke"/>
<use x="1020.98" y="203.00" xlink:href="#hl"/>
<use x="1020.98" y="203.00" xlink:href="#hd"/>
<use x="1011.98" y="203.00" xlink:href="#sh0"/>
<path d="M1017.48 203.00v23.20" class="stroke"/>
<path class="fill"
	d="M1063.48 233.20l104.90 0.00v-3.20l-104.90 -0.00"/>
<use x="1067.28" y="215.00" xlink:href="#hd"/>
<path d="M1063.78 215.00v17.20" class="stroke"/>
<use x="1102.08" y="209.00" xlink:href="#hd"/>
<use x="1093.08" y="209.00" xlink:href="#sh0"/>
<path d="M1098.58 209.00v23.20" class="stroke"/>
<use x="1136.78" y="215.00" xlink:href="#hd"/>
<path d="M1133.28 215.00v17.20" class="stroke"/>
<use x="1171.58" y="212.00" xlink:href="#hd"/>
<use x="1162.58" y="212.00" xlink:href="#sh0"/>
<path d="M1168.08 212.00v20.20" class="stroke"/>
</g>
<g stroke-width="0.70" style="font:bold 13.00px Times">
<path class="stroke" stroke-width="1"
	d="M10.00 419.00v-140.00"/>
<path class="stroke" stroke-width="1"
	d="M166.20 303.00v-24.00"/>
<path class="stroke" stroke-width="1"
	d="M166.20 361.00v-58.00"/>
<path class="stroke" stroke-width="1"
	d="M166.20 419.00v-58.00"/>
<path class="stroke" stroke-width="1"
	d="M182.20 303.00v-24.00"/>
<path class="stroke" stroke-width="1"
	d="M198.20 303.00v-24.00"/>
<path class="stroke" stroke-width="1"
	d="M214.20 303.00v-24.00"/>
<path class="stroke" stroke-width="1"
	d="M327.00 361.00v-24.00"/>
<path class="stroke" stroke-width="1"
	d="M327.00 419.00v-58.00"/>
<path class="stroke" stroke-width="1"
	d="M440.20 361.00v-24.00"/>
<path class="stroke" stroke-width="1"
	d="M440.20 419.00v-58.00"/>
<path class="stroke" stroke-width="1"
	d="M553.40 361.00v-24.00"/>
<path class="stroke" stroke-width="1"
	d="M553.40 419.00v-58.00"/>
<path class="stroke" stroke-width="1"
	d="M671.70 303.00v-24.00"/>
<path class="stroke" stroke-width="1"
	d="M671.70 361.00v-58.00"/>
<path class="stroke" stroke-width="1"
	d="M671.70 419.00v-58.00"/>
<path class="stroke" stroke-width="1"
	d="M687.70 303.00v-24.00"/>
<path class="stroke" stroke-width="1"
	d="M703.70 303.00v-24.00"/>
<path class="stroke" stroke-width="1"
	d="M719.70 303.00v-24.00"/>
<path class="stroke" stroke-width="1"
	d="M843.70 361.00v-24.00"/>
<path class="stroke" stroke-width="1"
	d="M843.70 419.00v-58.00"/>
<path class="stroke" stroke-width="1"
	d="M962.00 361.00v-24.00"/>
<path class="stroke" stroke-width="1"
	d="M962.00 419.00v-58.00"/>
<path class="stroke" stroke-width="1"
	d="M1080.30 361.00v-24.00"/>
<path class="stroke" stroke-width="1"
	d="M1080.30 419.00v-58.00"/>
<path class="stroke" stroke-width="1"
	d="M1198.60 303.00v-24.00"/>
<path class="stroke" stroke-width="1"
	d="M1198.60 361.00v-58.00"/>
<path class="stroke" stroke-width="1"
	d="M1198.60 419.00v-58.00"/>
<defs>
<g id="rdots" class="fill">
	<circle cx="0" cy="-9" r="1.2"/>
	<circle cx="0" cy="-15" r="1.2"/>
</g>
</defs>
<use x="1194.60" y="419.00" xlink:href="#rdots"/>
<path class="stroke" stroke-width="1"
	d="M1190.60 419.00v-58.00"/>
<path d="m10.00 303.00
	h1188.60
	M10.00 297.00
	h1188.60
	M10.00 291.00
	h1188.60
	M10.00 285.00
	h1188.60
	M10.00 279.00
	h1188.60
	" class="stroke"/>
<path d="m10.00 361.00
	h1188.60
	M10.00 355.00
	h1188.60
	M10.00 349.00
	h1188.60
	M10.00 343.00
	h1188.60
	M10.00 337.00
	h1188.60
	" class="stroke"/>
<path d="m10.00 419.00
	h1188.60
	M10.00 413.00
	h1188.60
	M10.00 407.00
	h1188.60
	M10.00 401.00
	h1188.60
	M10.00 395.00
	h1188.60
	" class="stroke"/>
<use x="22.00" y="285.00" xlink:href="#bclef"/>
<use x="37.00" y="285.00" xlink:href="#sh0"/>
<use x="42.50" y="294.00" xlink:href="#sh0"/>
<use x="229.20" y="294.00" xlink:href="#HDD"/>
<use x="746.00" y="291.00" xlink:href="#HDD"/>
<use x="730.20" y="291.00" xlink:href="#sh0"/>
<use x="22.00" y="343.00" xlink:href="#bclef"/>
<use x="37.00" y="343.00" xlink:href="#sh0"/>
<use x="42.50" y="352.00" xlink:href="#sh0"/>
<use x="67.50" y="340.00" xlink:href="#Hd"/>
<use x="57.50" y="340.00" xlink:href="#sh0"/>
<path d="M64.00 340.00v21.00" class="stroke"/>
<use x="228.20" y="352.00" xlink:href="#Hd"/>
<path d="M231.70 352.00v-21.00" class="stroke"/>
<use x="341.50" y="343.00" xlink:href="#Hd"/>
<path d="M338.00 343.00v21.00" class="stroke"/>
<use x="454.70" y="352.00" xlink:href="#Hd"/>
<path d="M458.20 352.00v-21.00" class="stroke"/>
<use x="573.00" y="349.00" xlink:href="#Hd"/>
<use x="563.00" y="349.00" xlink:href="#sh0"/>
<path d="M576.50 349.00v-21.00" class="stroke"/>
<use x="745.00" y="349.00" xlink:href="#Hd"/>
<use x="735.00" y="349.00" xlink:href="#sh0"/>
<path d="M748.50 349.00v-21.00" class="stroke"/>
<use x="863.30" y="340.00" xlink:href="#Hd"/>
<use x="853.30" y="340.00" xlink:href="#sh0"/>
<path d="M859.80 340.00v21.00" class="stroke"/>
<use x="981.60" y="349.00" xlink:href="#Hd"/>
<use x="971.60" y="349.00" xlink:href="#sh0"/>
<path d="M978.10 349.00v21.00" class="stroke"/>
<use x="1099.90" y="343.00" xlink:href="#Hd"/>
<use x="1089.90" y="343.00" xlink:href="#sh0"/>
<path d="M1096.40 343.00v21.00" class="stroke"/>
<use x="22.00" y="401.00" xlink:href="#bclef"/>
<use x="37.00" y="401.00" xlink:href="#sh0"/>
<use x="42.50" y="410.00" xlink:href="#sh0"/>
<path class="fill"
	d="M63.70 415.90l79.10 0.00v-3.20l-79.10 -0.00"/>
<use x="67.50" y="398.00" xlink:href="#hd"/>
<use x="58.50" y="398.00" xlink:href="#sh0"/>
<path d="M64.00 398.00v17.00" class="stroke"/>
<use x="93.60" y="389.00" xlink:href="#hl"/>
<use x="93.60" y="389.00" xlink:href="#hd"/>
<use x="84.60" y="389.00" xlink:href="#sh0"/>
<path d="M90.10 389.00v26.00" class="stroke"/>
<use x="119.80" y="398.00" xlink:href="#hd"/>
<use x="110.80" y="398.00" xlink:href="#sh0"/>
<path d="M116.30 398.00v17.00" class="stroke"/>
<use x="145.90" y="392.00" xlink:href="#hd"/>
<path d="M142.40 392.00v23.00" class="stroke"/>
<path class="fill"
	d="M224.40 429.20l79.10 0.00v-3.20l-79.10 -0.00"/>
<use x="228.20" y="410.00" xlink:href="#hd"/>
<path d="M224.70 410.00v18.20" class="stroke"/>
<use x="254.40" y="401.00" xlink:href="#hd"/>
<path d="M250.90 401.00v27.20" class="stroke"/>
<use x="280.50" y="410.00" xlink:href="#hd"/>
<path d="M277.00 410.00v18.20" class="stroke"/>
<use x="306.60" y="407.00" xlink:href="#hd"/>
<use x="297.60" y="407.00" xlink:href="#sh0"/>
<path d="M303.10 407.00v21.20" class="stroke"/>
<path class="fill"
	d="M337.60 419.20l79.10 0.00v-3.20l-79.10 -0.00"/>
<use x="341.50" y="401.00" xlink:href="#hd"/>
<path d="M338.00 401.00v17.20" class="stroke"/>
<use x="367.60" y="395.00" xlink:href="#hd"/>
<use x="358.60" y="395.00" xlink:href="#sh0"/>
<path d="M364.10 395.00v23.20" class="stroke"/>
<use x="393.70" y="401.00" xlink:href="#hd"/>
<path d="M390.20 401.00v17.20" class="stroke"/>
<use x="419.90" y="398.00" xlink:href="#hd"/>
<use x="410.90" y="398.00" xlink:href="#sh0"/>
<path d="M416.40 398.00v20.20" class="stroke"/>
<path class="fill"
	d="M450.90 429.20l79.10 0.00v-3.20l-79.10 -0.00"/>
<use x="454.70" y="410.00" xlink:href="#hd"/>
<path d="M451.20 410.00v18.20" class="stroke"/>
<use x="480.80" y="401.00" xlink:href="#hd"/>
<path d="M477.30 401.00v27.20" class="stroke"/>
<use x="507.00" y="410.00" xlink:href="#hd"/>
<path d="M503.50 410.00v18.20" class="stroke"/>
<use x="533.10" y="407.00" xlink:href="#hd"/>
<use x="524.10" y="407.00" xlink:href="#sh0"/>
<path d="M529.60 407.00v21.20" class="stroke"/>
<path class="fill"
	d="M569.10 426.20l79.10 0.00v-3.20l-79.10 -0.00"/>
<use x="573.00" y="407.00" xlink:href="#hd"/>
<use x="564.00" y="407.00" xlink:href="#sh0"/>
<path d="M569.50 407.00v18.20" class="stroke"/>
<use x="599.10" y="398.00" xlink:href="#hd"/>
<use x="590.10" y="398.00" xlink:href="#sh0"/>
<path d="M595.60 398.00v27.20" class="stroke"/>
<use x="625.20" y="407.00" xlink:href="#hd"/>
<use x="616.20" y="407.00" xlink:href="#sh0"/>
<path d="M621.70 407.00v18.20" class="stroke"/>
<use x="651.40" y="401.00" xlink:href="#hd"/>
<use x="642.40" y="401.00" xlink:href="#sh0"/>
<path d="M647.90 401.00v24.20" class="stroke"/>
<path class="fill"
	d="M741.20 426.20l79.10 0.00v-3.20l-79.10 -0.00"/>
<use x="745.00" y="407.00" xlink:href="#hd"/>
<use x="736.00" y="407.00" xlink:href="#sh0"/>
<path d="M741.50 407.00v18.20" class="stroke"/>
<use x="771.20" y="398.00" xlink:href="#hd"/>
<use x="762.20" y="398.00" xlink:href="#sh0"/>
<path d="M767.70 398.00v27.20" class="stroke"/>
<use x="797.30" y="407.00" xlink:href="#hd"/>
<use x="788.30" y="407.00" xlink:href="#sh0"/>
<path d="M793.80 407.00v18.20" class="stroke"/>
<use x="823.40" y="401.00" xlink:href="#hd"/>
<use x="814.40" y="401.00" xlink:href="#sh0"/>
<path d="M819.90 401.00v24.20" class="stroke"/>
<path class="fill"
	d="M859.50 415.90l79.10 0.00v-3.20l-79.10 -0.00"/>
<use x="863.30" y="398.00" xlink:href="#hd"/>
<use x="854.30" y="398.00" xlink:href="#sh0"/>
<path d="M859.80 398.00v17.00" class="stroke"/>
<use x="889.40" y="389.00" xlink:href="#hl"/>
<use x="889.40" y="389.00" xlink:href="#hd"/>
<use x="880.40" y="389.00" xlink:href="#sh0"/>
<path d="M885.90 389.00v26.00" class="stroke"/>
<use x="915.60" y="398.00" xlink:href="#hd"/>
<use x="906.60" y="398.00" xlink:href="#sh0"/>
<path d="M912.10 398.00v17.00" class="stroke"/>
<use x="941.70" y="392.00" xlink:href="#hd"/>
<path d="M938.20 392.00v23.00" class="stroke"/>
<path class="fill"
	d="M977.80 426.20l79.10 0.00v-3.20l-79.10 -0.00"/>
<use x="981.60" y="407.00" xlink:href="#hd"/>
<use x="972.60" y="407.00" xlink:href="#sh0"/>
<path d="M978.10 407.00v18.20" class="stroke"/>
<use x="1007.70" y="398.00" xlink:href="#hd"/>
<use x="998.70" y="398.00" xlink:href="#sh0"/>
<path d="M1004.20 398.00v27.20" class="stroke"/>
<use x="1033.90" y="407.00" xlink:href="#hd"/>
<use x="1024.90" y="407.00" xlink:href="#sh0"/>
<path d="M1030.40 407.00v18.20" class="stroke"/>
<use x="1060.00" y="401.00" xlink:href="#hd"/>
<use x="1051.00" y="401.00" xlink:href="#sh0"/>
<path d="M1056.50 401.00v24.20" class="stroke"/>
<path class="fill"
	d="M1096.10 419.20l79.10 0.00v-3.20l-79.10 -0.00"/>
<use x="1099.90" y="401.00" xlink:href="#hd"/>
<use x="1090.90" y="401.00" xlink:href="#sh0"/>
<path d="M1096.40 401.00v17.20" class="stroke"/>
<use x="1126.00" y="392.00" xlink:href="#hd"/>
<path d="M1122.50 392.00v26.20" class="stroke"/>
<use x="1152.10" y="401.00" xlink:href="#hd"/>
<use x="1143.10" y="401.00" xlink:href="#sh0"/>
<path d="M1148.60 401.00v17.20" class="stroke"/>
<use x="1178.30" y="395.00" xlink:href="#hd"/>
<path d="M1174.80 395.00v23.20" class="stroke"/>
</g>
</svg>
