<?xml version="1.0" standalone="no"?>
<!DOCTYPE svg PUBLIC "-//W3C//DTD SVG 1.1//EN"
	"http://www.w3.org/Graphics/SVG/1.1/DTD/svg11.dtd">
<svg xmlns="http://www.w3.org/2000/svg" version="1.1"
	xmlns:xlink="http://www.w3.org/1999/xlink"
	color="black"
	width="1208.60px" height="442.00px">
<style type="text/css">
.fill {fill: currentColor}
.stroke {stroke: currentColor; fill: none}
text{white-space: pre}
</style>
<title>../src/torus/title_no_26_page_1.abc (2) tune 1</title>
<!-- Creator: abcm2ps-8.14.6 -->
<!-- CreationDate: Jan 11, 2023 20:08 -->
<!-- CommandLine: -g ../src/torus/title_no_26_page_1.abc -O ../src/torus/title_no_26_page_1.svg -->
<g stroke-width="0.70" style="font:italic 14.00px Times">
<text x="10.00" y="28.00">Procedurally Generated</text>
<!-- title: Torus:Taurus Tune -->
</g>
<g stroke-width="0.70" style="font:20.00px Times">
<text x="604.30" y="28.00" text-anchor="middle">Torus:Taurus Tune</text>
</g>
<g stroke-width="0.70" style="font:italic 14.00px Times">
<text x="1198.60" y="28.00" text-anchor="end">(Sid.)</text>
<text x="1198.60" y="43.40" text-anchor="end">Jeff Minter</text>
<!-- subtitle: 26 of 100,000,000,000,000 -->
</g>
<g stroke-width="0.70" style="font:16.00px Times">
<text x="604.30" y="64.00" text-anchor="middle">26 of 100,000,000,000,000</text>
</g>
<g stroke-width="0.70" style="font:bold 13.00px Times">
<text x="38.28" y="224.90" text-anchor="middle">Voice 3</text>
<text x="38.28" y="166.90" text-anchor="middle">Voice 2</text>
<text x="38.28" y="108.90" text-anchor="middle">Voice 1</text>
<path class="stroke" stroke-width="1"
	d="M66.48 233.00v-140.00"/>
<path class="stroke" stroke-width="1"
	d="M280.78 175.00v-24.00"/>
<path class="stroke" stroke-width="1"
	d="M280.78 233.00v-58.00"/>
<path class="stroke" stroke-width="1"
	d="M453.88 175.00v-24.00"/>
<path class="stroke" stroke-width="1"
	d="M453.88 233.00v-58.00"/>
<path class="stroke" stroke-width="1"
	d="M627.08 175.00v-24.00"/>
<path class="stroke" stroke-width="1"
	d="M627.08 233.00v-58.00"/>
<path class="stroke" stroke-width="1"
	d="M800.28 117.00v-24.00"/>
<path class="stroke" stroke-width="1"
	d="M800.28 175.00v-58.00"/>
<path class="stroke" stroke-width="1"
	d="M800.28 233.00v-58.00"/>
<path class="stroke" stroke-width="1"
	d="M816.28 117.00v-24.00"/>
<path class="stroke" stroke-width="1"
	d="M832.28 117.00v-24.00"/>
<path class="stroke" stroke-width="1"
	d="M848.28 117.00v-24.00"/>
<path class="stroke" stroke-width="1"
	d="M1025.38 175.00v-24.00"/>
<path class="stroke" stroke-width="1"
	d="M1025.38 233.00v-58.00"/>
<path class="stroke" stroke-width="1"
	d="M1198.58 175.00v-24.00"/>
<path class="stroke" stroke-width="1"
	d="M1198.58 233.00v-58.00"/>
<path d="m66.48 117.00
	h1132.10
	M66.48 111.00
	h1132.10
	M66.48 105.00
	h1132.10
	M66.48 99.00
	h1132.10
	M66.48 93.00
	h1132.10
	" class="stroke"/>
<path d="m66.48 175.00
	h1132.10
	M66.48 169.00
	h1132.10
	M66.48 163.00
	h1132.10
	M66.48 157.00
	h1132.10
	M66.48 151.00
	h1132.10
	" class="stroke"/>
<path d="m66.48 233.00
	h1132.10
	M66.48 227.00
	h1132.10
	M66.48 221.00
	h1132.10
	M66.48 215.00
	h1132.10
	M66.48 209.00
	h1132.10
	" class="stroke"/>
<defs>
<path id="utclef" class="fill" d="m-50 -90
	c-72 -41 -72 -158 52 -188
	150 -10 220 188 90 256
	-114 52 -275 0 -293 -136
	-15 -181 93 -229 220 -334
	88 -87 79 -133 62 -210
	-51 33 -94 105 -89 186
	17 267 36 374 49 574
	6 96 -19 134 -77 135
	-80 1 -126 -93 -61 -133
	85 -41 133 101 31 105
	23 17 92 37 90 -92
	-10 -223 -39 -342 -50 -617
	0 -90 0 -162 96 -232
	56 72 63 230 22 289
	-74 106 -257 168 -255 316
	9 153 148 185 252 133
	86 -65 29 -192 -80 -176
	-71 12 -105 67 -59 124"/>
<use id="tclef" transform="translate(0,6) scale(0.045)"
	xlink:href="#utclef"/>
</defs>
<use x="78.48" y="111.00" xlink:href="#tclef"/>
<defs>
<path id="usharp" class="fill" d="
	m136 -702
	v890
	h32
	v-890
	m128 840
	h32
	v-888
	h-32
	m-232 286
	v116
	l338 -96
	v-116
	m-338 442
	v116
	l338 -98
	v-114"/>
<use id="sh0" transform="translate(-4,5) scale(0.018)"
	xlink:href="#usharp"/>
</defs>
<use x="93.48" y="93.00" xlink:href="#sh0"/>
<use x="98.98" y="102.00" xlink:href="#sh0"/>
<defs>
<path id="hl1" class="stroke" d="m-7 0h14"/>
</defs>
<use x="130.78" y="123.00" xlink:href="#hl1"/>
<use x="130.78" y="129.00" xlink:href="#hl1"/>
<defs>
<path id="HD" class="fill" d="m-2.7 -1.4
	c1.5 -2.8 6.9 0 5.3 2.7
	-1.5 2.8 -6.9 0 -5.3 -2.7
	m8.3 1.4
	c0 -1.5 -2.2 -3 -5.6 -3
	-3.4 0 -5.6 1.5 -5.6 3
	0 1.5 2.2 3 5.6 3
	3.4 0 5.6 -1.5 5.6 -3"/>
<g id="HDD">
	<use xlink:href="#HD"/>
	<path d="m-6 -4v8m12 0v-8" class="stroke"/>
</g>
</defs>
<use x="130.78" y="129.00" xlink:href="#HDD"/>
<use x="114.98" y="129.00" xlink:href="#sh0"/>
<use x="875.48" y="123.00" xlink:href="#hl1"/>
<use x="875.48" y="129.00" xlink:href="#hl1"/>
<use x="875.48" y="129.00" xlink:href="#HDD"/>
<use x="859.68" y="129.00" xlink:href="#sh0"/>
<use x="78.48" y="169.00" xlink:href="#tclef"/>
<use x="93.48" y="151.00" xlink:href="#sh0"/>
<use x="98.98" y="160.00" xlink:href="#sh0"/>
<defs>
<path id="Hd" class="fill" d="m3 -1.6
	c-1 -1.8 -7 1.4 -6 3.2
	1 1.8 7 -1.4 6 -3.2
	m0.5 -0.3
	c2 3.8 -5 7.6 -7 3.8
	-2 -3.8 5 -7.6 7 -3.8"/>
</defs>
<use x="129.78" y="178.00" xlink:href="#Hd"/>
<use x="119.78" y="178.00" xlink:href="#sh0"/>
<path d="M133.28 178.00v-21.00" class="stroke"/>
<use x="302.98" y="178.00" xlink:href="#Hd"/>
<use x="292.98" y="178.00" xlink:href="#sh0"/>
<path d="M306.48 178.00v-21.00" class="stroke"/>
<defs>
<path id="hl" class="stroke" d="m-6 0h12"/>
</defs>
<use x="476.08" y="181.00" xlink:href="#hl"/>
<use x="476.08" y="181.00" xlink:href="#Hd"/>
<use x="466.08" y="181.00" xlink:href="#sh0"/>
<path d="M479.58 181.00v-21.00" class="stroke"/>
<use x="649.28" y="169.00" xlink:href="#Hd"/>
<path d="M652.78 169.00v-21.00" class="stroke"/>
<use x="874.48" y="178.00" xlink:href="#Hd"/>
<use x="864.48" y="178.00" xlink:href="#sh0"/>
<path d="M877.98 178.00v-21.00" class="stroke"/>
<use x="1047.58" y="178.00" xlink:href="#Hd"/>
<use x="1037.58" y="178.00" xlink:href="#sh0"/>
<path d="M1051.08 178.00v-21.00" class="stroke"/>
<use x="78.48" y="227.00" xlink:href="#tclef"/>
<use x="93.48" y="209.00" xlink:href="#sh0"/>
<use x="98.98" y="218.00" xlink:href="#sh0"/>
<path class="fill"
	d="M132.98 202.80l120.60 -4.10v3.20l-120.60 4.10"/>
<defs>
<ellipse id="hd" rx="4.1" ry="2.9"
	transform="rotate(-20)" class="fill"/>
</defs>
<use x="129.78" y="227.00" xlink:href="#hd"/>
<use x="120.78" y="227.00" xlink:href="#sh0"/>
<path d="M133.28 227.00v-23.20" class="stroke"/>
<use x="169.78" y="227.00" xlink:href="#hd"/>
<use x="160.78" y="227.00" xlink:href="#sh0"/>
<path d="M173.28 227.00v-24.50" class="stroke"/>
<use x="209.68" y="230.00" xlink:href="#hd"/>
<use x="200.68" y="230.00" xlink:href="#sh0"/>
<path d="M213.18 230.00v-28.90" class="stroke"/>
<use x="249.68" y="218.00" xlink:href="#hd"/>
<path d="M253.18 218.00v-18.20" class="stroke"/>
<path class="fill"
	d="M306.08 202.80l120.60 -4.10v3.20l-120.60 4.10"/>
<use x="302.98" y="227.00" xlink:href="#hd"/>
<use x="293.98" y="227.00" xlink:href="#sh0"/>
<path d="M306.48 227.00v-23.20" class="stroke"/>
<use x="342.88" y="227.00" xlink:href="#hd"/>
<use x="333.88" y="227.00" xlink:href="#sh0"/>
<path d="M346.38 227.00v-24.50" class="stroke"/>
<use x="382.88" y="230.00" xlink:href="#hd"/>
<use x="373.88" y="230.00" xlink:href="#sh0"/>
<path d="M386.38 230.00v-28.90" class="stroke"/>
<use x="422.88" y="218.00" xlink:href="#hd"/>
<path d="M426.38 218.00v-18.20" class="stroke"/>
<path class="fill"
	d="M479.28 206.10l120.60 0.00v3.20l-120.60 -0.00"/>
<use x="476.08" y="230.00" xlink:href="#hd"/>
<use x="467.08" y="230.00" xlink:href="#sh0"/>
<path d="M479.58 230.00v-23.00" class="stroke"/>
<use x="516.08" y="230.00" xlink:href="#hd"/>
<use x="507.08" y="230.00" xlink:href="#sh0"/>
<path d="M519.58 230.00v-23.00" class="stroke"/>
<use x="556.08" y="233.00" xlink:href="#hd"/>
<path d="M559.58 233.00v-26.00" class="stroke"/>
<use x="595.98" y="224.00" xlink:href="#hd"/>
<use x="586.98" y="224.00" xlink:href="#sh0"/>
<path d="M599.48 224.00v-17.00" class="stroke"/>
<path class="fill"
	d="M645.48 243.20l120.60 0.00v-3.20l-120.60 -0.00"/>
<use x="649.28" y="218.00" xlink:href="#hd"/>
<path d="M645.78 218.00v24.20" class="stroke"/>
<use x="689.28" y="218.00" xlink:href="#hd"/>
<path d="M685.78 218.00v24.20" class="stroke"/>
<use x="729.18" y="224.00" xlink:href="#hd"/>
<use x="720.18" y="224.00" xlink:href="#sh0"/>
<path d="M725.68 224.00v18.20" class="stroke"/>
<use x="769.18" y="212.00" xlink:href="#hd"/>
<path d="M765.68 212.00v30.20" class="stroke"/>
<path class="fill"
	d="M877.58 202.80l120.60 -4.10v3.20l-120.60 4.10"/>
<use x="874.48" y="227.00" xlink:href="#hd"/>
<use x="865.48" y="227.00" xlink:href="#sh0"/>
<path d="M877.98 227.00v-23.20" class="stroke"/>
<use x="914.38" y="227.00" xlink:href="#hd"/>
<use x="905.38" y="227.00" xlink:href="#sh0"/>
<path d="M917.88 227.00v-24.50" class="stroke"/>
<use x="954.38" y="230.00" xlink:href="#hd"/>
<use x="945.38" y="230.00" xlink:href="#sh0"/>
<path d="M957.88 230.00v-28.90" class="stroke"/>
<use x="994.38" y="218.00" xlink:href="#hd"/>
<path d="M997.88 218.00v-18.20" class="stroke"/>
<path class="fill"
	d="M1050.78 202.80l120.60 -4.10v3.20l-120.60 4.10"/>
<use x="1047.58" y="227.00" xlink:href="#hd"/>
<use x="1038.58" y="227.00" xlink:href="#sh0"/>
<path d="M1051.08 227.00v-23.20" class="stroke"/>
<use x="1087.58" y="227.00" xlink:href="#hd"/>
<use x="1078.58" y="227.00" xlink:href="#sh0"/>
<path d="M1091.08 227.00v-24.50" class="stroke"/>
<use x="1127.58" y="230.00" xlink:href="#hd"/>
<use x="1118.58" y="230.00" xlink:href="#sh0"/>
<path d="M1131.08 230.00v-28.90" class="stroke"/>
<use x="1167.48" y="218.00" xlink:href="#hd"/>
<path d="M1170.98 218.00v-18.20" class="stroke"/>
</g>
<g stroke-width="0.70" style="font:bold 13.00px Times">
<path class="stroke" stroke-width="1"
	d="M10.00 419.00v-140.00"/>
<path class="stroke" stroke-width="1"
	d="M156.30 361.00v-24.00"/>
<path class="stroke" stroke-width="1"
	d="M156.30 419.00v-58.00"/>
<path class="stroke" stroke-width="1"
	d="M258.00 303.00v-24.00"/>
<path class="stroke" stroke-width="1"
	d="M258.00 361.00v-58.00"/>
<path class="stroke" stroke-width="1"
	d="M258.00 419.00v-58.00"/>
<path class="stroke" stroke-width="1"
	d="M274.00 303.00v-24.00"/>
<path class="stroke" stroke-width="1"
	d="M290.00 303.00v-24.00"/>
<path class="stroke" stroke-width="1"
	d="M306.00 303.00v-24.00"/>
<path class="stroke" stroke-width="1"
	d="M420.10 361.00v-24.00"/>
<path class="stroke" stroke-width="1"
	d="M420.10 419.00v-58.00"/>
<path class="stroke" stroke-width="1"
	d="M528.40 361.00v-24.00"/>
<path class="stroke" stroke-width="1"
	d="M528.40 419.00v-58.00"/>
<path class="stroke" stroke-width="1"
	d="M630.00 361.00v-24.00"/>
<path class="stroke" stroke-width="1"
	d="M630.00 419.00v-58.00"/>
<path class="stroke" stroke-width="1"
	d="M737.30 303.00v-24.00"/>
<path class="stroke" stroke-width="1"
	d="M737.30 361.00v-58.00"/>
<path class="stroke" stroke-width="1"
	d="M737.30 419.00v-58.00"/>
<path class="stroke" stroke-width="1"
	d="M753.30 303.00v-24.00"/>
<path class="stroke" stroke-width="1"
	d="M769.30 303.00v-24.00"/>
<path class="stroke" stroke-width="1"
	d="M785.30 303.00v-24.00"/>
<path class="stroke" stroke-width="1"
	d="M887.80 361.00v-24.00"/>
<path class="stroke" stroke-width="1"
	d="M887.80 419.00v-58.00"/>
<path class="stroke" stroke-width="1"
	d="M989.40 361.00v-24.00"/>
<path class="stroke" stroke-width="1"
	d="M989.40 419.00v-58.00"/>
<path class="stroke" stroke-width="1"
	d="M1096.70 361.00v-24.00"/>
<path class="stroke" stroke-width="1"
	d="M1096.70 419.00v-58.00"/>
<path class="stroke" stroke-width="1"
	d="M1198.60 303.00v-24.00"/>
<path class="stroke" stroke-width="1"
	d="M1198.60 361.00v-58.00"/>
<path class="stroke" stroke-width="1"
	d="M1198.60 419.00v-58.00"/>
<defs>
<g id="rdots" class="fill">
	<circle cx="0" cy="-9" r="1.2"/>
	<circle cx="0" cy="-15" r="1.2"/>
</g>
</defs>
<use x="1194.60" y="419.00" xlink:href="#rdots"/>
<path class="stroke" stroke-width="1"
	d="M1190.60 419.00v-58.00"/>
<path d="m10.00 303.00
	h1188.60
	M10.00 297.00
	h1188.60
	M10.00 291.00
	h1188.60
	M10.00 285.00
	h1188.60
	M10.00 279.00
	h1188.60
	" class="stroke"/>
<path d="m10.00 361.00
	h1188.60
	M10.00 355.00
	h1188.60
	M10.00 349.00
	h1188.60
	M10.00 343.00
	h1188.60
	M10.00 337.00
	h1188.60
	" class="stroke"/>
<path d="m10.00 419.00
	h1188.60
	M10.00 413.00
	h1188.60
	M10.00 407.00
	h1188.60
	M10.00 401.00
	h1188.60
	M10.00 395.00
	h1188.60
	" class="stroke"/>
<use x="22.00" y="297.00" xlink:href="#tclef"/>
<use x="37.00" y="279.00" xlink:href="#sh0"/>
<use x="42.50" y="288.00" xlink:href="#sh0"/>
<use x="332.30" y="309.00" xlink:href="#hl1"/>
<use x="332.30" y="315.00" xlink:href="#hl1"/>
<use x="332.30" y="318.00" xlink:href="#HDD"/>
<use x="316.50" y="318.00" xlink:href="#sh0"/>
<use x="800.30" y="306.00" xlink:href="#HDD"/>
<use x="22.00" y="355.00" xlink:href="#tclef"/>
<use x="37.00" y="337.00" xlink:href="#sh0"/>
<use x="42.50" y="346.00" xlink:href="#sh0"/>
<use x="67.50" y="367.00" xlink:href="#hl"/>
<use x="67.50" y="367.00" xlink:href="#Hd"/>
<use x="57.50" y="367.00" xlink:href="#sh0"/>
<path d="M71.00 367.00v-21.00" class="stroke"/>
<use x="169.60" y="355.00" xlink:href="#Hd"/>
<path d="M173.10 355.00v-21.00" class="stroke"/>
<use x="331.30" y="367.00" xlink:href="#hl"/>
<use x="331.30" y="367.00" xlink:href="#Hd"/>
<use x="321.30" y="367.00" xlink:href="#sh0"/>
<path d="M334.80 367.00v-21.00" class="stroke"/>
<use x="439.60" y="367.00" xlink:href="#hl"/>
<use x="439.60" y="367.00" xlink:href="#Hd"/>
<use x="429.60" y="367.00" xlink:href="#sh0"/>
<path d="M443.10 367.00v-21.00" class="stroke"/>
<use x="541.60" y="367.00" xlink:href="#hl"/>
<use x="541.60" y="370.00" xlink:href="#Hd"/>
<path d="M545.10 370.00v-21.00" class="stroke"/>
<use x="648.50" y="358.00" xlink:href="#Hd"/>
<path d="M652.00 358.00v-21.00" class="stroke"/>
<use x="799.30" y="355.00" xlink:href="#Hd"/>
<path d="M802.80 355.00v-21.00" class="stroke"/>
<use x="901.00" y="355.00" xlink:href="#Hd"/>
<path d="M904.50 355.00v-21.00" class="stroke"/>
<use x="1007.90" y="358.00" xlink:href="#Hd"/>
<path d="M1011.40 358.00v-21.00" class="stroke"/>
<use x="1110.00" y="349.00" xlink:href="#Hd"/>
<path d="M1113.50 349.00v-21.00" class="stroke"/>
<use x="22.00" y="413.00" xlink:href="#tclef"/>
<use x="37.00" y="395.00" xlink:href="#sh0"/>
<use x="42.50" y="404.00" xlink:href="#sh0"/>
<path class="fill"
	d="M70.70 392.10l71.20 0.00v3.20l-71.20 -0.00"/>
<use x="67.50" y="416.00" xlink:href="#hd"/>
<use x="58.50" y="416.00" xlink:href="#sh0"/>
<path d="M71.00 416.00v-23.00" class="stroke"/>
<use x="91.10" y="416.00" xlink:href="#hd"/>
<use x="82.10" y="416.00" xlink:href="#sh0"/>
<path d="M94.60 416.00v-23.00" class="stroke"/>
<use x="114.40" y="419.00" xlink:href="#hd"/>
<path d="M117.90 419.00v-26.00" class="stroke"/>
<use x="138.00" y="410.00" xlink:href="#hd"/>
<use x="129.00" y="410.00" xlink:href="#sh0"/>
<path d="M141.50 410.00v-17.00" class="stroke"/>
<path class="fill"
	d="M165.70 429.20l70.80 0.00v-3.20l-70.80 -0.00"/>
<use x="169.60" y="404.00" xlink:href="#hd"/>
<path d="M166.10 404.00v24.20" class="stroke"/>
<use x="192.80" y="404.00" xlink:href="#hd"/>
<path d="M189.30 404.00v24.20" class="stroke"/>
<use x="216.40" y="410.00" xlink:href="#hd"/>
<use x="207.40" y="410.00" xlink:href="#sh0"/>
<path d="M212.90 410.00v18.20" class="stroke"/>
<use x="239.70" y="398.00" xlink:href="#hd"/>
<path d="M236.20 398.00v30.20" class="stroke"/>
<path class="fill"
	d="M334.40 392.10l71.20 0.00v3.20l-71.20 -0.00"/>
<use x="331.30" y="416.00" xlink:href="#hd"/>
<use x="322.30" y="416.00" xlink:href="#sh0"/>
<path d="M334.80 416.00v-23.00" class="stroke"/>
<use x="354.90" y="416.00" xlink:href="#hd"/>
<use x="345.90" y="416.00" xlink:href="#sh0"/>
<path d="M358.40 416.00v-23.00" class="stroke"/>
<use x="378.10" y="419.00" xlink:href="#hd"/>
<path d="M381.60 419.00v-26.00" class="stroke"/>
<use x="401.80" y="410.00" xlink:href="#hd"/>
<use x="392.80" y="410.00" xlink:href="#sh0"/>
<path d="M405.30 410.00v-17.00" class="stroke"/>
<path class="fill"
	d="M442.70 392.10l71.20 0.00v3.20l-71.20 -0.00"/>
<use x="439.60" y="416.00" xlink:href="#hd"/>
<use x="430.60" y="416.00" xlink:href="#sh0"/>
<path d="M443.10 416.00v-23.00" class="stroke"/>
<use x="463.20" y="416.00" xlink:href="#hd"/>
<use x="454.20" y="416.00" xlink:href="#sh0"/>
<path d="M466.70 416.00v-23.00" class="stroke"/>
<use x="486.40" y="419.00" xlink:href="#hd"/>
<path d="M489.90 419.00v-26.00" class="stroke"/>
<use x="510.10" y="410.00" xlink:href="#hd"/>
<use x="501.10" y="410.00" xlink:href="#sh0"/>
<path d="M513.60 410.00v-17.00" class="stroke"/>
<path class="fill"
	d="M544.80 394.80l70.80 0.00v3.20l-70.80 -0.00"/>
<use x="541.60" y="419.00" xlink:href="#hd"/>
<path d="M545.10 419.00v-23.20" class="stroke"/>
<use x="564.90" y="419.00" xlink:href="#hd"/>
<path d="M568.40 419.00v-23.20" class="stroke"/>
<use x="588.10" y="422.00" xlink:href="#hd"/>
<path d="M591.60 422.00v-26.20" class="stroke"/>
<use x="611.70" y="413.00" xlink:href="#hd"/>
<use x="602.70" y="413.00" xlink:href="#sh0"/>
<path d="M615.20 413.00v-17.20" class="stroke"/>
<path class="fill"
	d="M651.70 385.60l71.20 -3.90v3.20l-71.20 3.90"/>
<use x="648.50" y="410.00" xlink:href="#hd"/>
<use x="639.50" y="410.00" xlink:href="#sh0"/>
<path d="M652.00 410.00v-23.40" class="stroke"/>
<use x="672.20" y="410.00" xlink:href="#hd"/>
<use x="663.20" y="410.00" xlink:href="#sh0"/>
<path d="M675.70 410.00v-24.70" class="stroke"/>
<use x="695.80" y="413.00" xlink:href="#hd"/>
<use x="686.80" y="413.00" xlink:href="#sh0"/>
<path d="M699.30 413.00v-28.90" class="stroke"/>
<use x="719.00" y="401.00" xlink:href="#hd"/>
<path d="M722.50 401.00v-18.20" class="stroke"/>
<path class="fill"
	d="M795.50 429.20l70.80 0.00v-3.20l-70.80 -0.00"/>
<use x="799.30" y="404.00" xlink:href="#hd"/>
<path d="M795.80 404.00v24.20" class="stroke"/>
<use x="822.60" y="404.00" xlink:href="#hd"/>
<path d="M819.10 404.00v24.20" class="stroke"/>
<use x="846.20" y="410.00" xlink:href="#hd"/>
<use x="837.20" y="410.00" xlink:href="#sh0"/>
<path d="M842.70 410.00v18.20" class="stroke"/>
<use x="869.40" y="398.00" xlink:href="#hd"/>
<path d="M865.90 398.00v30.20" class="stroke"/>
<path class="fill"
	d="M897.20 429.20l70.80 0.00v-3.20l-70.80 -0.00"/>
<use x="901.00" y="404.00" xlink:href="#hd"/>
<path d="M897.50 404.00v24.20" class="stroke"/>
<use x="924.20" y="404.00" xlink:href="#hd"/>
<path d="M920.70 404.00v24.20" class="stroke"/>
<use x="947.90" y="410.00" xlink:href="#hd"/>
<use x="938.90" y="410.00" xlink:href="#sh0"/>
<path d="M944.40 410.00v18.20" class="stroke"/>
<use x="971.10" y="398.00" xlink:href="#hd"/>
<path d="M967.60 398.00v30.20" class="stroke"/>
<path class="fill"
	d="M1004.10 434.80l71.20 -3.90v-3.20l-71.20 3.90"/>
<use x="1007.90" y="410.00" xlink:href="#hd"/>
<use x="998.90" y="410.00" xlink:href="#sh0"/>
<path d="M1004.40 410.00v23.80" class="stroke"/>
<use x="1031.50" y="410.00" xlink:href="#hd"/>
<use x="1022.50" y="410.00" xlink:href="#sh0"/>
<path d="M1028.00 410.00v22.50" class="stroke"/>
<use x="1055.20" y="413.00" xlink:href="#hd"/>
<use x="1046.20" y="413.00" xlink:href="#sh0"/>
<path d="M1051.70 413.00v18.20" class="stroke"/>
<use x="1078.40" y="401.00" xlink:href="#hd"/>
<path d="M1074.90 401.00v28.90" class="stroke"/>
<path class="fill"
	d="M1106.10 419.20l70.80 0.00v-3.20l-70.80 -0.00"/>
<use x="1110.00" y="398.00" xlink:href="#hd"/>
<path d="M1106.50 398.00v20.20" class="stroke"/>
<use x="1133.20" y="398.00" xlink:href="#hd"/>
<path d="M1129.70 398.00v20.20" class="stroke"/>
<use x="1156.50" y="401.00" xlink:href="#hd"/>
<path d="M1153.00 401.00v17.20" class="stroke"/>
<use x="1180.10" y="392.00" xlink:href="#hd"/>
<use x="1171.10" y="392.00" xlink:href="#sh0"/>
<path d="M1176.60 392.00v26.20" class="stroke"/>
</g>
</svg>
