<?xml version="1.0" standalone="no"?>
<!DOCTYPE svg PUBLIC "-//W3C//DTD SVG 1.1//EN"
	"http://www.w3.org/Graphics/SVG/1.1/DTD/svg11.dtd">
<svg xmlns="http://www.w3.org/2000/svg" version="1.1"
	xmlns:xlink="http://www.w3.org/1999/xlink"
	color="black"
	width="1208.60px" height="442.00px">
<style type="text/css">
.fill {fill: currentColor}
.stroke {stroke: currentColor; fill: none}
text{white-space: pre}
</style>
<title>../src/torus/title_no_32_page_1.abc (2) tune 1</title>
<!-- Creator: abcm2ps-8.14.6 -->
<!-- CreationDate: Jan 11, 2023 20:08 -->
<!-- CommandLine: -g ../src/torus/title_no_32_page_1.abc -O ../src/torus/title_no_32_page_1.svg -->
<g stroke-width="0.70" style="font:italic 14.00px Times">
<text x="10.00" y="28.00">Procedurally Generated</text>
<!-- title: Torus:Taurus Tune -->
</g>
<g stroke-width="0.70" style="font:20.00px Times">
<text x="604.30" y="28.00" text-anchor="middle">Torus:Taurus Tune</text>
</g>
<g stroke-width="0.70" style="font:italic 14.00px Times">
<text x="1198.60" y="28.00" text-anchor="end">(Sid.)</text>
<text x="1198.60" y="43.40" text-anchor="end">Jeff Minter</text>
<!-- subtitle: 32 of 100,000,000,000,000 -->
</g>
<g stroke-width="0.70" style="font:16.00px Times">
<text x="604.30" y="64.00" text-anchor="middle">32 of 100,000,000,000,000</text>
</g>
<g stroke-width="0.70" style="font:bold 13.00px Times">
<text x="38.28" y="224.90" text-anchor="middle">Voice 3</text>
<text x="38.28" y="166.90" text-anchor="middle">Voice 2</text>
<text x="38.28" y="108.90" text-anchor="middle">Voice 1</text>
<path class="stroke" stroke-width="1"
	d="M66.48 233.00v-140.00"/>
<path class="stroke" stroke-width="1"
	d="M274.98 175.00v-24.00"/>
<path class="stroke" stroke-width="1"
	d="M274.98 233.00v-58.00"/>
<path class="stroke" stroke-width="1"
	d="M449.38 175.00v-24.00"/>
<path class="stroke" stroke-width="1"
	d="M449.38 233.00v-58.00"/>
<path class="stroke" stroke-width="1"
	d="M623.68 175.00v-24.00"/>
<path class="stroke" stroke-width="1"
	d="M623.68 233.00v-58.00"/>
<path class="stroke" stroke-width="1"
	d="M798.08 117.00v-24.00"/>
<path class="stroke" stroke-width="1"
	d="M798.08 175.00v-58.00"/>
<path class="stroke" stroke-width="1"
	d="M798.08 233.00v-58.00"/>
<path class="stroke" stroke-width="1"
	d="M814.08 117.00v-24.00"/>
<path class="stroke" stroke-width="1"
	d="M830.08 117.00v-24.00"/>
<path class="stroke" stroke-width="1"
	d="M846.08 117.00v-24.00"/>
<path class="stroke" stroke-width="1"
	d="M1024.28 175.00v-24.00"/>
<path class="stroke" stroke-width="1"
	d="M1024.28 233.00v-58.00"/>
<path class="stroke" stroke-width="1"
	d="M1198.58 175.00v-24.00"/>
<path class="stroke" stroke-width="1"
	d="M1198.58 233.00v-58.00"/>
<path d="m66.48 117.00
	h1132.10
	M66.48 111.00
	h1132.10
	M66.48 105.00
	h1132.10
	M66.48 99.00
	h1132.10
	M66.48 93.00
	h1132.10
	" class="stroke"/>
<path d="m66.48 175.00
	h1132.10
	M66.48 169.00
	h1132.10
	M66.48 163.00
	h1132.10
	M66.48 157.00
	h1132.10
	M66.48 151.00
	h1132.10
	" class="stroke"/>
<path d="m66.48 233.00
	h1132.10
	M66.48 227.00
	h1132.10
	M66.48 221.00
	h1132.10
	M66.48 215.00
	h1132.10
	M66.48 209.00
	h1132.10
	" class="stroke"/>
<defs>
<path id="utclef" class="fill" d="m-50 -90
	c-72 -41 -72 -158 52 -188
	150 -10 220 188 90 256
	-114 52 -275 0 -293 -136
	-15 -181 93 -229 220 -334
	88 -87 79 -133 62 -210
	-51 33 -94 105 -89 186
	17 267 36 374 49 574
	6 96 -19 134 -77 135
	-80 1 -126 -93 -61 -133
	85 -41 133 101 31 105
	23 17 92 37 90 -92
	-10 -223 -39 -342 -50 -617
	0 -90 0 -162 96 -232
	56 72 63 230 22 289
	-74 106 -257 168 -255 316
	9 153 148 185 252 133
	86 -65 29 -192 -80 -176
	-71 12 -105 67 -59 124"/>
<use id="tclef" transform="translate(0,6) scale(0.045)"
	xlink:href="#utclef"/>
</defs>
<use x="78.48" y="111.00" xlink:href="#tclef"/>
<defs>
<path id="usharp" class="fill" d="
	m136 -702
	v890
	h32
	v-890
	m128 840
	h32
	v-888
	h-32
	m-232 286
	v116
	l338 -96
	v-116
	m-338 442
	v116
	l338 -98
	v-114"/>
<use id="sh0" transform="translate(-4,5) scale(0.018)"
	xlink:href="#usharp"/>
</defs>
<use x="93.48" y="93.00" xlink:href="#sh0"/>
<use x="98.98" y="102.00" xlink:href="#sh0"/>
<defs>
<path id="hl1" class="stroke" d="m-7 0h14"/>
</defs>
<use x="123.98" y="123.00" xlink:href="#hl1"/>
<defs>
<path id="HD" class="fill" d="m-2.7 -1.4
	c1.5 -2.8 6.9 0 5.3 2.7
	-1.5 2.8 -6.9 0 -5.3 -2.7
	m8.3 1.4
	c0 -1.5 -2.2 -3 -5.6 -3
	-3.4 0 -5.6 1.5 -5.6 3
	0 1.5 2.2 3 5.6 3
	3.4 0 5.6 -1.5 5.6 -3"/>
<g id="HDD">
	<use xlink:href="#HD"/>
	<path d="m-6 -4v8m12 0v-8" class="stroke"/>
</g>
</defs>
<use x="123.98" y="123.00" xlink:href="#HDD"/>
<use x="873.28" y="123.00" xlink:href="#hl1"/>
<use x="873.28" y="129.00" xlink:href="#hl1"/>
<use x="873.28" y="129.00" xlink:href="#HDD"/>
<use x="857.48" y="129.00" xlink:href="#sh0"/>
<use x="78.48" y="169.00" xlink:href="#tclef"/>
<use x="93.48" y="151.00" xlink:href="#sh0"/>
<use x="98.98" y="160.00" xlink:href="#sh0"/>
<defs>
<path id="Hd" class="fill" d="m3 -1.6
	c-1 -1.8 -7 1.4 -6 3.2
	1 1.8 7 -1.4 6 -3.2
	m0.5 -0.3
	c2 3.8 -5 7.6 -7 3.8
	-2 -3.8 5 -7.6 7 -3.8"/>
</defs>
<use x="122.98" y="172.00" xlink:href="#Hd"/>
<path d="M126.48 172.00v-21.00" class="stroke"/>
<use x="297.38" y="178.00" xlink:href="#Hd"/>
<use x="287.38" y="178.00" xlink:href="#sh0"/>
<path d="M300.88 178.00v-21.00" class="stroke"/>
<use x="471.68" y="169.00" xlink:href="#Hd"/>
<path d="M475.18 169.00v-21.00" class="stroke"/>
<use x="646.08" y="178.00" xlink:href="#Hd"/>
<use x="636.08" y="178.00" xlink:href="#sh0"/>
<path d="M649.58 178.00v-21.00" class="stroke"/>
<use x="872.28" y="178.00" xlink:href="#Hd"/>
<use x="862.28" y="178.00" xlink:href="#sh0"/>
<path d="M875.78 178.00v-21.00" class="stroke"/>
<defs>
<path id="hl" class="stroke" d="m-6 0h12"/>
</defs>
<use x="1046.58" y="181.00" xlink:href="#hl"/>
<use x="1046.58" y="181.00" xlink:href="#Hd"/>
<use x="1036.58" y="181.00" xlink:href="#sh0"/>
<path d="M1050.08 181.00v-21.00" class="stroke"/>
<use x="78.48" y="227.00" xlink:href="#tclef"/>
<use x="93.48" y="209.00" xlink:href="#sh0"/>
<use x="98.98" y="218.00" xlink:href="#sh0"/>
<path class="fill"
	d="M126.18 198.80l121.40 0.00v3.20l-121.40 -0.00"/>
<defs>
<ellipse id="hd" rx="4.1" ry="2.9"
	transform="rotate(-20)" class="fill"/>
</defs>
<use x="122.98" y="224.00" xlink:href="#hd"/>
<use x="113.98" y="224.00" xlink:href="#sh0"/>
<path d="M126.48 224.00v-24.20" class="stroke"/>
<use x="163.18" y="227.00" xlink:href="#hd"/>
<use x="154.18" y="227.00" xlink:href="#sh0"/>
<path d="M166.68 227.00v-27.20" class="stroke"/>
<use x="203.48" y="218.00" xlink:href="#hd"/>
<path d="M206.98 218.00v-18.20" class="stroke"/>
<use x="243.68" y="227.00" xlink:href="#hd"/>
<use x="234.68" y="227.00" xlink:href="#sh0"/>
<path d="M247.18 227.00v-27.20" class="stroke"/>
<path class="fill"
	d="M300.48 206.10l121.40 0.00v3.20l-121.40 -0.00"/>
<use x="297.38" y="227.00" xlink:href="#hd"/>
<use x="288.38" y="227.00" xlink:href="#sh0"/>
<path d="M300.88 227.00v-20.00" class="stroke"/>
<use x="337.58" y="230.00" xlink:href="#hd"/>
<use x="328.58" y="230.00" xlink:href="#sh0"/>
<path d="M341.08 230.00v-23.00" class="stroke"/>
<use x="377.78" y="224.00" xlink:href="#hd"/>
<use x="368.78" y="224.00" xlink:href="#sh0"/>
<path d="M381.28 224.00v-17.00" class="stroke"/>
<use x="418.08" y="230.00" xlink:href="#hd"/>
<use x="409.08" y="230.00" xlink:href="#sh0"/>
<path d="M421.58 230.00v-23.00" class="stroke"/>
<path class="fill"
	d="M467.88 243.20l121.40 0.00v-3.20l-121.40 -0.00"/>
<use x="471.68" y="218.00" xlink:href="#hd"/>
<path d="M468.18 218.00v24.20" class="stroke"/>
<use x="511.88" y="224.00" xlink:href="#hd"/>
<use x="502.88" y="224.00" xlink:href="#sh0"/>
<path d="M508.38 224.00v18.20" class="stroke"/>
<use x="552.18" y="215.00" xlink:href="#hd"/>
<path d="M548.68 215.00v27.20" class="stroke"/>
<use x="592.38" y="224.00" xlink:href="#hd"/>
<use x="583.38" y="224.00" xlink:href="#sh0"/>
<path d="M588.88 224.00v18.20" class="stroke"/>
<path class="fill"
	d="M649.18 206.10l121.40 0.00v3.20l-121.40 -0.00"/>
<use x="646.08" y="227.00" xlink:href="#hd"/>
<use x="637.08" y="227.00" xlink:href="#sh0"/>
<path d="M649.58 227.00v-20.00" class="stroke"/>
<use x="686.28" y="230.00" xlink:href="#hd"/>
<use x="677.28" y="230.00" xlink:href="#sh0"/>
<path d="M689.78 230.00v-23.00" class="stroke"/>
<use x="726.48" y="224.00" xlink:href="#hd"/>
<use x="717.48" y="224.00" xlink:href="#sh0"/>
<path d="M729.98 224.00v-17.00" class="stroke"/>
<use x="766.78" y="230.00" xlink:href="#hd"/>
<use x="757.78" y="230.00" xlink:href="#sh0"/>
<path d="M770.28 230.00v-23.00" class="stroke"/>
<path class="fill"
	d="M875.38 206.10l121.40 0.00v3.20l-121.40 -0.00"/>
<use x="872.28" y="227.00" xlink:href="#hd"/>
<use x="863.28" y="227.00" xlink:href="#sh0"/>
<path d="M875.78 227.00v-20.00" class="stroke"/>
<use x="912.48" y="230.00" xlink:href="#hd"/>
<use x="903.48" y="230.00" xlink:href="#sh0"/>
<path d="M915.98 230.00v-23.00" class="stroke"/>
<use x="952.68" y="224.00" xlink:href="#hd"/>
<use x="943.68" y="224.00" xlink:href="#sh0"/>
<path d="M956.18 224.00v-17.00" class="stroke"/>
<use x="992.98" y="230.00" xlink:href="#hd"/>
<use x="983.98" y="230.00" xlink:href="#sh0"/>
<path d="M996.48 230.00v-23.00" class="stroke"/>
<path class="fill"
	d="M1049.78 208.80l121.40 0.00v3.20l-121.40 -0.00"/>
<use x="1046.58" y="230.00" xlink:href="#hd"/>
<use x="1037.58" y="230.00" xlink:href="#sh0"/>
<path d="M1050.08 230.00v-20.20" class="stroke"/>
<use x="1086.88" y="233.00" xlink:href="#hd"/>
<path d="M1090.38 233.00v-23.20" class="stroke"/>
<use x="1127.08" y="227.00" xlink:href="#hd"/>
<use x="1118.08" y="227.00" xlink:href="#sh0"/>
<path d="M1130.58 227.00v-17.20" class="stroke"/>
<use x="1167.28" y="233.00" xlink:href="#hd"/>
<path d="M1170.78 233.00v-23.20" class="stroke"/>
</g>
<g stroke-width="0.70" style="font:bold 13.00px Times">
<path class="stroke" stroke-width="1"
	d="M10.00 419.00v-140.00"/>
<path class="stroke" stroke-width="1"
	d="M153.70 361.00v-24.00"/>
<path class="stroke" stroke-width="1"
	d="M153.70 419.00v-58.00"/>
<path class="stroke" stroke-width="1"
	d="M259.80 303.00v-24.00"/>
<path class="stroke" stroke-width="1"
	d="M259.80 361.00v-58.00"/>
<path class="stroke" stroke-width="1"
	d="M259.80 419.00v-58.00"/>
<path class="stroke" stroke-width="1"
	d="M275.80 303.00v-24.00"/>
<path class="stroke" stroke-width="1"
	d="M291.80 303.00v-24.00"/>
<path class="stroke" stroke-width="1"
	d="M307.80 303.00v-24.00"/>
<path class="stroke" stroke-width="1"
	d="M408.90 361.00v-24.00"/>
<path class="stroke" stroke-width="1"
	d="M408.90 419.00v-58.00"/>
<path class="stroke" stroke-width="1"
	d="M514.60 361.00v-24.00"/>
<path class="stroke" stroke-width="1"
	d="M514.60 419.00v-58.00"/>
<path class="stroke" stroke-width="1"
	d="M613.70 361.00v-24.00"/>
<path class="stroke" stroke-width="1"
	d="M613.70 419.00v-58.00"/>
<path class="stroke" stroke-width="1"
	d="M719.40 303.00v-24.00"/>
<path class="stroke" stroke-width="1"
	d="M719.40 361.00v-58.00"/>
<path class="stroke" stroke-width="1"
	d="M719.40 419.00v-58.00"/>
<path class="stroke" stroke-width="1"
	d="M735.40 303.00v-24.00"/>
<path class="stroke" stroke-width="1"
	d="M751.40 303.00v-24.00"/>
<path class="stroke" stroke-width="1"
	d="M767.40 303.00v-24.00"/>
<path class="stroke" stroke-width="1"
	d="M880.40 361.00v-24.00"/>
<path class="stroke" stroke-width="1"
	d="M880.40 419.00v-58.00"/>
<path class="stroke" stroke-width="1"
	d="M986.50 361.00v-24.00"/>
<path class="stroke" stroke-width="1"
	d="M986.50 419.00v-58.00"/>
<path class="stroke" stroke-width="1"
	d="M1092.20 361.00v-24.00"/>
<path class="stroke" stroke-width="1"
	d="M1092.20 419.00v-58.00"/>
<path class="stroke" stroke-width="1"
	d="M1198.60 303.00v-24.00"/>
<path class="stroke" stroke-width="1"
	d="M1198.60 361.00v-58.00"/>
<path class="stroke" stroke-width="1"
	d="M1198.60 419.00v-58.00"/>
<defs>
<g id="rdots" class="fill">
	<circle cx="0" cy="-9" r="1.2"/>
	<circle cx="0" cy="-15" r="1.2"/>
</g>
</defs>
<use x="1194.60" y="419.00" xlink:href="#rdots"/>
<path class="stroke" stroke-width="1"
	d="M1190.60 419.00v-58.00"/>
<path d="m10.00 303.00
	h1188.60
	M10.00 297.00
	h1188.60
	M10.00 291.00
	h1188.60
	M10.00 285.00
	h1188.60
	M10.00 279.00
	h1188.60
	" class="stroke"/>
<path d="m10.00 361.00
	h1188.60
	M10.00 355.00
	h1188.60
	M10.00 349.00
	h1188.60
	M10.00 343.00
	h1188.60
	M10.00 337.00
	h1188.60
	" class="stroke"/>
<path d="m10.00 419.00
	h1188.60
	M10.00 413.00
	h1188.60
	M10.00 407.00
	h1188.60
	M10.00 401.00
	h1188.60
	M10.00 395.00
	h1188.60
	" class="stroke"/>
<use x="22.00" y="297.00" xlink:href="#tclef"/>
<use x="37.00" y="279.00" xlink:href="#sh0"/>
<use x="42.50" y="288.00" xlink:href="#sh0"/>
<use x="322.80" y="306.00" xlink:href="#HDD"/>
<use x="793.70" y="309.00" xlink:href="#hl1"/>
<use x="793.70" y="315.00" xlink:href="#hl1"/>
<use x="793.70" y="315.00" xlink:href="#HDD"/>
<use x="777.90" y="315.00" xlink:href="#sh0"/>
<use x="22.00" y="355.00" xlink:href="#tclef"/>
<use x="37.00" y="337.00" xlink:href="#sh0"/>
<use x="42.50" y="346.00" xlink:href="#sh0"/>
<use x="66.50" y="358.00" xlink:href="#Hd"/>
<path d="M70.00 358.00v-21.00" class="stroke"/>
<use x="173.20" y="367.00" xlink:href="#hl"/>
<use x="173.20" y="367.00" xlink:href="#Hd"/>
<use x="163.20" y="367.00" xlink:href="#sh0"/>
<path d="M176.70 367.00v-21.00" class="stroke"/>
<use x="321.80" y="355.00" xlink:href="#Hd"/>
<path d="M325.30 355.00v-21.00" class="stroke"/>
<use x="427.40" y="358.00" xlink:href="#Hd"/>
<path d="M430.90 358.00v-21.00" class="stroke"/>
<use x="527.70" y="352.00" xlink:href="#Hd"/>
<path d="M531.20 352.00v-21.00" class="stroke"/>
<use x="632.20" y="358.00" xlink:href="#Hd"/>
<path d="M635.70 358.00v-21.00" class="stroke"/>
<use x="792.70" y="364.00" xlink:href="#Hd"/>
<use x="782.70" y="364.00" xlink:href="#sh0"/>
<path d="M796.20 364.00v-21.00" class="stroke"/>
<use x="899.90" y="367.00" xlink:href="#hl"/>
<use x="899.90" y="367.00" xlink:href="#Hd"/>
<use x="889.90" y="367.00" xlink:href="#sh0"/>
<path d="M903.40 367.00v-21.00" class="stroke"/>
<use x="1005.00" y="358.00" xlink:href="#Hd"/>
<path d="M1008.50 358.00v-21.00" class="stroke"/>
<use x="1111.70" y="367.00" xlink:href="#hl"/>
<use x="1111.70" y="367.00" xlink:href="#Hd"/>
<use x="1101.70" y="367.00" xlink:href="#sh0"/>
<path d="M1115.20 367.00v-21.00" class="stroke"/>
<use x="22.00" y="413.00" xlink:href="#tclef"/>
<use x="37.00" y="395.00" xlink:href="#sh0"/>
<use x="42.50" y="404.00" xlink:href="#sh0"/>
<path class="fill"
	d="M69.70 384.80l69.90 0.00v3.20l-69.90 -0.00"/>
<use x="66.50" y="410.00" xlink:href="#hd"/>
<use x="57.50" y="410.00" xlink:href="#sh0"/>
<path d="M70.00 410.00v-24.20" class="stroke"/>
<use x="89.80" y="413.00" xlink:href="#hd"/>
<use x="80.80" y="413.00" xlink:href="#sh0"/>
<path d="M93.30 413.00v-27.20" class="stroke"/>
<use x="112.40" y="404.00" xlink:href="#hd"/>
<path d="M115.90 404.00v-18.20" class="stroke"/>
<use x="135.70" y="413.00" xlink:href="#hd"/>
<use x="126.70" y="413.00" xlink:href="#sh0"/>
<path d="M139.20 413.00v-27.20" class="stroke"/>
<path class="fill"
	d="M176.30 394.80l69.30 0.00v3.20l-69.30 -0.00"/>
<use x="173.20" y="416.00" xlink:href="#hd"/>
<use x="164.20" y="416.00" xlink:href="#sh0"/>
<path d="M176.70 416.00v-20.20" class="stroke"/>
<use x="195.80" y="419.00" xlink:href="#hd"/>
<path d="M199.30 419.00v-23.20" class="stroke"/>
<use x="219.10" y="413.00" xlink:href="#hd"/>
<use x="210.10" y="413.00" xlink:href="#sh0"/>
<path d="M222.60 413.00v-17.20" class="stroke"/>
<use x="241.80" y="419.00" xlink:href="#hd"/>
<path d="M245.30 419.00v-23.20" class="stroke"/>
<path class="fill"
	d="M317.90 429.20l69.90 0.00v-3.20l-69.90 -0.00"/>
<use x="321.80" y="404.00" xlink:href="#hd"/>
<path d="M318.30 404.00v24.20" class="stroke"/>
<use x="345.00" y="410.00" xlink:href="#hd"/>
<use x="336.00" y="410.00" xlink:href="#sh0"/>
<path d="M341.50 410.00v18.20" class="stroke"/>
<use x="367.70" y="401.00" xlink:href="#hd"/>
<path d="M364.20 401.00v27.20" class="stroke"/>
<use x="390.90" y="410.00" xlink:href="#hd"/>
<use x="381.90" y="410.00" xlink:href="#sh0"/>
<path d="M387.40 410.00v18.20" class="stroke"/>
<path class="fill"
	d="M430.60 384.80l69.90 0.00v3.20l-69.90 -0.00"/>
<use x="427.40" y="410.00" xlink:href="#hd"/>
<use x="418.40" y="410.00" xlink:href="#sh0"/>
<path d="M430.90 410.00v-24.20" class="stroke"/>
<use x="450.70" y="413.00" xlink:href="#hd"/>
<use x="441.70" y="413.00" xlink:href="#sh0"/>
<path d="M454.20 413.00v-27.20" class="stroke"/>
<use x="473.40" y="404.00" xlink:href="#hd"/>
<path d="M476.90 404.00v-18.20" class="stroke"/>
<use x="496.60" y="413.00" xlink:href="#hd"/>
<use x="487.60" y="413.00" xlink:href="#sh0"/>
<path d="M500.10 413.00v-27.20" class="stroke"/>
<path class="fill"
	d="M523.90 421.90l68.70 0.00v-3.20l-68.70 -0.00"/>
<use x="527.70" y="401.00" xlink:href="#hd"/>
<path d="M524.20 401.00v20.00" class="stroke"/>
<use x="550.40" y="404.00" xlink:href="#hd"/>
<path d="M546.90 404.00v17.00" class="stroke"/>
<use x="573.10" y="398.00" xlink:href="#hd"/>
<path d="M569.60 398.00v23.00" class="stroke"/>
<use x="595.70" y="404.00" xlink:href="#hd"/>
<path d="M592.20 404.00v17.00" class="stroke"/>
<path class="fill"
	d="M635.40 384.80l69.90 0.00v3.20l-69.90 -0.00"/>
<use x="632.20" y="410.00" xlink:href="#hd"/>
<use x="623.20" y="410.00" xlink:href="#sh0"/>
<path d="M635.70 410.00v-24.20" class="stroke"/>
<use x="655.50" y="413.00" xlink:href="#hd"/>
<use x="646.50" y="413.00" xlink:href="#sh0"/>
<path d="M659.00 413.00v-27.20" class="stroke"/>
<use x="678.10" y="404.00" xlink:href="#hd"/>
<path d="M681.60 404.00v-18.20" class="stroke"/>
<use x="701.40" y="413.00" xlink:href="#hd"/>
<use x="692.40" y="413.00" xlink:href="#sh0"/>
<path d="M704.90 413.00v-27.20" class="stroke"/>
<path class="fill"
	d="M795.80 392.10l70.40 0.00v3.20l-70.40 -0.00"/>
<use x="792.70" y="413.00" xlink:href="#hd"/>
<use x="783.70" y="413.00" xlink:href="#sh0"/>
<path d="M796.20 413.00v-20.00" class="stroke"/>
<use x="815.90" y="416.00" xlink:href="#hd"/>
<use x="806.90" y="416.00" xlink:href="#sh0"/>
<path d="M819.40 416.00v-23.00" class="stroke"/>
<use x="839.20" y="410.00" xlink:href="#hd"/>
<use x="830.20" y="410.00" xlink:href="#sh0"/>
<path d="M842.70 410.00v-17.00" class="stroke"/>
<use x="862.40" y="416.00" xlink:href="#hd"/>
<use x="853.40" y="416.00" xlink:href="#sh0"/>
<path d="M865.90 416.00v-23.00" class="stroke"/>
<path class="fill"
	d="M903.10 394.80l69.30 0.00v3.20l-69.30 -0.00"/>
<use x="899.90" y="416.00" xlink:href="#hd"/>
<use x="890.90" y="416.00" xlink:href="#sh0"/>
<path d="M903.40 416.00v-20.20" class="stroke"/>
<use x="922.60" y="419.00" xlink:href="#hd"/>
<path d="M926.10 419.00v-23.20" class="stroke"/>
<use x="945.90" y="413.00" xlink:href="#hd"/>
<use x="936.90" y="413.00" xlink:href="#sh0"/>
<path d="M949.40 413.00v-17.20" class="stroke"/>
<use x="968.50" y="419.00" xlink:href="#hd"/>
<path d="M972.00 419.00v-23.20" class="stroke"/>
<path class="fill"
	d="M1008.20 384.80l69.90 0.00v3.20l-69.90 -0.00"/>
<use x="1005.00" y="410.00" xlink:href="#hd"/>
<use x="996.00" y="410.00" xlink:href="#sh0"/>
<path d="M1008.50 410.00v-24.20" class="stroke"/>
<use x="1028.30" y="413.00" xlink:href="#hd"/>
<use x="1019.30" y="413.00" xlink:href="#sh0"/>
<path d="M1031.80 413.00v-27.20" class="stroke"/>
<use x="1050.90" y="404.00" xlink:href="#hd"/>
<path d="M1054.40 404.00v-18.20" class="stroke"/>
<use x="1074.20" y="413.00" xlink:href="#hd"/>
<use x="1065.20" y="413.00" xlink:href="#sh0"/>
<path d="M1077.70 413.00v-27.20" class="stroke"/>
<path class="fill"
	d="M1114.80 394.80l69.30 0.00v3.20l-69.30 -0.00"/>
<use x="1111.70" y="416.00" xlink:href="#hd"/>
<use x="1102.70" y="416.00" xlink:href="#sh0"/>
<path d="M1115.20 416.00v-20.20" class="stroke"/>
<use x="1134.40" y="419.00" xlink:href="#hd"/>
<path d="M1137.90 419.00v-23.20" class="stroke"/>
<use x="1157.60" y="413.00" xlink:href="#hd"/>
<use x="1148.60" y="413.00" xlink:href="#sh0"/>
<path d="M1161.10 413.00v-17.20" class="stroke"/>
<use x="1180.30" y="419.00" xlink:href="#hd"/>
<path d="M1183.80 419.00v-23.20" class="stroke"/>
</g>
</svg>
