<?xml version="1.0" standalone="no"?>
<!DOCTYPE svg PUBLIC "-//W3C//DTD SVG 1.1//EN"
	"http://www.w3.org/Graphics/SVG/1.1/DTD/svg11.dtd">
<svg xmlns="http://www.w3.org/2000/svg" version="1.1"
	xmlns:xlink="http://www.w3.org/1999/xlink"
	color="black"
	width="1208.60px" height="256.00px">
<style type="text/css">
.fill {fill: currentColor}
.stroke {stroke: currentColor; fill: none}
text{white-space: pre}
</style>
<title>../src/torus/title_no_40_page_1.abc (2) tune 1</title>
<!-- Creator: abcm2ps-8.14.6 -->
<!-- CreationDate: Jan 11, 2023 20:08 -->
<!-- CommandLine: -g ../src/torus/title_no_40_page_1.abc -O ../src/torus/title_no_40_page_1.svg -->
<g stroke-width="0.70" style="font:italic 14.00px Times">
<text x="10.00" y="28.00">Procedurally Generated</text>
<!-- title: Torus:Taurus Tune -->
</g>
<g stroke-width="0.70" style="font:20.00px Times">
<text x="604.30" y="28.00" text-anchor="middle">Torus:Taurus Tune</text>
</g>
<g stroke-width="0.70" style="font:italic 14.00px Times">
<text x="1198.60" y="28.00" text-anchor="end">(Sid.)</text>
<text x="1198.60" y="43.40" text-anchor="end">Jeff Minter</text>
<!-- subtitle: 40 of 100,000,000,000,000 -->
</g>
<g stroke-width="0.70" style="font:16.00px Times">
<text x="604.30" y="64.00" text-anchor="middle">40 of 100,000,000,000,000</text>
</g>
<g stroke-width="0.70" style="font:bold 13.00px Times">
<text x="38.28" y="224.90" text-anchor="middle">Voice 3</text>
<text x="38.28" y="166.90" text-anchor="middle">Voice 2</text>
<text x="38.28" y="108.90" text-anchor="middle">Voice 1</text>
<path class="stroke" stroke-width="1"
	d="M66.48 233.00v-140.00"/>
<path class="stroke" stroke-width="1"
	d="M158.78 175.00v-24.00"/>
<path class="stroke" stroke-width="1"
	d="M158.78 233.00v-58.00"/>
<path class="stroke" stroke-width="1"
	d="M220.88 175.00v-24.00"/>
<path class="stroke" stroke-width="1"
	d="M220.88 233.00v-58.00"/>
<path class="stroke" stroke-width="1"
	d="M274.28 175.00v-24.00"/>
<path class="stroke" stroke-width="1"
	d="M274.28 233.00v-58.00"/>
<path class="stroke" stroke-width="1"
	d="M327.58 117.00v-24.00"/>
<path class="stroke" stroke-width="1"
	d="M327.58 175.00v-58.00"/>
<path class="stroke" stroke-width="1"
	d="M327.58 233.00v-58.00"/>
<path class="stroke" stroke-width="1"
	d="M343.58 117.00v-24.00"/>
<path class="stroke" stroke-width="1"
	d="M359.58 117.00v-24.00"/>
<path class="stroke" stroke-width="1"
	d="M375.58 117.00v-24.00"/>
<path class="stroke" stroke-width="1"
	d="M449.98 175.00v-24.00"/>
<path class="stroke" stroke-width="1"
	d="M449.98 233.00v-58.00"/>
<path class="stroke" stroke-width="1"
	d="M527.28 175.00v-24.00"/>
<path class="stroke" stroke-width="1"
	d="M527.28 233.00v-58.00"/>
<path class="stroke" stroke-width="1"
	d="M589.28 175.00v-24.00"/>
<path class="stroke" stroke-width="1"
	d="M589.28 233.00v-58.00"/>
<path class="stroke" stroke-width="1"
	d="M651.38 117.00v-24.00"/>
<path class="stroke" stroke-width="1"
	d="M651.38 175.00v-58.00"/>
<path class="stroke" stroke-width="1"
	d="M651.38 233.00v-58.00"/>
<path class="stroke" stroke-width="1"
	d="M667.38 117.00v-24.00"/>
<path class="stroke" stroke-width="1"
	d="M683.38 117.00v-24.00"/>
<path class="stroke" stroke-width="1"
	d="M699.38 117.00v-24.00"/>
<path class="stroke" stroke-width="1"
	d="M753.68 175.00v-24.00"/>
<path class="stroke" stroke-width="1"
	d="M753.68 233.00v-58.00"/>
<path class="stroke" stroke-width="1"
	d="M815.78 175.00v-24.00"/>
<path class="stroke" stroke-width="1"
	d="M815.78 233.00v-58.00"/>
<path class="stroke" stroke-width="1"
	d="M869.18 175.00v-24.00"/>
<path class="stroke" stroke-width="1"
	d="M869.18 233.00v-58.00"/>
<path class="stroke" stroke-width="1"
	d="M922.48 117.00v-24.00"/>
<path class="stroke" stroke-width="1"
	d="M922.48 175.00v-58.00"/>
<path class="stroke" stroke-width="1"
	d="M922.48 233.00v-58.00"/>
<path class="stroke" stroke-width="1"
	d="M938.48 117.00v-24.00"/>
<path class="stroke" stroke-width="1"
	d="M954.48 117.00v-24.00"/>
<path class="stroke" stroke-width="1"
	d="M970.48 117.00v-24.00"/>
<path class="stroke" stroke-width="1"
	d="M1024.88 175.00v-24.00"/>
<path class="stroke" stroke-width="1"
	d="M1024.88 233.00v-58.00"/>
<path class="stroke" stroke-width="1"
	d="M1086.88 175.00v-24.00"/>
<path class="stroke" stroke-width="1"
	d="M1086.88 233.00v-58.00"/>
<path class="stroke" stroke-width="1"
	d="M1140.28 175.00v-24.00"/>
<path class="stroke" stroke-width="1"
	d="M1140.28 233.00v-58.00"/>
<path class="stroke" stroke-width="1"
	d="M1198.58 117.00v-24.00"/>
<path class="stroke" stroke-width="1"
	d="M1198.58 175.00v-58.00"/>
<path class="stroke" stroke-width="1"
	d="M1198.58 233.00v-58.00"/>
<defs>
<g id="rdots" class="fill">
	<circle cx="0" cy="-9" r="1.2"/>
	<circle cx="0" cy="-15" r="1.2"/>
</g>
</defs>
<use x="1194.58" y="233.00" xlink:href="#rdots"/>
<path class="stroke" stroke-width="1"
	d="M1190.58 233.00v-58.00"/>
<path d="m66.48 117.00
	h1132.10
	M66.48 111.00
	h1132.10
	M66.48 105.00
	h1132.10
	M66.48 99.00
	h1132.10
	M66.48 93.00
	h1132.10
	" class="stroke"/>
<path d="m66.48 175.00
	h1132.10
	M66.48 169.00
	h1132.10
	M66.48 163.00
	h1132.10
	M66.48 157.00
	h1132.10
	M66.48 151.00
	h1132.10
	" class="stroke"/>
<path d="m66.48 233.00
	h1132.10
	M66.48 227.00
	h1132.10
	M66.48 221.00
	h1132.10
	M66.48 215.00
	h1132.10
	M66.48 209.00
	h1132.10
	" class="stroke"/>
<defs>
<path id="utclef" class="fill" d="m-50 -90
	c-72 -41 -72 -158 52 -188
	150 -10 220 188 90 256
	-114 52 -275 0 -293 -136
	-15 -181 93 -229 220 -334
	88 -87 79 -133 62 -210
	-51 33 -94 105 -89 186
	17 267 36 374 49 574
	6 96 -19 134 -77 135
	-80 1 -126 -93 -61 -133
	85 -41 133 101 31 105
	23 17 92 37 90 -92
	-10 -223 -39 -342 -50 -617
	0 -90 0 -162 96 -232
	56 72 63 230 22 289
	-74 106 -257 168 -255 316
	9 153 148 185 252 133
	86 -65 29 -192 -80 -176
	-71 12 -105 67 -59 124"/>
<use id="tclef" transform="translate(0,6) scale(0.045)"
	xlink:href="#utclef"/>
</defs>
<use x="78.48" y="111.00" xlink:href="#tclef"/>
<defs>
<path id="usharp" class="fill" d="
	m136 -702
	v890
	h32
	v-890
	m128 840
	h32
	v-888
	h-32
	m-232 286
	v116
	l338 -96
	v-116
	m-338 442
	v116
	l338 -98
	v-114"/>
<use id="sh0" transform="translate(-4,5) scale(0.018)"
	xlink:href="#usharp"/>
</defs>
<use x="93.48" y="93.00" xlink:href="#sh0"/>
<use x="98.98" y="102.00" xlink:href="#sh0"/>
<defs>
<path id="HD" class="fill" d="m-2.7 -1.4
	c1.5 -2.8 6.9 0 5.3 2.7
	-1.5 2.8 -6.9 0 -5.3 -2.7
	m8.3 1.4
	c0 -1.5 -2.2 -3 -5.6 -3
	-3.4 0 -5.6 1.5 -5.6 3
	0 1.5 2.2 3 5.6 3
	3.4 0 5.6 -1.5 5.6 -3"/>
<g id="HDD">
	<use xlink:href="#HD"/>
	<path d="m-6 -4v8m12 0v-8" class="stroke"/>
</g>
</defs>
<use x="119.48" y="120.00" xlink:href="#HDD"/>
<defs>
<path id="hl1" class="stroke" d="m-7 0h14"/>
</defs>
<use x="401.88" y="123.00" xlink:href="#hl1"/>
<use x="401.88" y="129.00" xlink:href="#hl1"/>
<use x="401.88" y="129.00" xlink:href="#HDD"/>
<use x="386.08" y="129.00" xlink:href="#sh0"/>
<use x="714.38" y="120.00" xlink:href="#HDD"/>
<use x="985.48" y="120.00" xlink:href="#HDD"/>
<use x="78.48" y="169.00" xlink:href="#tclef"/>
<use x="93.48" y="151.00" xlink:href="#sh0"/>
<use x="98.98" y="160.00" xlink:href="#sh0"/>
<defs>
<path id="Hd" class="fill" d="m3 -1.6
	c-1 -1.8 -7 1.4 -6 3.2
	1 1.8 7 -1.4 6 -3.2
	m0.5 -0.3
	c2 3.8 -5 7.6 -7 3.8
	-2 -3.8 5 -7.6 7 -3.8"/>
</defs>
<use x="118.48" y="166.00" xlink:href="#Hd"/>
<path d="M121.98 166.00v-21.00" class="stroke"/>
<use x="171.78" y="172.00" xlink:href="#Hd"/>
<path d="M175.28 172.00v-21.00" class="stroke"/>
<use x="233.88" y="166.00" xlink:href="#Hd"/>
<path d="M237.38 166.00v-21.00" class="stroke"/>
<use x="287.28" y="166.00" xlink:href="#Hd"/>
<path d="M290.78 166.00v-21.00" class="stroke"/>
<use x="400.88" y="172.00" xlink:href="#Hd"/>
<path d="M404.38 172.00v-21.00" class="stroke"/>
<defs>
<path id="hl" class="stroke" d="m-6 0h12"/>
</defs>
<use x="469.48" y="181.00" xlink:href="#hl"/>
<use x="469.48" y="181.00" xlink:href="#Hd"/>
<use x="459.48" y="181.00" xlink:href="#sh0"/>
<path d="M472.98 181.00v-21.00" class="stroke"/>
<use x="540.28" y="172.00" xlink:href="#Hd"/>
<path d="M543.78 172.00v-21.00" class="stroke"/>
<use x="602.28" y="172.00" xlink:href="#Hd"/>
<path d="M605.78 172.00v-21.00" class="stroke"/>
<use x="713.38" y="166.00" xlink:href="#Hd"/>
<path d="M716.88 166.00v-21.00" class="stroke"/>
<use x="766.68" y="172.00" xlink:href="#Hd"/>
<path d="M770.18 172.00v-21.00" class="stroke"/>
<use x="828.78" y="166.00" xlink:href="#Hd"/>
<path d="M832.28 166.00v-21.00" class="stroke"/>
<use x="882.18" y="166.00" xlink:href="#Hd"/>
<path d="M885.68 166.00v-21.00" class="stroke"/>
<use x="984.48" y="166.00" xlink:href="#Hd"/>
<path d="M987.98 166.00v-21.00" class="stroke"/>
<use x="1037.88" y="172.00" xlink:href="#Hd"/>
<path d="M1041.38 172.00v-21.00" class="stroke"/>
<use x="1099.88" y="166.00" xlink:href="#Hd"/>
<path d="M1103.38 166.00v-21.00" class="stroke"/>
<use x="1153.28" y="166.00" xlink:href="#Hd"/>
<path d="M1156.78 166.00v-21.00" class="stroke"/>
<use x="78.48" y="227.00" xlink:href="#tclef"/>
<use x="93.48" y="209.00" xlink:href="#sh0"/>
<use x="98.98" y="218.00" xlink:href="#sh0"/>
<path class="fill"
	d="M114.68 235.90l28.50 0.00v-3.20l-28.50 -0.00"/>
<defs>
<ellipse id="hd" rx="4.1" ry="2.9"
	transform="rotate(-20)" class="fill"/>
</defs>
<use x="118.48" y="212.00" xlink:href="#hd"/>
<path d="M114.98 212.00v23.00" class="stroke"/>
<use x="127.78" y="218.00" xlink:href="#hd"/>
<path d="M124.28 218.00v17.00" class="stroke"/>
<use x="137.08" y="212.00" xlink:href="#hd"/>
<path d="M133.58 212.00v23.00" class="stroke"/>
<use x="146.28" y="212.00" xlink:href="#hd"/>
<path d="M142.78 212.00v23.00" class="stroke"/>
<path class="fill"
	d="M174.98 198.80l37.20 0.00v3.20l-37.20 -0.00"/>
<use x="171.78" y="218.00" xlink:href="#hd"/>
<path d="M175.28 218.00v-18.20" class="stroke"/>
<use x="189.78" y="227.00" xlink:href="#hd"/>
<use x="180.78" y="227.00" xlink:href="#sh0"/>
<path d="M193.28 227.00v-27.20" class="stroke"/>
<use x="199.08" y="218.00" xlink:href="#hd"/>
<path d="M202.58 218.00v-18.20" class="stroke"/>
<use x="208.38" y="218.00" xlink:href="#hd"/>
<path d="M211.88 218.00v-18.20" class="stroke"/>
<path class="fill"
	d="M230.08 235.90l28.50 0.00v-3.20l-28.50 -0.00"/>
<use x="233.88" y="212.00" xlink:href="#hd"/>
<path d="M230.38 212.00v23.00" class="stroke"/>
<use x="243.18" y="218.00" xlink:href="#hd"/>
<path d="M239.68 218.00v17.00" class="stroke"/>
<use x="252.48" y="212.00" xlink:href="#hd"/>
<path d="M248.98 212.00v23.00" class="stroke"/>
<use x="261.78" y="212.00" xlink:href="#hd"/>
<path d="M258.28 212.00v23.00" class="stroke"/>
<path class="fill"
	d="M283.38 235.90l28.50 0.00v-3.20l-28.50 -0.00"/>
<use x="287.28" y="212.00" xlink:href="#hd"/>
<path d="M283.78 212.00v23.00" class="stroke"/>
<use x="296.48" y="218.00" xlink:href="#hd"/>
<path d="M292.98 218.00v17.00" class="stroke"/>
<use x="305.78" y="212.00" xlink:href="#hd"/>
<path d="M302.28 212.00v23.00" class="stroke"/>
<use x="315.08" y="212.00" xlink:href="#hd"/>
<path d="M311.58 212.00v23.00" class="stroke"/>
<path class="fill"
	d="M404.08 198.80l37.20 0.00v3.20l-37.20 -0.00"/>
<use x="400.88" y="218.00" xlink:href="#hd"/>
<path d="M404.38 218.00v-18.20" class="stroke"/>
<use x="418.88" y="227.00" xlink:href="#hd"/>
<use x="409.88" y="227.00" xlink:href="#sh0"/>
<path d="M422.38 227.00v-27.20" class="stroke"/>
<use x="428.18" y="218.00" xlink:href="#hd"/>
<path d="M431.68 218.00v-18.20" class="stroke"/>
<use x="437.48" y="218.00" xlink:href="#hd"/>
<path d="M440.98 218.00v-18.20" class="stroke"/>
<path class="fill"
	d="M472.58 208.80l46.00 0.00v3.20l-46.00 -0.00"/>
<use x="469.48" y="227.00" xlink:href="#hd"/>
<use x="460.48" y="227.00" xlink:href="#sh0"/>
<path d="M472.98 227.00v-17.20" class="stroke"/>
<use x="478.78" y="233.00" xlink:href="#hd"/>
<path d="M482.28 233.00v-23.20" class="stroke"/>
<use x="496.78" y="227.00" xlink:href="#hd"/>
<use x="487.78" y="227.00" xlink:href="#sh0"/>
<path d="M500.28 227.00v-17.20" class="stroke"/>
<use x="514.78" y="227.00" xlink:href="#hd"/>
<use x="505.78" y="227.00" xlink:href="#sh0"/>
<path d="M518.28 227.00v-17.20" class="stroke"/>
<path class="fill"
	d="M543.38 198.80l37.20 0.00v3.20l-37.20 -0.00"/>
<use x="540.28" y="218.00" xlink:href="#hd"/>
<path d="M543.78 218.00v-18.20" class="stroke"/>
<use x="558.28" y="227.00" xlink:href="#hd"/>
<use x="549.28" y="227.00" xlink:href="#sh0"/>
<path d="M561.78 227.00v-27.20" class="stroke"/>
<use x="567.48" y="218.00" xlink:href="#hd"/>
<path d="M570.98 218.00v-18.20" class="stroke"/>
<use x="576.78" y="218.00" xlink:href="#hd"/>
<path d="M580.28 218.00v-18.20" class="stroke"/>
<path class="fill"
	d="M605.48 198.80l37.20 0.00v3.20l-37.20 -0.00"/>
<use x="602.28" y="218.00" xlink:href="#hd"/>
<path d="M605.78 218.00v-18.20" class="stroke"/>
<use x="620.28" y="227.00" xlink:href="#hd"/>
<use x="611.28" y="227.00" xlink:href="#sh0"/>
<path d="M623.78 227.00v-27.20" class="stroke"/>
<use x="629.58" y="218.00" xlink:href="#hd"/>
<path d="M633.08 218.00v-18.20" class="stroke"/>
<use x="638.88" y="218.00" xlink:href="#hd"/>
<path d="M642.38 218.00v-18.20" class="stroke"/>
<path class="fill"
	d="M709.58 235.90l28.50 0.00v-3.20l-28.50 -0.00"/>
<use x="713.38" y="212.00" xlink:href="#hd"/>
<path d="M709.88 212.00v23.00" class="stroke"/>
<use x="722.68" y="218.00" xlink:href="#hd"/>
<path d="M719.18 218.00v17.00" class="stroke"/>
<use x="731.98" y="212.00" xlink:href="#hd"/>
<path d="M728.48 212.00v23.00" class="stroke"/>
<use x="741.18" y="212.00" xlink:href="#hd"/>
<path d="M737.68 212.00v23.00" class="stroke"/>
<path class="fill"
	d="M769.88 198.80l37.20 0.00v3.20l-37.20 -0.00"/>
<use x="766.68" y="218.00" xlink:href="#hd"/>
<path d="M770.18 218.00v-18.20" class="stroke"/>
<use x="784.68" y="227.00" xlink:href="#hd"/>
<use x="775.68" y="227.00" xlink:href="#sh0"/>
<path d="M788.18 227.00v-27.20" class="stroke"/>
<use x="793.98" y="218.00" xlink:href="#hd"/>
<path d="M797.48 218.00v-18.20" class="stroke"/>
<use x="803.28" y="218.00" xlink:href="#hd"/>
<path d="M806.78 218.00v-18.20" class="stroke"/>
<path class="fill"
	d="M824.98 235.90l28.50 0.00v-3.20l-28.50 -0.00"/>
<use x="828.78" y="212.00" xlink:href="#hd"/>
<path d="M825.28 212.00v23.00" class="stroke"/>
<use x="838.08" y="218.00" xlink:href="#hd"/>
<path d="M834.58 218.00v17.00" class="stroke"/>
<use x="847.38" y="212.00" xlink:href="#hd"/>
<path d="M843.88 212.00v23.00" class="stroke"/>
<use x="856.68" y="212.00" xlink:href="#hd"/>
<path d="M853.18 212.00v23.00" class="stroke"/>
<path class="fill"
	d="M878.28 235.90l28.50 0.00v-3.20l-28.50 -0.00"/>
<use x="882.18" y="212.00" xlink:href="#hd"/>
<path d="M878.68 212.00v23.00" class="stroke"/>
<use x="891.38" y="218.00" xlink:href="#hd"/>
<path d="M887.88 218.00v17.00" class="stroke"/>
<use x="900.68" y="212.00" xlink:href="#hd"/>
<path d="M897.18 212.00v23.00" class="stroke"/>
<use x="909.98" y="212.00" xlink:href="#hd"/>
<path d="M906.48 212.00v23.00" class="stroke"/>
<path class="fill"
	d="M980.68 235.90l28.50 0.00v-3.20l-28.50 -0.00"/>
<use x="984.48" y="212.00" xlink:href="#hd"/>
<path d="M980.98 212.00v23.00" class="stroke"/>
<use x="993.78" y="218.00" xlink:href="#hd"/>
<path d="M990.28 218.00v17.00" class="stroke"/>
<use x="1003.08" y="212.00" xlink:href="#hd"/>
<path d="M999.58 212.00v23.00" class="stroke"/>
<use x="1012.38" y="212.00" xlink:href="#hd"/>
<path d="M1008.88 212.00v23.00" class="stroke"/>
<path class="fill"
	d="M1040.98 198.80l37.20 0.00v3.20l-37.20 -0.00"/>
<use x="1037.88" y="218.00" xlink:href="#hd"/>
<path d="M1041.38 218.00v-18.20" class="stroke"/>
<use x="1055.88" y="227.00" xlink:href="#hd"/>
<use x="1046.88" y="227.00" xlink:href="#sh0"/>
<path d="M1059.38 227.00v-27.20" class="stroke"/>
<use x="1065.08" y="218.00" xlink:href="#hd"/>
<path d="M1068.58 218.00v-18.20" class="stroke"/>
<use x="1074.38" y="218.00" xlink:href="#hd"/>
<path d="M1077.88 218.00v-18.20" class="stroke"/>
<path class="fill"
	d="M1096.08 235.90l28.50 0.00v-3.20l-28.50 -0.00"/>
<use x="1099.88" y="212.00" xlink:href="#hd"/>
<path d="M1096.38 212.00v23.00" class="stroke"/>
<use x="1109.18" y="218.00" xlink:href="#hd"/>
<path d="M1105.68 218.00v17.00" class="stroke"/>
<use x="1118.48" y="212.00" xlink:href="#hd"/>
<path d="M1114.98 212.00v23.00" class="stroke"/>
<use x="1127.78" y="212.00" xlink:href="#hd"/>
<path d="M1124.28 212.00v23.00" class="stroke"/>
<path class="fill"
	d="M1149.38 235.90l28.50 0.00v-3.20l-28.50 -0.00"/>
<use x="1153.28" y="212.00" xlink:href="#hd"/>
<path d="M1149.78 212.00v23.00" class="stroke"/>
<use x="1162.58" y="218.00" xlink:href="#hd"/>
<path d="M1159.08 218.00v17.00" class="stroke"/>
<use x="1171.78" y="212.00" xlink:href="#hd"/>
<path d="M1168.28 212.00v23.00" class="stroke"/>
<use x="1181.08" y="212.00" xlink:href="#hd"/>
<path d="M1177.58 212.00v23.00" class="stroke"/>
</g>
</svg>
