<?xml version="1.0" standalone="no"?>
<!DOCTYPE svg PUBLIC "-//W3C//DTD SVG 1.1//EN"
	"http://www.w3.org/Graphics/SVG/1.1/DTD/svg11.dtd">
<svg xmlns="http://www.w3.org/2000/svg" version="1.1"
	xmlns:xlink="http://www.w3.org/1999/xlink"
	color="black"
	width="1208.60px" height="442.00px">
<style type="text/css">
.fill {fill: currentColor}
.stroke {stroke: currentColor; fill: none}
text{white-space: pre}
</style>
<title>../src/torus/title_no_1_page_1.abc (2) tune 1</title>
<!-- Creator: abcm2ps-8.14.6 -->
<!-- CreationDate: Jan 11, 2023 20:08 -->
<!-- CommandLine: -g ../src/torus/title_no_1_page_1.abc -O ../src/torus/title_no_1_page_1.svg -->
<g stroke-width="0.70" style="font:italic 14.00px Times">
<text x="10.00" y="28.00">Procedurally Generated</text>
<!-- title: Torus:Taurus Tune -->
</g>
<g stroke-width="0.70" style="font:20.00px Times">
<text x="604.30" y="28.00" text-anchor="middle">Torus:Taurus Tune</text>
</g>
<g stroke-width="0.70" style="font:italic 14.00px Times">
<text x="1198.60" y="28.00" text-anchor="end">(Sid.)</text>
<text x="1198.60" y="43.40" text-anchor="end">Jeff Minter</text>
<!-- subtitle: 1 of 100,000,000,000,000 -->
</g>
<g stroke-width="0.70" style="font:16.00px Times">
<text x="604.30" y="64.00" text-anchor="middle">1 of 100,000,000,000,000</text>
</g>
<g stroke-width="0.70" style="font:bold 13.00px Times">
<text x="38.28" y="224.90" text-anchor="middle">Voice 3</text>
<text x="38.28" y="166.90" text-anchor="middle">Voice 2</text>
<text x="38.28" y="108.90" text-anchor="middle">Voice 1</text>
<path class="stroke" stroke-width="1"
	d="M66.48 233.00v-140.00"/>
<path class="stroke" stroke-width="1"
	d="M280.28 175.00v-24.00"/>
<path class="stroke" stroke-width="1"
	d="M280.28 233.00v-58.00"/>
<path class="stroke" stroke-width="1"
	d="M442.38 175.00v-24.00"/>
<path class="stroke" stroke-width="1"
	d="M442.38 233.00v-58.00"/>
<path class="stroke" stroke-width="1"
	d="M624.98 175.00v-24.00"/>
<path class="stroke" stroke-width="1"
	d="M624.98 233.00v-58.00"/>
<path class="stroke" stroke-width="1"
	d="M807.58 117.00v-24.00"/>
<path class="stroke" stroke-width="1"
	d="M807.58 175.00v-58.00"/>
<path class="stroke" stroke-width="1"
	d="M807.58 233.00v-58.00"/>
<path class="stroke" stroke-width="1"
	d="M823.58 117.00v-24.00"/>
<path class="stroke" stroke-width="1"
	d="M839.58 117.00v-24.00"/>
<path class="stroke" stroke-width="1"
	d="M855.58 117.00v-24.00"/>
<path class="stroke" stroke-width="1"
	d="M1036.48 175.00v-24.00"/>
<path class="stroke" stroke-width="1"
	d="M1036.48 233.00v-58.00"/>
<path class="stroke" stroke-width="1"
	d="M1198.58 175.00v-24.00"/>
<path class="stroke" stroke-width="1"
	d="M1198.58 233.00v-58.00"/>
<path d="m66.48 117.00
	h1132.10
	M66.48 111.00
	h1132.10
	M66.48 105.00
	h1132.10
	M66.48 99.00
	h1132.10
	M66.48 93.00
	h1132.10
	" class="stroke"/>
<path d="m66.48 175.00
	h1132.10
	M66.48 169.00
	h1132.10
	M66.48 163.00
	h1132.10
	M66.48 157.00
	h1132.10
	M66.48 151.00
	h1132.10
	" class="stroke"/>
<path d="m66.48 233.00
	h1132.10
	M66.48 227.00
	h1132.10
	M66.48 221.00
	h1132.10
	M66.48 215.00
	h1132.10
	M66.48 209.00
	h1132.10
	" class="stroke"/>
<defs>
<path id="ubclef" class="fill" d="m-200 -87
	c124 -35 222 -78 254 -236
	43 -228 -167 -246 -192 -103
	59 -80 157 22 92 78
	-62 47 -115 -22 -106 -88
	21 -141 270 -136 274 52
	-1 175 -106 264 -322 297
	m357 -250
	c0 -36 51 -34 51 0
	0 37 -51 36 -51 0
	m-2 -129
	c0 -36 51 -34 51 0
	0 38 -51 37 -51 0"/>
<use id="bclef" transform="translate(0,18) scale(0.045)"
	xlink:href="#ubclef"/>
</defs>
<use x="78.48" y="99.00" xlink:href="#bclef"/>
<defs>
<path id="usharp" class="fill" d="
	m136 -702
	v890
	h32
	v-890
	m128 840
	h32
	v-888
	h-32
	m-232 286
	v116
	l338 -96
	v-116
	m-338 442
	v116
	l338 -98
	v-114"/>
<use id="sh0" transform="translate(-4,5) scale(0.018)"
	xlink:href="#usharp"/>
</defs>
<use x="93.48" y="99.00" xlink:href="#sh0"/>
<use x="98.98" y="108.00" xlink:href="#sh0"/>
<defs>
<path id="HD" class="fill" d="m-2.7 -1.4
	c1.5 -2.8 6.9 0 5.3 2.7
	-1.5 2.8 -6.9 0 -5.3 -2.7
	m8.3 1.4
	c0 -1.5 -2.2 -3 -5.6 -3
	-3.4 0 -5.6 1.5 -5.6 3
	0 1.5 2.2 3 5.6 3
	3.4 0 5.6 -1.5 5.6 -3"/>
<g id="HDD">
	<use xlink:href="#HD"/>
	<path d="m-6 -4v8m12 0v-8" class="stroke"/>
</g>
</defs>
<use x="119.48" y="108.00" xlink:href="#HDD"/>
<defs>
<path id="hl1" class="stroke" d="m-7 0h14"/>
</defs>
<use x="871.18" y="87.00" xlink:href="#hl1"/>
<use x="871.18" y="87.00" xlink:href="#HDD"/>
<use x="78.48" y="157.00" xlink:href="#bclef"/>
<use x="93.48" y="157.00" xlink:href="#sh0"/>
<use x="98.98" y="166.00" xlink:href="#sh0"/>
<defs>
<path id="Hd" class="fill" d="m3 -1.6
	c-1 -1.8 -7 1.4 -6 3.2
	1 1.8 7 -1.4 6 -3.2
	m0.5 -0.3
	c2 3.8 -5 7.6 -7 3.8
	-2 -3.8 5 -7.6 7 -3.8"/>
</defs>
<use x="118.48" y="166.00" xlink:href="#Hd"/>
<path d="M121.98 166.00v-21.00" class="stroke"/>
<defs>
<path id="hl" class="stroke" d="m-6 0h12"/>
</defs>
<use x="301.08" y="145.00" xlink:href="#hl"/>
<use x="301.08" y="145.00" xlink:href="#Hd"/>
<path d="M297.58 145.00v21.00" class="stroke"/>
<use x="463.18" y="151.00" xlink:href="#Hd"/>
<path d="M459.68 151.00v21.00" class="stroke"/>
<use x="645.78" y="163.00" xlink:href="#Hd"/>
<use x="635.78" y="163.00" xlink:href="#sh0"/>
<path d="M642.28 163.00v21.00" class="stroke"/>
<use x="870.18" y="145.00" xlink:href="#hl"/>
<use x="870.18" y="145.00" xlink:href="#Hd"/>
<path d="M866.68 145.00v21.00" class="stroke"/>
<defs>
<path id="utclef" class="fill" d="m-50 -90
	c-72 -41 -72 -158 52 -188
	150 -10 220 188 90 256
	-114 52 -275 0 -293 -136
	-15 -181 93 -229 220 -334
	88 -87 79 -133 62 -210
	-51 33 -94 105 -89 186
	17 267 36 374 49 574
	6 96 -19 134 -77 135
	-80 1 -126 -93 -61 -133
	85 -41 133 101 31 105
	23 17 92 37 90 -92
	-10 -223 -39 -342 -50 -617
	0 -90 0 -162 96 -232
	56 72 63 230 22 289
	-74 106 -257 168 -255 316
	9 153 148 185 252 133
	86 -65 29 -192 -80 -176
	-71 12 -105 67 -59 124"/>
<use id="stclef" transform="translate(0,5.4) scale(0.037)"
	xlink:href="#utclef"/>
</defs>
<use x="1013.98" y="169.00" xlink:href="#stclef"/>
<use x="1057.28" y="160.00" xlink:href="#Hd"/>
<path d="M1053.78 160.00v21.00" class="stroke"/>
<use x="78.48" y="215.00" xlink:href="#bclef"/>
<use x="93.48" y="215.00" xlink:href="#sh0"/>
<use x="98.98" y="224.00" xlink:href="#sh0"/>
<path class="fill"
	d="M114.68 243.20l112.90 0.00v-3.20l-112.90 -0.00"/>
<defs>
<ellipse id="hd" rx="4.1" ry="2.9"
	transform="rotate(-20)" class="fill"/>
</defs>
<use x="118.48" y="224.00" xlink:href="#hd"/>
<path d="M114.98 224.00v18.20" class="stroke"/>
<use x="155.88" y="203.00" xlink:href="#hl"/>
<use x="155.88" y="203.00" xlink:href="#hd"/>
<path d="M152.38 203.00v39.20" class="stroke"/>
<use x="193.28" y="209.00" xlink:href="#hd"/>
<path d="M189.78 209.00v33.20" class="stroke"/>
<use x="230.68" y="221.00" xlink:href="#hd"/>
<use x="221.68" y="221.00" xlink:href="#sh0"/>
<path d="M227.18 221.00v21.20" class="stroke"/>
<use x="262.28" y="227.00" xlink:href="#stclef"/>
<path class="fill"
	d="M304.18 198.80l112.90 0.00v3.20l-112.90 -0.00"/>
<use x="301.08" y="239.00" xlink:href="#hl"/>
<use x="301.08" y="239.00" xlink:href="#hd"/>
<path d="M304.58 239.00v-39.20" class="stroke"/>
<use x="338.48" y="218.00" xlink:href="#hd"/>
<path d="M341.98 218.00v-18.20" class="stroke"/>
<use x="375.88" y="224.00" xlink:href="#hd"/>
<path d="M379.38 224.00v-24.20" class="stroke"/>
<use x="413.28" y="236.00" xlink:href="#hd"/>
<use x="404.28" y="236.00" xlink:href="#sh0"/>
<path d="M416.78 236.00v-36.20" class="stroke"/>
<path class="fill"
	d="M466.28 206.10l112.90 0.00v3.20l-112.90 -0.00"/>
<use x="463.18" y="239.00" xlink:href="#hl"/>
<use x="463.18" y="245.00" xlink:href="#hl"/>
<use x="463.18" y="245.00" xlink:href="#hd"/>
<path d="M466.68 245.00v-38.00" class="stroke"/>
<use x="500.58" y="224.00" xlink:href="#hd"/>
<path d="M504.08 224.00v-17.00" class="stroke"/>
<use x="537.98" y="230.00" xlink:href="#hd"/>
<use x="528.98" y="230.00" xlink:href="#sh0"/>
<path d="M541.48 230.00v-23.00" class="stroke"/>
<use x="575.38" y="239.00" xlink:href="#hl"/>
<use x="575.38" y="239.00" xlink:href="#hd"/>
<path d="M578.88 239.00v-32.00" class="stroke"/>
<defs>
<use id="sbclef" transform="translate(0,14.5) scale(0.037)"
	xlink:href="#ubclef"/>
</defs>
<use x="606.98" y="215.00" xlink:href="#sbclef"/>
<path class="fill"
	d="M641.88 240.20l112.90 0.00v-3.20l-112.90 -0.00"/>
<use x="645.78" y="221.00" xlink:href="#hd"/>
<use x="636.78" y="221.00" xlink:href="#sh0"/>
<path d="M642.28 221.00v18.20" class="stroke"/>
<use x="683.18" y="203.00" xlink:href="#hl"/>
<use x="683.18" y="200.00" xlink:href="#hd"/>
<use x="674.18" y="200.00" xlink:href="#sh0"/>
<path d="M679.68 200.00v39.20" class="stroke"/>
<use x="720.58" y="203.00" xlink:href="#hl"/>
<use x="720.58" y="203.00" xlink:href="#hd"/>
<path d="M717.08 203.00v36.20" class="stroke"/>
<use x="757.98" y="215.00" xlink:href="#hd"/>
<use x="748.98" y="215.00" xlink:href="#sh0"/>
<path d="M754.48 215.00v24.20" class="stroke"/>
<use x="789.58" y="227.00" xlink:href="#stclef"/>
<path class="fill"
	d="M873.38 198.80l112.90 0.00v3.20l-112.90 -0.00"/>
<use x="870.18" y="239.00" xlink:href="#hl"/>
<use x="870.18" y="239.00" xlink:href="#hd"/>
<path d="M873.68 239.00v-39.20" class="stroke"/>
<use x="907.58" y="218.00" xlink:href="#hd"/>
<path d="M911.08 218.00v-18.20" class="stroke"/>
<use x="944.98" y="224.00" xlink:href="#hd"/>
<path d="M948.48 224.00v-24.20" class="stroke"/>
<use x="982.48" y="236.00" xlink:href="#hd"/>
<use x="973.48" y="236.00" xlink:href="#sh0"/>
<path d="M985.98 236.00v-36.20" class="stroke"/>
<path class="fill"
	d="M1053.48 235.90l112.90 0.00v-3.20l-112.90 -0.00"/>
<use x="1057.28" y="218.00" xlink:href="#hd"/>
<path d="M1053.78 218.00v17.00" class="stroke"/>
<use x="1094.68" y="203.00" xlink:href="#hl"/>
<use x="1094.68" y="197.00" xlink:href="#hl"/>
<use x="1094.68" y="197.00" xlink:href="#hd"/>
<path d="M1091.18 197.00v38.00" class="stroke"/>
<use x="1132.08" y="203.00" xlink:href="#hl"/>
<use x="1132.08" y="203.00" xlink:href="#hd"/>
<path d="M1128.58 203.00v32.00" class="stroke"/>
<use x="1169.48" y="215.00" xlink:href="#hd"/>
<use x="1160.48" y="215.00" xlink:href="#sh0"/>
<path d="M1165.98 215.00v20.00" class="stroke"/>
</g>
<g stroke-width="0.70" style="font:bold 13.00px Times">
<path class="stroke" stroke-width="1"
	d="M10.00 419.00v-140.00"/>
<path class="stroke" stroke-width="1"
	d="M143.80 361.00v-24.00"/>
<path class="stroke" stroke-width="1"
	d="M143.80 419.00v-58.00"/>
<path class="stroke" stroke-width="1"
	d="M247.10 303.00v-24.00"/>
<path class="stroke" stroke-width="1"
	d="M247.10 361.00v-58.00"/>
<path class="stroke" stroke-width="1"
	d="M247.10 419.00v-58.00"/>
<path class="stroke" stroke-width="1"
	d="M263.10 303.00v-24.00"/>
<path class="stroke" stroke-width="1"
	d="M279.10 303.00v-24.00"/>
<path class="stroke" stroke-width="1"
	d="M295.10 303.00v-24.00"/>
<path class="stroke" stroke-width="1"
	d="M392.00 361.00v-24.00"/>
<path class="stroke" stroke-width="1"
	d="M392.00 419.00v-58.00"/>
<path class="stroke" stroke-width="1"
	d="M487.80 361.00v-24.00"/>
<path class="stroke" stroke-width="1"
	d="M487.80 419.00v-58.00"/>
<path class="stroke" stroke-width="1"
	d="M591.10 361.00v-24.00"/>
<path class="stroke" stroke-width="1"
	d="M591.10 419.00v-58.00"/>
<path class="stroke" stroke-width="1"
	d="M704.10 303.00v-24.00"/>
<path class="stroke" stroke-width="1"
	d="M704.10 361.00v-58.00"/>
<path class="stroke" stroke-width="1"
	d="M704.10 419.00v-58.00"/>
<path class="stroke" stroke-width="1"
	d="M720.10 303.00v-24.00"/>
<path class="stroke" stroke-width="1"
	d="M736.10 303.00v-24.00"/>
<path class="stroke" stroke-width="1"
	d="M752.10 303.00v-24.00"/>
<path class="stroke" stroke-width="1"
	d="M878.50 361.00v-24.00"/>
<path class="stroke" stroke-width="1"
	d="M878.50 419.00v-58.00"/>
<path class="stroke" stroke-width="1"
	d="M981.80 361.00v-24.00"/>
<path class="stroke" stroke-width="1"
	d="M981.80 419.00v-58.00"/>
<path class="stroke" stroke-width="1"
	d="M1094.80 361.00v-24.00"/>
<path class="stroke" stroke-width="1"
	d="M1094.80 419.00v-58.00"/>
<path class="stroke" stroke-width="1"
	d="M1198.60 303.00v-24.00"/>
<path class="stroke" stroke-width="1"
	d="M1198.60 361.00v-58.00"/>
<path class="stroke" stroke-width="1"
	d="M1198.60 419.00v-58.00"/>
<defs>
<g id="rdots" class="fill">
	<circle cx="0" cy="-9" r="1.2"/>
	<circle cx="0" cy="-15" r="1.2"/>
</g>
</defs>
<use x="1194.60" y="419.00" xlink:href="#rdots"/>
<path class="stroke" stroke-width="1"
	d="M1190.60 419.00v-58.00"/>
<path d="m10.00 303.00
	h1188.60
	M10.00 297.00
	h1188.60
	M10.00 291.00
	h1188.60
	M10.00 285.00
	h1188.60
	M10.00 279.00
	h1188.60
	" class="stroke"/>
<path d="m10.00 361.00
	h1188.60
	M10.00 355.00
	h1188.60
	M10.00 349.00
	h1188.60
	M10.00 343.00
	h1188.60
	M10.00 337.00
	h1188.60
	" class="stroke"/>
<path d="m10.00 419.00
	h1188.60
	M10.00 413.00
	h1188.60
	M10.00 407.00
	h1188.60
	M10.00 401.00
	h1188.60
	M10.00 395.00
	h1188.60
	" class="stroke"/>
<use x="22.00" y="285.00" xlink:href="#bclef"/>
<use x="37.00" y="285.00" xlink:href="#sh0"/>
<use x="42.50" y="294.00" xlink:href="#sh0"/>
<use x="310.10" y="279.00" xlink:href="#HDD"/>
<use x="778.40" y="291.00" xlink:href="#HDD"/>
<use x="762.60" y="291.00" xlink:href="#sh0"/>
<defs>
<use id="tclef" transform="translate(0,6) scale(0.045)"
	xlink:href="#utclef"/>
</defs>
<use x="22.00" y="355.00" xlink:href="#tclef"/>
<use x="37.00" y="337.00" xlink:href="#sh0"/>
<use x="42.50" y="346.00" xlink:href="#sh0"/>
<use x="61.00" y="352.00" xlink:href="#Hd"/>
<path d="M64.50 352.00v-21.00" class="stroke"/>
<use x="163.30" y="364.00" xlink:href="#Hd"/>
<use x="153.30" y="364.00" xlink:href="#sh0"/>
<path d="M166.80 364.00v-21.00" class="stroke"/>
<use x="309.10" y="367.00" xlink:href="#hl"/>
<use x="309.10" y="373.00" xlink:href="#hl"/>
<use x="309.10" y="373.00" xlink:href="#Hd"/>
<path d="M312.60 373.00v-24.00" class="stroke"/>
<use x="405.00" y="352.00" xlink:href="#Hd"/>
<path d="M408.50 352.00v-21.00" class="stroke"/>
<use x="507.30" y="358.00" xlink:href="#Hd"/>
<use x="497.30" y="358.00" xlink:href="#sh0"/>
<path d="M510.80 358.00v-21.00" class="stroke"/>
<use x="604.10" y="367.00" xlink:href="#hl"/>
<use x="604.10" y="367.00" xlink:href="#Hd"/>
<path d="M607.60 367.00v-21.00" class="stroke"/>
<use x="686.10" y="343.00" xlink:href="#sbclef"/>
<use x="777.40" y="349.00" xlink:href="#Hd"/>
<use x="767.40" y="349.00" xlink:href="#sh0"/>
<path d="M780.90 349.00v-21.00" class="stroke"/>
<use x="898.00" y="331.00" xlink:href="#hl"/>
<use x="898.00" y="328.00" xlink:href="#Hd"/>
<use x="888.00" y="328.00" xlink:href="#sh0"/>
<path d="M894.50 328.00v21.00" class="stroke"/>
<use x="994.80" y="331.00" xlink:href="#hl"/>
<use x="994.80" y="331.00" xlink:href="#Hd"/>
<path d="M991.30 331.00v21.00" class="stroke"/>
<use x="1114.30" y="343.00" xlink:href="#Hd"/>
<use x="1104.30" y="343.00" xlink:href="#sh0"/>
<path d="M1110.80 343.00v21.00" class="stroke"/>
<use x="22.00" y="413.00" xlink:href="#tclef"/>
<use x="37.00" y="395.00" xlink:href="#sh0"/>
<use x="42.50" y="404.00" xlink:href="#sh0"/>
<path class="fill"
	d="M57.20 429.20l66.20 0.00v-3.20l-66.20 -0.00"/>
<use x="61.00" y="410.00" xlink:href="#hd"/>
<path d="M57.50 410.00v18.20" class="stroke"/>
<use x="82.50" y="389.00" xlink:href="#hl"/>
<use x="82.50" y="389.00" xlink:href="#hd"/>
<path d="M79.00 389.00v39.20" class="stroke"/>
<use x="105.00" y="395.00" xlink:href="#hd"/>
<use x="96.00" y="395.00" xlink:href="#sh0"/>
<path d="M101.50 395.00v33.20" class="stroke"/>
<use x="126.50" y="404.00" xlink:href="#hd"/>
<path d="M123.00 404.00v24.20" class="stroke"/>
<path class="fill"
	d="M166.50 381.80l67.10 0.00v3.20l-67.10 -0.00"/>
<use x="163.30" y="422.00" xlink:href="#hd"/>
<use x="154.30" y="422.00" xlink:href="#sh0"/>
<path d="M166.80 422.00v-39.20" class="stroke"/>
<use x="185.80" y="401.00" xlink:href="#hd"/>
<use x="176.80" y="401.00" xlink:href="#sh0"/>
<path d="M189.30 401.00v-18.20" class="stroke"/>
<use x="207.30" y="404.00" xlink:href="#hd"/>
<path d="M210.80 404.00v-21.20" class="stroke"/>
<use x="229.80" y="416.00" xlink:href="#hd"/>
<use x="220.80" y="416.00" xlink:href="#sh0"/>
<path d="M233.30 416.00v-33.20" class="stroke"/>
<path class="fill"
	d="M312.30 392.10l66.20 0.00v3.20l-66.20 -0.00"/>
<use x="309.10" y="425.00" xlink:href="#hl"/>
<use x="309.10" y="431.00" xlink:href="#hl"/>
<use x="309.10" y="431.00" xlink:href="#hd"/>
<path d="M312.60 431.00v-38.00" class="stroke"/>
<use x="330.70" y="410.00" xlink:href="#hd"/>
<path d="M334.20 410.00v-17.00" class="stroke"/>
<use x="353.10" y="416.00" xlink:href="#hd"/>
<use x="344.10" y="416.00" xlink:href="#sh0"/>
<path d="M356.60 416.00v-23.00" class="stroke"/>
<use x="374.70" y="425.00" xlink:href="#hl"/>
<use x="374.70" y="425.00" xlink:href="#hd"/>
<path d="M378.20 425.00v-32.00" class="stroke"/>
<path class="fill"
	d="M401.10 429.20l66.20 0.00v-3.20l-66.20 -0.00"/>
<use x="405.00" y="410.00" xlink:href="#hd"/>
<path d="M401.50 410.00v18.20" class="stroke"/>
<use x="426.50" y="389.00" xlink:href="#hl"/>
<use x="426.50" y="389.00" xlink:href="#hd"/>
<path d="M423.00 389.00v39.20" class="stroke"/>
<use x="449.00" y="395.00" xlink:href="#hd"/>
<use x="440.00" y="395.00" xlink:href="#sh0"/>
<path d="M445.50 395.00v33.20" class="stroke"/>
<use x="470.50" y="404.00" xlink:href="#hd"/>
<path d="M467.00 404.00v24.20" class="stroke"/>
<path class="fill"
	d="M503.50 435.20l67.10 0.00v-3.20l-67.10 -0.00"/>
<use x="507.30" y="416.00" xlink:href="#hd"/>
<use x="498.30" y="416.00" xlink:href="#sh0"/>
<path d="M503.80 416.00v18.20" class="stroke"/>
<use x="529.80" y="395.00" xlink:href="#hd"/>
<use x="520.80" y="395.00" xlink:href="#sh0"/>
<path d="M526.30 395.00v39.20" class="stroke"/>
<use x="552.20" y="401.00" xlink:href="#hd"/>
<use x="543.20" y="401.00" xlink:href="#sh0"/>
<path d="M548.70 401.00v33.20" class="stroke"/>
<use x="573.80" y="410.00" xlink:href="#hd"/>
<path d="M570.30 410.00v24.20" class="stroke"/>
<path class="fill"
	d="M607.20 384.80l66.20 0.00v3.20l-66.20 -0.00"/>
<use x="604.10" y="425.00" xlink:href="#hl"/>
<use x="604.10" y="425.00" xlink:href="#hd"/>
<path d="M607.60 425.00v-39.20" class="stroke"/>
<use x="625.60" y="404.00" xlink:href="#hd"/>
<path d="M629.10 404.00v-18.20" class="stroke"/>
<use x="647.20" y="410.00" xlink:href="#hd"/>
<path d="M650.70 410.00v-24.20" class="stroke"/>
<use x="669.60" y="422.00" xlink:href="#hd"/>
<use x="660.60" y="422.00" xlink:href="#sh0"/>
<path d="M673.10 422.00v-36.20" class="stroke"/>
<use x="686.10" y="401.00" xlink:href="#sbclef"/>
<path class="fill"
	d="M773.60 426.20l67.30 0.00v-3.20l-67.30 -0.00"/>
<use x="777.40" y="407.00" xlink:href="#hd"/>
<use x="768.40" y="407.00" xlink:href="#sh0"/>
<path d="M773.90 407.00v18.20" class="stroke"/>
<use x="799.90" y="389.00" xlink:href="#hl"/>
<use x="799.90" y="386.00" xlink:href="#hd"/>
<use x="790.90" y="386.00" xlink:href="#sh0"/>
<path d="M796.40 386.00v39.20" class="stroke"/>
<use x="821.60" y="389.00" xlink:href="#hl"/>
<use x="821.60" y="389.00" xlink:href="#hd"/>
<path d="M818.10 389.00v36.20" class="stroke"/>
<use x="844.00" y="401.00" xlink:href="#hd"/>
<use x="835.00" y="401.00" xlink:href="#sh0"/>
<path d="M840.50 401.00v24.20" class="stroke"/>
<use x="860.50" y="413.00" xlink:href="#stclef"/>
<path class="fill"
	d="M901.20 381.80l67.10 0.00v3.20l-67.10 -0.00"/>
<use x="898.00" y="422.00" xlink:href="#hd"/>
<use x="889.00" y="422.00" xlink:href="#sh0"/>
<path d="M901.50 422.00v-39.20" class="stroke"/>
<use x="920.50" y="401.00" xlink:href="#hd"/>
<use x="911.50" y="401.00" xlink:href="#sh0"/>
<path d="M924.00 401.00v-18.20" class="stroke"/>
<use x="942.00" y="404.00" xlink:href="#hd"/>
<path d="M945.50 404.00v-21.20" class="stroke"/>
<use x="964.50" y="416.00" xlink:href="#hd"/>
<use x="955.50" y="416.00" xlink:href="#sh0"/>
<path d="M968.00 416.00v-33.20" class="stroke"/>
<path class="fill"
	d="M997.90 384.80l66.20 0.00v3.20l-66.20 -0.00"/>
<use x="994.80" y="425.00" xlink:href="#hl"/>
<use x="994.80" y="425.00" xlink:href="#hd"/>
<path d="M998.30 425.00v-39.20" class="stroke"/>
<use x="1016.30" y="404.00" xlink:href="#hd"/>
<path d="M1019.80 404.00v-18.20" class="stroke"/>
<use x="1037.90" y="410.00" xlink:href="#hd"/>
<path d="M1041.40 410.00v-24.20" class="stroke"/>
<use x="1060.30" y="422.00" xlink:href="#hd"/>
<use x="1051.30" y="422.00" xlink:href="#sh0"/>
<path d="M1063.80 422.00v-36.20" class="stroke"/>
<use x="1076.80" y="401.00" xlink:href="#sbclef"/>
<path class="fill"
	d="M1110.50 419.20l67.10 0.00v-3.20l-67.10 -0.00"/>
<use x="1114.30" y="401.00" xlink:href="#hd"/>
<use x="1105.30" y="401.00" xlink:href="#sh0"/>
<path d="M1110.80 401.00v17.20" class="stroke"/>
<use x="1136.80" y="389.00" xlink:href="#hl"/>
<use x="1136.80" y="383.00" xlink:href="#hl"/>
<use x="1136.80" y="380.00" xlink:href="#hd"/>
<use x="1127.80" y="380.00" xlink:href="#sh0"/>
<path d="M1133.30 380.00v38.20" class="stroke"/>
<use x="1159.20" y="389.00" xlink:href="#hl"/>
<use x="1159.20" y="386.00" xlink:href="#hd"/>
<use x="1150.20" y="386.00" xlink:href="#sh0"/>
<path d="M1155.70 386.00v32.20" class="stroke"/>
<use x="1180.80" y="395.00" xlink:href="#hd"/>
<path d="M1177.30 395.00v23.20" class="stroke"/>
</g>
</svg>
