<?xml version="1.0" standalone="no"?>
<!DOCTYPE svg PUBLIC "-//W3C//DTD SVG 1.1//EN"
	"http://www.w3.org/Graphics/SVG/1.1/DTD/svg11.dtd">
<svg xmlns="http://www.w3.org/2000/svg" version="1.1"
	xmlns:xlink="http://www.w3.org/1999/xlink"
	color="black"
	width="1208.60px" height="442.00px">
<style type="text/css">
.fill {fill: currentColor}
.stroke {stroke: currentColor; fill: none}
text{white-space: pre}
</style>
<title>../src/torus/title_no_36_page_1.abc (2) tune 1</title>
<!-- Creator: abcm2ps-8.14.6 -->
<!-- CreationDate: Jan 11, 2023 20:08 -->
<!-- CommandLine: -g ../src/torus/title_no_36_page_1.abc -O ../src/torus/title_no_36_page_1.svg -->
<g stroke-width="0.70" style="font:italic 14.00px Times">
<text x="10.00" y="28.00">Procedurally Generated</text>
<!-- title: Torus:Taurus Tune -->
</g>
<g stroke-width="0.70" style="font:20.00px Times">
<text x="604.30" y="28.00" text-anchor="middle">Torus:Taurus Tune</text>
</g>
<g stroke-width="0.70" style="font:italic 14.00px Times">
<text x="1198.60" y="28.00" text-anchor="end">(Sid.)</text>
<text x="1198.60" y="43.40" text-anchor="end">Jeff Minter</text>
<!-- subtitle: 36 of 100,000,000,000,000 -->
</g>
<g stroke-width="0.70" style="font:16.00px Times">
<text x="604.30" y="64.00" text-anchor="middle">36 of 100,000,000,000,000</text>
</g>
<g stroke-width="0.70" style="font:bold 13.00px Times">
<text x="38.28" y="224.90" text-anchor="middle">Voice 3</text>
<text x="38.28" y="166.90" text-anchor="middle">Voice 2</text>
<text x="38.28" y="108.90" text-anchor="middle">Voice 1</text>
<path class="stroke" stroke-width="1"
	d="M66.48 233.00v-140.00"/>
<path class="stroke" stroke-width="1"
	d="M279.28 175.00v-24.00"/>
<path class="stroke" stroke-width="1"
	d="M279.28 233.00v-58.00"/>
<path class="stroke" stroke-width="1"
	d="M450.68 175.00v-24.00"/>
<path class="stroke" stroke-width="1"
	d="M450.68 233.00v-58.00"/>
<path class="stroke" stroke-width="1"
	d="M622.18 175.00v-24.00"/>
<path class="stroke" stroke-width="1"
	d="M622.18 233.00v-58.00"/>
<path class="stroke" stroke-width="1"
	d="M793.58 117.00v-24.00"/>
<path class="stroke" stroke-width="1"
	d="M793.58 175.00v-58.00"/>
<path class="stroke" stroke-width="1"
	d="M793.58 233.00v-58.00"/>
<path class="stroke" stroke-width="1"
	d="M809.58 117.00v-24.00"/>
<path class="stroke" stroke-width="1"
	d="M825.58 117.00v-24.00"/>
<path class="stroke" stroke-width="1"
	d="M841.58 117.00v-24.00"/>
<path class="stroke" stroke-width="1"
	d="M1027.18 175.00v-24.00"/>
<path class="stroke" stroke-width="1"
	d="M1027.18 233.00v-58.00"/>
<path class="stroke" stroke-width="1"
	d="M1198.58 175.00v-24.00"/>
<path class="stroke" stroke-width="1"
	d="M1198.58 233.00v-58.00"/>
<path d="m66.48 117.00
	h1132.10
	M66.48 111.00
	h1132.10
	M66.48 105.00
	h1132.10
	M66.48 99.00
	h1132.10
	M66.48 93.00
	h1132.10
	" class="stroke"/>
<path d="m66.48 175.00
	h1132.10
	M66.48 169.00
	h1132.10
	M66.48 163.00
	h1132.10
	M66.48 157.00
	h1132.10
	M66.48 151.00
	h1132.10
	" class="stroke"/>
<path d="m66.48 233.00
	h1132.10
	M66.48 227.00
	h1132.10
	M66.48 221.00
	h1132.10
	M66.48 215.00
	h1132.10
	M66.48 209.00
	h1132.10
	" class="stroke"/>
<defs>
<path id="ubclef" class="fill" d="m-200 -87
	c124 -35 222 -78 254 -236
	43 -228 -167 -246 -192 -103
	59 -80 157 22 92 78
	-62 47 -115 -22 -106 -88
	21 -141 270 -136 274 52
	-1 175 -106 264 -322 297
	m357 -250
	c0 -36 51 -34 51 0
	0 37 -51 36 -51 0
	m-2 -129
	c0 -36 51 -34 51 0
	0 38 -51 37 -51 0"/>
<use id="bclef" transform="translate(0,18) scale(0.045)"
	xlink:href="#ubclef"/>
</defs>
<use x="78.48" y="99.00" xlink:href="#bclef"/>
<defs>
<path id="usharp" class="fill" d="
	m136 -702
	v890
	h32
	v-890
	m128 840
	h32
	v-888
	h-32
	m-232 286
	v116
	l338 -96
	v-116
	m-338 442
	v116
	l338 -98
	v-114"/>
<use id="sh0" transform="translate(-4,5) scale(0.018)"
	xlink:href="#usharp"/>
</defs>
<use x="93.48" y="99.00" xlink:href="#sh0"/>
<use x="98.98" y="108.00" xlink:href="#sh0"/>
<defs>
<path id="HD" class="fill" d="m-2.7 -1.4
	c1.5 -2.8 6.9 0 5.3 2.7
	-1.5 2.8 -6.9 0 -5.3 -2.7
	m8.3 1.4
	c0 -1.5 -2.2 -3 -5.6 -3
	-3.4 0 -5.6 1.5 -5.6 3
	0 1.5 2.2 3 5.6 3
	3.4 0 5.6 -1.5 5.6 -3"/>
<g id="HDD">
	<use xlink:href="#HD"/>
	<path d="m-6 -4v8m12 0v-8" class="stroke"/>
</g>
</defs>
<use x="130.78" y="105.00" xlink:href="#HDD"/>
<use x="114.98" y="105.00" xlink:href="#sh0"/>
<use x="857.48" y="96.00" xlink:href="#HDD"/>
<use x="78.48" y="157.00" xlink:href="#bclef"/>
<use x="93.48" y="157.00" xlink:href="#sh0"/>
<use x="98.98" y="166.00" xlink:href="#sh0"/>
<defs>
<path id="Hd" class="fill" d="m3 -1.6
	c-1 -1.8 -7 1.4 -6 3.2
	1 1.8 7 -1.4 6 -3.2
	m0.5 -0.3
	c2 3.8 -5 7.6 -7 3.8
	-2 -3.8 5 -7.6 7 -3.8"/>
</defs>
<use x="129.78" y="157.00" xlink:href="#Hd"/>
<use x="119.78" y="157.00" xlink:href="#sh0"/>
<path d="M126.28 157.00v21.00" class="stroke"/>
<use x="301.28" y="151.00" xlink:href="#Hd"/>
<use x="291.28" y="151.00" xlink:href="#sh0"/>
<path d="M297.78 151.00v21.00" class="stroke"/>
<use x="472.68" y="157.00" xlink:href="#Hd"/>
<use x="462.68" y="157.00" xlink:href="#sh0"/>
<path d="M469.18 157.00v21.00" class="stroke"/>
<use x="644.18" y="163.00" xlink:href="#Hd"/>
<use x="634.18" y="163.00" xlink:href="#sh0"/>
<path d="M640.68 163.00v21.00" class="stroke"/>
<use x="856.48" y="151.00" xlink:href="#Hd"/>
<use x="846.48" y="151.00" xlink:href="#sh0"/>
<path d="M852.98 151.00v21.00" class="stroke"/>
<defs>
<path id="hl" class="stroke" d="m-6 0h12"/>
</defs>
<use x="1049.08" y="145.00" xlink:href="#hl"/>
<use x="1049.08" y="142.00" xlink:href="#Hd"/>
<path d="M1045.58 142.00v21.00" class="stroke"/>
<use x="78.48" y="215.00" xlink:href="#bclef"/>
<use x="93.48" y="215.00" xlink:href="#sh0"/>
<use x="98.98" y="224.00" xlink:href="#sh0"/>
<path class="fill"
	d="M125.98 230.20l119.40 4.00v-3.20l-119.40 -4.00"/>
<defs>
<ellipse id="hd" rx="4.1" ry="2.9"
	transform="rotate(-20)" class="fill"/>
</defs>
<use x="129.78" y="209.00" xlink:href="#hd"/>
<path d="M126.28 209.00v20.20" class="stroke"/>
<use x="169.38" y="203.00" xlink:href="#hl"/>
<use x="169.38" y="203.00" xlink:href="#hd"/>
<use x="160.38" y="203.00" xlink:href="#sh0"/>
<path d="M165.88 203.00v27.50" class="stroke"/>
<use x="208.88" y="209.00" xlink:href="#hd"/>
<path d="M205.38 209.00v22.90" class="stroke"/>
<use x="248.48" y="215.00" xlink:href="#hd"/>
<use x="239.48" y="215.00" xlink:href="#sh0"/>
<path d="M244.98 215.00v18.20" class="stroke"/>
<path class="fill"
	d="M297.38 227.20l119.40 0.00v-3.20l-119.40 -0.00"/>
<use x="301.28" y="203.00" xlink:href="#hl"/>
<use x="301.28" y="203.00" xlink:href="#hd"/>
<use x="292.28" y="203.00" xlink:href="#sh0"/>
<path d="M297.78 203.00v23.20" class="stroke"/>
<use x="340.78" y="203.00" xlink:href="#hl"/>
<use x="340.78" y="197.00" xlink:href="#hl"/>
<use x="340.78" y="194.00" xlink:href="#hd"/>
<path d="M337.28 194.00v32.20" class="stroke"/>
<use x="380.38" y="203.00" xlink:href="#hl"/>
<use x="380.38" y="203.00" xlink:href="#hd"/>
<use x="371.38" y="203.00" xlink:href="#sh0"/>
<path d="M376.88 203.00v23.20" class="stroke"/>
<use x="419.98" y="209.00" xlink:href="#hd"/>
<use x="410.98" y="209.00" xlink:href="#sh0"/>
<path d="M416.48 209.00v17.20" class="stroke"/>
<path class="fill"
	d="M468.88 230.20l119.40 4.00v-3.20l-119.40 -4.00"/>
<use x="472.68" y="209.00" xlink:href="#hd"/>
<path d="M469.18 209.00v20.20" class="stroke"/>
<use x="512.28" y="203.00" xlink:href="#hl"/>
<use x="512.28" y="203.00" xlink:href="#hd"/>
<use x="503.28" y="203.00" xlink:href="#sh0"/>
<path d="M508.78 203.00v27.50" class="stroke"/>
<use x="551.78" y="209.00" xlink:href="#hd"/>
<path d="M548.28 209.00v22.90" class="stroke"/>
<use x="591.38" y="215.00" xlink:href="#hd"/>
<use x="582.38" y="215.00" xlink:href="#sh0"/>
<path d="M587.88 215.00v18.20" class="stroke"/>
<path class="fill"
	d="M640.28 236.20l119.40 4.10v-3.20l-119.40 -4.10"/>
<use x="644.18" y="215.00" xlink:href="#hd"/>
<use x="635.18" y="215.00" xlink:href="#sh0"/>
<path d="M640.68 215.00v20.20" class="stroke"/>
<use x="683.68" y="209.00" xlink:href="#hd"/>
<use x="674.68" y="209.00" xlink:href="#sh0"/>
<path d="M680.18 209.00v27.50" class="stroke"/>
<use x="723.28" y="215.00" xlink:href="#hd"/>
<use x="714.28" y="215.00" xlink:href="#sh0"/>
<path d="M719.78 215.00v22.90" class="stroke"/>
<use x="762.88" y="221.00" xlink:href="#hd"/>
<use x="753.88" y="221.00" xlink:href="#sh0"/>
<path d="M759.38 221.00v18.20" class="stroke"/>
<path class="fill"
	d="M852.68 227.20l119.40 0.00v-3.20l-119.40 -0.00"/>
<use x="856.48" y="203.00" xlink:href="#hl"/>
<use x="856.48" y="203.00" xlink:href="#hd"/>
<use x="847.48" y="203.00" xlink:href="#sh0"/>
<path d="M852.98 203.00v23.20" class="stroke"/>
<use x="896.08" y="203.00" xlink:href="#hl"/>
<use x="896.08" y="197.00" xlink:href="#hl"/>
<use x="896.08" y="194.00" xlink:href="#hd"/>
<path d="M892.58 194.00v32.20" class="stroke"/>
<use x="935.58" y="203.00" xlink:href="#hl"/>
<use x="935.58" y="203.00" xlink:href="#hd"/>
<use x="926.58" y="203.00" xlink:href="#sh0"/>
<path d="M932.08 203.00v23.20" class="stroke"/>
<use x="975.18" y="209.00" xlink:href="#hd"/>
<use x="966.18" y="209.00" xlink:href="#sh0"/>
<path d="M971.68 209.00v17.20" class="stroke"/>
<defs>
<path id="utclef" class="fill" d="m-50 -90
	c-72 -41 -72 -158 52 -188
	150 -10 220 188 90 256
	-114 52 -275 0 -293 -136
	-15 -181 93 -229 220 -334
	88 -87 79 -133 62 -210
	-51 33 -94 105 -89 186
	17 267 36 374 49 574
	6 96 -19 134 -77 135
	-80 1 -126 -93 -61 -133
	85 -41 133 101 31 105
	23 17 92 37 90 -92
	-10 -223 -39 -342 -50 -617
	0 -90 0 -162 96 -232
	56 72 63 230 22 289
	-74 106 -257 168 -255 316
	9 153 148 185 252 133
	86 -65 29 -192 -80 -176
	-71 12 -105 67 -59 124"/>
<use id="stclef" transform="translate(0,5.4) scale(0.037)"
	xlink:href="#utclef"/>
</defs>
<use x="1009.18" y="227.00" xlink:href="#stclef"/>
<path class="fill"
	d="M1052.28 203.40l119.40 4.10v3.20l-119.40 -4.10"/>
<use x="1049.08" y="230.00" xlink:href="#hd"/>
<path d="M1052.58 230.00v-25.50" class="stroke"/>
<use x="1088.68" y="224.00" xlink:href="#hd"/>
<path d="M1092.18 224.00v-18.20" class="stroke"/>
<use x="1128.28" y="230.00" xlink:href="#hd"/>
<path d="M1131.78 230.00v-22.90" class="stroke"/>
<use x="1167.78" y="236.00" xlink:href="#hd"/>
<path d="M1171.28 236.00v-27.50" class="stroke"/>
</g>
<g stroke-width="0.70" style="font:bold 13.00px Times">
<path class="stroke" stroke-width="1"
	d="M10.00 419.00v-140.00"/>
<path class="stroke" stroke-width="1"
	d="M151.90 361.00v-24.00"/>
<path class="stroke" stroke-width="1"
	d="M151.90 419.00v-58.00"/>
<path class="stroke" stroke-width="1"
	d="M271.10 303.00v-24.00"/>
<path class="stroke" stroke-width="1"
	d="M271.10 361.00v-58.00"/>
<path class="stroke" stroke-width="1"
	d="M271.10 419.00v-58.00"/>
<path class="stroke" stroke-width="1"
	d="M287.10 303.00v-24.00"/>
<path class="stroke" stroke-width="1"
	d="M303.10 303.00v-24.00"/>
<path class="stroke" stroke-width="1"
	d="M319.10 303.00v-24.00"/>
<path class="stroke" stroke-width="1"
	d="M428.90 361.00v-24.00"/>
<path class="stroke" stroke-width="1"
	d="M428.90 419.00v-58.00"/>
<path class="stroke" stroke-width="1"
	d="M533.00 361.00v-24.00"/>
<path class="stroke" stroke-width="1"
	d="M533.00 419.00v-58.00"/>
<path class="stroke" stroke-width="1"
	d="M636.90 361.00v-24.00"/>
<path class="stroke" stroke-width="1"
	d="M636.90 419.00v-58.00"/>
<path class="stroke" stroke-width="1"
	d="M741.80 303.00v-24.00"/>
<path class="stroke" stroke-width="1"
	d="M741.80 361.00v-58.00"/>
<path class="stroke" stroke-width="1"
	d="M741.80 419.00v-58.00"/>
<path class="stroke" stroke-width="1"
	d="M757.80 303.00v-24.00"/>
<path class="stroke" stroke-width="1"
	d="M773.80 303.00v-24.00"/>
<path class="stroke" stroke-width="1"
	d="M789.80 303.00v-24.00"/>
<path class="stroke" stroke-width="1"
	d="M889.20 361.00v-24.00"/>
<path class="stroke" stroke-width="1"
	d="M889.20 419.00v-58.00"/>
<path class="stroke" stroke-width="1"
	d="M991.20 361.00v-24.00"/>
<path class="stroke" stroke-width="1"
	d="M991.20 419.00v-58.00"/>
<path class="stroke" stroke-width="1"
	d="M1096.10 361.00v-24.00"/>
<path class="stroke" stroke-width="1"
	d="M1096.10 419.00v-58.00"/>
<path class="stroke" stroke-width="1"
	d="M1198.60 303.00v-24.00"/>
<path class="stroke" stroke-width="1"
	d="M1198.60 361.00v-58.00"/>
<path class="stroke" stroke-width="1"
	d="M1198.60 419.00v-58.00"/>
<defs>
<g id="rdots" class="fill">
	<circle cx="0" cy="-9" r="1.2"/>
	<circle cx="0" cy="-15" r="1.2"/>
</g>
</defs>
<use x="1194.60" y="419.00" xlink:href="#rdots"/>
<path class="stroke" stroke-width="1"
	d="M1190.60 419.00v-58.00"/>
<path d="m10.00 303.00
	h1188.60
	M10.00 297.00
	h1188.60
	M10.00 291.00
	h1188.60
	M10.00 285.00
	h1188.60
	M10.00 279.00
	h1188.60
	" class="stroke"/>
<path d="m10.00 361.00
	h1188.60
	M10.00 355.00
	h1188.60
	M10.00 349.00
	h1188.60
	M10.00 343.00
	h1188.60
	M10.00 337.00
	h1188.60
	" class="stroke"/>
<path d="m10.00 419.00
	h1188.60
	M10.00 413.00
	h1188.60
	M10.00 407.00
	h1188.60
	M10.00 401.00
	h1188.60
	M10.00 395.00
	h1188.60
	" class="stroke"/>
<use x="22.00" y="285.00" xlink:href="#bclef"/>
<use x="37.00" y="285.00" xlink:href="#sh0"/>
<use x="42.50" y="294.00" xlink:href="#sh0"/>
<use x="345.40" y="291.00" xlink:href="#HDD"/>
<use x="329.60" y="291.00" xlink:href="#sh0"/>
<use x="804.80" y="294.00" xlink:href="#HDD"/>
<use x="22.00" y="343.00" xlink:href="#bclef"/>
<use x="37.00" y="343.00" xlink:href="#sh0"/>
<use x="42.50" y="352.00" xlink:href="#sh0"/>
<use x="67.50" y="337.00" xlink:href="#Hd"/>
<use x="57.50" y="337.00" xlink:href="#sh0"/>
<path d="M64.00 337.00v21.00" class="stroke"/>
<use x="170.40" y="340.00" xlink:href="#Hd"/>
<path d="M166.90 340.00v21.00" class="stroke"/>
<use x="344.40" y="343.00" xlink:href="#Hd"/>
<use x="334.40" y="343.00" xlink:href="#sh0"/>
<path d="M340.90 343.00v21.00" class="stroke"/>
<use x="448.40" y="337.00" xlink:href="#Hd"/>
<use x="438.40" y="337.00" xlink:href="#sh0"/>
<path d="M444.90 337.00v21.00" class="stroke"/>
<use x="552.50" y="343.00" xlink:href="#Hd"/>
<use x="542.50" y="343.00" xlink:href="#sh0"/>
<path d="M549.00 343.00v21.00" class="stroke"/>
<use x="656.40" y="349.00" xlink:href="#Hd"/>
<use x="646.40" y="349.00" xlink:href="#sh0"/>
<path d="M652.90 349.00v21.00" class="stroke"/>
<use x="803.80" y="349.00" xlink:href="#Hd"/>
<use x="793.80" y="349.00" xlink:href="#sh0"/>
<path d="M800.30 349.00v21.00" class="stroke"/>
<use x="907.70" y="340.00" xlink:href="#Hd"/>
<path d="M904.20 340.00v21.00" class="stroke"/>
<use x="1010.70" y="349.00" xlink:href="#Hd"/>
<use x="1000.70" y="349.00" xlink:href="#sh0"/>
<path d="M1007.20 349.00v21.00" class="stroke"/>
<use x="1114.60" y="352.00" xlink:href="#Hd"/>
<path d="M1118.10 352.00v-21.00" class="stroke"/>
<defs>
<use id="tclef" transform="translate(0,6) scale(0.045)"
	xlink:href="#utclef"/>
</defs>
<use x="22.00" y="413.00" xlink:href="#tclef"/>
<use x="37.00" y="395.00" xlink:href="#sh0"/>
<use x="42.50" y="404.00" xlink:href="#sh0"/>
<path class="fill"
	d="M70.70 398.10l67.70 0.00v3.20l-67.70 -0.00"/>
<use x="67.50" y="425.00" xlink:href="#hl"/>
<use x="67.50" y="425.00" xlink:href="#hd"/>
<use x="58.50" y="425.00" xlink:href="#sh0"/>
<path d="M71.00 425.00v-26.00" class="stroke"/>
<use x="89.20" y="416.00" xlink:href="#hd"/>
<path d="M92.70 416.00v-17.00" class="stroke"/>
<use x="111.80" y="425.00" xlink:href="#hl"/>
<use x="111.80" y="425.00" xlink:href="#hd"/>
<use x="102.80" y="425.00" xlink:href="#sh0"/>
<path d="M115.30 425.00v-26.00" class="stroke"/>
<use x="134.50" y="425.00" xlink:href="#hl"/>
<use x="134.50" y="431.00" xlink:href="#hl"/>
<use x="134.50" y="431.00" xlink:href="#hd"/>
<use x="125.50" y="431.00" xlink:href="#sh0"/>
<path d="M138.00 431.00v-32.00" class="stroke"/>
<path class="fill"
	d="M173.60 404.10l66.90 0.00v3.20l-66.90 -0.00"/>
<use x="170.40" y="425.00" xlink:href="#hl"/>
<use x="170.40" y="431.00" xlink:href="#hl"/>
<use x="170.40" y="431.00" xlink:href="#hd"/>
<use x="161.40" y="431.00" xlink:href="#sh0"/>
<path d="M173.90 431.00v-26.00" class="stroke"/>
<use x="192.10" y="422.00" xlink:href="#hd"/>
<path d="M195.60 422.00v-17.00" class="stroke"/>
<use x="214.80" y="425.00" xlink:href="#hl"/>
<use x="214.80" y="431.00" xlink:href="#hl"/>
<use x="214.80" y="431.00" xlink:href="#hd"/>
<use x="205.80" y="431.00" xlink:href="#sh0"/>
<path d="M218.30 431.00v-26.00" class="stroke"/>
<use x="236.60" y="425.00" xlink:href="#hl"/>
<use x="236.60" y="431.00" xlink:href="#hl"/>
<use x="236.60" y="434.00" xlink:href="#hd"/>
<path d="M240.10 434.00v-29.00" class="stroke"/>
<defs>
<use id="sbclef" transform="translate(0,14.5) scale(0.037)"
	xlink:href="#ubclef"/>
</defs>
<use x="253.10" y="401.00" xlink:href="#sbclef"/>
<path class="fill"
	d="M340.60 416.40l67.70 3.90v-3.20l-67.70 -3.90"/>
<use x="344.40" y="395.00" xlink:href="#hd"/>
<path d="M340.90 395.00v20.40" class="stroke"/>
<use x="367.10" y="389.00" xlink:href="#hl"/>
<use x="367.10" y="389.00" xlink:href="#hd"/>
<use x="358.10" y="389.00" xlink:href="#sh0"/>
<path d="M363.60 389.00v27.70" class="stroke"/>
<use x="388.80" y="395.00" xlink:href="#hd"/>
<path d="M385.30 395.00v22.90" class="stroke"/>
<use x="411.40" y="401.00" xlink:href="#hd"/>
<use x="402.40" y="401.00" xlink:href="#sh0"/>
<path d="M407.90 401.00v18.20" class="stroke"/>
<path class="fill"
	d="M444.50 413.20l67.80 0.00v-3.20l-67.80 -0.00"/>
<use x="448.40" y="389.00" xlink:href="#hl"/>
<use x="448.40" y="389.00" xlink:href="#hd"/>
<use x="439.40" y="389.00" xlink:href="#sh0"/>
<path d="M444.90 389.00v23.20" class="stroke"/>
<use x="470.20" y="389.00" xlink:href="#hl"/>
<use x="470.20" y="383.00" xlink:href="#hl"/>
<use x="470.20" y="380.00" xlink:href="#hd"/>
<path d="M466.70 380.00v32.20" class="stroke"/>
<use x="492.90" y="389.00" xlink:href="#hl"/>
<use x="492.90" y="389.00" xlink:href="#hd"/>
<use x="483.90" y="389.00" xlink:href="#sh0"/>
<path d="M489.40 389.00v23.20" class="stroke"/>
<use x="515.50" y="395.00" xlink:href="#hd"/>
<use x="506.50" y="395.00" xlink:href="#sh0"/>
<path d="M512.00 395.00v17.20" class="stroke"/>
<path class="fill"
	d="M548.60 416.40l67.70 3.90v-3.20l-67.70 -3.90"/>
<use x="552.50" y="395.00" xlink:href="#hd"/>
<path d="M549.00 395.00v20.40" class="stroke"/>
<use x="575.10" y="389.00" xlink:href="#hl"/>
<use x="575.10" y="389.00" xlink:href="#hd"/>
<use x="566.10" y="389.00" xlink:href="#sh0"/>
<path d="M571.60 389.00v27.70" class="stroke"/>
<use x="596.80" y="395.00" xlink:href="#hd"/>
<path d="M593.30 395.00v22.90" class="stroke"/>
<use x="619.50" y="401.00" xlink:href="#hd"/>
<use x="610.50" y="401.00" xlink:href="#sh0"/>
<path d="M616.00 401.00v18.20" class="stroke"/>
<path class="fill"
	d="M652.60 422.30l68.60 3.90v-3.20l-68.60 -3.90"/>
<use x="656.40" y="401.00" xlink:href="#hd"/>
<use x="647.40" y="401.00" xlink:href="#sh0"/>
<path d="M652.90 401.00v20.40" class="stroke"/>
<use x="679.10" y="395.00" xlink:href="#hd"/>
<use x="670.10" y="395.00" xlink:href="#sh0"/>
<path d="M675.60 395.00v27.60" class="stroke"/>
<use x="701.70" y="401.00" xlink:href="#hd"/>
<use x="692.70" y="401.00" xlink:href="#sh0"/>
<path d="M698.20 401.00v22.90" class="stroke"/>
<use x="724.40" y="407.00" xlink:href="#hd"/>
<use x="715.40" y="407.00" xlink:href="#sh0"/>
<path d="M720.90 407.00v18.20" class="stroke"/>
<path class="fill"
	d="M800.00 422.30l68.60 3.90v-3.20l-68.60 -3.90"/>
<use x="803.80" y="401.00" xlink:href="#hd"/>
<use x="794.80" y="401.00" xlink:href="#sh0"/>
<path d="M800.30 401.00v20.40" class="stroke"/>
<use x="826.50" y="395.00" xlink:href="#hd"/>
<use x="817.50" y="395.00" xlink:href="#sh0"/>
<path d="M823.00 395.00v27.60" class="stroke"/>
<use x="849.10" y="401.00" xlink:href="#hd"/>
<use x="840.10" y="401.00" xlink:href="#sh0"/>
<path d="M845.60 401.00v22.90" class="stroke"/>
<use x="871.70" y="407.00" xlink:href="#hd"/>
<use x="862.70" y="407.00" xlink:href="#sh0"/>
<path d="M868.20 407.00v18.20" class="stroke"/>
<path class="fill"
	d="M903.90 415.90l66.70 0.00v-3.20l-66.70 -0.00"/>
<use x="907.70" y="395.00" xlink:href="#hd"/>
<use x="898.70" y="395.00" xlink:href="#sh0"/>
<path d="M904.20 395.00v20.00" class="stroke"/>
<use x="929.40" y="389.00" xlink:href="#hl"/>
<use x="929.40" y="386.00" xlink:href="#hd"/>
<path d="M925.90 386.00v29.00" class="stroke"/>
<use x="952.00" y="395.00" xlink:href="#hd"/>
<use x="943.00" y="395.00" xlink:href="#sh0"/>
<path d="M948.50 395.00v20.00" class="stroke"/>
<use x="973.70" y="398.00" xlink:href="#hd"/>
<path d="M970.20 398.00v17.00" class="stroke"/>
<path class="fill"
	d="M1006.80 422.30l68.60 3.90v-3.20l-68.60 -3.90"/>
<use x="1010.70" y="401.00" xlink:href="#hd"/>
<use x="1001.70" y="401.00" xlink:href="#sh0"/>
<path d="M1007.20 401.00v20.40" class="stroke"/>
<use x="1033.30" y="395.00" xlink:href="#hd"/>
<use x="1024.30" y="395.00" xlink:href="#sh0"/>
<path d="M1029.80 395.00v27.60" class="stroke"/>
<use x="1056.00" y="401.00" xlink:href="#hd"/>
<use x="1047.00" y="401.00" xlink:href="#sh0"/>
<path d="M1052.50 401.00v22.90" class="stroke"/>
<use x="1078.60" y="407.00" xlink:href="#hd"/>
<use x="1069.60" y="407.00" xlink:href="#sh0"/>
<path d="M1075.10 407.00v18.20" class="stroke"/>
<path class="fill"
	d="M1110.70 429.20l66.70 0.00v-3.20l-66.70 -0.00"/>
<use x="1114.60" y="407.00" xlink:href="#hd"/>
<use x="1105.60" y="407.00" xlink:href="#sh0"/>
<path d="M1111.10 407.00v21.20" class="stroke"/>
<use x="1136.30" y="398.00" xlink:href="#hd"/>
<path d="M1132.80 398.00v30.20" class="stroke"/>
<use x="1158.90" y="407.00" xlink:href="#hd"/>
<use x="1149.90" y="407.00" xlink:href="#sh0"/>
<path d="M1155.40 407.00v21.20" class="stroke"/>
<use x="1180.60" y="410.00" xlink:href="#hd"/>
<path d="M1177.10 410.00v18.20" class="stroke"/>
</g>
</svg>
