<?xml version="1.0" standalone="no"?>
<!DOCTYPE svg PUBLIC "-//W3C//DTD SVG 1.1//EN"
	"http://www.w3.org/Graphics/SVG/1.1/DTD/svg11.dtd">
<svg xmlns="http://www.w3.org/2000/svg" version="1.1"
	xmlns:xlink="http://www.w3.org/1999/xlink"
	color="black"
	width="1208.60px" height="442.00px">
<style type="text/css">
.fill {fill: currentColor}
.stroke {stroke: currentColor; fill: none}
text{white-space: pre}
</style>
<title>../src/torus/title_no_12_page_1.abc (2) tune 1</title>
<!-- Creator: abcm2ps-8.14.6 -->
<!-- CreationDate: Jan 11, 2023 20:08 -->
<!-- CommandLine: -g ../src/torus/title_no_12_page_1.abc -O ../src/torus/title_no_12_page_1.svg -->
<g stroke-width="0.70" style="font:italic 14.00px Times">
<text x="10.00" y="28.00">Procedurally Generated</text>
<!-- title: Torus:Taurus Tune -->
</g>
<g stroke-width="0.70" style="font:20.00px Times">
<text x="604.30" y="28.00" text-anchor="middle">Torus:Taurus Tune</text>
</g>
<g stroke-width="0.70" style="font:italic 14.00px Times">
<text x="1198.60" y="28.00" text-anchor="end">(Sid.)</text>
<text x="1198.60" y="43.40" text-anchor="end">Jeff Minter</text>
<!-- subtitle: 12 of 100,000,000,000,000 -->
</g>
<g stroke-width="0.70" style="font:16.00px Times">
<text x="604.30" y="64.00" text-anchor="middle">12 of 100,000,000,000,000</text>
</g>
<g stroke-width="0.70" style="font:bold 13.00px Times">
<text x="38.28" y="224.90" text-anchor="middle">Voice 3</text>
<text x="38.28" y="166.90" text-anchor="middle">Voice 2</text>
<text x="38.28" y="108.90" text-anchor="middle">Voice 1</text>
<path class="stroke" stroke-width="1"
	d="M66.48 233.00v-140.00"/>
<path class="stroke" stroke-width="1"
	d="M257.78 175.00v-24.00"/>
<path class="stroke" stroke-width="1"
	d="M257.78 233.00v-58.00"/>
<path class="stroke" stroke-width="1"
	d="M406.28 175.00v-24.00"/>
<path class="stroke" stroke-width="1"
	d="M406.28 233.00v-58.00"/>
<path class="stroke" stroke-width="1"
	d="M553.08 175.00v-24.00"/>
<path class="stroke" stroke-width="1"
	d="M553.08 233.00v-58.00"/>
<path class="stroke" stroke-width="1"
	d="M701.58 117.00v-24.00"/>
<path class="stroke" stroke-width="1"
	d="M701.58 175.00v-58.00"/>
<path class="stroke" stroke-width="1"
	d="M701.58 233.00v-58.00"/>
<path class="stroke" stroke-width="1"
	d="M717.58 117.00v-24.00"/>
<path class="stroke" stroke-width="1"
	d="M733.58 117.00v-24.00"/>
<path class="stroke" stroke-width="1"
	d="M749.58 117.00v-24.00"/>
<path class="stroke" stroke-width="1"
	d="M903.28 175.00v-24.00"/>
<path class="stroke" stroke-width="1"
	d="M903.28 233.00v-58.00"/>
<path class="stroke" stroke-width="1"
	d="M1050.18 175.00v-24.00"/>
<path class="stroke" stroke-width="1"
	d="M1050.18 233.00v-58.00"/>
<path class="stroke" stroke-width="1"
	d="M1198.58 175.00v-24.00"/>
<path class="stroke" stroke-width="1"
	d="M1198.58 233.00v-58.00"/>
<path d="m66.48 117.00
	h1132.10
	M66.48 111.00
	h1132.10
	M66.48 105.00
	h1132.10
	M66.48 99.00
	h1132.10
	M66.48 93.00
	h1132.10
	" class="stroke"/>
<path d="m66.48 175.00
	h1132.10
	M66.48 169.00
	h1132.10
	M66.48 163.00
	h1132.10
	M66.48 157.00
	h1132.10
	M66.48 151.00
	h1132.10
	" class="stroke"/>
<path d="m66.48 233.00
	h1132.10
	M66.48 227.00
	h1132.10
	M66.48 221.00
	h1132.10
	M66.48 215.00
	h1132.10
	M66.48 209.00
	h1132.10
	" class="stroke"/>
<defs>
<path id="ubclef" class="fill" d="m-200 -87
	c124 -35 222 -78 254 -236
	43 -228 -167 -246 -192 -103
	59 -80 157 22 92 78
	-62 47 -115 -22 -106 -88
	21 -141 270 -136 274 52
	-1 175 -106 264 -322 297
	m357 -250
	c0 -36 51 -34 51 0
	0 37 -51 36 -51 0
	m-2 -129
	c0 -36 51 -34 51 0
	0 38 -51 37 -51 0"/>
<use id="bclef" transform="translate(0,18) scale(0.045)"
	xlink:href="#ubclef"/>
</defs>
<use x="78.48" y="99.00" xlink:href="#bclef"/>
<defs>
<path id="usharp" class="fill" d="
	m136 -702
	v890
	h32
	v-890
	m128 840
	h32
	v-888
	h-32
	m-232 286
	v116
	l338 -96
	v-116
	m-338 442
	v116
	l338 -98
	v-114"/>
<use id="sh0" transform="translate(-4,5) scale(0.018)"
	xlink:href="#usharp"/>
</defs>
<use x="93.48" y="99.00" xlink:href="#sh0"/>
<use x="98.98" y="108.00" xlink:href="#sh0"/>
<defs>
<path id="HD" class="fill" d="m-2.7 -1.4
	c1.5 -2.8 6.9 0 5.3 2.7
	-1.5 2.8 -6.9 0 -5.3 -2.7
	m8.3 1.4
	c0 -1.5 -2.2 -3 -5.6 -3
	-3.4 0 -5.6 1.5 -5.6 3
	0 1.5 2.2 3 5.6 3
	3.4 0 5.6 -1.5 5.6 -3"/>
<g id="HDD">
	<use xlink:href="#HD"/>
	<path d="m-6 -4v8m12 0v-8" class="stroke"/>
</g>
</defs>
<use x="130.78" y="93.00" xlink:href="#HDD"/>
<use x="114.98" y="93.00" xlink:href="#sh0"/>
<use x="776.28" y="99.00" xlink:href="#HDD"/>
<use x="760.48" y="99.00" xlink:href="#sh0"/>
<defs>
<path id="utclef" class="fill" d="m-50 -90
	c-72 -41 -72 -158 52 -188
	150 -10 220 188 90 256
	-114 52 -275 0 -293 -136
	-15 -181 93 -229 220 -334
	88 -87 79 -133 62 -210
	-51 33 -94 105 -89 186
	17 267 36 374 49 574
	6 96 -19 134 -77 135
	-80 1 -126 -93 -61 -133
	85 -41 133 101 31 105
	23 17 92 37 90 -92
	-10 -223 -39 -342 -50 -617
	0 -90 0 -162 96 -232
	56 72 63 230 22 289
	-74 106 -257 168 -255 316
	9 153 148 185 252 133
	86 -65 29 -192 -80 -176
	-71 12 -105 67 -59 124"/>
<use id="tclef" transform="translate(0,6) scale(0.045)"
	xlink:href="#utclef"/>
</defs>
<use x="78.48" y="169.00" xlink:href="#tclef"/>
<use x="93.48" y="151.00" xlink:href="#sh0"/>
<use x="98.98" y="160.00" xlink:href="#sh0"/>
<defs>
<path id="Hd" class="fill" d="m3 -1.6
	c-1 -1.8 -7 1.4 -6 3.2
	1 1.8 7 -1.4 6 -3.2
	m0.5 -0.3
	c2 3.8 -5 7.6 -7 3.8
	-2 -3.8 5 -7.6 7 -3.8"/>
</defs>
<use x="129.78" y="172.00" xlink:href="#Hd"/>
<path d="M133.28 172.00v-21.00" class="stroke"/>
<defs>
<path id="hl" class="stroke" d="m-6 0h12"/>
</defs>
<use x="278.28" y="181.00" xlink:href="#hl"/>
<use x="278.28" y="181.00" xlink:href="#Hd"/>
<use x="268.28" y="181.00" xlink:href="#sh0"/>
<path d="M281.78 181.00v-21.00" class="stroke"/>
<use x="425.08" y="172.00" xlink:href="#Hd"/>
<path d="M428.58 172.00v-21.00" class="stroke"/>
<use x="573.58" y="166.00" xlink:href="#Hd"/>
<use x="563.58" y="166.00" xlink:href="#sh0"/>
<path d="M577.08 166.00v-21.00" class="stroke"/>
<use x="775.28" y="181.00" xlink:href="#hl"/>
<use x="775.28" y="181.00" xlink:href="#Hd"/>
<use x="765.28" y="181.00" xlink:href="#sh0"/>
<path d="M778.78 181.00v-21.00" class="stroke"/>
<use x="922.18" y="181.00" xlink:href="#hl"/>
<use x="922.18" y="187.00" xlink:href="#hl"/>
<use x="922.18" y="187.00" xlink:href="#Hd"/>
<path d="M925.68 187.00v-24.00" class="stroke"/>
<use x="1070.58" y="181.00" xlink:href="#hl"/>
<use x="1070.58" y="181.00" xlink:href="#Hd"/>
<use x="1060.58" y="181.00" xlink:href="#sh0"/>
<path d="M1074.08 181.00v-21.00" class="stroke"/>
<use x="78.48" y="227.00" xlink:href="#tclef"/>
<use x="93.48" y="209.00" xlink:href="#sh0"/>
<use x="98.98" y="218.00" xlink:href="#sh0"/>
<path class="fill"
	d="M125.98 248.10l102.30 -5.80v-3.20l-102.30 5.80"/>
<defs>
<ellipse id="hd" rx="4.1" ry="2.9"
	transform="rotate(-20)" class="fill"/>
</defs>
<use x="129.78" y="218.00" xlink:href="#hd"/>
<path d="M126.28 218.00v29.10" class="stroke"/>
<use x="163.68" y="227.00" xlink:href="#hd"/>
<use x="154.68" y="227.00" xlink:href="#sh0"/>
<path d="M160.18 227.00v18.20" class="stroke"/>
<use x="197.58" y="218.00" xlink:href="#hd"/>
<path d="M194.08 218.00v25.30" class="stroke"/>
<use x="231.38" y="209.00" xlink:href="#hd"/>
<path d="M227.88 209.00v32.40" class="stroke"/>
<path class="fill"
	d="M281.38 204.10l102.30 -5.40v3.20l-102.30 5.40"/>
<use x="278.28" y="227.00" xlink:href="#hd"/>
<use x="269.28" y="227.00" xlink:href="#sh0"/>
<path d="M281.78 227.00v-21.90" class="stroke"/>
<use x="312.08" y="233.00" xlink:href="#hd"/>
<path d="M315.58 233.00v-29.70" class="stroke"/>
<use x="345.98" y="227.00" xlink:href="#hd"/>
<use x="336.98" y="227.00" xlink:href="#sh0"/>
<path d="M349.48 227.00v-25.40" class="stroke"/>
<use x="379.88" y="218.00" xlink:href="#hd"/>
<use x="370.88" y="218.00" xlink:href="#sh0"/>
<path d="M383.38 218.00v-18.20" class="stroke"/>
<path class="fill"
	d="M421.18 248.10l102.30 -5.80v-3.20l-102.30 5.80"/>
<use x="425.08" y="218.00" xlink:href="#hd"/>
<path d="M421.58 218.00v29.10" class="stroke"/>
<use x="458.98" y="227.00" xlink:href="#hd"/>
<use x="449.98" y="227.00" xlink:href="#sh0"/>
<path d="M455.48 227.00v18.20" class="stroke"/>
<use x="492.88" y="218.00" xlink:href="#hd"/>
<path d="M489.38 218.00v25.30" class="stroke"/>
<use x="526.68" y="209.00" xlink:href="#hd"/>
<path d="M523.18 209.00v32.40" class="stroke"/>
<path class="fill"
	d="M569.68 238.70l102.30 -4.50v-3.20l-102.30 4.50"/>
<use x="573.58" y="209.00" xlink:href="#hd"/>
<path d="M570.08 209.00v28.70" class="stroke"/>
<use x="607.38" y="218.00" xlink:href="#hd"/>
<use x="598.38" y="218.00" xlink:href="#sh0"/>
<path d="M603.88 218.00v18.20" class="stroke"/>
<use x="641.28" y="209.00" xlink:href="#hd"/>
<path d="M637.78 209.00v25.70" class="stroke"/>
<use x="675.18" y="203.00" xlink:href="#hl"/>
<use x="675.18" y="203.00" xlink:href="#hd"/>
<use x="666.18" y="203.00" xlink:href="#sh0"/>
<path d="M671.68 203.00v30.20" class="stroke"/>
<path class="fill"
	d="M778.48 204.10l102.30 -5.40v3.20l-102.30 5.40"/>
<use x="775.28" y="227.00" xlink:href="#hd"/>
<use x="766.28" y="227.00" xlink:href="#sh0"/>
<path d="M778.78 227.00v-21.90" class="stroke"/>
<use x="809.18" y="233.00" xlink:href="#hd"/>
<path d="M812.68 233.00v-29.70" class="stroke"/>
<use x="843.08" y="227.00" xlink:href="#hd"/>
<use x="834.08" y="227.00" xlink:href="#sh0"/>
<path d="M846.58 227.00v-25.40" class="stroke"/>
<use x="876.98" y="218.00" xlink:href="#hd"/>
<use x="867.98" y="218.00" xlink:href="#sh0"/>
<path d="M880.48 218.00v-18.20" class="stroke"/>
<path class="fill"
	d="M925.28 210.10l102.30 -5.40v3.20l-102.30 5.40"/>
<use x="922.18" y="233.00" xlink:href="#hd"/>
<path d="M925.68 233.00v-21.90" class="stroke"/>
<use x="955.98" y="239.00" xlink:href="#hl"/>
<use x="955.98" y="239.00" xlink:href="#hd"/>
<path d="M959.48 239.00v-29.70" class="stroke"/>
<use x="989.88" y="233.00" xlink:href="#hd"/>
<path d="M993.38 233.00v-25.40" class="stroke"/>
<use x="1023.78" y="224.00" xlink:href="#hd"/>
<path d="M1027.28 224.00v-18.20" class="stroke"/>
<path class="fill"
	d="M1073.78 204.10l102.30 -5.40v3.20l-102.30 5.40"/>
<use x="1070.58" y="227.00" xlink:href="#hd"/>
<use x="1061.58" y="227.00" xlink:href="#sh0"/>
<path d="M1074.08 227.00v-21.90" class="stroke"/>
<use x="1104.48" y="233.00" xlink:href="#hd"/>
<path d="M1107.98 233.00v-29.70" class="stroke"/>
<use x="1138.38" y="227.00" xlink:href="#hd"/>
<use x="1129.38" y="227.00" xlink:href="#sh0"/>
<path d="M1141.88 227.00v-25.40" class="stroke"/>
<use x="1172.28" y="218.00" xlink:href="#hd"/>
<use x="1163.28" y="218.00" xlink:href="#sh0"/>
<path d="M1175.78 218.00v-18.20" class="stroke"/>
</g>
<g stroke-width="0.70" style="font:bold 13.00px Times">
<path class="stroke" stroke-width="1"
	d="M10.00 419.00v-140.00"/>
<path class="stroke" stroke-width="1"
	d="M164.50 303.00v-24.00"/>
<path class="stroke" stroke-width="1"
	d="M164.50 361.00v-58.00"/>
<path class="stroke" stroke-width="1"
	d="M164.50 419.00v-58.00"/>
<path class="stroke" stroke-width="1"
	d="M180.50 303.00v-24.00"/>
<path class="stroke" stroke-width="1"
	d="M196.50 303.00v-24.00"/>
<path class="stroke" stroke-width="1"
	d="M212.50 303.00v-24.00"/>
<path class="stroke" stroke-width="1"
	d="M334.70 361.00v-24.00"/>
<path class="stroke" stroke-width="1"
	d="M334.70 419.00v-58.00"/>
<path class="stroke" stroke-width="1"
	d="M451.20 361.00v-24.00"/>
<path class="stroke" stroke-width="1"
	d="M451.20 419.00v-58.00"/>
<path class="stroke" stroke-width="1"
	d="M562.40 361.00v-24.00"/>
<path class="stroke" stroke-width="1"
	d="M562.40 419.00v-58.00"/>
<path class="stroke" stroke-width="1"
	d="M678.90 303.00v-24.00"/>
<path class="stroke" stroke-width="1"
	d="M678.90 361.00v-58.00"/>
<path class="stroke" stroke-width="1"
	d="M678.90 419.00v-58.00"/>
<path class="stroke" stroke-width="1"
	d="M694.90 303.00v-24.00"/>
<path class="stroke" stroke-width="1"
	d="M710.90 303.00v-24.00"/>
<path class="stroke" stroke-width="1"
	d="M726.90 303.00v-24.00"/>
<path class="stroke" stroke-width="1"
	d="M849.20 361.00v-24.00"/>
<path class="stroke" stroke-width="1"
	d="M849.20 419.00v-58.00"/>
<path class="stroke" stroke-width="1"
	d="M965.60 361.00v-24.00"/>
<path class="stroke" stroke-width="1"
	d="M965.60 419.00v-58.00"/>
<path class="stroke" stroke-width="1"
	d="M1082.10 361.00v-24.00"/>
<path class="stroke" stroke-width="1"
	d="M1082.10 419.00v-58.00"/>
<path class="stroke" stroke-width="1"
	d="M1198.60 303.00v-24.00"/>
<path class="stroke" stroke-width="1"
	d="M1198.60 361.00v-58.00"/>
<path class="stroke" stroke-width="1"
	d="M1198.60 419.00v-58.00"/>
<defs>
<g id="rdots" class="fill">
	<circle cx="0" cy="-9" r="1.2"/>
	<circle cx="0" cy="-15" r="1.2"/>
</g>
</defs>
<use x="1194.60" y="419.00" xlink:href="#rdots"/>
<path class="stroke" stroke-width="1"
	d="M1190.60 419.00v-58.00"/>
<path d="m10.00 303.00
	h1188.60
	M10.00 297.00
	h1188.60
	M10.00 291.00
	h1188.60
	M10.00 285.00
	h1188.60
	M10.00 279.00
	h1188.60
	" class="stroke"/>
<path d="m10.00 361.00
	h1188.60
	M10.00 355.00
	h1188.60
	M10.00 349.00
	h1188.60
	M10.00 343.00
	h1188.60
	M10.00 337.00
	h1188.60
	" class="stroke"/>
<path d="m10.00 419.00
	h1188.60
	M10.00 413.00
	h1188.60
	M10.00 407.00
	h1188.60
	M10.00 401.00
	h1188.60
	M10.00 395.00
	h1188.60
	" class="stroke"/>
<use x="22.00" y="285.00" xlink:href="#bclef"/>
<use x="37.00" y="285.00" xlink:href="#sh0"/>
<use x="42.50" y="294.00" xlink:href="#sh0"/>
<use x="238.80" y="279.00" xlink:href="#HDD"/>
<use x="223.00" y="279.00" xlink:href="#sh0"/>
<defs>
<path id="hl1" class="stroke" d="m-7 0h14"/>
</defs>
<use x="753.20" y="273.00" xlink:href="#hl1"/>
<use x="753.20" y="270.00" xlink:href="#HDD"/>
<use x="737.40" y="270.00" xlink:href="#sh0"/>
<use x="22.00" y="355.00" xlink:href="#tclef"/>
<use x="37.00" y="337.00" xlink:href="#sh0"/>
<use x="42.50" y="346.00" xlink:href="#sh0"/>
<use x="67.50" y="358.00" xlink:href="#Hd"/>
<use x="57.50" y="358.00" xlink:href="#sh0"/>
<path d="M71.00 358.00v-21.00" class="stroke"/>
<use x="237.80" y="358.00" xlink:href="#Hd"/>
<path d="M241.30 358.00v-21.00" class="stroke"/>
<use x="354.20" y="367.00" xlink:href="#hl"/>
<use x="354.20" y="367.00" xlink:href="#Hd"/>
<use x="344.20" y="367.00" xlink:href="#sh0"/>
<path d="M357.70 367.00v-21.00" class="stroke"/>
<use x="465.50" y="358.00" xlink:href="#Hd"/>
<path d="M469.00 358.00v-21.00" class="stroke"/>
<use x="581.90" y="352.00" xlink:href="#Hd"/>
<use x="571.90" y="352.00" xlink:href="#sh0"/>
<path d="M585.40 352.00v-21.00" class="stroke"/>
<use x="752.20" y="352.00" xlink:href="#Hd"/>
<use x="742.20" y="352.00" xlink:href="#sh0"/>
<path d="M755.70 352.00v-21.00" class="stroke"/>
<use x="868.70" y="358.00" xlink:href="#Hd"/>
<use x="858.70" y="358.00" xlink:href="#sh0"/>
<path d="M872.20 358.00v-21.00" class="stroke"/>
<use x="985.20" y="352.00" xlink:href="#Hd"/>
<use x="975.20" y="352.00" xlink:href="#sh0"/>
<path d="M988.70 352.00v-21.00" class="stroke"/>
<use x="1101.60" y="343.00" xlink:href="#Hd"/>
<use x="1091.60" y="343.00" xlink:href="#sh0"/>
<path d="M1098.10 343.00v21.00" class="stroke"/>
<use x="22.00" y="413.00" xlink:href="#tclef"/>
<use x="37.00" y="395.00" xlink:href="#sh0"/>
<use x="42.50" y="404.00" xlink:href="#sh0"/>
<path class="fill"
	d="M63.70 430.90l77.70 -5.20v-3.20l-77.70 5.20"/>
<use x="67.50" y="404.00" xlink:href="#hd"/>
<use x="58.50" y="404.00" xlink:href="#sh0"/>
<path d="M64.00 404.00v25.90" class="stroke"/>
<use x="93.20" y="410.00" xlink:href="#hd"/>
<path d="M89.70 410.00v18.20" class="stroke"/>
<use x="118.80" y="404.00" xlink:href="#hd"/>
<use x="109.80" y="404.00" xlink:href="#sh0"/>
<path d="M115.30 404.00v22.50" class="stroke"/>
<use x="144.50" y="395.00" xlink:href="#hd"/>
<use x="135.50" y="395.00" xlink:href="#sh0"/>
<path d="M141.00 395.00v29.80" class="stroke"/>
<path class="fill"
	d="M233.90 434.10l77.70 -5.60v-3.20l-77.70 5.60"/>
<use x="237.80" y="404.00" xlink:href="#hd"/>
<path d="M234.30 404.00v29.00" class="stroke"/>
<use x="263.40" y="413.00" xlink:href="#hd"/>
<use x="254.40" y="413.00" xlink:href="#sh0"/>
<path d="M259.90 413.00v18.20" class="stroke"/>
<use x="289.10" y="404.00" xlink:href="#hd"/>
<path d="M285.60 404.00v25.40" class="stroke"/>
<use x="314.80" y="395.00" xlink:href="#hd"/>
<path d="M311.30 395.00v32.50" class="stroke"/>
<path class="fill"
	d="M357.40 390.00l77.70 -5.20v3.20l-77.70 5.20"/>
<use x="354.20" y="413.00" xlink:href="#hd"/>
<use x="345.20" y="413.00" xlink:href="#sh0"/>
<path d="M357.70 413.00v-22.10" class="stroke"/>
<use x="379.90" y="419.00" xlink:href="#hd"/>
<path d="M383.40 419.00v-29.80" class="stroke"/>
<use x="405.60" y="413.00" xlink:href="#hd"/>
<use x="396.60" y="413.00" xlink:href="#sh0"/>
<path d="M409.10 413.00v-25.50" class="stroke"/>
<use x="431.20" y="404.00" xlink:href="#hd"/>
<use x="422.20" y="404.00" xlink:href="#sh0"/>
<path d="M434.70 404.00v-18.20" class="stroke"/>
<path class="fill"
	d="M461.60 434.10l77.70 -5.60v-3.20l-77.70 5.60"/>
<use x="465.50" y="404.00" xlink:href="#hd"/>
<path d="M462.00 404.00v29.00" class="stroke"/>
<use x="491.10" y="413.00" xlink:href="#hd"/>
<use x="482.10" y="413.00" xlink:href="#sh0"/>
<path d="M487.60 413.00v18.20" class="stroke"/>
<use x="516.80" y="404.00" xlink:href="#hd"/>
<path d="M513.30 404.00v25.40" class="stroke"/>
<use x="542.50" y="395.00" xlink:href="#hd"/>
<path d="M539.00 395.00v32.50" class="stroke"/>
<path class="fill"
	d="M578.10 424.70l77.70 -4.40v-3.20l-77.70 4.40"/>
<use x="581.90" y="395.00" xlink:href="#hd"/>
<path d="M578.40 395.00v28.60" class="stroke"/>
<use x="607.60" y="404.00" xlink:href="#hd"/>
<use x="598.60" y="404.00" xlink:href="#sh0"/>
<path d="M604.10 404.00v18.20" class="stroke"/>
<use x="633.30" y="395.00" xlink:href="#hd"/>
<path d="M629.80 395.00v25.80" class="stroke"/>
<use x="658.90" y="389.00" xlink:href="#hl"/>
<use x="658.90" y="389.00" xlink:href="#hd"/>
<use x="649.90" y="389.00" xlink:href="#sh0"/>
<path d="M655.40 389.00v30.30" class="stroke"/>
<path class="fill"
	d="M748.40 424.70l77.70 -4.40v-3.20l-77.70 4.40"/>
<use x="752.20" y="395.00" xlink:href="#hd"/>
<path d="M748.70 395.00v28.60" class="stroke"/>
<use x="777.90" y="404.00" xlink:href="#hd"/>
<use x="768.90" y="404.00" xlink:href="#sh0"/>
<path d="M774.40 404.00v18.20" class="stroke"/>
<use x="803.50" y="395.00" xlink:href="#hd"/>
<path d="M800.00 395.00v25.80" class="stroke"/>
<use x="829.20" y="389.00" xlink:href="#hl"/>
<use x="829.20" y="389.00" xlink:href="#hd"/>
<use x="820.20" y="389.00" xlink:href="#sh0"/>
<path d="M825.70 389.00v30.30" class="stroke"/>
<path class="fill"
	d="M864.80 430.90l77.70 -5.20v-3.20l-77.70 5.20"/>
<use x="868.70" y="404.00" xlink:href="#hd"/>
<use x="859.70" y="404.00" xlink:href="#sh0"/>
<path d="M865.20 404.00v25.90" class="stroke"/>
<use x="894.40" y="410.00" xlink:href="#hd"/>
<path d="M890.90 410.00v18.20" class="stroke"/>
<use x="920.00" y="404.00" xlink:href="#hd"/>
<use x="911.00" y="404.00" xlink:href="#sh0"/>
<path d="M916.50 404.00v22.50" class="stroke"/>
<use x="945.70" y="395.00" xlink:href="#hd"/>
<use x="936.70" y="395.00" xlink:href="#sh0"/>
<path d="M942.20 395.00v29.80" class="stroke"/>
<path class="fill"
	d="M981.30 424.70l77.70 -4.40v-3.20l-77.70 4.40"/>
<use x="985.20" y="395.00" xlink:href="#hd"/>
<path d="M981.70 395.00v28.60" class="stroke"/>
<use x="1010.80" y="404.00" xlink:href="#hd"/>
<use x="1001.80" y="404.00" xlink:href="#sh0"/>
<path d="M1007.30 404.00v18.20" class="stroke"/>
<use x="1036.50" y="395.00" xlink:href="#hd"/>
<path d="M1033.00 395.00v25.80" class="stroke"/>
<use x="1062.20" y="389.00" xlink:href="#hl"/>
<use x="1062.20" y="389.00" xlink:href="#hd"/>
<use x="1053.20" y="389.00" xlink:href="#sh0"/>
<path d="M1058.70 389.00v30.30" class="stroke"/>
<path class="fill"
	d="M1097.80 413.20l77.70 0.00v-3.20l-77.70 -0.00"/>
<use x="1101.60" y="389.00" xlink:href="#hl"/>
<use x="1101.60" y="389.00" xlink:href="#hd"/>
<use x="1092.60" y="389.00" xlink:href="#sh0"/>
<path d="M1098.10 389.00v23.20" class="stroke"/>
<use x="1127.30" y="395.00" xlink:href="#hd"/>
<use x="1118.30" y="395.00" xlink:href="#sh0"/>
<path d="M1123.80 395.00v17.20" class="stroke"/>
<use x="1153.00" y="389.00" xlink:href="#hl"/>
<use x="1153.00" y="389.00" xlink:href="#hd"/>
<use x="1144.00" y="389.00" xlink:href="#sh0"/>
<path d="M1149.50 389.00v23.20" class="stroke"/>
<use x="1178.60" y="389.00" xlink:href="#hl"/>
<use x="1178.60" y="383.00" xlink:href="#hl"/>
<use x="1178.60" y="380.00" xlink:href="#hd"/>
<use x="1169.60" y="380.00" xlink:href="#sh0"/>
<path d="M1175.10 380.00v32.20" class="stroke"/>
</g>
</svg>
